<svg width="285" height="298" viewBox="0 0 285 298" fill="none" xmlns="http://www.w3.org/2000/svg">
<rect width="285" height="297.216" rx="8" fill="black"/>
<rect x="10" y="9.97363" width="266" height="277.268" rx="8" fill="#694E58"/>
<path d="M21.96 39.9473V25.9473H30.78V28.0273H24.12V37.8673H30.78V39.9473H21.96ZM22.94 33.8073V31.7273H29.68V33.8073H22.94ZM38.2298 44.5473C37.4832 44.5473 36.7365 44.4273 35.9898 44.1873C35.2565 43.9606 34.6632 43.6606 34.2098 43.2873L34.9698 41.6873C35.2365 41.8873 35.5498 42.0606 35.9098 42.2073C36.2698 42.3673 36.6498 42.4873 37.0498 42.5673C37.4498 42.6606 37.8432 42.7073 38.2298 42.7073C38.9632 42.7073 39.5765 42.5873 40.0698 42.3473C40.5632 42.1073 40.9365 41.7539 41.1898 41.2873C41.4432 40.8206 41.5698 40.2406 41.5698 39.5473V37.5273L41.7898 37.6673C41.7232 38.0806 41.5032 38.4806 41.1298 38.8673C40.7698 39.2406 40.3165 39.5473 39.7698 39.7873C39.2232 40.0273 38.6632 40.1473 38.0898 40.1473C37.0898 40.1473 36.1965 39.9139 35.4098 39.4473C34.6365 38.9673 34.0232 38.3206 33.5698 37.5073C33.1165 36.6806 32.8898 35.7406 32.8898 34.6873C32.8898 33.6339 33.1098 32.7006 33.5498 31.8873C34.0032 31.0606 34.6165 30.4139 35.3898 29.9473C36.1765 29.4673 37.0565 29.2273 38.0298 29.2273C38.4298 29.2273 38.8165 29.2806 39.1898 29.3873C39.5632 29.4806 39.9098 29.6206 40.2298 29.8073C40.5498 29.9806 40.8365 30.1739 41.0898 30.3873C41.3432 30.6006 41.5498 30.8273 41.7098 31.0673C41.8698 31.3073 41.9698 31.5339 42.0098 31.7473L41.5698 31.9073V29.4473H43.6298V39.3073C43.6298 40.1473 43.5032 40.8873 43.2498 41.5273C43.0098 42.1806 42.6565 42.7273 42.1898 43.1673C41.7232 43.6206 41.1565 43.9606 40.4898 44.1873C39.8232 44.4273 39.0698 44.5473 38.2298 44.5473ZM38.3098 38.2473C38.9632 38.2473 39.5432 38.0939 40.0498 37.7873C40.5565 37.4806 40.9498 37.0606 41.2298 36.5273C41.5098 35.9939 41.6498 35.3806 41.6498 34.6873C41.6498 33.9939 41.5032 33.3806 41.2098 32.8473C40.9298 32.3006 40.5365 31.8739 40.0298 31.5673C39.5365 31.2606 38.9632 31.1073 38.3098 31.1073C37.6698 31.1073 37.0965 31.2673 36.5898 31.5873C36.0965 31.8939 35.7032 32.3206 35.4098 32.8673C35.1298 33.4006 34.9898 34.0073 34.9898 34.6873C34.9898 35.3673 35.1298 35.9806 35.4098 36.5273C35.7032 37.0606 36.0965 37.4806 36.5898 37.7873C37.0965 38.0939 37.6698 38.2473 38.3098 38.2473ZM51.2181 44.5473C50.4715 44.5473 49.7248 44.4273 48.9781 44.1873C48.2448 43.9606 47.6515 43.6606 47.1981 43.2873L47.9581 41.6873C48.2248 41.8873 48.5381 42.0606 48.8981 42.2073C49.2581 42.3673 49.6381 42.4873 50.0381 42.5673C50.4381 42.6606 50.8315 42.7073 51.2181 42.7073C51.9515 42.7073 52.5648 42.5873 53.0581 42.3473C53.5515 42.1073 53.9248 41.7539 54.1781 41.2873C54.4315 40.8206 54.5581 40.2406 54.5581 39.5473V37.5273L54.7781 37.6673C54.7115 38.0806 54.4915 38.4806 54.1181 38.8673C53.7581 39.2406 53.3048 39.5473 52.7581 39.7873C52.2115 40.0273 51.6515 40.1473 51.0781 40.1473C50.0781 40.1473 49.1848 39.9139 48.3981 39.4473C47.6248 38.9673 47.0115 38.3206 46.5581 37.5073C46.1048 36.6806 45.8781 35.7406 45.8781 34.6873C45.8781 33.6339 46.0981 32.7006 46.5381 31.8873C46.9915 31.0606 47.6048 30.4139 48.3781 29.9473C49.1648 29.4673 50.0448 29.2273 51.0181 29.2273C51.4181 29.2273 51.8048 29.2806 52.1781 29.3873C52.5515 29.4806 52.8981 29.6206 53.2181 29.8073C53.5381 29.9806 53.8248 30.1739 54.0781 30.3873C54.3315 30.6006 54.5381 30.8273 54.6981 31.0673C54.8581 31.3073 54.9581 31.5339 54.9981 31.7473L54.5581 31.9073V29.4473H56.6181V39.3073C56.6181 40.1473 56.4915 40.8873 56.2381 41.5273C55.9981 42.1806 55.6448 42.7273 55.1781 43.1673C54.7115 43.6206 54.1448 43.9606 53.4781 44.1873C52.8115 44.4273 52.0581 44.5473 51.2181 44.5473ZM51.2981 38.2473C51.9515 38.2473 52.5315 38.0939 53.0381 37.7873C53.5448 37.4806 53.9381 37.0606 54.2181 36.5273C54.4981 35.9939 54.6381 35.3806 54.6381 34.6873C54.6381 33.9939 54.4915 33.3806 54.1981 32.8473C53.9181 32.3006 53.5248 31.8739 53.0181 31.5673C52.5248 31.2606 51.9515 31.1073 51.2981 31.1073C50.6581 31.1073 50.0848 31.2673 49.5781 31.5873C49.0848 31.8939 48.6915 32.3206 48.3981 32.8673C48.1181 33.4006 47.9781 34.0073 47.9781 34.6873C47.9781 35.3673 48.1181 35.9806 48.3981 36.5273C48.6915 37.0606 49.0848 37.4806 49.5781 37.7873C50.0848 38.0939 50.6581 38.2473 51.2981 38.2473ZM59.5064 44.3473V29.4473H61.5864V31.8473L61.2664 31.6673C61.3464 31.2673 61.5731 30.8873 61.9464 30.5273C62.3197 30.1539 62.7731 29.8539 63.3064 29.6273C63.8531 29.3873 64.4131 29.2673 64.9864 29.2673C65.9331 29.2673 66.7731 29.5006 67.5064 29.9673C68.2397 30.4339 68.8197 31.0739 69.2464 31.8873C69.6731 32.7006 69.8864 33.6339 69.8864 34.6873C69.8864 35.7273 69.6731 36.6606 69.2464 37.4873C68.8331 38.3006 68.2597 38.9473 67.5264 39.4273C66.7931 39.8939 65.9664 40.1273 65.0464 40.1273C64.4331 40.1273 63.8397 40.0073 63.2664 39.7673C62.6931 39.5139 62.2064 39.1939 61.8064 38.8073C61.4064 38.4206 61.1597 38.0206 61.0664 37.6073L61.5864 37.3273V44.3473H59.5064ZM64.7064 38.2273C65.3197 38.2273 65.8664 38.0739 66.3464 37.7673C66.8264 37.4606 67.2064 37.0406 67.4864 36.5073C67.7664 35.9739 67.9064 35.3673 67.9064 34.6873C67.9064 34.0073 67.7664 33.4073 67.4864 32.8873C67.2197 32.3539 66.8464 31.9339 66.3664 31.6273C65.8864 31.3206 65.3331 31.1673 64.7064 31.1673C64.0797 31.1673 63.5264 31.3206 63.0464 31.6273C62.5664 31.9206 62.1864 32.3339 61.9064 32.8673C61.6264 33.4006 61.4864 34.0073 61.4864 34.6873C61.4864 35.3673 61.6264 35.9739 61.9064 36.5073C62.1864 37.0406 62.5664 37.4606 63.0464 37.7673C63.5264 38.0739 64.0797 38.2273 64.7064 38.2273ZM72.1636 39.9473V25.1473H74.2236V39.9473H72.1636ZM80.9878 40.1473C80.1211 40.1473 79.3278 39.9073 78.6078 39.4273C77.9011 38.9473 77.3345 38.2939 76.9078 37.4673C76.4811 36.6406 76.2678 35.7073 76.2678 34.6673C76.2678 33.6139 76.4811 32.6806 76.9078 31.8673C77.3478 31.0406 77.9345 30.3939 78.6678 29.9273C79.4145 29.4606 80.2478 29.2273 81.1678 29.2273C81.7145 29.2273 82.2145 29.3073 82.6678 29.4673C83.1211 29.6273 83.5145 29.8539 83.8478 30.1473C84.1945 30.4273 84.4745 30.7539 84.6878 31.1273C84.9145 31.5006 85.0545 31.9006 85.1078 32.3273L84.6478 32.1673V29.4473H86.7278V39.9473H84.6478V37.4473L85.1278 37.3073C85.0478 37.6673 84.8811 38.0206 84.6278 38.3673C84.3878 38.7006 84.0745 39.0006 83.6878 39.2673C83.3145 39.5339 82.8945 39.7473 82.4278 39.9073C81.9745 40.0673 81.4945 40.1473 80.9878 40.1473ZM81.5278 38.2473C82.1545 38.2473 82.7078 38.0939 83.1878 37.7873C83.6678 37.4806 84.0411 37.0606 84.3078 36.5273C84.5878 35.9806 84.7278 35.3606 84.7278 34.6673C84.7278 33.9873 84.5878 33.3806 84.3078 32.8473C84.0411 32.3139 83.6678 31.8939 83.1878 31.5873C82.7078 31.2806 82.1545 31.1273 81.5278 31.1273C80.9145 31.1273 80.3678 31.2806 79.8878 31.5873C79.4211 31.8939 79.0478 32.3139 78.7678 32.8473C78.5011 33.3806 78.3678 33.9873 78.3678 34.6673C78.3678 35.3606 78.5011 35.9806 78.7678 36.5273C79.0478 37.0606 79.4211 37.4806 79.8878 37.7873C80.3678 38.0939 80.9145 38.2473 81.5278 38.2473ZM89.6041 39.9473V29.4473H91.6641V31.6073L91.3041 31.8473C91.4374 31.3806 91.6974 30.9539 92.0841 30.5673C92.4707 30.1673 92.9307 29.8473 93.4641 29.6073C93.9974 29.3539 94.5441 29.2273 95.1041 29.2273C95.9041 29.2273 96.5707 29.3873 97.1041 29.7073C97.6374 30.0139 98.0374 30.4873 98.3041 31.1273C98.5707 31.7673 98.7041 32.5739 98.7041 33.5473V39.9473H96.6441V33.6873C96.6441 33.0873 96.5641 32.5939 96.4041 32.2073C96.2441 31.8073 95.9974 31.5206 95.6641 31.3473C95.3307 31.1606 94.9174 31.0806 94.4241 31.1073C94.0241 31.1073 93.6574 31.1739 93.3241 31.3073C92.9907 31.4273 92.6974 31.6006 92.4441 31.8273C92.2041 32.0539 92.0107 32.3206 91.8641 32.6273C91.7307 32.9206 91.6641 33.2406 91.6641 33.5873V39.9473H90.6441C90.4707 39.9473 90.2974 39.9473 90.1241 39.9473C89.9507 39.9473 89.7774 39.9473 89.6041 39.9473ZM102.799 39.9473V26.7673H104.859V39.9473H102.799ZM100.619 31.4473V29.4473H107.299V31.4473H100.619Z" fill="white"/>
<path d="M25.872 70L27.792 58.8H29.232L27.312 70H25.872ZM20.496 67.232V65.904H29.76V67.232H20.496ZM21.616 70L23.536 58.8H24.976L23.056 70H21.616ZM21.104 62.752V61.424H30.352V62.752H21.104ZM35.3718 70C34.8171 70 34.2998 69.904 33.8198 69.712C33.3504 69.5093 32.9398 69.232 32.5878 68.88C32.2464 68.528 31.9744 68.112 31.7718 67.632C31.5798 67.152 31.4838 66.624 31.4838 66.048C31.4838 65.76 31.5211 65.44 31.5958 65.088C31.6811 64.7253 31.8038 64.3307 31.9638 63.904C32.1344 63.4773 32.3371 63.0293 32.5718 62.56C32.8064 62.08 33.0784 61.584 33.3878 61.072L34.8438 58.608H36.5238L36.5878 58.768L34.8278 61.728C34.5078 62.272 34.2198 62.7893 33.9638 63.28C33.7184 63.7707 33.5104 64.2347 33.3398 64.672C33.1691 65.0987 33.0411 65.488 32.9557 65.84L32.5718 64.192C32.7744 63.8613 32.9931 63.5733 33.2278 63.328C33.4624 63.072 33.7131 62.8587 33.9798 62.688C34.2571 62.5173 34.5451 62.3893 34.8438 62.304C35.1424 62.2187 35.4518 62.176 35.7718 62.176C36.3904 62.176 36.9558 62.3467 37.4678 62.688C37.9904 63.0187 38.4064 63.4613 38.7158 64.016C39.0358 64.5707 39.1958 65.1787 39.1958 65.84C39.1958 66.64 39.0304 67.3547 38.6998 67.984C38.3798 68.6027 37.9318 69.0933 37.3558 69.456C36.7798 69.8187 36.1184 70 35.3718 70ZM35.3718 68.4C35.7878 68.4 36.1558 68.304 36.4758 68.112C36.8064 67.9093 37.0624 67.632 37.2438 67.28C37.4358 66.9173 37.5318 66.5067 37.5318 66.048C37.5318 65.6533 37.4358 65.2853 37.2438 64.944C37.0518 64.592 36.7958 64.3093 36.4758 64.096C36.1558 63.8827 35.7984 63.776 35.4038 63.776C34.9664 63.776 34.5771 63.8773 34.2358 64.08C33.8944 64.2827 33.6278 64.5547 33.4358 64.896C33.2438 65.2373 33.1478 65.616 33.1478 66.032C33.1478 66.48 33.2438 66.8853 33.4358 67.248C33.6278 67.6 33.8891 67.8827 34.2198 68.096C34.5504 68.2987 34.9344 68.4 35.3718 68.4ZM43.398 70L43.334 69.84L46.662 62.768L46.71 64.096C46.518 64.416 46.3047 64.6987 46.07 64.944C45.846 65.1893 45.5953 65.4027 45.318 65.584C45.0513 65.7547 44.774 65.888 44.486 65.984C44.198 66.0693 43.9047 66.112 43.606 66.112C42.998 66.112 42.438 65.952 41.926 65.632C41.414 65.312 41.0033 64.8853 40.694 64.352C40.3847 63.8187 40.23 63.2373 40.23 62.608C40.23 61.8507 40.4007 61.1733 40.742 60.576C41.0833 59.968 41.5473 59.488 42.134 59.136C42.7313 58.784 43.398 58.608 44.134 58.608C44.6673 58.608 45.1687 58.704 45.638 58.896C46.1073 59.088 46.518 59.36 46.87 59.712C47.222 60.0533 47.4993 60.4533 47.702 60.912C47.9047 61.36 48.006 61.84 48.006 62.352C48.006 62.6187 47.9793 62.9067 47.926 63.216C47.8727 63.5147 47.782 63.856 47.654 64.24C47.5367 64.6133 47.3767 65.0453 47.174 65.536C46.9713 66.016 46.7207 66.576 46.422 67.216L45.094 70H43.398ZM43.974 64.512C44.39 64.512 44.7633 64.4213 45.094 64.24C45.4247 64.048 45.6807 63.7973 45.862 63.488C46.054 63.168 46.15 62.8107 46.15 62.416C46.15 62 46.0593 61.6267 45.878 61.296C45.6967 60.9547 45.4407 60.688 45.11 60.496C44.79 60.304 44.422 60.208 44.006 60.208C43.622 60.208 43.2807 60.304 42.982 60.496C42.6833 60.6773 42.4433 60.9333 42.262 61.264C42.0913 61.584 42.006 61.9627 42.006 62.4C42.006 62.7733 42.0913 63.12 42.262 63.44C42.4433 63.76 42.6833 64.0213 42.982 64.224C43.2807 64.416 43.6113 64.512 43.974 64.512ZM54.1945 70V60.976L54.5945 61.072L50.9145 65.568L50.8505 65.376H57.8105V66.96H49.7785L49.0425 65.52L54.5305 58.8H55.8585V70H54.1945ZM60.0524 70V58.8H67.1084V60.464H61.7804V68.336H67.1084V70H60.0524ZM60.8364 65.088V63.424H66.2284V65.088H60.8364ZM72.4245 70.112C71.6885 70.112 71.0218 69.9467 70.4245 69.616C69.8272 69.2747 69.3312 68.7893 68.9365 68.16L69.8965 67.088C70.3978 67.6427 70.8352 68.0213 71.2085 68.224C71.5818 68.4267 71.9872 68.528 72.4245 68.528C72.8618 68.528 73.2565 68.432 73.6085 68.24C73.9605 68.048 74.2378 67.7867 74.4405 67.456C74.6538 67.1253 74.7605 66.7573 74.7605 66.352C74.7605 65.9253 74.6592 65.5467 74.4565 65.216C74.2645 64.8747 74.0032 64.608 73.6725 64.416C73.3418 64.2133 72.9685 64.112 72.5525 64.112C72.3498 64.112 72.1578 64.128 71.9765 64.16C71.7952 64.1813 71.5765 64.24 71.3205 64.336C71.0645 64.432 70.7285 64.5813 70.3125 64.784L69.4005 63.552L70.0565 58.8H76.1045V60.4H71.1445L71.4805 60.096L70.9525 63.648L70.5525 63.184C70.6592 63.0773 70.8405 62.976 71.0965 62.88C71.3525 62.7733 71.6352 62.688 71.9445 62.624C72.2645 62.5493 72.5685 62.512 72.8565 62.512C73.5392 62.512 74.1472 62.672 74.6805 62.992C75.2245 63.3013 75.6512 63.7333 75.9605 64.288C76.2805 64.8427 76.4405 65.4773 76.4405 66.192C76.4405 66.928 76.2645 67.5947 75.9125 68.192C75.5605 68.7787 75.0805 69.248 74.4725 69.6C73.8645 69.9413 73.1818 70.112 72.4245 70.112ZM82.0303 70.048C81.3369 70.048 80.7023 69.904 80.1263 69.616C79.5609 69.3173 79.1076 68.9227 78.7663 68.432C78.4249 67.9413 78.2543 67.3973 78.2543 66.8C78.2543 66.4693 78.2969 66.16 78.3823 65.872C78.4783 65.5733 78.6169 65.3013 78.7983 65.056C78.9903 64.8107 79.2196 64.5867 79.4863 64.384C79.7529 64.1813 80.0623 64 80.4143 63.84L80.3183 64.176C80.0409 64.0693 79.7903 63.9413 79.5663 63.792C79.3529 63.632 79.1663 63.4507 79.0063 63.248C78.8463 63.0453 78.7236 62.8267 78.6383 62.592C78.5636 62.3573 78.5263 62.112 78.5263 61.856C78.5263 61.2907 78.6809 60.7787 78.9903 60.32C79.3103 59.8613 79.7316 59.4933 80.2543 59.216C80.7876 58.9387 81.3796 58.8 82.0303 58.8C82.6809 58.8 83.2676 58.9387 83.7903 59.216C84.3236 59.4933 84.7449 59.8613 85.0543 60.32C85.3743 60.7787 85.5343 61.2907 85.5343 61.856C85.5343 62.112 85.4916 62.3573 85.4062 62.592C85.3316 62.8267 85.2196 63.04 85.0703 63.232C84.9209 63.424 84.7289 63.6 84.4943 63.76C84.2703 63.92 84.0143 64.0587 83.7263 64.176L83.6783 63.904C83.9983 64.032 84.2863 64.1973 84.5423 64.4C84.8089 64.6027 85.0383 64.832 85.2303 65.088C85.4223 65.344 85.5663 65.616 85.6623 65.904C85.7689 66.192 85.8223 66.4907 85.8223 66.8C85.8223 67.408 85.6516 67.9573 85.3103 68.448C84.9689 68.9387 84.5103 69.328 83.9343 69.616C83.3689 69.904 82.7343 70.048 82.0303 70.048ZM82.0303 68.448C82.4249 68.448 82.7769 68.3733 83.0863 68.224C83.4063 68.0747 83.6569 67.872 83.8383 67.616C84.0196 67.36 84.1103 67.0667 84.1103 66.736C84.1103 66.384 84.0196 66.0747 83.8383 65.808C83.6569 65.5307 83.4063 65.312 83.0863 65.152C82.7769 64.992 82.4249 64.912 82.0303 64.912C81.6356 64.912 81.2836 64.992 80.9743 65.152C80.6649 65.312 80.4196 65.5307 80.2383 65.808C80.0569 66.0747 79.9663 66.384 79.9663 66.736C79.9663 67.056 80.0569 67.344 80.2383 67.6C80.4196 67.856 80.6649 68.064 80.9743 68.224C81.2836 68.3733 81.6356 68.448 82.0303 68.448ZM82.0303 63.376C82.3716 63.376 82.6756 63.312 82.9423 63.184C83.2196 63.056 83.4329 62.8853 83.5823 62.672C83.7423 62.448 83.8223 62.192 83.8223 61.904C83.8223 61.616 83.7423 61.36 83.5823 61.136C83.4329 60.912 83.2196 60.736 82.9423 60.608C82.6756 60.4693 82.3716 60.4 82.0303 60.4C81.6889 60.4 81.3796 60.4693 81.1023 60.608C80.8356 60.736 80.6223 60.912 80.4623 61.136C80.3129 61.36 80.2383 61.616 80.2383 61.904C80.2383 62.192 80.3129 62.448 80.4623 62.672C80.6223 62.8853 80.8356 63.056 81.1023 63.184C81.3796 63.312 81.6889 63.376 82.0303 63.376Z" fill="white"/>
</svg>
