<svg width="285" height="298" viewBox="0 0 285 298" fill="none" xmlns="http://www.w3.org/2000/svg">
<rect width="285" height="297.216" rx="8" fill="black"/>
<rect x="10" y="9.97363" width="266" height="277.268" rx="8" fill="#B4BBD0"/>
<path d="M21.96 49.9209V35.9209H24.12V49.9209H21.96ZM22.92 43.9609V41.8809H30.14V43.9609H22.92ZM22.92 38.0009V35.9209H31.04V38.0009H22.92ZM33.2955 49.9209V39.4209H35.3755V42.7209L35.1755 41.9209C35.3221 41.4142 35.5688 40.9542 35.9155 40.5409C36.2755 40.1276 36.6821 39.8009 37.1355 39.5609C37.6021 39.3209 38.0821 39.2009 38.5755 39.2009C38.8021 39.2009 39.0155 39.2209 39.2155 39.2609C39.4288 39.3009 39.5955 39.3476 39.7155 39.4009L39.1755 41.6409C39.0155 41.5742 38.8355 41.5209 38.6355 41.4809C38.4488 41.4276 38.2621 41.4009 38.0755 41.4009C37.7155 41.4009 37.3688 41.4742 37.0355 41.6209C36.7155 41.7542 36.4288 41.9476 36.1755 42.2009C35.9355 42.4409 35.7421 42.7276 35.5955 43.0609C35.4488 43.3809 35.3755 43.7342 35.3755 44.1209V49.9209H33.2955ZM45.8127 50.1209C44.7327 50.1209 43.7727 49.8942 42.9327 49.4409C42.106 48.9742 41.4527 48.3409 40.9727 47.5409C40.506 46.7409 40.2727 45.8209 40.2727 44.7809C40.2727 43.9542 40.406 43.2009 40.6727 42.5209C40.9393 41.8409 41.306 41.2542 41.7727 40.7609C42.2527 40.2542 42.8193 39.8676 43.4727 39.6009C44.1393 39.3209 44.8593 39.1809 45.6327 39.1809C46.3127 39.1809 46.946 39.3142 47.5327 39.5809C48.1193 39.8342 48.626 40.1876 49.0527 40.6409C49.4927 41.0942 49.826 41.6342 50.0527 42.2609C50.2927 42.8742 50.406 43.5476 50.3927 44.2809L50.3727 45.1609H41.7927L41.3327 43.5209H48.5927L48.2927 43.8609V43.3809C48.2527 42.9409 48.106 42.5476 47.8527 42.2009C47.5993 41.8542 47.2793 41.5809 46.8927 41.3809C46.506 41.1809 46.086 41.0809 45.6327 41.0809C44.9127 41.0809 44.306 41.2209 43.8127 41.5009C43.3193 41.7676 42.946 42.1676 42.6927 42.7009C42.4393 43.2209 42.3127 43.8676 42.3127 44.6409C42.3127 45.3742 42.466 46.0142 42.7727 46.5609C43.0793 47.0942 43.5127 47.5076 44.0727 47.8009C44.6327 48.0942 45.2793 48.2409 46.0127 48.2409C46.5327 48.2409 47.0127 48.1542 47.4527 47.9809C47.906 47.8076 48.3927 47.4942 48.9127 47.0409L49.9527 48.5009C49.6327 48.8209 49.2393 49.1009 48.7727 49.3409C48.3193 49.5809 47.8327 49.7742 47.3127 49.9209C46.806 50.0542 46.306 50.1209 45.8127 50.1209ZM52.6314 49.9209V39.4209H54.6914V41.5809L54.3314 41.8209C54.4647 41.3542 54.7247 40.9276 55.1114 40.5409C55.4981 40.1409 55.9581 39.8209 56.4914 39.5809C57.0247 39.3276 57.5714 39.2009 58.1314 39.2009C58.9314 39.2009 59.5981 39.3609 60.1314 39.6809C60.6647 39.9876 61.0647 40.4609 61.3314 41.1009C61.5981 41.7409 61.7314 42.5476 61.7314 43.5209V49.9209H59.6714V43.6609C59.6714 43.0609 59.5914 42.5676 59.4314 42.1809C59.2714 41.7809 59.0247 41.4942 58.6914 41.3209C58.3581 41.1342 57.9447 41.0542 57.4514 41.0809C57.0514 41.0809 56.6847 41.1476 56.3514 41.2809C56.0181 41.4009 55.7247 41.5742 55.4714 41.8009C55.2314 42.0276 55.0381 42.2942 54.8914 42.6009C54.7581 42.8942 54.6914 43.2142 54.6914 43.5609V49.9209H53.6714C53.4981 49.9209 53.3247 49.9209 53.1514 49.9209C52.9781 49.9209 52.8047 49.9209 52.6314 49.9209ZM68.9859 50.1209C68.0126 50.1209 67.1393 49.8809 66.3659 49.4009C65.6059 48.9209 64.9993 48.2676 64.5459 47.4409C64.1059 46.6142 63.8859 45.6876 63.8859 44.6609C63.8859 43.6342 64.1059 42.7076 64.5459 41.8809C64.9993 41.0542 65.6059 40.4009 66.3659 39.9209C67.1393 39.4409 68.0126 39.2009 68.9859 39.2009C69.9193 39.2009 70.7659 39.3942 71.5259 39.7809C72.2993 40.1542 72.8859 40.6676 73.2859 41.3209L72.1459 42.7209C71.9326 42.4142 71.6593 42.1342 71.3259 41.8809C70.9926 41.6276 70.6393 41.4276 70.2659 41.2809C69.8926 41.1342 69.5326 41.0609 69.1859 41.0609C68.5459 41.0609 67.9726 41.2209 67.4659 41.5409C66.9726 41.8476 66.5793 42.2742 66.2859 42.8209C65.9926 43.3676 65.8459 43.9809 65.8459 44.6609C65.8459 45.3409 65.9993 45.9542 66.3059 46.5009C66.6126 47.0342 67.0193 47.4609 67.5259 47.7809C68.0326 48.1009 68.5926 48.2609 69.2059 48.2609C69.5659 48.2609 69.9126 48.2009 70.2459 48.0809C70.5926 47.9609 70.9259 47.7809 71.2459 47.5409C71.5659 47.3009 71.8659 47.0076 72.1459 46.6609L73.2859 48.0609C72.8593 48.6609 72.2459 49.1542 71.4459 49.5409C70.6593 49.9276 69.8393 50.1209 68.9859 50.1209ZM75.2291 49.9209V35.1209H77.2891V41.5809L76.9291 41.8209C77.0624 41.3542 77.3224 40.9276 77.7091 40.5409C78.0957 40.1409 78.5557 39.8209 79.0891 39.5809C79.6224 39.3276 80.1691 39.2009 80.7291 39.2009C81.5291 39.2009 82.1957 39.3609 82.7291 39.6809C83.2624 39.9876 83.6624 40.4609 83.9291 41.1009C84.1957 41.7409 84.3291 42.5476 84.3291 43.5209V49.9209H82.2691V43.6609C82.2691 43.0609 82.1891 42.5676 82.0291 42.1809C81.8691 41.7809 81.6224 41.4942 81.2891 41.3209C80.9557 41.1342 80.5424 41.0542 80.0491 41.0809C79.6491 41.0809 79.2824 41.1476 78.9491 41.2809C78.6157 41.4009 78.3224 41.5742 78.0691 41.8009C77.8291 42.0276 77.6357 42.2942 77.4891 42.6009C77.3557 42.8942 77.2891 43.2142 77.2891 43.5609V49.9209H76.2691C76.0957 49.9209 75.9224 49.9209 75.7491 49.9209C75.5757 49.9209 75.4024 49.9209 75.2291 49.9209ZM99.5091 50.1209C98.4957 50.1209 97.5491 49.9409 96.6691 49.5809C95.7891 49.2076 95.0157 48.6942 94.3491 48.0409C93.6824 47.3876 93.1624 46.6276 92.7891 45.7609C92.4291 44.8809 92.2491 43.9342 92.2491 42.9209C92.2491 41.9209 92.4291 40.9876 92.7891 40.1209C93.1624 39.2542 93.6757 38.5009 94.3291 37.8609C94.9957 37.2076 95.7691 36.7009 96.6491 36.3409C97.5291 35.9809 98.4757 35.8009 99.4891 35.8009C100.196 35.8009 100.882 35.9009 101.549 36.1009C102.229 36.3009 102.842 36.5809 103.389 36.9409C103.936 37.3009 104.382 37.7142 104.729 38.1809L103.329 39.6409C102.929 39.2542 102.516 38.9342 102.089 38.6809C101.676 38.4276 101.249 38.2342 100.809 38.1009C100.369 37.9676 99.9291 37.9009 99.4891 37.9009C98.7691 37.9009 98.1024 38.0276 97.4891 38.2809C96.8891 38.5342 96.3557 38.8876 95.8891 39.3409C95.4357 39.7942 95.0824 40.3276 94.8291 40.9409C94.5757 41.5409 94.4491 42.2009 94.4491 42.9209C94.4491 43.6142 94.5824 44.2742 94.8491 44.9009C95.1157 45.5142 95.4824 46.0542 95.9491 46.5209C96.4291 46.9876 96.9757 47.3542 97.5891 47.6209C98.2157 47.8876 98.8757 48.0209 99.5691 48.0209C100.089 48.0209 100.582 47.9476 101.049 47.8009C101.516 47.6409 101.929 47.4209 102.289 47.1409C102.649 46.8609 102.929 46.5409 103.129 46.1809C103.329 45.8076 103.429 45.4142 103.429 45.0009V44.6009L103.729 44.8809H99.4491V42.7409H105.649C105.676 42.8876 105.696 43.0342 105.709 43.1809C105.722 43.3142 105.729 43.4476 105.729 43.5809C105.742 43.7009 105.749 43.8209 105.749 43.9409C105.749 44.8609 105.589 45.7009 105.269 46.4609C104.949 47.2076 104.502 47.8542 103.929 48.4009C103.369 48.9476 102.709 49.3742 101.949 49.6809C101.202 49.9742 100.389 50.1209 99.5091 50.1209ZM108.042 49.9209V39.4209H110.122V42.7209L109.922 41.9209C110.068 41.4142 110.315 40.9542 110.662 40.5409C111.022 40.1276 111.428 39.8009 111.882 39.5609C112.348 39.3209 112.828 39.2009 113.322 39.2009C113.548 39.2009 113.762 39.2209 113.962 39.2609C114.175 39.3009 114.342 39.3476 114.462 39.4009L113.922 41.6409C113.762 41.5742 113.582 41.5209 113.382 41.4809C113.195 41.4276 113.008 41.4009 112.822 41.4009C112.462 41.4009 112.115 41.4742 111.782 41.6209C111.462 41.7542 111.175 41.9476 110.922 42.2009C110.682 42.4409 110.488 42.7276 110.342 43.0609C110.195 43.3809 110.122 43.7342 110.122 44.1209V49.9209H108.042ZM119.699 50.1209C118.832 50.1209 118.039 49.8809 117.319 49.4009C116.612 48.9209 116.045 48.2676 115.619 47.4409C115.192 46.6142 114.979 45.6809 114.979 44.6409C114.979 43.5876 115.192 42.6542 115.619 41.8409C116.059 41.0142 116.645 40.3676 117.379 39.9009C118.125 39.4342 118.959 39.2009 119.879 39.2009C120.425 39.2009 120.925 39.2809 121.379 39.4409C121.832 39.6009 122.225 39.8276 122.559 40.1209C122.905 40.4009 123.185 40.7276 123.399 41.1009C123.625 41.4742 123.765 41.8742 123.819 42.3009L123.359 42.1409V39.4209H125.439V49.9209H123.359V47.4209L123.839 47.2809C123.759 47.6409 123.592 47.9942 123.339 48.3409C123.099 48.6742 122.785 48.9742 122.399 49.2409C122.025 49.5076 121.605 49.7209 121.139 49.8809C120.685 50.0409 120.205 50.1209 119.699 50.1209ZM120.239 48.2209C120.865 48.2209 121.419 48.0676 121.899 47.7609C122.379 47.4542 122.752 47.0342 123.019 46.5009C123.299 45.9542 123.439 45.3342 123.439 44.6409C123.439 43.9609 123.299 43.3542 123.019 42.8209C122.752 42.2876 122.379 41.8676 121.899 41.5609C121.419 41.2542 120.865 41.1009 120.239 41.1009C119.625 41.1009 119.079 41.2542 118.599 41.5609C118.132 41.8676 117.759 42.2876 117.479 42.8209C117.212 43.3542 117.079 43.9609 117.079 44.6409C117.079 45.3342 117.212 45.9542 117.479 46.5009C117.759 47.0342 118.132 47.4542 118.599 47.7609C119.079 48.0676 119.625 48.2209 120.239 48.2209ZM129.841 54.5209L131.961 49.6209L131.981 51.2609L126.741 39.4209H129.141L132.421 47.1409C132.487 47.2742 132.567 47.4809 132.661 47.7609C132.754 48.0276 132.834 48.2942 132.901 48.5609L132.381 48.6809C132.487 48.4009 132.587 48.1209 132.681 47.8409C132.787 47.5609 132.887 47.2809 132.981 47.0009L135.721 39.4209H138.161L133.841 49.9209L132.061 54.5209H129.841Z" fill="#1C0E13"/>
<path d="M25.872 80L27.792 68.8H29.232L27.312 80H25.872ZM20.496 77.232V75.904H29.76V77.232H20.496ZM21.616 80L23.536 68.8H24.976L23.056 80H21.616ZM21.104 72.752V71.424H30.352V72.752H21.104ZM32.4118 80V68.8H37.0838C37.7984 68.8 38.4011 68.9067 38.8918 69.12C39.3824 69.3333 39.7504 69.6533 39.9958 70.08C40.2518 70.496 40.3798 71.008 40.3798 71.616C40.3798 72.224 40.2091 72.7413 39.8678 73.168C39.5371 73.5947 39.0731 73.888 38.4758 74.048V73.728C38.9771 73.8347 39.4144 74.0267 39.7878 74.304C40.1611 74.5707 40.4491 74.9067 40.6518 75.312C40.8651 75.7173 40.9718 76.1813 40.9718 76.704C40.9718 77.2373 40.8864 77.712 40.7158 78.128C40.5558 78.5333 40.3104 78.8747 39.9798 79.152C39.6598 79.4293 39.2704 79.6427 38.8118 79.792C38.3531 79.9307 37.8304 80 37.2438 80H32.4118ZM34.1398 78.336H37.1478C37.5851 78.336 37.9531 78.272 38.2518 78.144C38.5611 78.016 38.7958 77.8293 38.9558 77.584C39.1264 77.328 39.2118 77.024 39.2118 76.672C39.2118 76.3413 39.1211 76.0587 38.9398 75.824C38.7691 75.5893 38.5238 75.4133 38.2038 75.296C37.8838 75.168 37.5051 75.104 37.0678 75.104H34.1398V78.336ZM34.1398 73.44H36.9878C37.3078 73.44 37.5904 73.376 37.8358 73.248C38.0918 73.12 38.2891 72.944 38.4278 72.72C38.5771 72.496 38.6518 72.24 38.6518 71.952C38.6518 71.472 38.4918 71.104 38.1718 70.848C37.8518 70.592 37.3931 70.464 36.7958 70.464H34.1398V73.44ZM47.3664 80V70.976L47.7664 71.072L44.0864 75.568L44.0224 75.376H50.9824V76.96H42.9504L42.2144 75.52L47.7024 68.8H49.0304V80H47.3664ZM53.2243 80V68.8H57.8963C58.6109 68.8 59.2136 68.9067 59.7043 69.12C60.1949 69.3333 60.5629 69.6533 60.8083 70.08C61.0643 70.496 61.1923 71.008 61.1923 71.616C61.1923 72.224 61.0216 72.7413 60.6803 73.168C60.3496 73.5947 59.8856 73.888 59.2883 74.048V73.728C59.7896 73.8347 60.2269 74.0267 60.6003 74.304C60.9736 74.5707 61.2616 74.9067 61.4643 75.312C61.6776 75.7173 61.7843 76.1813 61.7843 76.704C61.7843 77.2373 61.6989 77.712 61.5283 78.128C61.3683 78.5333 61.1229 78.8747 60.7923 79.152C60.4723 79.4293 60.0829 79.6427 59.6243 79.792C59.1656 79.9307 58.6429 80 58.0563 80H53.2243ZM54.9523 78.336H57.9603C58.3976 78.336 58.7656 78.272 59.0643 78.144C59.3736 78.016 59.6083 77.8293 59.7683 77.584C59.9389 77.328 60.0243 77.024 60.0243 76.672C60.0243 76.3413 59.9336 76.0587 59.7523 75.824C59.5816 75.5893 59.3363 75.4133 59.0163 75.296C58.6963 75.168 58.3176 75.104 57.8803 75.104H54.9523V78.336ZM54.9523 73.44H57.8003C58.1203 73.44 58.4029 73.376 58.6483 73.248C58.9043 73.12 59.1016 72.944 59.2403 72.72C59.3896 72.496 59.4643 72.24 59.4643 71.952C59.4643 71.472 59.3043 71.104 58.9843 70.848C58.6643 70.592 58.2056 70.464 57.6083 70.464H54.9523V73.44ZM64.1149 80V68.8H68.7869C69.5015 68.8 70.1042 68.9067 70.5949 69.12C71.0855 69.3333 71.4535 69.6533 71.6989 70.08C71.9549 70.496 72.0829 71.008 72.0829 71.616C72.0829 72.224 71.9122 72.7413 71.5709 73.168C71.2402 73.5947 70.7762 73.888 70.1789 74.048V73.728C70.6802 73.8347 71.1175 74.0267 71.4909 74.304C71.8642 74.5707 72.1522 74.9067 72.3549 75.312C72.5682 75.7173 72.6749 76.1813 72.6749 76.704C72.6749 77.2373 72.5895 77.712 72.4189 78.128C72.2589 78.5333 72.0135 78.8747 71.6829 79.152C71.3629 79.4293 70.9735 79.6427 70.5149 79.792C70.0562 79.9307 69.5335 80 68.9469 80H64.1149ZM65.8429 78.336H68.8509C69.2882 78.336 69.6562 78.272 69.9549 78.144C70.2642 78.016 70.4989 77.8293 70.6589 77.584C70.8295 77.328 70.9149 77.024 70.9149 76.672C70.9149 76.3413 70.8242 76.0587 70.6429 75.824C70.4722 75.5893 70.2269 75.4133 69.9069 75.296C69.5869 75.168 69.2082 75.104 68.7709 75.104H65.8429V78.336ZM65.8429 73.44H68.6909C69.0109 73.44 69.2935 73.376 69.5389 73.248C69.7949 73.12 69.9922 72.944 70.1309 72.72C70.2802 72.496 70.3549 72.24 70.3549 71.952C70.3549 71.472 70.1949 71.104 69.8749 70.848C69.5549 70.592 69.0962 70.464 68.4989 70.464H65.8429V73.44ZM75.0055 80V68.8H79.3895C80.1895 68.8 80.9095 68.9333 81.5495 69.2C82.2002 69.4667 82.7548 69.8507 83.2135 70.352C83.6722 70.8533 84.0242 71.4453 84.2695 72.128C84.5148 72.8107 84.6375 73.568 84.6375 74.4C84.6375 75.232 84.5148 75.9947 84.2695 76.688C84.0242 77.3707 83.6722 77.9627 83.2135 78.464C82.7655 78.9547 82.2162 79.3333 81.5655 79.6C80.9148 79.8667 80.1895 80 79.3895 80H75.0055ZM76.7335 78.512L76.6855 78.336H79.3095C79.8748 78.336 80.3762 78.2453 80.8135 78.064C81.2615 77.8827 81.6348 77.6267 81.9335 77.296C82.2428 76.9547 82.4775 76.5387 82.6375 76.048C82.7975 75.5573 82.8775 75.008 82.8775 74.4C82.8775 73.792 82.7975 73.248 82.6375 72.768C82.4775 72.2773 82.2428 71.8613 81.9335 71.52C81.6242 71.1787 81.2508 70.9173 80.8135 70.736C80.3762 70.5547 79.8748 70.464 79.3095 70.464H76.6375L76.7335 70.32V78.512ZM90.2543 80.16C89.4009 80.16 88.6649 79.9253 88.0463 79.456C87.4383 78.9867 86.9689 78.3253 86.6383 77.472C86.3076 76.608 86.1423 75.584 86.1423 74.4C86.1423 73.216 86.3076 72.1973 86.6383 71.344C86.9689 70.48 87.4383 69.8133 88.0463 69.344C88.6649 68.8747 89.4009 68.64 90.2543 68.64C91.1076 68.64 91.8436 68.8747 92.4623 69.344C93.0809 69.8133 93.5556 70.48 93.8863 71.344C94.2169 72.1973 94.3823 73.216 94.3823 74.4C94.3823 75.584 94.2169 76.608 93.8863 77.472C93.5556 78.3253 93.0809 78.9867 92.4623 79.456C91.8436 79.9253 91.1076 80.16 90.2543 80.16ZM90.2543 78.592C91.0329 78.592 91.6356 78.2293 92.0623 77.504C92.4889 76.768 92.7023 75.7333 92.7023 74.4C92.7023 73.0667 92.4889 72.0373 92.0623 71.312C91.6356 70.576 91.0329 70.208 90.2543 70.208C89.4756 70.208 88.8729 70.576 88.4463 71.312C88.0196 72.0373 87.8063 73.0667 87.8063 74.4C87.8063 75.7333 88.0196 76.768 88.4463 77.504C88.8729 78.2293 89.4756 78.592 90.2543 78.592Z" fill="#1C0E13"/>
</svg>
