<svg width="285" height="298" viewBox="0 0 285 298" fill="none" xmlns="http://www.w3.org/2000/svg">
<rect width="285" height="297.216" rx="8" fill="black"/>
<rect x="10" y="9.97363" width="266" height="277.268" rx="8" fill="#DAE4FF"/>
<path d="M21.96 49.9209V35.9209H24.12V47.8409H30.68V49.9209H21.96ZM37.062 50.1209C36.1954 50.1209 35.402 49.8809 34.682 49.4009C33.9754 48.9209 33.4087 48.2676 32.982 47.4409C32.5554 46.6142 32.342 45.6809 32.342 44.6409C32.342 43.5876 32.5554 42.6542 32.982 41.8409C33.422 41.0142 34.0087 40.3676 34.742 39.9009C35.4887 39.4342 36.322 39.2009 37.242 39.2009C37.7887 39.2009 38.2887 39.2809 38.742 39.4409C39.1954 39.6009 39.5887 39.8276 39.922 40.1209C40.2687 40.4009 40.5487 40.7276 40.762 41.1009C40.9887 41.4742 41.1287 41.8742 41.182 42.3009L40.722 42.1409V39.4209H42.802V49.9209H40.722V47.4209L41.202 47.2809C41.122 47.6409 40.9554 47.9942 40.702 48.3409C40.462 48.6742 40.1487 48.9742 39.762 49.2409C39.3887 49.5076 38.9687 49.7209 38.502 49.8809C38.0487 50.0409 37.5687 50.1209 37.062 50.1209ZM37.602 48.2209C38.2287 48.2209 38.782 48.0676 39.262 47.7609C39.742 47.4542 40.1154 47.0342 40.382 46.5009C40.662 45.9542 40.802 45.3342 40.802 44.6409C40.802 43.9609 40.662 43.3542 40.382 42.8209C40.1154 42.2876 39.742 41.8676 39.262 41.5609C38.782 41.2542 38.2287 41.1009 37.602 41.1009C36.9887 41.1009 36.442 41.2542 35.962 41.5609C35.4954 41.8676 35.122 42.2876 34.842 42.8209C34.5754 43.3542 34.442 43.9609 34.442 44.6409C34.442 45.3342 34.5754 45.9542 34.842 46.5009C35.122 47.0342 35.4954 47.4542 35.962 47.7609C36.442 48.0676 36.9887 48.2209 37.602 48.2209ZM48.8839 49.9209L44.4439 39.4209H46.6639L49.8639 47.2809L49.4839 47.4609L52.9039 39.4209H55.0239L50.3639 49.9209H48.8839ZM61.5158 50.1209C60.4358 50.1209 59.4758 49.8942 58.6358 49.4409C57.8091 48.9742 57.1558 48.3409 56.6758 47.5409C56.2091 46.7409 55.9758 45.8209 55.9758 44.7809C55.9758 43.9542 56.1091 43.2009 56.3758 42.5209C56.6424 41.8409 57.0091 41.2542 57.4758 40.7609C57.9558 40.2542 58.5224 39.8676 59.1758 39.6009C59.8424 39.3209 60.5624 39.1809 61.3358 39.1809C62.0158 39.1809 62.6491 39.3142 63.2358 39.5809C63.8224 39.8342 64.3291 40.1876 64.7558 40.6409C65.1958 41.0942 65.5291 41.6342 65.7558 42.2609C65.9958 42.8742 66.1091 43.5476 66.0958 44.2809L66.0758 45.1609H57.4958L57.0358 43.5209H64.2958L63.9958 43.8609V43.3809C63.9558 42.9409 63.8091 42.5476 63.5558 42.2009C63.3024 41.8542 62.9824 41.5809 62.5958 41.3809C62.2091 41.1809 61.7891 41.0809 61.3358 41.0809C60.6158 41.0809 60.0091 41.2209 59.5158 41.5009C59.0224 41.7676 58.6491 42.1676 58.3958 42.7009C58.1424 43.2209 58.0158 43.8676 58.0158 44.6409C58.0158 45.3742 58.1691 46.0142 58.4758 46.5609C58.7824 47.0942 59.2158 47.5076 59.7758 47.8009C60.3358 48.0942 60.9824 48.2409 61.7158 48.2409C62.2358 48.2409 62.7158 48.1542 63.1558 47.9809C63.6091 47.8076 64.0958 47.4942 64.6158 47.0409L65.6558 48.5009C65.3358 48.8209 64.9424 49.1009 64.4758 49.3409C64.0224 49.5809 63.5358 49.7742 63.0158 49.9209C62.5091 50.0542 62.0091 50.1209 61.5158 50.1209ZM68.3345 49.9209V39.4209H70.3945V41.5809L70.0345 41.8209C70.1679 41.3542 70.4279 40.9276 70.8145 40.5409C71.2012 40.1409 71.6612 39.8209 72.1945 39.5809C72.7279 39.3276 73.2745 39.2009 73.8345 39.2009C74.6345 39.2009 75.3012 39.3609 75.8345 39.6809C76.3679 39.9876 76.7679 40.4609 77.0345 41.1009C77.3012 41.7409 77.4345 42.5476 77.4345 43.5209V49.9209H75.3745V43.6609C75.3745 43.0609 75.2945 42.5676 75.1345 42.1809C74.9745 41.7809 74.7279 41.4942 74.3945 41.3209C74.0612 41.1342 73.6479 41.0542 73.1545 41.0809C72.7545 41.0809 72.3879 41.1476 72.0545 41.2809C71.7212 41.4009 71.4279 41.5742 71.1745 41.8009C70.9345 42.0276 70.7412 42.2942 70.5945 42.6009C70.4612 42.8942 70.3945 43.2142 70.3945 43.5609V49.9209H69.3745C69.2012 49.9209 69.0279 49.9209 68.8545 49.9209C68.6812 49.9209 68.5079 49.9209 68.3345 49.9209ZM84.6091 50.1209C83.6491 50.1209 82.7891 49.8876 82.0291 49.4209C81.2824 48.9409 80.6891 48.2942 80.2491 47.4809C79.8091 46.6542 79.5891 45.7142 79.5891 44.6609C79.5891 43.6076 79.8024 42.6742 80.2291 41.8609C80.6691 41.0342 81.2624 40.3876 82.0091 39.9209C82.7557 39.4409 83.6024 39.2009 84.5491 39.2009C85.0691 39.2009 85.5691 39.2876 86.0491 39.4609C86.5424 39.6209 86.9824 39.8476 87.3691 40.1409C87.7557 40.4209 88.0557 40.7342 88.2691 41.0809C88.4957 41.4142 88.6091 41.7542 88.6091 42.1009L88.0091 42.1409V35.1209H90.0691V49.9209H88.0091V47.4209H88.4091C88.4091 47.7409 88.3024 48.0609 88.0891 48.3809C87.8757 48.6876 87.5891 48.9742 87.2291 49.2409C86.8824 49.5076 86.4757 49.7209 86.0091 49.8809C85.5557 50.0409 85.0891 50.1209 84.6091 50.1209ZM84.8891 48.3409C85.5157 48.3409 86.0691 48.1809 86.5491 47.8609C87.0291 47.5409 87.4024 47.1076 87.6691 46.5609C87.9491 46.0009 88.0891 45.3676 88.0891 44.6609C88.0891 43.9542 87.9491 43.3276 87.6691 42.7809C87.4024 42.2209 87.0291 41.7809 86.5491 41.4609C86.0691 41.1409 85.5157 40.9809 84.8891 40.9809C84.2624 40.9809 83.7091 41.1409 83.2291 41.4609C82.7491 41.7809 82.3691 42.2209 82.0891 42.7809C81.8224 43.3276 81.6891 43.9542 81.6891 44.6609C81.6891 45.3676 81.8224 46.0009 82.0891 46.5609C82.3691 47.1076 82.7491 47.5409 83.2291 47.8609C83.7091 48.1809 84.2624 48.3409 84.8891 48.3409ZM97.8048 50.1209C96.7248 50.1209 95.7648 49.8942 94.9248 49.4409C94.0982 48.9742 93.4448 48.3409 92.9648 47.5409C92.4982 46.7409 92.2648 45.8209 92.2648 44.7809C92.2648 43.9542 92.3982 43.2009 92.6648 42.5209C92.9315 41.8409 93.2982 41.2542 93.7648 40.7609C94.2448 40.2542 94.8115 39.8676 95.4648 39.6009C96.1315 39.3209 96.8515 39.1809 97.6248 39.1809C98.3048 39.1809 98.9382 39.3142 99.5248 39.5809C100.112 39.8342 100.618 40.1876 101.045 40.6409C101.485 41.0942 101.818 41.6342 102.045 42.2609C102.285 42.8742 102.398 43.5476 102.385 44.2809L102.365 45.1609H93.7848L93.3248 43.5209H100.585L100.285 43.8609V43.3809C100.245 42.9409 100.098 42.5476 99.8448 42.2009C99.5915 41.8542 99.2715 41.5809 98.8848 41.3809C98.4982 41.1809 98.0782 41.0809 97.6248 41.0809C96.9048 41.0809 96.2982 41.2209 95.8048 41.5009C95.3115 41.7676 94.9382 42.1676 94.6848 42.7009C94.4315 43.2209 94.3048 43.8676 94.3048 44.6409C94.3048 45.3742 94.4582 46.0142 94.7648 46.5609C95.0715 47.0942 95.5048 47.5076 96.0648 47.8009C96.6248 48.0942 97.2715 48.2409 98.0048 48.2409C98.5248 48.2409 99.0048 48.1542 99.4448 47.9809C99.8982 47.8076 100.385 47.4942 100.905 47.0409L101.945 48.5009C101.625 48.8209 101.232 49.1009 100.765 49.3409C100.312 49.5809 99.8248 49.7742 99.3048 49.9209C98.7982 50.0542 98.2982 50.1209 97.8048 50.1209ZM104.624 49.9209V39.4209H106.704V42.7209L106.504 41.9209C106.65 41.4142 106.897 40.9542 107.244 40.5409C107.604 40.1276 108.01 39.8009 108.464 39.5609C108.93 39.3209 109.41 39.2009 109.904 39.2009C110.13 39.2009 110.344 39.2209 110.544 39.2609C110.757 39.3009 110.924 39.3476 111.044 39.4009L110.504 41.6409C110.344 41.5742 110.164 41.5209 109.964 41.4809C109.777 41.4276 109.59 41.4009 109.404 41.4009C109.044 41.4009 108.697 41.4742 108.364 41.6209C108.044 41.7542 107.757 41.9476 107.504 42.2009C107.264 42.4409 107.07 42.7276 106.924 43.0609C106.777 43.3809 106.704 43.7342 106.704 44.1209V49.9209H104.624Z" fill="#1C0E13"/>
<path d="M25.872 80L27.792 68.8H29.232L27.312 80H25.872ZM20.496 77.232V75.904H29.76V77.232H20.496ZM21.616 80L23.536 68.8H24.976L23.056 80H21.616ZM21.104 72.752V71.424H30.352V72.752H21.104ZM32.4118 80V68.8H36.7958C37.5958 68.8 38.3158 68.9333 38.9558 69.2C39.6064 69.4667 40.1611 69.8507 40.6198 70.352C41.0784 70.8533 41.4304 71.4453 41.6758 72.128C41.9211 72.8107 42.0438 73.568 42.0438 74.4C42.0438 75.232 41.9211 75.9947 41.6758 76.688C41.4304 77.3707 41.0784 77.9627 40.6198 78.464C40.1718 78.9547 39.6224 79.3333 38.9718 79.6C38.3211 79.8667 37.5958 80 36.7958 80H32.4118ZM34.1398 78.512L34.0918 78.336H36.7158C37.2811 78.336 37.7824 78.2453 38.2198 78.064C38.6678 77.8827 39.0411 77.6267 39.3398 77.296C39.6491 76.9547 39.8838 76.5387 40.0438 76.048C40.2038 75.5573 40.2838 75.008 40.2838 74.4C40.2838 73.792 40.2038 73.248 40.0438 72.768C39.8838 72.2773 39.6491 71.8613 39.3398 71.52C39.0304 71.1787 38.6571 70.9173 38.2198 70.736C37.7824 70.5547 37.2811 70.464 36.7158 70.464H34.0438L34.1398 70.32V78.512ZM42.9 80L47.236 68.8H48.996L53.3 80H51.46L48.9 73.248C48.868 73.1733 48.804 72.992 48.708 72.704C48.6227 72.416 48.5213 72.096 48.404 71.744C48.2867 71.392 48.18 71.072 48.084 70.784C47.988 70.4853 47.924 70.2933 47.892 70.208L48.26 70.192C48.196 70.3733 48.116 70.6027 48.02 70.88C47.9347 71.1573 47.8387 71.4507 47.732 71.76C47.636 72.0693 47.54 72.3627 47.444 72.64C47.348 72.9067 47.268 73.1307 47.204 73.312L44.66 80H42.9ZM44.82 77.216L45.46 75.552H50.548L51.284 77.216H44.82ZM55.2711 80V68.8H62.3271V70.464H56.9991V78.336H62.3271V80H55.2711ZM56.0551 75.088V73.424H61.4471V75.088H56.0551ZM69.1633 80V70.976L69.5633 71.072L65.8832 75.568L65.8193 75.376H72.7793V76.96H64.7473L64.0113 75.52L69.4993 68.8H70.8273V80H69.1633ZM75.0211 80V68.8H76.7491V80H75.0211ZM75.7891 75.232V73.568H81.5651V75.232H75.7891ZM75.7891 70.464V68.8H82.2851V70.464H75.7891ZM84.6461 80V68.8H86.3741V80H84.6461ZM85.4141 75.232V73.568H91.1901V75.232H85.4141ZM85.4141 70.464V68.8H91.9101V70.464H85.4141Z" fill="#1C0E13"/>
</svg>
