<svg width="285" height="298" viewBox="0 0 285 298" fill="none" xmlns="http://www.w3.org/2000/svg">
<rect width="285" height="297.216" rx="8" fill="black"/>
<rect x="10" y="9.97363" width="266" height="277.268" rx="8" fill="#1C0E13"/>
<path d="M21.96 49.9209V35.9209H24.12V47.8409H30.68V49.9209H21.96ZM33.7527 49.9209V39.4209H35.8127V49.9209H33.7527ZM34.7527 37.1009C34.3127 37.1009 33.9727 36.9876 33.7327 36.7609C33.4927 36.5342 33.3727 36.2142 33.3727 35.8009C33.3727 35.4142 33.4927 35.1009 33.7327 34.8609C33.986 34.6209 34.326 34.5009 34.7527 34.5009C35.1927 34.5009 35.5327 34.6142 35.7727 34.8409C36.0127 35.0676 36.1327 35.3876 36.1327 35.8009C36.1327 36.1876 36.006 36.5009 35.7527 36.7409C35.5127 36.9809 35.1793 37.1009 34.7527 37.1009ZM46.6391 54.3209V47.4209H47.0391C47.0391 47.7409 46.9324 48.0609 46.7191 48.3809C46.5057 48.6876 46.2191 48.9742 45.8591 49.2409C45.4991 49.5076 45.0991 49.7209 44.6591 49.8809C44.2191 50.0409 43.7657 50.1209 43.2991 50.1209C42.3524 50.1209 41.5057 49.8876 40.7591 49.4209C40.0124 48.9409 39.4191 48.2942 38.9791 47.4809C38.5524 46.6542 38.3391 45.7142 38.3391 44.6609C38.3391 43.6076 38.5524 42.6742 38.9791 41.8609C39.4057 41.0342 39.9857 40.3876 40.7191 39.9209C41.4657 39.4409 42.3057 39.2009 43.2391 39.2009C43.7591 39.2009 44.2524 39.2876 44.7191 39.4609C45.1991 39.6342 45.6257 39.8609 45.9991 40.1409C46.3857 40.4209 46.6857 40.7342 46.8991 41.0809C47.1257 41.4142 47.2391 41.7542 47.2391 42.1009L46.6391 42.1409V39.4009H48.6991V54.3209H46.6391ZM43.5191 48.2209C44.1457 48.2209 44.6991 48.0676 45.1791 47.7609C45.6591 47.4542 46.0324 47.0342 46.2991 46.5009C46.5791 45.9676 46.7191 45.3542 46.7191 44.6609C46.7191 43.9676 46.5791 43.3542 46.2991 42.8209C46.0324 42.2742 45.6591 41.8476 45.1791 41.5409C44.6991 41.2342 44.1457 41.0809 43.5191 41.0809C42.8924 41.0809 42.3391 41.2409 41.8591 41.5609C41.3791 41.8676 40.9991 42.2942 40.7191 42.8409C40.4524 43.3742 40.3191 43.9809 40.3191 44.6609C40.3191 45.3409 40.4524 45.9542 40.7191 46.5009C40.9991 47.0342 41.3791 47.4542 41.8591 47.7609C42.3391 48.0676 42.8924 48.2209 43.5191 48.2209ZM55.2567 50.1209C54.5101 50.1209 53.8567 49.9476 53.2967 49.6009C52.7501 49.2542 52.3234 48.7676 52.0167 48.1409C51.7234 47.5142 51.5767 46.7676 51.5767 45.9009V39.4209H53.6367V45.3409C53.6367 45.9542 53.7301 46.4876 53.9167 46.9409C54.1167 47.3809 54.3967 47.7209 54.7567 47.9609C55.1301 48.2009 55.5767 48.3209 56.0967 48.3209C56.4834 48.3209 56.8367 48.2609 57.1567 48.1409C57.4767 48.0076 57.7501 47.8276 57.9767 47.6009C58.2167 47.3742 58.4034 47.1009 58.5367 46.7809C58.6701 46.4609 58.7367 46.1142 58.7367 45.7409V39.4209H60.7967V49.9209H58.7367V47.7209L59.0967 47.4809C58.9367 47.9742 58.6634 48.4209 58.2767 48.8209C57.9034 49.2209 57.4567 49.5409 56.9367 49.7809C56.4167 50.0076 55.8567 50.1209 55.2567 50.1209ZM68.4061 50.1209C67.3794 50.1209 66.4594 49.8876 65.6461 49.4209C64.8461 48.9409 64.2128 48.2942 63.7461 47.4809C63.2794 46.6542 63.0461 45.7142 63.0461 44.6609C63.0461 43.6076 63.2794 42.6742 63.7461 41.8609C64.2128 41.0342 64.8461 40.3876 65.6461 39.9209C66.4594 39.4409 67.3794 39.2009 68.4061 39.2009C69.4194 39.2009 70.3261 39.4409 71.1261 39.9209C71.9394 40.3876 72.5794 41.0342 73.0461 41.8609C73.5128 42.6742 73.7461 43.6076 73.7461 44.6609C73.7461 45.7142 73.5128 46.6542 73.0461 47.4809C72.5794 48.2942 71.9394 48.9409 71.1261 49.4209C70.3261 49.8876 69.4194 50.1209 68.4061 50.1209ZM68.4061 48.2409C69.0328 48.2409 69.5928 48.0876 70.0861 47.7809C70.5794 47.4609 70.9661 47.0342 71.2461 46.5009C71.5261 45.9542 71.6594 45.3409 71.6461 44.6609C71.6594 43.9676 71.5261 43.3542 71.2461 42.8209C70.9661 42.2742 70.5794 41.8476 70.0861 41.5409C69.5928 41.2342 69.0328 41.0809 68.4061 41.0809C67.7794 41.0809 67.2128 41.2409 66.7061 41.5609C66.2128 41.8676 65.8261 42.2942 65.5461 42.8409C65.2661 43.3742 65.1328 43.9809 65.1461 44.6609C65.1328 45.3409 65.2661 45.9542 65.5461 46.5009C65.8261 47.0342 66.2128 47.4609 66.7061 47.7809C67.2128 48.0876 67.7794 48.2409 68.4061 48.2409ZM75.9908 49.9209V39.4209H78.0708V42.7209L77.8708 41.9209C78.0174 41.4142 78.2641 40.9542 78.6108 40.5409C78.9708 40.1276 79.3774 39.8009 79.8308 39.5609C80.2974 39.3209 80.7774 39.2009 81.2708 39.2009C81.4974 39.2009 81.7108 39.2209 81.9108 39.2609C82.1241 39.3009 82.2908 39.3476 82.4108 39.4009L81.8708 41.6409C81.7108 41.5742 81.5308 41.5209 81.3308 41.4809C81.1441 41.4276 80.9574 41.4009 80.7708 41.4009C80.4108 41.4009 80.0641 41.4742 79.7308 41.6209C79.4108 41.7542 79.1241 41.9476 78.8708 42.2009C78.6308 42.4409 78.4374 42.7276 78.2908 43.0609C78.1441 43.3809 78.0708 43.7342 78.0708 44.1209V49.9209H75.9908ZM84.3972 49.9209V39.4209H86.4572V49.9209H84.3972ZM85.3972 37.1009C84.9572 37.1009 84.6172 36.9876 84.3772 36.7609C84.1372 36.5342 84.0172 36.2142 84.0172 35.8009C84.0172 35.4142 84.1372 35.1009 84.3772 34.8609C84.6305 34.6209 84.9705 34.5009 85.3972 34.5009C85.8372 34.5009 86.1772 34.6142 86.4172 34.8409C86.6572 35.0676 86.7772 35.3876 86.7772 35.8009C86.7772 36.1876 86.6505 36.5009 86.3972 36.7409C86.1572 36.9809 85.8239 37.1009 85.3972 37.1009ZM94.0836 50.1209C93.1103 50.1209 92.2369 49.8809 91.4636 49.4009C90.7036 48.9209 90.0969 48.2676 89.6436 47.4409C89.2036 46.6142 88.9836 45.6876 88.9836 44.6609C88.9836 43.6342 89.2036 42.7076 89.6436 41.8809C90.0969 41.0542 90.7036 40.4009 91.4636 39.9209C92.2369 39.4409 93.1103 39.2009 94.0836 39.2009C95.0169 39.2009 95.8636 39.3942 96.6236 39.7809C97.3969 40.1542 97.9836 40.6676 98.3836 41.3209L97.2436 42.7209C97.0303 42.4142 96.7569 42.1342 96.4236 41.8809C96.0903 41.6276 95.7369 41.4276 95.3636 41.2809C94.9903 41.1342 94.6303 41.0609 94.2836 41.0609C93.6436 41.0609 93.0703 41.2209 92.5636 41.5409C92.0703 41.8476 91.6769 42.2742 91.3836 42.8209C91.0903 43.3676 90.9436 43.9809 90.9436 44.6609C90.9436 45.3409 91.0969 45.9542 91.4036 46.5009C91.7103 47.0342 92.1169 47.4609 92.6236 47.7809C93.1303 48.1009 93.6903 48.2609 94.3036 48.2609C94.6636 48.2609 95.0103 48.2009 95.3436 48.0809C95.6903 47.9609 96.0236 47.7809 96.3436 47.5409C96.6636 47.3009 96.9636 47.0076 97.2436 46.6609L98.3836 48.0609C97.9569 48.6609 97.3436 49.1542 96.5436 49.5409C95.7569 49.9276 94.9369 50.1209 94.0836 50.1209ZM105.227 50.1209C104.147 50.1209 103.187 49.8942 102.347 49.4409C101.52 48.9742 100.867 48.3409 100.387 47.5409C99.9201 46.7409 99.6867 45.8209 99.6867 44.7809C99.6867 43.9542 99.8201 43.2009 100.087 42.5209C100.353 41.8409 100.72 41.2542 101.187 40.7609C101.667 40.2542 102.233 39.8676 102.887 39.6009C103.553 39.3209 104.273 39.1809 105.047 39.1809C105.727 39.1809 106.36 39.3142 106.947 39.5809C107.533 39.8342 108.04 40.1876 108.467 40.6409C108.907 41.0942 109.24 41.6342 109.467 42.2609C109.707 42.8742 109.82 43.5476 109.807 44.2809L109.787 45.1609H101.207L100.747 43.5209H108.007L107.707 43.8609V43.3809C107.667 42.9409 107.52 42.5476 107.267 42.2009C107.013 41.8542 106.693 41.5809 106.307 41.3809C105.92 41.1809 105.5 41.0809 105.047 41.0809C104.327 41.0809 103.72 41.2209 103.227 41.5009C102.733 41.7676 102.36 42.1676 102.107 42.7009C101.853 43.2209 101.727 43.8676 101.727 44.6409C101.727 45.3742 101.88 46.0142 102.187 46.5609C102.493 47.0942 102.927 47.5076 103.487 47.8009C104.047 48.0942 104.693 48.2409 105.427 48.2409C105.947 48.2409 106.427 48.1542 106.867 47.9809C107.32 47.8076 107.807 47.4942 108.327 47.0409L109.367 48.5009C109.047 48.8209 108.653 49.1009 108.187 49.3409C107.733 49.5809 107.247 49.7742 106.727 49.9209C106.22 50.0542 105.72 50.1209 105.227 50.1209Z" fill="white"/>
<path d="M26.872 80L28.792 68.8H30.232L28.312 80H26.872ZM21.496 77.232V75.904H30.76V77.232H21.496ZM22.616 80L24.536 68.8H25.976L24.056 80H22.616ZM22.104 72.752V71.424H31.352V72.752H22.104ZM35.3158 79.216V70.128L35.9078 70.576L33.6998 71.744L33.2358 70.24L36.2278 68.64H37.0598V79.216H35.3158ZM33.5398 80V78.336H38.8838V80H33.5398ZM45.9558 80.16C45.1771 80.16 44.4624 80.0213 43.8118 79.744C43.1611 79.4667 42.5958 79.072 42.1158 78.56C41.6358 78.0373 41.2624 77.424 40.9958 76.72C40.7398 76.016 40.6118 75.2427 40.6118 74.4C40.6118 73.6 40.7504 72.8587 41.0278 72.176C41.3158 71.4827 41.7104 70.8747 42.2118 70.352C42.7131 69.8293 43.2944 69.424 43.9557 69.136C44.6171 68.848 45.3318 68.704 46.0998 68.704C46.6438 68.704 47.1718 68.7893 47.6838 68.96C48.2064 69.12 48.6758 69.3493 49.0918 69.648C49.5184 69.936 49.8651 70.2667 50.1318 70.64L48.9798 71.84C48.6704 71.5307 48.3558 71.2747 48.0358 71.072C47.7264 70.8587 47.4064 70.6987 47.0758 70.592C46.7558 70.4853 46.4304 70.432 46.0998 70.432C45.5771 70.432 45.0864 70.5333 44.6278 70.736C44.1798 70.928 43.7851 71.2 43.4438 71.552C43.1131 71.904 42.8518 72.3253 42.6598 72.816C42.4678 73.296 42.3718 73.824 42.3718 74.4C42.3718 75.008 42.4624 75.5627 42.6438 76.064C42.8358 76.5547 43.1024 76.976 43.4438 77.328C43.7851 77.68 44.1904 77.952 44.6598 78.144C45.1398 78.3253 45.6678 78.416 46.2438 78.416C46.5958 78.416 46.9424 78.368 47.2838 78.272C47.6251 78.176 47.9451 78.0373 48.2438 77.856C48.5424 77.6747 48.8144 77.4613 49.0598 77.216L49.9238 78.624C49.6784 78.912 49.3424 79.1733 48.9158 79.408C48.4998 79.6427 48.0304 79.8293 47.5078 79.968C46.9958 80.096 46.4784 80.16 45.9558 80.16ZM55.5511 80.16C54.6978 80.16 53.9618 79.9253 53.3431 79.456C52.7351 78.9867 52.2658 78.3253 51.9351 77.472C51.6045 76.608 51.4391 75.584 51.4391 74.4C51.4391 73.216 51.6045 72.1973 51.9351 71.344C52.2658 70.48 52.7351 69.8133 53.3431 69.344C53.9618 68.8747 54.6978 68.64 55.5511 68.64C56.4045 68.64 57.1405 68.8747 57.7591 69.344C58.3778 69.8133 58.8525 70.48 59.1831 71.344C59.5138 72.1973 59.6791 73.216 59.6791 74.4C59.6791 75.584 59.5138 76.608 59.1831 77.472C58.8525 78.3253 58.3778 78.9867 57.7591 79.456C57.1405 79.9253 56.4045 80.16 55.5511 80.16ZM55.5511 78.592C56.3298 78.592 56.9325 78.2293 57.3591 77.504C57.7858 76.768 57.9991 75.7333 57.9991 74.4C57.9991 73.0667 57.7858 72.0373 57.3591 71.312C56.9325 70.576 56.3298 70.208 55.5511 70.208C54.7725 70.208 54.1698 70.576 53.7431 71.312C53.3165 72.0373 53.1031 73.0667 53.1031 74.4C53.1031 75.7333 53.3165 76.768 53.7431 77.504C54.1698 78.2293 54.7725 78.592 55.5511 78.592ZM61.9899 80V68.8H69.0459V70.464H63.7179V78.336H69.0459V80H61.9899ZM62.7739 75.088V73.424H68.1659V75.088H62.7739ZM73.722 79.216V70.128L74.314 70.576L72.106 71.744L71.642 70.24L74.634 68.64H75.466V79.216H73.722ZM71.946 80V78.336H77.29V80H71.946ZM82.266 80.16C81.4767 80.16 80.7887 79.9787 80.202 79.616C79.626 79.2533 79.082 78.6453 78.57 77.792L79.914 76.944C80.1807 77.3387 80.442 77.664 80.698 77.92C80.9647 78.1653 81.2367 78.3467 81.514 78.464C81.7913 78.5813 82.0847 78.64 82.394 78.64C82.7673 78.64 83.114 78.5493 83.434 78.368C83.754 78.176 84.01 77.9147 84.202 77.584C84.394 77.2533 84.49 76.88 84.49 76.464C84.49 76.048 84.4153 75.696 84.266 75.408C84.1167 75.1093 83.898 74.8853 83.61 74.736C83.322 74.576 82.9807 74.496 82.586 74.496C82.4047 74.496 82.2127 74.5173 82.01 74.56C81.818 74.592 81.61 74.6453 81.386 74.72C81.162 74.784 80.9167 74.8693 80.65 74.976L80.17 73.712L83.626 69.904L83.962 70.4H79.194V68.8H85.61L85.93 69.44L82.266 73.504L81.866 73.088C81.9513 73.0453 82.09 73.008 82.282 72.976C82.4847 72.9333 82.65 72.912 82.778 72.912C83.2473 72.912 83.6847 73.0027 84.09 73.184C84.506 73.3547 84.8633 73.6 85.162 73.92C85.4713 74.2293 85.7113 74.5973 85.882 75.024C86.0633 75.44 86.154 75.888 86.154 76.368C86.154 77.0933 85.978 77.744 85.626 78.32C85.2847 78.8853 84.8207 79.3333 84.234 79.664C83.6473 79.9947 82.9913 80.16 82.266 80.16Z" fill="white"/>
</svg>
