<svg width="285" height="298" viewBox="0 0 285 298" fill="none" xmlns="http://www.w3.org/2000/svg">
<rect width="285" height="297.216" rx="8" fill="black"/>
<rect x="10" y="9.97363" width="266" height="277.268" rx="8" fill="#A98A95"/>
<path d="M25.872 70L27.792 58.8H29.232L27.312 70H25.872ZM20.496 67.232V65.904H29.76V67.232H20.496ZM21.616 70L23.536 58.8H24.976L23.056 70H21.616ZM21.104 62.752V61.424H30.352V62.752H21.104ZM31.2438 70L35.5798 58.8H37.3398L41.6438 70H39.8038L37.2438 63.248C37.2118 63.1733 37.1478 62.992 37.0518 62.704C36.9664 62.416 36.8651 62.096 36.7478 61.744C36.6304 61.392 36.5238 61.072 36.4278 60.784C36.3318 60.4853 36.2678 60.2933 36.2358 60.208L36.6038 60.192C36.5398 60.3733 36.4598 60.6027 36.3638 60.88C36.2784 61.1573 36.1824 61.4507 36.0758 61.76C35.9798 62.0693 35.8838 62.3627 35.7878 62.64C35.6918 62.9067 35.6118 63.1307 35.5477 63.312L33.0038 70H31.2438ZM33.1638 67.216L33.8038 65.552H38.8918L39.6278 67.216H33.1638ZM45.6949 70L45.6309 69.84L48.9589 62.768L49.0069 64.096C48.8149 64.416 48.6015 64.6987 48.3669 64.944C48.1429 65.1893 47.8922 65.4027 47.6149 65.584C47.3482 65.7547 47.0709 65.888 46.7829 65.984C46.4949 66.0693 46.2015 66.112 45.9029 66.112C45.2949 66.112 44.7349 65.952 44.2229 65.632C43.7109 65.312 43.3002 64.8853 42.9909 64.352C42.6815 63.8187 42.5269 63.2373 42.5269 62.608C42.5269 61.8507 42.6975 61.1733 43.0389 60.576C43.3802 59.968 43.8442 59.488 44.4309 59.136C45.0282 58.784 45.6949 58.608 46.4309 58.608C46.9642 58.608 47.4655 58.704 47.9349 58.896C48.4042 59.088 48.8149 59.36 49.1669 59.712C49.5189 60.0533 49.7962 60.4533 49.9989 60.912C50.2015 61.36 50.3029 61.84 50.3029 62.352C50.3029 62.6187 50.2762 62.9067 50.2229 63.216C50.1695 63.5147 50.0789 63.856 49.9509 64.24C49.8335 64.6133 49.6735 65.0453 49.4709 65.536C49.2682 66.016 49.0175 66.576 48.7189 67.216L47.3909 70H45.6949ZM46.2709 64.512C46.6869 64.512 47.0602 64.4213 47.3909 64.24C47.7215 64.048 47.9775 63.7973 48.1589 63.488C48.3509 63.168 48.4469 62.8107 48.4469 62.416C48.4469 62 48.3562 61.6267 48.1749 61.296C47.9935 60.9547 47.7375 60.688 47.4069 60.496C47.0869 60.304 46.7189 60.208 46.3029 60.208C45.9189 60.208 45.5775 60.304 45.2789 60.496C44.9802 60.6773 44.7402 60.9333 44.5589 61.264C44.3882 61.584 44.3029 61.9627 44.3029 62.4C44.3029 62.7733 44.3882 63.12 44.5589 63.44C44.7402 63.76 44.9802 64.0213 45.2789 64.224C45.5775 64.416 45.9082 64.512 46.2709 64.512ZM55.4834 70.048C54.79 70.048 54.1554 69.904 53.5794 69.616C53.014 69.3173 52.5607 68.9227 52.2194 68.432C51.878 67.9413 51.7074 67.3973 51.7074 66.8C51.7074 66.4693 51.75 66.16 51.8354 65.872C51.9314 65.5733 52.07 65.3013 52.2514 65.056C52.4434 64.8107 52.6727 64.5867 52.9394 64.384C53.206 64.1813 53.5154 64 53.8674 63.84L53.7714 64.176C53.494 64.0693 53.2434 63.9413 53.0194 63.792C52.806 63.632 52.6194 63.4507 52.4594 63.248C52.2994 63.0453 52.1767 62.8267 52.0914 62.592C52.0167 62.3573 51.9794 62.112 51.9794 61.856C51.9794 61.2907 52.134 60.7787 52.4434 60.32C52.7634 59.8613 53.1847 59.4933 53.7074 59.216C54.2407 58.9387 54.8327 58.8 55.4834 58.8C56.134 58.8 56.7207 58.9387 57.2434 59.216C57.7767 59.4933 58.198 59.8613 58.5074 60.32C58.8274 60.7787 58.9874 61.2907 58.9874 61.856C58.9874 62.112 58.9447 62.3573 58.8594 62.592C58.7847 62.8267 58.6727 63.04 58.5234 63.232C58.374 63.424 58.182 63.6 57.9474 63.76C57.7234 63.92 57.4674 64.0587 57.1794 64.176L57.1314 63.904C57.4514 64.032 57.7394 64.1973 57.9954 64.4C58.262 64.6027 58.4914 64.832 58.6834 65.088C58.8754 65.344 59.0194 65.616 59.1154 65.904C59.222 66.192 59.2754 66.4907 59.2754 66.8C59.2754 67.408 59.1047 67.9573 58.7634 68.448C58.422 68.9387 57.9634 69.328 57.3874 69.616C56.822 69.904 56.1874 70.048 55.4834 70.048ZM55.4834 68.448C55.878 68.448 56.23 68.3733 56.5394 68.224C56.8594 68.0747 57.11 67.872 57.2914 67.616C57.4727 67.36 57.5634 67.0667 57.5634 66.736C57.5634 66.384 57.4727 66.0747 57.2914 65.808C57.11 65.5307 56.8594 65.312 56.5394 65.152C56.23 64.992 55.878 64.912 55.4834 64.912C55.0887 64.912 54.7367 64.992 54.4274 65.152C54.118 65.312 53.8727 65.5307 53.6914 65.808C53.51 66.0747 53.4194 66.384 53.4194 66.736C53.4194 67.056 53.51 67.344 53.6914 67.6C53.8727 67.856 54.118 68.064 54.4274 68.224C54.7367 68.3733 55.0887 68.448 55.4834 68.448ZM55.4834 63.376C55.8247 63.376 56.1287 63.312 56.3954 63.184C56.6727 63.056 56.886 62.8853 57.0354 62.672C57.1954 62.448 57.2754 62.192 57.2754 61.904C57.2754 61.616 57.1954 61.36 57.0354 61.136C56.886 60.912 56.6727 60.736 56.3954 60.608C56.1287 60.4693 55.8247 60.4 55.4834 60.4C55.142 60.4 54.8327 60.4693 54.5554 60.608C54.2887 60.736 54.0754 60.912 53.9154 61.136C53.766 61.36 53.6914 61.616 53.6914 61.904C53.6914 62.192 53.766 62.448 53.9154 62.672C54.0754 62.8853 54.2887 63.056 54.5554 63.184C54.8327 63.312 55.142 63.376 55.4834 63.376ZM60.525 70L64.861 58.8H66.621L70.925 70H69.085L66.525 63.248C66.493 63.1733 66.429 62.992 66.333 62.704C66.2477 62.416 66.1463 62.096 66.029 61.744C65.9117 61.392 65.805 61.072 65.709 60.784C65.613 60.4853 65.549 60.2933 65.517 60.208L65.885 60.192C65.821 60.3733 65.741 60.6027 65.645 60.88C65.5597 61.1573 65.4637 61.4507 65.357 61.76C65.261 62.0693 65.165 62.3627 65.069 62.64C64.973 62.9067 64.893 63.1307 64.829 63.312L62.285 70H60.525ZM62.445 67.216L63.085 65.552H68.173L68.909 67.216H62.445ZM74.9761 70L74.9121 69.84L78.2401 62.768L78.2881 64.096C78.0961 64.416 77.8828 64.6987 77.6481 64.944C77.4241 65.1893 77.1735 65.4027 76.8961 65.584C76.6295 65.7547 76.3521 65.888 76.0641 65.984C75.7761 66.0693 75.4828 66.112 75.1841 66.112C74.5761 66.112 74.0161 65.952 73.5041 65.632C72.9921 65.312 72.5815 64.8853 72.2721 64.352C71.9628 63.8187 71.8081 63.2373 71.8081 62.608C71.8081 61.8507 71.9788 61.1733 72.3201 60.576C72.6615 59.968 73.1255 59.488 73.7121 59.136C74.3095 58.784 74.9761 58.608 75.7121 58.608C76.2455 58.608 76.7468 58.704 77.2161 58.896C77.6855 59.088 78.0961 59.36 78.4481 59.712C78.8001 60.0533 79.0775 60.4533 79.2801 60.912C79.4828 61.36 79.5841 61.84 79.5841 62.352C79.5841 62.6187 79.5575 62.9067 79.5041 63.216C79.4508 63.5147 79.3601 63.856 79.2321 64.24C79.1148 64.6133 78.9548 65.0453 78.7521 65.536C78.5495 66.016 78.2988 66.576 78.0001 67.216L76.6721 70H74.9761ZM75.5521 64.512C75.9681 64.512 76.3415 64.4213 76.6721 64.24C77.0028 64.048 77.2588 63.7973 77.4401 63.488C77.6321 63.168 77.7281 62.8107 77.7281 62.416C77.7281 62 77.6375 61.6267 77.4561 61.296C77.2748 60.9547 77.0188 60.688 76.6881 60.496C76.3681 60.304 76.0001 60.208 75.5841 60.208C75.2001 60.208 74.8588 60.304 74.5601 60.496C74.2615 60.6773 74.0215 60.9333 73.8401 61.264C73.6695 61.584 73.5841 61.9627 73.5841 62.4C73.5841 62.7733 73.6695 63.12 73.8401 63.44C74.0215 63.76 74.2615 64.0213 74.5601 64.224C74.8588 64.416 75.1895 64.512 75.5521 64.512ZM84.2526 70.112C83.5166 70.112 82.85 69.9467 82.2526 69.616C81.6553 69.2747 81.1593 68.7893 80.7646 68.16L81.7246 67.088C82.226 67.6427 82.6633 68.0213 83.0366 68.224C83.41 68.4267 83.8153 68.528 84.2526 68.528C84.69 68.528 85.0846 68.432 85.4366 68.24C85.7886 68.048 86.066 67.7867 86.2686 67.456C86.482 67.1253 86.5886 66.7573 86.5886 66.352C86.5886 65.9253 86.4873 65.5467 86.2846 65.216C86.0926 64.8747 85.8313 64.608 85.5006 64.416C85.17 64.2133 84.7966 64.112 84.3806 64.112C84.178 64.112 83.986 64.128 83.8046 64.16C83.6233 64.1813 83.4046 64.24 83.1486 64.336C82.8926 64.432 82.5566 64.5813 82.1406 64.784L81.2286 63.552L81.8846 58.8H87.9326V60.4H82.9726L83.3086 60.096L82.7806 63.648L82.3806 63.184C82.4873 63.0773 82.6686 62.976 82.9246 62.88C83.1806 62.7733 83.4633 62.688 83.7726 62.624C84.0926 62.5493 84.3966 62.512 84.6846 62.512C85.3673 62.512 85.9753 62.672 86.5086 62.992C87.0526 63.3013 87.4793 63.7333 87.7886 64.288C88.1086 64.8427 88.2686 65.4773 88.2686 66.192C88.2686 66.928 88.0926 67.5947 87.7406 68.192C87.3886 68.7787 86.9086 69.248 86.3006 69.6C85.6926 69.9413 85.01 70.112 84.2526 70.112Z" fill="#1C0E13"/>
<path d="M21.96 39.9473V25.9473H24.08L29.18 34.2473L28.16 34.2273L33.32 25.9473H35.32V39.9473H33.16V34.2073C33.16 33.0073 33.1867 31.9273 33.24 30.9673C33.3067 30.0073 33.4133 29.0539 33.56 28.1073L33.84 28.8473L29.26 35.9273H27.94L23.5 28.9273L23.72 28.1073C23.8667 29.0006 23.9667 29.9206 24.02 30.8673C24.0867 31.8006 24.12 32.9139 24.12 34.2073V39.9473H21.96ZM43.4452 40.1473C42.4185 40.1473 41.4985 39.9139 40.6852 39.4473C39.8852 38.9673 39.2518 38.3206 38.7852 37.5073C38.3185 36.6806 38.0852 35.7406 38.0852 34.6873C38.0852 33.6339 38.3185 32.7006 38.7852 31.8873C39.2518 31.0606 39.8852 30.4139 40.6852 29.9473C41.4985 29.4673 42.4185 29.2273 43.4452 29.2273C44.4585 29.2273 45.3652 29.4673 46.1652 29.9473C46.9785 30.4139 47.6185 31.0606 48.0852 31.8873C48.5518 32.7006 48.7852 33.6339 48.7852 34.6873C48.7852 35.7406 48.5518 36.6806 48.0852 37.5073C47.6185 38.3206 46.9785 38.9673 46.1652 39.4473C45.3652 39.9139 44.4585 40.1473 43.4452 40.1473ZM43.4452 38.2673C44.0718 38.2673 44.6318 38.1139 45.1252 37.8073C45.6185 37.4873 46.0052 37.0606 46.2852 36.5273C46.5652 35.9806 46.6985 35.3673 46.6852 34.6873C46.6985 33.9939 46.5652 33.3806 46.2852 32.8473C46.0052 32.3006 45.6185 31.8739 45.1252 31.5673C44.6318 31.2606 44.0718 31.1073 43.4452 31.1073C42.8185 31.1073 42.2518 31.2673 41.7452 31.5873C41.2518 31.8939 40.8652 32.3206 40.5852 32.8673C40.3052 33.4006 40.1718 34.0073 40.1852 34.6873C40.1718 35.3673 40.3052 35.9806 40.5852 36.5273C40.8652 37.0606 41.2518 37.4873 41.7452 37.8073C42.2518 38.1139 42.8185 38.2673 43.4452 38.2673ZM54.7098 40.1473C53.9632 40.1473 53.3098 39.9739 52.7498 39.6273C52.2032 39.2806 51.7765 38.7939 51.4698 38.1673C51.1765 37.5406 51.0298 36.7939 51.0298 35.9273V29.4473H53.0898V35.3673C53.0898 35.9806 53.1832 36.5139 53.3698 36.9673C53.5698 37.4073 53.8498 37.7473 54.2098 37.9873C54.5832 38.2273 55.0298 38.3473 55.5498 38.3473C55.9365 38.3473 56.2898 38.2873 56.6098 38.1673C56.9298 38.0339 57.2032 37.8539 57.4298 37.6273C57.6698 37.4006 57.8565 37.1273 57.9898 36.8073C58.1232 36.4873 58.1898 36.1406 58.1898 35.7673V29.4473H60.2498V39.9473H58.1898V37.7473L58.5498 37.5073C58.3898 38.0006 58.1165 38.4473 57.7298 38.8473C57.3565 39.2473 56.9098 39.5673 56.3898 39.8073C55.8698 40.0339 55.3098 40.1473 54.7098 40.1473ZM63.1392 39.9473V29.4473H65.1992V31.6073L64.8392 31.8473C64.9726 31.3806 65.2326 30.9539 65.6192 30.5673C66.0059 30.1673 66.4659 29.8473 66.9992 29.6073C67.5326 29.3539 68.0792 29.2273 68.6392 29.2273C69.4392 29.2273 70.1059 29.3873 70.6392 29.7073C71.1726 30.0139 71.5726 30.4873 71.8392 31.1273C72.1059 31.7673 72.2392 32.5739 72.2392 33.5473V39.9473H70.1792V33.6873C70.1792 33.0873 70.0992 32.5939 69.9392 32.2073C69.7792 31.8073 69.5326 31.5206 69.1992 31.3473C68.8659 31.1606 68.4526 31.0806 67.9592 31.1073C67.5592 31.1073 67.1926 31.1739 66.8592 31.3073C66.5259 31.4273 66.2326 31.6006 65.9792 31.8273C65.7392 32.0539 65.5459 32.3206 65.3992 32.6273C65.2659 32.9206 65.1992 33.2406 65.1992 33.5873V39.9473H64.1792C64.0059 39.9473 63.8326 39.9473 63.6592 39.9473C63.4859 39.9473 63.3126 39.9473 63.1392 39.9473ZM76.3338 39.9473V26.7673H78.3938V39.9473H76.3338ZM74.1538 31.4473V29.4473H80.8338V31.4473H74.1538ZM88.2295 40.1473C87.7762 40.1473 87.3229 40.0739 86.8695 39.9273C86.4295 39.7806 86.0229 39.5873 85.6495 39.3473C85.2895 39.0939 84.9829 38.8206 84.7295 38.5273C84.4895 38.2206 84.3295 37.9139 84.2495 37.6073L84.7695 37.3273V39.8873H82.7095V25.1473H84.7695V31.8473L84.4495 31.6673C84.5162 31.3606 84.6629 31.0673 84.8895 30.7873C85.1162 30.4939 85.4029 30.2339 85.7495 30.0073C86.1095 29.7673 86.4962 29.5806 86.9095 29.4473C87.3229 29.3006 87.7429 29.2273 88.1695 29.2273C89.1162 29.2273 89.9562 29.4606 90.6895 29.9273C91.4229 30.3939 92.0029 31.0406 92.4295 31.8673C92.8562 32.6806 93.0695 33.6139 93.0695 34.6673C93.0695 35.7206 92.8562 36.6606 92.4295 37.4873C92.0162 38.3139 91.4429 38.9673 90.7095 39.4473C89.9762 39.9139 89.1495 40.1473 88.2295 40.1473ZM87.8895 38.2673C88.5029 38.2673 89.0495 38.1139 89.5295 37.8073C90.0095 37.4873 90.3895 37.0606 90.6695 36.5273C90.9495 35.9806 91.0895 35.3606 91.0895 34.6673C91.0895 33.9873 90.9495 33.3806 90.6695 32.8473C90.4029 32.3006 90.0295 31.8739 89.5495 31.5673C89.0695 31.2606 88.5162 31.1073 87.8895 31.1073C87.2629 31.1073 86.7095 31.2606 86.2295 31.5673C85.7495 31.8739 85.3695 32.3006 85.0895 32.8473C84.8095 33.3806 84.6695 33.9873 84.6695 34.6673C84.6695 35.3606 84.8095 35.9806 85.0895 36.5273C85.3695 37.0606 85.7495 37.4873 86.2295 37.8073C86.7095 38.1139 87.2629 38.2673 87.8895 38.2673ZM99.3472 40.1473C98.4805 40.1473 97.6872 39.9073 96.9672 39.4273C96.2605 38.9473 95.6939 38.2939 95.2672 37.4673C94.8405 36.6406 94.6272 35.7073 94.6272 34.6673C94.6272 33.6139 94.8405 32.6806 95.2672 31.8673C95.7072 31.0406 96.2939 30.3939 97.0272 29.9273C97.7739 29.4606 98.6072 29.2273 99.5272 29.2273C100.074 29.2273 100.574 29.3073 101.027 29.4673C101.481 29.6273 101.874 29.8539 102.207 30.1473C102.554 30.4273 102.834 30.7539 103.047 31.1273C103.274 31.5006 103.414 31.9006 103.467 32.3273L103.007 32.1673V29.4473H105.087V39.9473H103.007V37.4473L103.487 37.3073C103.407 37.6673 103.241 38.0206 102.987 38.3673C102.747 38.7006 102.434 39.0006 102.047 39.2673C101.674 39.5339 101.254 39.7473 100.787 39.9073C100.334 40.0673 99.8539 40.1473 99.3472 40.1473ZM99.8872 38.2473C100.514 38.2473 101.067 38.0939 101.547 37.7873C102.027 37.4806 102.401 37.0606 102.667 36.5273C102.947 35.9806 103.087 35.3606 103.087 34.6673C103.087 33.9873 102.947 33.3806 102.667 32.8473C102.401 32.3139 102.027 31.8939 101.547 31.5873C101.067 31.2806 100.514 31.1273 99.8872 31.1273C99.2739 31.1273 98.7272 31.2806 98.2472 31.5873C97.7805 31.8939 97.4072 32.3139 97.1272 32.8473C96.8605 33.3806 96.7272 33.9873 96.7272 34.6673C96.7272 35.3606 96.8605 35.9806 97.1272 36.5273C97.4072 37.0606 97.7805 37.4806 98.2472 37.7873C98.7272 38.0939 99.2739 38.2473 99.8872 38.2473ZM109.263 39.9473V26.7673H111.323V39.9473H109.263ZM107.083 31.4473V29.4473H113.763V31.4473H107.083ZM116.939 39.9473V26.7673H118.999V39.9473H116.939ZM114.759 31.4473V29.4473H121.439V31.4473H114.759ZM128.117 40.1473C127.037 40.1473 126.077 39.9206 125.237 39.4673C124.411 39.0006 123.757 38.3673 123.277 37.5673C122.811 36.7673 122.577 35.8473 122.577 34.8073C122.577 33.9806 122.711 33.2273 122.977 32.5473C123.244 31.8673 123.611 31.2806 124.077 30.7873C124.557 30.2806 125.124 29.8939 125.777 29.6273C126.444 29.3473 127.164 29.2073 127.937 29.2073C128.617 29.2073 129.251 29.3406 129.837 29.6073C130.424 29.8606 130.931 30.2139 131.357 30.6673C131.797 31.1206 132.131 31.6606 132.357 32.2873C132.597 32.9006 132.711 33.5739 132.697 34.3073L132.677 35.1873H124.097L123.637 33.5473H130.897L130.597 33.8873V33.4073C130.557 32.9673 130.411 32.5739 130.157 32.2273C129.904 31.8806 129.584 31.6073 129.197 31.4073C128.811 31.2073 128.391 31.1073 127.937 31.1073C127.217 31.1073 126.611 31.2473 126.117 31.5273C125.624 31.7939 125.251 32.1939 124.997 32.7273C124.744 33.2473 124.617 33.8939 124.617 34.6673C124.617 35.4006 124.771 36.0406 125.077 36.5873C125.384 37.1206 125.817 37.5339 126.377 37.8273C126.937 38.1206 127.584 38.2673 128.317 38.2673C128.837 38.2673 129.317 38.1806 129.757 38.0073C130.211 37.8339 130.697 37.5206 131.217 37.0673L132.257 38.5273C131.937 38.8473 131.544 39.1273 131.077 39.3673C130.624 39.6073 130.137 39.8006 129.617 39.9473C129.111 40.0806 128.611 40.1473 128.117 40.1473ZM134.936 39.9473V29.4473H136.996V31.6073L136.636 31.8473C136.769 31.3806 137.029 30.9539 137.416 30.5673C137.803 30.1673 138.263 29.8473 138.796 29.6073C139.329 29.3539 139.876 29.2273 140.436 29.2273C141.236 29.2273 141.903 29.3873 142.436 29.7073C142.969 30.0139 143.369 30.4873 143.636 31.1273C143.903 31.7673 144.036 32.5739 144.036 33.5473V39.9473H141.976V33.6873C141.976 33.0873 141.896 32.5939 141.736 32.2073C141.576 31.8073 141.329 31.5206 140.996 31.3473C140.663 31.1606 140.249 31.0806 139.756 31.1073C139.356 31.1073 138.989 31.1739 138.656 31.3073C138.323 31.4273 138.029 31.6006 137.776 31.8273C137.536 32.0539 137.343 32.3206 137.196 32.6273C137.063 32.9206 136.996 33.2406 136.996 33.5873V39.9473H135.976C135.803 39.9473 135.629 39.9473 135.456 39.9473C135.283 39.9473 135.109 39.9473 134.936 39.9473ZM152.956 39.9473V25.9473H158.656C159.416 25.9473 160.103 26.1406 160.716 26.5273C161.343 26.9006 161.843 27.4139 162.216 28.0673C162.589 28.7206 162.776 29.4473 162.776 30.2473C162.776 31.0473 162.589 31.7739 162.216 32.4273C161.843 33.0806 161.343 33.6073 160.716 34.0073C160.103 34.3939 159.416 34.5873 158.656 34.5873H155.116V39.9473H152.956ZM155.116 32.5073H158.616C158.976 32.5073 159.303 32.4073 159.596 32.2073C159.889 31.9939 160.123 31.7206 160.296 31.3873C160.483 31.0406 160.576 30.6606 160.576 30.2473C160.576 29.8339 160.483 29.4606 160.296 29.1273C160.123 28.7939 159.889 28.5273 159.596 28.3273C159.303 28.1273 158.976 28.0273 158.616 28.0273H155.116V32.5073ZM165.452 39.9473V29.4473H167.512V39.9473H165.452ZM166.452 27.1273C166.012 27.1273 165.672 27.0139 165.432 26.7873C165.192 26.5606 165.072 26.2406 165.072 25.8273C165.072 25.4406 165.192 25.1273 165.432 24.8873C165.685 24.6473 166.025 24.5273 166.452 24.5273C166.892 24.5273 167.232 24.6406 167.472 24.8673C167.712 25.0939 167.832 25.4139 167.832 25.8273C167.832 26.2139 167.705 26.5273 167.452 26.7673C167.212 27.0073 166.879 27.1273 166.452 27.1273ZM170.678 39.9473V29.4473H172.738V31.6073L172.378 31.8473C172.512 31.3806 172.772 30.9539 173.158 30.5673C173.545 30.1673 174.005 29.8473 174.538 29.6073C175.072 29.3539 175.618 29.2273 176.178 29.2273C176.978 29.2273 177.645 29.3873 178.178 29.7073C178.712 30.0139 179.112 30.4873 179.378 31.1273C179.645 31.7673 179.778 32.5739 179.778 33.5473V39.9473H177.718V33.6873C177.718 33.0873 177.638 32.5939 177.478 32.2073C177.318 31.8073 177.072 31.5206 176.738 31.3473C176.405 31.1606 175.992 31.0806 175.498 31.1073C175.098 31.1073 174.732 31.1739 174.398 31.3073C174.065 31.4273 173.772 31.6006 173.518 31.8273C173.278 32.0539 173.085 32.3206 172.938 32.6273C172.805 32.9206 172.738 33.2406 172.738 33.5873V39.9473H171.718C171.545 39.9473 171.372 39.9473 171.198 39.9473C171.025 39.9473 170.852 39.9473 170.678 39.9473ZM184.453 36.6673L184.353 34.4273L189.373 29.4473H192.153L184.453 36.6673ZM182.573 39.9473V25.1473H184.633V39.9473H182.573ZM189.653 39.9473L185.693 35.3273L187.153 33.9873L192.293 39.9473H189.653Z" fill="#1C0E13"/>
</svg>
