<svg width="285" height="298" viewBox="0 0 285 298" fill="none" xmlns="http://www.w3.org/2000/svg">
<rect width="285" height="297.216" rx="8" fill="black"/>
<rect x="10" y="9.97363" width="266" height="277.268" rx="8" fill="#ECE9EA"/>
<path d="M21.96 49.9209V35.9209H27.66C28.42 35.9209 29.1067 36.1142 29.72 36.5009C30.3467 36.8742 30.8467 37.3876 31.22 38.0409C31.5933 38.6942 31.78 39.4209 31.78 40.2209C31.78 41.0209 31.5933 41.7476 31.22 42.4009C30.8467 43.0542 30.3467 43.5809 29.72 43.9809C29.1067 44.3676 28.42 44.5609 27.66 44.5609H24.12V49.9209H21.96ZM24.12 42.4809H27.62C27.98 42.4809 28.3067 42.3809 28.6 42.1809C28.8933 41.9676 29.1267 41.6942 29.3 41.3609C29.4867 41.0142 29.58 40.6342 29.58 40.2209C29.58 39.8076 29.4867 39.4342 29.3 39.1009C29.1267 38.7676 28.8933 38.5009 28.6 38.3009C28.3067 38.1009 27.98 38.0009 27.62 38.0009H24.12V42.4809ZM34.1558 49.9209V35.1209H36.2158V49.9209H34.1558ZM42.98 50.1209C42.1133 50.1209 41.32 49.8809 40.6 49.4009C39.8933 48.9209 39.3267 48.2676 38.9 47.4409C38.4733 46.6142 38.26 45.6809 38.26 44.6409C38.26 43.5876 38.4733 42.6542 38.9 41.8409C39.34 41.0142 39.9267 40.3676 40.66 39.9009C41.4067 39.4342 42.24 39.2009 43.16 39.2009C43.7067 39.2009 44.2067 39.2809 44.66 39.4409C45.1133 39.6009 45.5067 39.8276 45.84 40.1209C46.1867 40.4009 46.4667 40.7276 46.68 41.1009C46.9067 41.4742 47.0467 41.8742 47.1 42.3009L46.64 42.1409V39.4209H48.72V49.9209H46.64V47.4209L47.12 47.2809C47.04 47.6409 46.8733 47.9942 46.62 48.3409C46.38 48.6742 46.0667 48.9742 45.68 49.2409C45.3067 49.5076 44.8867 49.7209 44.42 49.8809C43.9667 50.0409 43.4867 50.1209 42.98 50.1209ZM43.52 48.2209C44.1467 48.2209 44.7 48.0676 45.18 47.7609C45.66 47.4542 46.0333 47.0342 46.3 46.5009C46.58 45.9542 46.72 45.3342 46.72 44.6409C46.72 43.9609 46.58 43.3542 46.3 42.8209C46.0333 42.2876 45.66 41.8676 45.18 41.5609C44.7 41.2542 44.1467 41.1009 43.52 41.1009C42.9067 41.1009 42.36 41.2542 41.88 41.5609C41.4133 41.8676 41.04 42.2876 40.76 42.8209C40.4933 43.3542 40.36 43.9609 40.36 44.6409C40.36 45.3342 40.4933 45.9542 40.76 46.5009C41.04 47.0342 41.4133 47.4542 41.88 47.7609C42.36 48.0676 42.9067 48.2209 43.52 48.2209ZM52.8963 49.9209V36.7409H54.9563V49.9209H52.8963ZM50.7163 41.4209V39.4209H57.3963V41.4209H50.7163ZM59.612 49.9209V39.4209H61.672V49.9209H59.612ZM60.612 37.1009C60.172 37.1009 59.832 36.9876 59.592 36.7609C59.352 36.5342 59.232 36.2142 59.232 35.8009C59.232 35.4142 59.352 35.1009 59.592 34.8609C59.8454 34.6209 60.1854 34.5009 60.612 34.5009C61.052 34.5009 61.392 34.6142 61.632 34.8409C61.872 35.0676 61.992 35.3876 61.992 35.8009C61.992 36.1876 61.8654 36.5009 61.612 36.7409C61.372 36.9809 61.0387 37.1009 60.612 37.1009ZM64.8384 49.9209V39.4209H66.8984V41.5809L66.5384 41.8209C66.6718 41.3542 66.9318 40.9276 67.3184 40.5409C67.7051 40.1409 68.1651 39.8209 68.6984 39.5809C69.2318 39.3276 69.7784 39.2009 70.3384 39.2009C71.1384 39.2009 71.8051 39.3609 72.3384 39.6809C72.8718 39.9876 73.2718 40.4609 73.5384 41.1009C73.8051 41.7409 73.9384 42.5476 73.9384 43.5209V49.9209H71.8784V43.6609C71.8784 43.0609 71.7984 42.5676 71.6384 42.1809C71.4784 41.7809 71.2318 41.4942 70.8984 41.3209C70.5651 41.1342 70.1518 41.0542 69.6584 41.0809C69.2584 41.0809 68.8918 41.1476 68.5584 41.2809C68.2251 41.4009 67.9318 41.5742 67.6784 41.8009C67.4384 42.0276 67.2451 42.2942 67.0984 42.6009C66.9651 42.8942 66.8984 43.2142 66.8984 43.5609V49.9209H65.8784C65.7051 49.9209 65.5318 49.9209 65.3584 49.9209C65.1851 49.9209 65.0118 49.9209 64.8384 49.9209ZM80.413 50.1209C79.6663 50.1209 79.013 49.9476 78.453 49.6009C77.9063 49.2542 77.4796 48.7676 77.173 48.1409C76.8796 47.5142 76.733 46.7676 76.733 45.9009V39.4209H78.793V45.3409C78.793 45.9542 78.8863 46.4876 79.073 46.9409C79.273 47.3809 79.553 47.7209 79.913 47.9609C80.2863 48.2009 80.733 48.3209 81.253 48.3209C81.6396 48.3209 81.993 48.2609 82.313 48.1409C82.633 48.0076 82.9063 47.8276 83.133 47.6009C83.373 47.3742 83.5596 47.1009 83.693 46.7809C83.8263 46.4609 83.893 46.1142 83.893 45.7409V39.4209H85.953V49.9209H83.893V47.7209L84.253 47.4809C84.093 47.9742 83.8196 48.4209 83.433 48.8209C83.0596 49.2209 82.613 49.5409 82.093 49.7809C81.573 50.0076 81.013 50.1209 80.413 50.1209ZM88.8023 49.9209V39.4209H90.8823V41.6609L90.5023 41.9009C90.609 41.5542 90.7757 41.2209 91.0023 40.9009C91.2423 40.5809 91.529 40.3009 91.8623 40.0609C92.209 39.8076 92.5757 39.6076 92.9623 39.4609C93.3623 39.3142 93.769 39.2409 94.1823 39.2409C94.7823 39.2409 95.309 39.3409 95.7623 39.5409C96.2157 39.7409 96.589 40.0409 96.8823 40.4409C97.1757 40.8409 97.389 41.3409 97.5223 41.9409L97.2023 41.8609L97.3423 41.5209C97.489 41.2142 97.689 40.9276 97.9423 40.6609C98.209 40.3809 98.509 40.1342 98.8423 39.9209C99.1757 39.7076 99.529 39.5409 99.9023 39.4209C100.276 39.3009 100.642 39.2409 101.002 39.2409C101.789 39.2409 102.436 39.4009 102.942 39.7209C103.462 40.0409 103.849 40.5276 104.102 41.1809C104.369 41.8342 104.502 42.6476 104.502 43.6209V49.9209H102.422V43.7409C102.422 43.1409 102.342 42.6542 102.182 42.2809C102.036 41.8942 101.809 41.6076 101.502 41.4209C101.196 41.2342 100.802 41.1409 100.322 41.1409C99.949 41.1409 99.5957 41.2076 99.2623 41.3409C98.9423 41.4609 98.6623 41.6342 98.4223 41.8609C98.1823 42.0876 97.9957 42.3542 97.8623 42.6609C97.729 42.9542 97.6623 43.2809 97.6623 43.6409V49.9209H95.5823V43.7009C95.5823 43.1542 95.5023 42.6942 95.3423 42.3209C95.1823 41.9342 94.949 41.6409 94.6423 41.4409C94.3357 41.2409 93.9623 41.1409 93.5223 41.1409C93.149 41.1409 92.8023 41.2076 92.4823 41.3409C92.1623 41.4609 91.8823 41.6342 91.6423 41.8609C91.4023 42.0742 91.2157 42.3342 91.0823 42.6409C90.949 42.9342 90.8823 43.2542 90.8823 43.6009V49.9209H88.8023Z" fill="#1C0E13"/>
<path d="M26.872 80L28.792 68.8H30.232L28.312 80H26.872ZM21.496 77.232V75.904H30.76V77.232H21.496ZM22.616 80L24.536 68.8H25.976L24.056 80H22.616ZM22.104 72.752V71.424H31.352V72.752H22.104ZM33.4118 80V68.8H40.4678V70.464H35.1398V78.336H40.4678V80H33.4118ZM34.1957 75.088V73.424H39.5878V75.088H34.1957ZM47.7839 80.16C47.0052 80.16 46.2905 80.0213 45.6399 79.744C44.9892 79.4667 44.4239 79.072 43.9439 78.56C43.4639 78.0373 43.0905 77.424 42.8239 76.72C42.5679 76.016 42.4399 75.2427 42.4399 74.4C42.4399 73.6 42.5785 72.8587 42.8559 72.176C43.1439 71.4827 43.5385 70.8747 44.0399 70.352C44.5412 69.8293 45.1225 69.424 45.7839 69.136C46.4452 68.848 47.1599 68.704 47.9279 68.704C48.4719 68.704 48.9999 68.7893 49.5119 68.96C50.0345 69.12 50.5039 69.3493 50.9199 69.648C51.3465 69.936 51.6932 70.2667 51.9599 70.64L50.8079 71.84C50.4985 71.5307 50.1839 71.2747 49.8639 71.072C49.5545 70.8587 49.2345 70.6987 48.9039 70.592C48.5839 70.4853 48.2585 70.432 47.9279 70.432C47.4052 70.432 46.9145 70.5333 46.4559 70.736C46.0079 70.928 45.6132 71.2 45.2719 71.552C44.9412 71.904 44.6799 72.3253 44.4879 72.816C44.2959 73.296 44.1999 73.824 44.1999 74.4C44.1999 75.008 44.2905 75.5627 44.4719 76.064C44.6639 76.5547 44.9305 76.976 45.2719 77.328C45.6132 77.68 46.0185 77.952 46.4879 78.144C46.9679 78.3253 47.4959 78.416 48.0719 78.416C48.4239 78.416 48.7705 78.368 49.1119 78.272C49.4532 78.176 49.7732 78.0373 50.0719 77.856C50.3705 77.6747 50.6425 77.4613 50.8879 77.216L51.7519 78.624C51.5065 78.912 51.1705 79.1733 50.7439 79.408C50.3279 79.6427 49.8585 79.8293 49.3359 79.968C48.8239 80.096 48.3065 80.16 47.7839 80.16ZM54.0993 80V68.8H61.1553V70.464H55.8273V78.336H61.1553V80H54.0993ZM54.8832 75.088V73.424H60.2753V75.088H54.8832ZM66.0074 80L65.9434 79.84L69.2714 72.768L69.3194 74.096C69.1274 74.416 68.914 74.6987 68.6794 74.944C68.4554 75.1893 68.2047 75.4027 67.9274 75.584C67.6607 75.7547 67.3834 75.888 67.0954 75.984C66.8074 76.0693 66.514 76.112 66.2154 76.112C65.6074 76.112 65.0474 75.952 64.5354 75.632C64.0234 75.312 63.6127 74.8853 63.3034 74.352C62.994 73.8187 62.8394 73.2373 62.8394 72.608C62.8394 71.8507 63.01 71.1733 63.3514 70.576C63.6927 69.968 64.1567 69.488 64.7434 69.136C65.3407 68.784 66.0074 68.608 66.7434 68.608C67.2767 68.608 67.778 68.704 68.2474 68.896C68.7167 69.088 69.1274 69.36 69.4794 69.712C69.8314 70.0533 70.1087 70.4533 70.3114 70.912C70.514 71.36 70.6154 71.84 70.6154 72.352C70.6154 72.6187 70.5887 72.9067 70.5354 73.216C70.482 73.5147 70.3914 73.856 70.2634 74.24C70.146 74.6133 69.986 75.0453 69.7834 75.536C69.5807 76.016 69.33 76.576 69.0314 77.216L67.7034 80H66.0074ZM66.5834 74.512C66.9994 74.512 67.3727 74.4213 67.7034 74.24C68.034 74.048 68.29 73.7973 68.4714 73.488C68.6634 73.168 68.7594 72.8107 68.7594 72.416C68.7594 72 68.6687 71.6267 68.4874 71.296C68.306 70.9547 68.05 70.688 67.7194 70.496C67.3994 70.304 67.0314 70.208 66.6154 70.208C66.2314 70.208 65.89 70.304 65.5914 70.496C65.2927 70.6773 65.0527 70.9333 64.8714 71.264C64.7007 71.584 64.6154 71.9627 64.6154 72.4C64.6154 72.7733 64.7007 73.12 64.8714 73.44C65.0527 73.76 65.2927 74.0213 65.5914 74.224C65.89 74.416 66.2207 74.512 66.5834 74.512ZM72.7399 80V68.8H79.7959V70.464H74.4679V78.336H79.7959V80H72.7399ZM73.5239 75.088V73.424H78.9159V75.088H73.5239ZM81.4 80L85.736 68.8H87.496L91.8 80H89.96L87.4 73.248C87.368 73.1733 87.304 72.992 87.208 72.704C87.1227 72.416 87.0213 72.096 86.904 71.744C86.7867 71.392 86.68 71.072 86.584 70.784C86.488 70.4853 86.424 70.2933 86.392 70.208L86.76 70.192C86.696 70.3733 86.616 70.6027 86.52 70.88C86.4347 71.1573 86.3387 71.4507 86.232 71.76C86.136 72.0693 86.04 72.3627 85.944 72.64C85.848 72.9067 85.768 73.1307 85.704 73.312L83.16 80H81.4ZM83.32 77.216L83.96 75.552H89.048L89.784 77.216H83.32Z" fill="#1C0E13"/>
</svg>
