<svg width="338" height="265" viewBox="0 0 338 265" fill="none" xmlns="http://www.w3.org/2000/svg">
<path d="M169.35 48.16C168.42 48.3 167.5 48.53 166.62 48.87C160.8 51.14 131.11 59.22 83.72 12.83C33.74 -36.09 33.32 68.7 51.36 95.25C53.15 97.89 53.04 101.38 51.05 103.87C38 120.13 -1.45 175.22 36.29 204.83C80.9 239.84 128.9 235.89 148.1 254.52C167.3 273.16 206.26 254.52 206.26 254.52C206.26 254.52 241.66 240.21 267.81 239.84C297.34 239.42 357.17 170.43 293.99 116.57C291.83 114.73 291.88 111.4 294.1 109.63C302.16 103.18 317.73 85.23 320.27 41.63C323.68 -17.08 262.27 -6.03003 223.24 43.52C222.3 44.72 221.1 45.69 219.73 46.35C214.58 48.81 200.66 53.32 175.21 47.28L169.36 48.16H169.35Z" fill="#644E57"/>
<path d="M240.99 57.3501C240.46 56.6601 270.71 102.45 281.08 102.24C291 102.04 332.57 17.7601 296.89 16.6901C264.27 15.7101 244.75 65.4801 240.98 57.3501H240.99Z" fill="#81646F"/>
<path d="M108.47 60.37C109 59.8 77.73 98.12 69 96.73C60.65 95.4 36.1 13.63 66.36 16.77C94.02 19.65 104.27 67.36 108.47 60.37Z" fill="#81646F"/>
<path d="M327.37 169.61C331.97 170.48 335.81 161.89 337.2 158.67C334.31 160.94 319.88 157.6 324.54 156.97C329.59 156.3 337.67 145.67 337.67 145.67L326.14 149.5C327.39 147.76 328.2 146.49 328.2 146.49L325.31 147.64L328.58 144.51L319.3 144.85C319.3 144.85 329.79 126.32 323.93 134.41C321.9 137.21 317.68 139.57 313 141.45C315.53 135.93 319.24 127.54 315.4 133.9C309.94 142.94 287.54 147.83 286.79 147.83C286.04 147.83 258.55 145.57 246.7 138.61C234.84 131.65 232.58 137.86 224.86 135.97C217.14 134.09 209.42 127.31 205.66 131.4C201.9 135.49 198.88 115.45 198.88 115.45C188.34 131.64 191.57 164.2 191.57 164.2L191.81 167.88C191.7 180.03 209.23 195.83 219.4 211.89C229.57 227.96 225.71 228.4 215.64 242.37C205.57 256.34 189.09 262.8 189.09 262.8C204.34 260.13 225.28 249.51 243.51 245.13C263.38 240.36 253.31 241.18 267.79 239.83C283.65 238.35 283.58 235.91 292.75 231.48C296.62 229.61 300.8 224.26 304.35 218.69C312.73 211.63 320.96 196.74 321.22 196.27C321.25 196.24 321.29 196.21 321.32 196.19C322.43 195.45 335.12 187.01 332.61 188.3C329.98 189.65 318.06 183.92 324.33 184.93C330.59 185.94 336.25 170.61 334.23 174.83C332.21 179.05 321.1 168.43 327.36 169.61H327.37Z" fill="#B39EA6"/>
<path d="M24.38 131.41C24.38 131.41 24.89 131.44 25.7 131.43C24.91 131.4 24.38 131.41 24.38 131.41Z" fill="#B39EA6"/>
<path d="M160.09 129.58L148.99 117.72C148.99 117.72 148.8 123.93 148.99 127.32C149.18 130.71 133.74 129.01 112.1 132.97C90.46 136.93 72.76 129.96 72.76 129.96L55.25 120.17C37.74 110.38 31.16 120.17 31.16 120.17C31.16 120.17 34.07 121.07 35.76 123.07C28.18 122.85 25.09 126.85 25.09 126.85C25.09 126.85 29.82 128.12 30.71 131.03C28.82 131.37 26.93 131.44 25.71 131.45C27.07 131.5 29.22 131.68 30.85 132.21C30.83 132.44 30.8 132.68 30.74 132.93C29.85 136.29 22.65 136.66 19.64 136.67C21.6 136.74 25.17 137.02 26.49 138.12C22.36 139.32 17.81 140.05 17.81 140.05C17.81 140.05 21.29 140.4 24.85 141.03C20.65 142.9 11.74 144.15 11.74 144.15C11.74 144.15 23.44 145.18 25.82 146.86C20.25 148.49 13.11 149.92 13.11 149.92C13.11 149.92 16.46 149.81 20.41 149.91C14.76 151.4 7.03001 152.74 7.03001 152.74C7.03001 152.74 21.28 152.35 25.7 153.92C19 154.38 10.1 154.24 10.1 154.24C10.1 154.24 14.09 155.17 16.73 156.36C10.62 156.59 4.02001 156.5 4.02001 156.5C4.02001 156.5 10.56 157.83 12.44 159.26C8.24001 158.82 4.12001 158.12 7.14001 160.94C2.49001 160.56 -2.59999 159.64 1.57001 162.73C7.78001 167.32 13.81 187.8 19.02 192.42C21.32 194.46 25.41 198.17 31.13 202.29C31.26 202.13 31.38 201.98 31.51 201.82C38.86 208.68 50.74 218.26 66.43 224.22C88.13 232.47 140.38 249.08 140.38 249.08L124.34 224.96L115.7 196.21L157.27 169.1C157.27 169.1 156.54 158.75 158.61 151.22C160.68 143.69 160.12 129.57 160.12 129.57L160.09 129.58Z" fill="#B39EA6"/>
<path d="M124.94 225.07L101.5 226.48C101.5 226.48 92.75 227.04 83.15 218.57C73.55 210.1 63.67 181.86 89.36 180.45C89.36 180.45 106.87 156.73 120.14 151.93C133.41 147.13 147.25 138.94 157.69 161.81C168.13 184.68 130.58 206.14 128.89 220.54C128.89 220.54 128.36 225.09 125.78 225.13L124.93 225.06L124.94 225.07Z" fill="#3C2F33"/>
<path d="M191.82 167.89C191.72 165.55 191.57 163.23 192.42 161.05C195.09 154.21 201.49 139.2 205.86 140.07C211.51 141.2 261.11 163.88 275.22 193.91C275.22 193.91 283.97 202.66 264.68 216.4C245.39 230.14 243.79 231.93 225.9 223.93C225.9 223.93 219.59 213.29 216.68 209.15C213.76 205.01 202.66 190.33 198.23 185.71C195.09 182.44 192.07 173.96 191.82 167.88V167.89Z" fill="#3C2F33"/>
<path d="M160.12 200.48C160.12 200.48 169.53 208.4 161.63 216.21C153.72 224.02 141.77 252.82 175.94 251.97C175.94 251.97 215.56 253.48 198.25 222.61C198.25 222.61 186.11 212.23 191 200.48C195.89 188.73 196.6 179.29 202.5 190.64C202.5 190.64 233.82 223.64 223.84 232.02C223.84 232.02 212.32 263.41 180.17 264.11C147.7 264.82 136.88 248.67 127.93 230.42C127.93 230.42 122.39 220.66 143.37 199.57C143.37 199.57 149.86 196.02 152.02 188.98C154.19 181.95 157.48 181.95 158.14 195.5L160.12 200.48Z" fill="#F3F0F2"/>
<path d="M149.27 174.82C149.27 174.82 138.54 145.74 122.31 163.81C122.31 163.81 115.53 190.56 148.36 176.09L149.28 174.82H149.27Z" fill="#171511"/>
<path d="M127.56 162.43C127.56 162.43 136.56 154.56 139.9 165.63L127.56 162.43Z" fill="#E3E2DE"/>
<path d="M200.84 174.52C200.84 174.52 211.34 145.44 227.24 163.51C227.24 163.51 233.87 190.26 201.74 175.79L200.84 174.52Z" fill="#171511"/>
<path d="M222.1 162.13C222.1 162.13 213.29 154.26 210.02 165.33L222.1 162.13Z" fill="#E3E2DE"/>
<path d="M153.97 232.53C153.97 232.53 149.9 250.21 167.67 251.4C185.44 252.59 195.73 252.25 200.06 244.48C204.39 236.72 201.46 230.78 201.46 230.78C201.46 230.78 201.27 223.63 195.74 226.61C190.22 229.6 167.7 232.61 162.59 229.3C159.89 227.55 158.35 226.49 156.96 227.55C154.96 229.07 153.97 232.53 153.97 232.53Z" fill="#3C2F33"/>
<path d="M157.77 231.35C157.77 231.35 164.84 243.16 169.4 238.24C173.96 233.32 161.17 232.43 159.11 231.35C157.05 230.27 157.77 231.35 157.77 231.35Z" fill="#050301"/>
<path d="M198.07 231.17C198.07 231.17 192.25 242.98 188.5 238.06C184.75 233.14 195.27 232.25 196.97 231.17C198.67 230.09 198.07 231.17 198.07 231.17Z" fill="#050301"/>
</svg>
