<svg width="1230" height="256" viewBox="0 0 1230 256" fill="none" xmlns="http://www.w3.org/2000/svg">
<rect x="20" y="17" width="284" height="224" rx="25" fill="#D9D9D9"/>
<g filter="url(#filter0_d_3120_725)">
<path d="M325 42C325 28.1929 336.193 17 350 17H584C597.807 17 609 28.1929 609 42V216C609 229.807 597.807 241 584 241H350C336.193 241 325 229.807 325 216V42Z" fill="#E2E5ED"/>
</g>
<g filter="url(#filter1_d_3120_725)">
<path d="M20 42C20 28.1929 31.1929 17 45 17H279C292.807 17 304 28.1929 304 42V216C304 229.807 292.807 241 279 241H45C31.1929 241 20 229.807 20 216V42Z" fill="#E2E5ED"/>
</g>
<g clip-path="url(#clip0_3120_725)">
<path d="M467.348 73.2762C466.726 73.3652 466.104 73.5283 465.511 73.7508C461.615 75.2638 441.748 80.6926 410.03 49.603C376.578 16.8225 376.296 87.041 388.37 104.826C389.57 106.591 389.496 108.934 388.163 110.596C379.437 121.498 353.022 158.402 378.282 178.248C408.133 201.714 440.267 199.058 453.111 211.548C465.956 224.037 492.044 211.548 492.044 211.548C492.044 211.548 515.733 201.951 533.244 201.714C553.007 201.432 593.052 155.198 550.77 119.11C549.333 117.878 549.363 115.654 550.844 114.467C556.237 110.151 566.667 98.1211 568.356 68.9005C570.637 29.5639 529.541 36.9654 503.407 70.1613C502.77 70.9623 501.97 71.6149 501.052 72.0599C497.6 73.7063 488.282 76.7322 471.259 72.6829L467.348 73.2762Z" fill="#595959"/>
<path d="M515.289 79.4318C514.933 78.972 535.185 109.661 542.118 109.513C548.756 109.379 576.578 52.9107 552.696 52.1839C530.874 51.5313 517.807 84.8754 515.274 79.4318H515.289Z" fill="#A0A0A0"/>
<path d="M426.607 81.449C426.963 81.0634 406.03 106.739 400.193 105.805C394.607 104.915 378.178 50.1221 398.43 52.2284C416.948 54.1567 423.807 86.1214 426.607 81.449Z" fill="#A0A0A0"/>
<path d="M573.111 154.649C576.193 155.228 578.756 149.472 579.689 147.322C577.763 148.849 568.089 146.61 571.215 146.18C574.593 145.735 580 138.6 580 138.6L572.281 141.166C573.111 140.009 573.659 139.149 573.659 139.149L571.733 139.92L573.926 137.814L567.718 138.036C567.718 138.036 574.741 125.621 570.815 131.035C569.452 132.919 566.637 134.491 563.496 135.752C565.185 132.059 567.674 126.422 565.096 130.694C561.437 136.746 546.444 140.024 545.941 140.024C545.437 140.024 527.037 138.511 519.111 133.839C511.17 129.166 509.659 133.334 504.504 132.074C499.333 130.813 494.178 126.274 491.659 129.003C489.141 131.747 487.126 118.323 487.126 118.323C480.074 129.166 482.237 150.985 482.237 150.985L482.4 153.448C482.326 161.591 494.059 172.181 500.874 182.935C507.674 193.704 505.096 194.001 498.356 203.36C491.615 212.72 480.578 217.051 480.578 217.051C490.785 215.256 504.8 208.151 517.007 205.214C530.296 202.025 523.57 202.574 533.259 201.669C543.881 200.675 543.822 199.044 549.956 196.077C552.548 194.831 555.348 191.242 557.718 187.504C563.333 182.772 568.83 172.79 569.007 172.478C569.037 172.463 569.052 172.434 569.081 172.419C569.822 171.929 578.311 166.263 576.637 167.123C574.874 168.028 566.904 164.187 571.096 164.869C575.289 165.551 579.081 155.272 577.718 158.09C576.356 160.909 568.933 153.804 573.126 154.59L573.111 154.649Z" fill="#A0A0A0"/>
<path d="M370.311 129.048C370.311 129.048 370.652 129.062 371.2 129.062C370.667 129.048 370.311 129.048 370.311 129.048Z" fill="#A0A0A0"/>
<path d="M461.141 127.831L453.704 119.881C453.704 119.881 453.57 124.049 453.704 126.318C453.837 128.588 443.496 127.46 429.007 130.101C414.518 132.756 402.681 128.083 402.681 128.083L390.963 121.527C379.244 114.971 374.844 121.527 374.844 121.527C374.844 121.527 376.8 122.135 377.926 123.47C372.859 123.322 370.785 126.007 370.785 126.007C370.785 126.007 373.956 126.852 374.548 128.81C373.289 129.033 372.015 129.092 371.2 129.092C372.118 129.122 373.556 129.24 374.637 129.596C374.637 129.745 374.607 129.908 374.563 130.071C373.97 132.326 369.156 132.578 367.126 132.578C368.43 132.622 370.83 132.815 371.704 133.557C368.933 134.358 365.896 134.847 365.896 134.847C365.896 134.847 368.222 135.085 370.607 135.5C367.793 136.746 361.837 137.591 361.837 137.591C361.837 137.591 369.674 138.274 371.259 139.416C367.526 140.513 362.756 141.463 362.756 141.463C362.756 141.463 364.993 141.388 367.644 141.463C363.867 142.456 358.696 143.361 358.696 143.361C358.696 143.361 368.237 143.094 371.185 144.147C366.696 144.459 360.741 144.37 360.741 144.37C360.741 144.37 363.407 144.993 365.185 145.794C361.096 145.942 356.681 145.883 356.681 145.883C356.681 145.883 361.052 146.773 362.311 147.737C359.496 147.44 356.741 146.966 358.77 148.864C355.659 148.612 352.252 147.989 355.037 150.066C359.2 153.136 363.23 166.871 366.711 169.971C368.252 171.336 370.993 173.828 374.815 176.587C374.904 176.483 374.978 176.379 375.067 176.275C379.985 180.873 387.941 187.281 398.444 191.286C412.963 196.819 447.941 207.943 447.941 207.943L437.2 191.776L431.422 172.508L459.244 154.338C459.244 154.338 458.756 147.396 460.148 142.353C461.541 137.309 461.156 127.846 461.156 127.846L461.141 127.831Z" fill="#A0A0A0"/>
<path d="M437.615 191.82L421.926 192.769C421.926 192.769 416.074 193.155 409.644 187.474C403.215 181.793 396.607 162.881 413.807 161.932C413.807 161.932 425.526 146.046 434.4 142.827C443.289 139.609 452.548 134.12 459.541 149.443C466.533 164.765 441.393 179.153 440.267 188.794C440.267 188.794 439.911 191.85 438.193 191.865L437.63 191.82H437.615Z" fill="#595959"/>
<path d="M482.385 153.507C482.326 151.935 482.222 150.377 482.785 148.924C484.578 144.34 488.859 134.284 491.778 134.862C495.556 135.619 528.755 150.822 538.207 170.935C538.207 170.935 544.059 176.794 531.156 186.006C518.237 195.217 517.17 196.418 505.2 191.049C505.2 191.049 500.978 183.929 499.022 181.14C497.067 178.352 489.63 168.533 486.681 165.433C484.578 163.237 482.563 157.556 482.385 153.492V153.507Z" fill="#595959"/>
<path d="M461.156 175.341C461.156 175.341 467.452 180.651 462.163 185.887C456.874 191.123 448.874 210.42 471.733 209.857C471.733 209.857 498.252 210.865 486.667 190.174C486.667 190.174 478.548 183.217 481.822 175.341C485.096 167.465 485.57 161.146 489.526 168.755C489.526 168.755 510.489 190.871 503.807 196.478C503.807 196.478 496.104 217.511 474.578 217.985C453.052 218.46 445.6 207.647 439.615 195.41C439.615 195.41 435.911 188.868 449.956 174.733C449.956 174.733 454.296 172.345 455.748 167.643C457.2 162.941 459.407 162.926 459.837 172.018L461.156 175.356V175.341Z" fill="#D8D8D8"/>
<path d="M453.896 158.15C453.896 158.15 446.711 138.659 435.852 150.778C435.852 150.778 431.318 168.71 453.289 159.01L453.896 158.164V158.15Z" fill="#171511"/>
<path d="M439.378 149.843C439.378 149.843 445.407 144.563 447.63 151.994Z" fill="#E3E2DE"/>
<path d="M488.415 157.942C488.415 157.942 495.452 138.452 506.089 150.57C506.089 150.57 510.533 168.503 489.022 158.802L488.415 157.957V157.942Z" fill="#171511"/>
<path d="M502.652 149.635C502.652 149.635 496.756 144.355 494.563 151.786Z" fill="#E3E2DE"/>
<path d="M457.052 196.819C457.052 196.819 454.326 208.67 466.222 209.456C478.118 210.257 484.993 210.02 487.896 204.829C490.8 199.637 488.83 195.647 488.83 195.647C488.83 195.647 488.696 190.856 485.007 192.858C481.318 194.861 466.237 196.878 462.815 194.653C461.007 193.481 459.97 192.769 459.052 193.481C457.718 194.505 457.052 196.819 457.052 196.819Z" fill="#424242"/>
<path d="M459.6 196.018C459.6 196.018 464.326 203.924 467.378 200.631C470.43 197.338 461.867 196.73 460.489 196.018C459.111 195.306 459.585 196.018 459.585 196.018H459.6Z" fill="#050301"/>
<path d="M486.563 195.914C486.563 195.914 482.667 203.82 480.163 200.527C477.644 197.234 484.696 196.626 485.822 195.914C486.948 195.202 486.563 195.914 486.563 195.914Z" fill="#050301"/>
</g>
<g filter="url(#filter2_d_3120_725)">
<path d="M629 42C629 28.1929 640.193 17 654 17H891C904.807 17 916 28.1929 916 42V216C916 229.807 904.807 241 891 241H654C640.193 241 629 229.807 629 216V42Z" fill="#E2E5ED"/>
</g>
<g filter="url(#filter3_d_3120_725)">
<path d="M936 42C936 28.1929 947.193 17 961 17H1191C1204.81 17 1216 28.1929 1216 42V216C1216 229.807 1204.81 241 1191 241H961C947.193 241 936 229.807 936 216V42Z" fill="#E2E5ED"/>
</g>
<path d="M1010.51 125.059C1011.63 125.47 1023.1 129.508 1036.78 127.024C1043.65 125.775 1049.68 125.333 1054.08 125.013C1056.97 124.8 1059.97 124.587 1061.02 124.206C1060.93 121.799 1061.04 118.142 1061.05 117.975L1061.16 114.288L1071.76 125.562V126.125C1071.81 126.537 1072.18 136.135 1070.69 141.482C1070.19 143.326 1069.93 145.459 1069.82 147.394C1069.88 147.516 1069.93 147.622 1069.99 147.744C1072.48 153.198 1071.38 158.485 1068.73 163.451C1069.67 164.746 1070.22 167.23 1070.42 171.221L1071.57 174.086C1072.44 174.923 1074.89 177.529 1075.02 180.865C1075.12 183.059 1074.23 185.085 1072.39 186.883C1071.2 188.056 1069.77 190.143 1068.67 192.566C1069.71 192.444 1070.83 193.16 1072.22 194.074L1072.39 194.181C1075.6 196.268 1090.85 194.272 1094.53 192.307C1094.96 192.078 1095.36 191.941 1095.74 191.834C1095.62 191.621 1095.53 191.408 1095.41 191.179C1094 189.9 1086.71 182.739 1090.19 174.39C1090.89 172.73 1091.46 171.099 1091.98 169.683C1092.83 167.275 1093.49 165.462 1094.35 164.366C1092.8 161.974 1091.46 158.317 1090.91 154.965C1090.75 154.204 1090.66 153.442 1090.66 152.695C1090.66 152.665 1090.66 152.635 1090.66 152.604V152.452L1090.49 150.121C1090.4 149.237 1088.29 127.1 1095.79 115.628L1097.99 112.277L1098.59 116.238C1099.22 120.367 1100.32 124.51 1101.11 125.958C1103.55 123.993 1106.91 125.546 1110.16 127.07C1111.87 127.862 1113.66 128.7 1115.39 129.112C1117.07 129.523 1118.3 129.264 1119.7 128.974C1122.32 128.426 1125.29 127.817 1130.89 131.092C1138.16 135.343 1155.3 137.11 1157.77 137.232C1159.32 136.988 1169.83 134.459 1174.62 130.3C1171.68 125.866 1167.81 121.479 1162.81 117.243C1161.32 115.979 1161.36 113.694 1162.89 112.475C1168.46 108.041 1179.23 95.6857 1180.97 65.6725C1183.33 25.269 1140.88 32.8713 1113.89 66.9675C1113.23 67.7902 1112.41 68.4605 1111.46 68.9176C1107.89 70.6087 1098.28 73.7166 1080.68 69.5574L1076.65 70.1668C1076 70.2583 1075.36 70.4258 1074.75 70.6544C1070.72 72.2083 1050.2 77.7844 1017.44 45.8516C982.892 12.1668 982.601 84.2898 995.072 102.557C996.312 104.37 996.235 106.777 994.858 108.483C993.496 110.174 991.706 112.505 989.747 115.263C992.165 115.552 995.072 116.451 998.515 118.356L1010.51 125.044V125.059ZM1126.39 75.5144L1126.85 76.1238C1126.85 76.1238 1126.93 76.2609 1126.99 76.3371C1127.74 76.3371 1130.26 73.0006 1132.31 70.3192C1138.88 61.6961 1149.86 47.2989 1164.84 47.7103C1171.79 47.9236 1175.45 52.4941 1175.4 60.9344C1175.31 78.1805 1159.49 108.011 1153.9 108.118H1153.84C1146.68 108.118 1129.05 82.2635 1125.9 77.4035C1125.75 77.2512 1125.6 77.0531 1125.47 76.7789H1125.5C1125.46 76.6875 1125.43 76.6418 1125.43 76.6265L1125.29 76.0324L1126.41 75.4991L1126.39 75.5144ZM994.827 58.71C996.128 48.8986 1001.36 47.3446 1005.52 47.7865C1018.3 49.1119 1025.78 63.5853 1030.25 72.2388C1031.6 74.844 1033.11 77.7844 1033.85 78.2262C1033.88 78.1957 1033.89 78.1653 1033.92 78.1348L1034 78.0282L1034.43 77.5711L1035.5 78.2262L1035.28 78.8052C1035.28 78.8052 1035.25 78.8509 1035.19 78.927H1035.21C1035.07 79.186 1034.9 79.3536 1034.75 79.4755C1031.49 83.528 1013.89 104.339 1007.54 104.354C1007.41 104.354 1007.27 104.354 1007.15 104.324C1002.43 103.577 992.746 74.4784 994.827 58.71Z" fill="black"/>
<path d="M1125.49 76.7789H1125.46C1125.58 77.0684 1125.73 77.2665 1125.89 77.4188C1129.04 82.2788 1146.67 108.133 1153.83 108.133H1153.89C1159.47 108.026 1175.3 78.1958 1175.39 60.9496C1175.43 52.5094 1171.78 47.9389 1164.83 47.7256C1149.85 47.299 1138.86 61.7114 1132.3 70.3345C1130.26 73.0159 1127.72 76.3523 1126.97 76.3523C1126.93 76.2762 1126.88 76.2 1126.83 76.1391L1126.38 75.5297L1125.26 76.0629L1125.4 76.6571C1125.4 76.6571 1125.43 76.718 1125.47 76.7942L1125.49 76.7789ZM1133.52 71.2486C1139.9 62.854 1150.6 48.8377 1164.78 49.2491C1170.84 49.4319 1173.9 53.3626 1173.86 60.9344C1173.76 77.8911 1158.07 106.518 1153.86 106.609H1153.81C1148.24 106.609 1132.16 84.0461 1127.81 77.6169C1129.11 76.9618 1130.72 74.905 1133.51 71.2486H1133.52Z" fill="black"/>
<path d="M1007.16 104.324C1007.28 104.339 1007.42 104.354 1007.56 104.354C1013.91 104.354 1031.49 83.528 1034.76 79.4755C1034.92 79.3536 1035.09 79.1708 1035.22 78.927H1035.21C1035.25 78.8509 1035.29 78.8052 1035.3 78.7899L1035.51 78.211L1034.44 77.5559L1034.01 78.0129L1033.94 78.1196C1033.94 78.1196 1033.89 78.1805 1033.86 78.211C1033.14 77.7692 1031.61 74.8288 1030.27 72.2236C1025.8 63.5701 1018.32 49.0967 1005.54 47.7712C1001.38 47.3294 996.143 48.8834 994.843 58.6948C992.762 74.4632 1002.45 103.562 1007.16 104.309V104.324ZM996.342 58.9081C997.184 52.4941 999.877 49.249 1004.33 49.249C1004.67 49.249 1005 49.2643 1005.37 49.31C1017.34 50.544 1024.57 64.5603 1028.89 72.9396C1030.79 76.6265 1031.87 78.6528 1032.88 79.4298C1028.05 85.2953 1011.81 103.577 1007.39 102.831C1004.39 102.359 994.185 75.3316 996.342 58.9233V58.9081Z" fill="black"/>
<path d="M1102.18 131.915C1106.32 132.737 1140.85 148.201 1151.13 169.622C1151.65 170.262 1152.95 172.135 1152.71 174.969C1152.37 178.961 1149.25 183.074 1143.44 187.188L1142.26 188.026C1134.78 193.343 1131.1 195.948 1126.59 195.948C1124.02 195.948 1121.16 195.095 1117.18 193.419C1117.18 193.587 1117.18 193.739 1117.18 193.906C1117.09 195.415 1116.57 196.649 1115.59 197.593C1114.91 199.224 1111.87 205.927 1105.63 211.625C1106.68 211.229 1107.75 210.833 1108.82 210.437C1115.05 208.106 1121.49 205.698 1127.55 204.251C1133.28 202.88 1135.34 202.194 1136.58 201.783C1138.51 201.143 1138.82 201.097 1144.55 200.564C1152.48 199.833 1154.33 198.782 1157.41 197.03C1158.46 196.42 1159.67 195.735 1161.28 194.958C1162.67 194.287 1165.09 192.307 1168.67 186.7L1168.98 186.35C1174.51 181.703 1180.05 171.77 1180.28 171.343L1180.41 171.115L1180.83 170.764C1182.43 169.713 1184.12 168.586 1185.53 167.626C1183.74 167.032 1182.09 166.163 1181.57 165.645C1180.86 164.944 1180.91 164.137 1181.17 163.619C1181.78 162.415 1183.24 162.659 1184 162.781C1185.24 162.979 1186.85 161.075 1187.98 159.262C1187.95 159.262 1187.92 159.247 1187.89 159.231C1185.85 158.47 1182.49 155.758 1183.08 153.61C1183.21 153.183 1183.79 151.797 1186.13 152.238C1186.53 152.315 1187.87 152.177 1189.97 148.247C1187.06 148.277 1183.6 147.424 1182.64 146.815C1181.58 146.16 1181.69 145.23 1181.75 144.956C1181.92 144.149 1182.58 143.676 1183.68 143.524C1184.75 143.387 1186.42 142.092 1188.07 140.477L1181 142.823L1182.23 141.132L1177.71 142.93L1182.73 138.131L1177.59 138.314L1178.94 135.937C1179.26 135.358 1179.59 134.764 1179.93 134.17C1178.91 134.718 1177.76 135.251 1176.49 135.754L1172.92 137.186L1174.29 134.246C1167.95 138.253 1158.4 140.264 1157.81 140.264C1157.64 140.264 1138.1 138.847 1129.31 133.712C1124.72 131.031 1122.67 131.458 1120.3 131.945C1118.74 132.265 1116.98 132.631 1114.62 132.067C1112.6 131.58 1110.6 130.65 1108.82 129.828C1105.76 128.411 1103.7 127.542 1102.84 128.487C1102.14 129.249 1101.24 129.523 1100.35 129.264C1098.74 128.776 1097.39 126.064 1096.32 121.204C1093.71 127.756 1093.17 136.333 1093.19 142.397C1098.25 131.168 1101.02 131.717 1102.14 131.93L1102.18 131.915Z" fill="black"/>
<path d="M1090.91 154.981C1090.78 154.204 1090.69 153.442 1090.66 152.711C1090.66 153.457 1090.75 154.204 1090.91 154.981Z" fill="#FCFCFC"/>
<path d="M977.338 126.064C977.2 126.004 977.078 125.973 976.955 125.927C976.618 125.927 976.42 125.927 976.42 125.927L976.358 128.974C976.358 128.974 976.695 128.99 977.246 128.99H977.322C977.322 128.99 977.307 128.99 977.292 128.99L977.353 126.064H977.338Z" fill="#FCFCFC"/>
<path d="M1029.84 194.409C1029.84 194.409 1029.68 194.409 1029.5 194.409C1028.05 194.409 1022.26 194.044 1016.05 188.574C1011.48 184.567 1006.67 174.497 1009.21 167.215C1010.3 164.107 1013.14 160.343 1020.56 159.719C1022.84 156.733 1033.51 143.234 1042.12 140.126C1043 139.807 1043.88 139.471 1044.76 139.136C1051.84 136.424 1060.46 133.134 1067.27 142.869C1067.4 142.107 1067.56 141.361 1067.74 140.644C1068.9 136.44 1068.8 128.883 1068.75 126.765L1064.05 121.768C1064.05 122.743 1064.05 123.733 1064.11 124.495C1064.27 127.268 1060.95 127.512 1054.32 127.999C1049.99 128.319 1044.08 128.746 1037.37 129.965C1022.14 132.737 1009.85 128.015 1009.33 127.817L1009.15 127.725L997.046 120.991C989.9 117.015 985.815 118.081 983.841 119.27C984.407 119.635 984.988 120.092 985.478 120.671L987.682 123.276L984.254 123.17C982.341 123.094 980.934 123.49 979.954 123.932C980.934 124.556 981.898 125.44 982.265 126.674L982.295 126.781L982.51 126.841L982.479 127.344L982.77 128.304L982.387 128.365C982.372 128.502 982.341 128.654 982.295 128.792C981.959 130.056 980.964 130.909 979.648 131.473L981.056 132.646L979.847 132.996L981.928 133.362L977.368 135.388C976.986 135.556 976.542 135.724 976.068 135.876C977.032 136.135 977.827 136.424 978.302 136.76L980.888 138.588L980.337 138.74L984.499 138.847L976.175 141.025C976.833 141.132 977.399 141.269 977.858 141.437L984.774 143.89L977.46 144.392C976.618 144.453 975.716 144.499 974.828 144.529L977.736 145.84L971.202 146.083C970.85 146.083 970.483 146.114 970.131 146.114L973.466 148.643L967.239 147.988C967.239 147.988 967.101 147.973 967.024 147.957L968.769 149.587L964.377 149.222C963.933 149.191 963.49 149.146 963.046 149.1H963.015C965.05 151.507 966.933 155.514 968.769 159.429C970.498 163.131 972.303 166.971 973.726 168.235L974.063 168.54C975.486 169.804 977.781 171.831 980.811 174.086L981.194 173.628L982.387 174.741C989.809 181.642 997.765 186.715 1006.03 189.854C1017.38 194.15 1041.15 201.844 1051.75 205.241C1049.79 202.377 1048.15 199.315 1046.64 196.222C1046.61 196.161 1046.56 196.07 1046.5 195.933L1044.86 193.465L1029.84 194.363V194.409Z" fill="black"/>
<path d="M1044.85 193.495L1046.49 195.963C1046.3 195.537 1046.03 194.699 1045.98 193.434H1045.92L1044.85 193.495Z" fill="#FCFCFC"/>
<path d="M1067.19 149.009C1063.81 141.635 1060.01 139.365 1055.85 139.365C1052.73 139.365 1049.38 140.644 1045.83 142C1044.93 142.351 1044.04 142.686 1043.13 143.006C1034.5 146.114 1022.69 161.943 1022.57 162.111L1022.14 162.69L1021.42 162.735C1016.4 163.01 1013.25 164.853 1012.07 168.235C1010.02 174.131 1014.31 183.029 1018.06 186.304C1024.08 191.591 1029.59 191.377 1029.64 191.362L1045.95 190.387L1046.3 190.418C1046.59 189.153 1047.08 187.66 1047.91 185.969C1048.51 184.552 1049.41 183.09 1050.53 181.581C1052.21 179.144 1054.49 176.401 1057.55 173.324C1059.55 171.069 1061.54 168.738 1063.27 166.361C1063.59 165.325 1064.33 163.299 1065.7 162.598C1068.2 158.165 1069.27 153.579 1067.17 149.009H1067.19ZM1043.38 149.557L1043.43 149.374L1043.55 149.237C1046.59 145.87 1049.68 144.453 1052.76 145.032C1059.43 146.297 1063.32 156.611 1063.49 157.053L1063.62 157.434L1062.63 158.805L1062.45 158.881C1057.87 160.892 1054.06 161.897 1051.05 161.897C1048.78 161.897 1046.96 161.334 1045.61 160.191C1041.6 156.809 1043.32 149.847 1043.39 149.542L1043.38 149.557Z" fill="black"/>
<path d="M1050.53 181.581C1049.41 183.09 1048.51 184.552 1047.91 185.969C1048.55 184.644 1049.41 183.181 1050.53 181.581Z" fill="white"/>
<path d="M1057.59 173.278L1057.95 173.019C1057.95 173.019 1061.91 170.78 1063.2 166.62C1063.23 166.544 1063.24 166.453 1063.27 166.361C1061.54 168.738 1059.54 171.069 1057.55 173.324C1057.55 173.324 1057.58 173.293 1057.59 173.278Z" fill="white"/>
<path d="M1116.8 189.93C1127.57 194.699 1128.44 194.089 1140.47 185.542L1141.65 184.704C1147.87 180.286 1149.42 176.874 1149.63 174.802C1149.83 172.745 1148.76 171.587 1148.73 171.526L1148.44 171.115C1138.92 150.959 1105.38 135.663 1101.57 134.901C1100.94 134.992 1098.24 137.613 1094.01 148.399C1093.57 149.511 1093.63 150.822 1093.69 152.223V152.497C1093.86 156.093 1095.59 161.121 1097.38 163.345C1098.66 163.802 1099.72 165.249 1100.81 167.321C1102.72 169.332 1112.93 180.378 1116.18 188.894C1116.44 189.321 1116.66 189.671 1116.8 189.93ZM1098.73 158.683L1098.54 158.591L1097.56 157.22L1097.7 156.839C1097.85 156.398 1101.69 146.038 1108.24 144.804C1111.24 144.225 1114.27 145.657 1117.24 149.009L1117.36 149.146L1117.41 149.329C1117.49 149.633 1119.18 156.687 1115.14 160.039C1113.83 161.136 1112.07 161.684 1109.88 161.684C1106.93 161.684 1103.19 160.679 1098.71 158.668L1098.73 158.683Z" fill="black"/>
<path d="M1071.95 181.018C1071.86 178.382 1069.29 176.173 1069.27 176.158L1068.98 175.914L1067.37 171.892V171.633C1067.22 168.647 1066.9 167.001 1066.64 166.133C1066.49 166.468 1066.3 166.91 1066.12 167.519C1064.63 172.318 1060.59 174.984 1059.61 175.579C1046.53 188.726 1049.32 194.821 1049.35 194.881C1055.28 206.963 1062.41 217.765 1084.07 217.262C1104.95 216.805 1112.54 197.014 1112.85 196.176L1112.99 195.796L1113.29 195.537C1113.8 195.11 1114.04 194.546 1114.09 193.739C1114.44 187.538 1102.89 173.979 1098.4 169.286L1098.16 168.936C1097.38 167.443 1096.86 166.757 1096.58 166.438C1096.08 167.215 1095.39 169.134 1094.82 170.734C1094.3 172.196 1093.71 173.857 1092.99 175.594C1090.08 182.541 1097.5 189.016 1097.58 189.077L1097.78 189.244L1097.91 189.488C1101.51 195.857 1102.11 201.082 1099.69 205.013C1095.15 212.402 1081.68 211.99 1081.11 211.96C1070.25 212.219 1066.18 208.136 1064.69 204.662C1061.65 197.532 1066.87 188.026 1070.2 184.75C1071.41 183.562 1071.98 182.343 1071.93 181.033L1071.95 181.018Z" fill="black"/>
<path d="M1046.59 159.033C1049.19 161.227 1054.4 160.724 1061.63 157.571L1061.89 157.205C1061.14 155.392 1057.64 147.5 1052.47 146.525C1050.01 146.053 1047.43 147.256 1044.82 150.105C1044.59 151.157 1043.61 156.535 1046.59 159.033ZM1056.28 151.004L1047.76 148.795C1047.76 148.795 1053.98 143.372 1056.28 151.004Z" fill="black"/>
<path d="M1115.96 149.892C1113.42 147.074 1110.91 145.855 1108.52 146.312C1103.44 147.272 1100 155.194 1099.26 157.007L1099.52 157.373C1106.53 160.481 1111.58 161.014 1114.15 158.881C1117.13 156.398 1116.17 150.943 1115.94 149.892H1115.96ZM1104.75 150.791C1107.02 143.174 1113.11 148.582 1113.11 148.582L1104.75 150.791Z" fill="black"/>
<path d="M1095.25 193.647C1091.49 195.674 1075.45 197.974 1071.55 195.46L1071.38 195.354C1069.65 194.226 1068.99 193.876 1068.54 194.226C1067.59 194.942 1066.93 196.618 1066.75 197.243C1066.67 197.593 1065.67 202.529 1068.23 205.927C1069.73 207.923 1072.18 209.05 1075.53 209.279C1088.08 210.117 1094.52 209.675 1097.2 204.906C1099.93 200 1098.22 196.329 1098.14 196.176L1098.07 195.872C1098.05 195.369 1097.84 193.815 1097.06 193.373C1096.64 193.129 1096.03 193.236 1095.24 193.647H1095.25ZM1095.74 196.116C1096.92 195.384 1096.51 196.116 1096.51 196.116C1096.51 196.116 1092.48 204.236 1089.9 200.854C1087.3 197.471 1094.58 196.847 1095.74 196.116ZM1069.56 196.222C1070.98 196.953 1079.83 197.578 1076.68 200.96C1073.52 204.342 1068.64 196.222 1068.64 196.222C1068.64 196.222 1068.15 195.491 1069.58 196.222H1069.56Z" fill="black"/>
<path d="M137.548 133V113.4H141.748V129.22H150.624V133H137.548ZM160.31 133.28C158.798 133.28 157.444 132.953 156.25 132.3C155.074 131.628 154.14 130.713 153.45 129.556C152.778 128.399 152.442 127.073 152.442 125.58C152.442 124.087 152.778 122.771 153.45 121.632C154.14 120.475 155.074 119.56 156.25 118.888C157.444 118.216 158.798 117.88 160.31 117.88C161.803 117.88 163.138 118.216 164.314 118.888C165.508 119.56 166.442 120.475 167.114 121.632C167.786 122.771 168.122 124.087 168.122 125.58C168.122 127.073 167.786 128.399 167.114 129.556C166.442 130.713 165.508 131.628 164.314 132.3C163.138 132.953 161.803 133.28 160.31 133.28ZM160.31 129.808C161.038 129.808 161.691 129.631 162.27 129.276C162.848 128.903 163.296 128.399 163.614 127.764C163.95 127.111 164.118 126.383 164.118 125.58C164.118 124.759 163.95 124.031 163.614 123.396C163.296 122.743 162.848 122.239 162.27 121.884C161.691 121.511 161.038 121.324 160.31 121.324C159.563 121.324 158.9 121.511 158.322 121.884C157.743 122.257 157.286 122.761 156.95 123.396C156.614 124.031 156.455 124.759 156.474 125.58C156.455 126.383 156.614 127.111 156.95 127.764C157.286 128.399 157.743 128.903 158.322 129.276C158.9 129.631 159.563 129.808 160.31 129.808ZM177.861 139.44C176.685 139.44 175.528 139.263 174.389 138.908C173.25 138.572 172.326 138.133 171.617 137.592L173.017 134.736C173.39 134.997 173.82 135.231 174.305 135.436C174.79 135.641 175.294 135.8 175.817 135.912C176.358 136.024 176.909 136.08 177.469 136.08C178.44 136.08 179.233 135.931 179.849 135.632C180.484 135.333 180.96 134.885 181.277 134.288C181.594 133.709 181.753 132.963 181.753 132.048V129.472L182.425 129.612C182.313 130.228 182.005 130.797 181.501 131.32C180.997 131.824 180.362 132.235 179.597 132.552C178.832 132.851 178.048 133 177.245 133C175.864 133 174.641 132.683 173.577 132.048C172.513 131.413 171.673 130.536 171.057 129.416C170.441 128.296 170.133 127.008 170.133 125.552C170.133 124.059 170.432 122.743 171.029 121.604C171.645 120.447 172.476 119.541 173.521 118.888C174.585 118.216 175.789 117.88 177.133 117.88C177.693 117.88 178.225 117.945 178.729 118.076C179.252 118.207 179.728 118.393 180.157 118.636C180.605 118.86 180.997 119.121 181.333 119.42C181.688 119.7 181.977 120.008 182.201 120.344C182.425 120.68 182.565 121.016 182.621 121.352L181.809 121.576L181.921 118.188H185.729V131.88C185.729 133.093 185.552 134.167 185.197 135.1C184.842 136.033 184.32 136.817 183.629 137.452C182.957 138.105 182.126 138.6 181.137 138.936C180.166 139.272 179.074 139.44 177.861 139.44ZM177.973 129.808C178.757 129.808 179.438 129.631 180.017 129.276C180.614 128.921 181.072 128.427 181.389 127.792C181.706 127.157 181.865 126.411 181.865 125.552C181.865 124.712 181.706 123.975 181.389 123.34C181.072 122.687 180.614 122.183 180.017 121.828C179.438 121.473 178.757 121.296 177.973 121.296C177.208 121.296 176.526 121.483 175.929 121.856C175.35 122.211 174.902 122.705 174.585 123.34C174.268 123.975 174.109 124.712 174.109 125.552C174.109 126.392 174.268 127.139 174.585 127.792C174.902 128.427 175.35 128.921 175.929 129.276C176.526 129.631 177.208 129.808 177.973 129.808ZM196.567 133.28C195.055 133.28 193.702 132.953 192.507 132.3C191.331 131.628 190.398 130.713 189.707 129.556C189.035 128.399 188.699 127.073 188.699 125.58C188.699 124.087 189.035 122.771 189.707 121.632C190.398 120.475 191.331 119.56 192.507 118.888C193.702 118.216 195.055 117.88 196.567 117.88C198.061 117.88 199.395 118.216 200.571 118.888C201.766 119.56 202.699 120.475 203.371 121.632C204.043 122.771 204.379 124.087 204.379 125.58C204.379 127.073 204.043 128.399 203.371 129.556C202.699 130.713 201.766 131.628 200.571 132.3C199.395 132.953 198.061 133.28 196.567 133.28ZM196.567 129.808C197.295 129.808 197.949 129.631 198.527 129.276C199.106 128.903 199.554 128.399 199.871 127.764C200.207 127.111 200.375 126.383 200.375 125.58C200.375 124.759 200.207 124.031 199.871 123.396C199.554 122.743 199.106 122.239 198.527 121.884C197.949 121.511 197.295 121.324 196.567 121.324C195.821 121.324 195.158 121.511 194.579 121.884C194.001 122.257 193.543 122.761 193.207 123.396C192.871 124.031 192.713 124.759 192.731 125.58C192.713 126.383 192.871 127.111 193.207 127.764C193.543 128.399 194.001 128.903 194.579 129.276C195.158 129.631 195.821 129.808 196.567 129.808Z" fill="black"/>
<path d="M705.548 127V107.4H709.748V123.22H718.624V127H705.548ZM728.31 127.28C726.798 127.28 725.444 126.953 724.25 126.3C723.074 125.628 722.14 124.713 721.45 123.556C720.778 122.399 720.442 121.073 720.442 119.58C720.442 118.087 720.778 116.771 721.45 115.632C722.14 114.475 723.074 113.56 724.25 112.888C725.444 112.216 726.798 111.88 728.31 111.88C729.803 111.88 731.138 112.216 732.314 112.888C733.508 113.56 734.442 114.475 735.114 115.632C735.786 116.771 736.122 118.087 736.122 119.58C736.122 121.073 735.786 122.399 735.114 123.556C734.442 124.713 733.508 125.628 732.314 126.3C731.138 126.953 729.803 127.28 728.31 127.28ZM728.31 123.808C729.038 123.808 729.691 123.631 730.27 123.276C730.848 122.903 731.296 122.399 731.614 121.764C731.95 121.111 732.118 120.383 732.118 119.58C732.118 118.759 731.95 118.031 731.614 117.396C731.296 116.743 730.848 116.239 730.27 115.884C729.691 115.511 729.038 115.324 728.31 115.324C727.563 115.324 726.9 115.511 726.322 115.884C725.743 116.257 725.286 116.761 724.95 117.396C724.614 118.031 724.455 118.759 724.474 119.58C724.455 120.383 724.614 121.111 724.95 121.764C725.286 122.399 725.743 122.903 726.322 123.276C726.9 123.631 727.563 123.808 728.31 123.808ZM745.861 133.44C744.685 133.44 743.528 133.263 742.389 132.908C741.25 132.572 740.326 132.133 739.617 131.592L741.017 128.736C741.39 128.997 741.82 129.231 742.305 129.436C742.79 129.641 743.294 129.8 743.817 129.912C744.358 130.024 744.909 130.08 745.469 130.08C746.44 130.08 747.233 129.931 747.849 129.632C748.484 129.333 748.96 128.885 749.277 128.288C749.594 127.709 749.753 126.963 749.753 126.048V123.472L750.425 123.612C750.313 124.228 750.005 124.797 749.501 125.32C748.997 125.824 748.362 126.235 747.597 126.552C746.832 126.851 746.048 127 745.245 127C743.864 127 742.641 126.683 741.577 126.048C740.513 125.413 739.673 124.536 739.057 123.416C738.441 122.296 738.133 121.008 738.133 119.552C738.133 118.059 738.432 116.743 739.029 115.604C739.645 114.447 740.476 113.541 741.521 112.888C742.585 112.216 743.789 111.88 745.133 111.88C745.693 111.88 746.225 111.945 746.729 112.076C747.252 112.207 747.728 112.393 748.157 112.636C748.605 112.86 748.997 113.121 749.333 113.42C749.688 113.7 749.977 114.008 750.201 114.344C750.425 114.68 750.565 115.016 750.621 115.352L749.809 115.576L749.921 112.188H753.729V125.88C753.729 127.093 753.552 128.167 753.197 129.1C752.842 130.033 752.32 130.817 751.629 131.452C750.957 132.105 750.126 132.6 749.137 132.936C748.166 133.272 747.074 133.44 745.861 133.44ZM745.973 123.808C746.757 123.808 747.438 123.631 748.017 123.276C748.614 122.921 749.072 122.427 749.389 121.792C749.706 121.157 749.865 120.411 749.865 119.552C749.865 118.712 749.706 117.975 749.389 117.34C749.072 116.687 748.614 116.183 748.017 115.828C747.438 115.473 746.757 115.296 745.973 115.296C745.208 115.296 744.526 115.483 743.929 115.856C743.35 116.211 742.902 116.705 742.585 117.34C742.268 117.975 742.109 118.712 742.109 119.552C742.109 120.392 742.268 121.139 742.585 121.792C742.902 122.427 743.35 122.921 743.929 123.276C744.526 123.631 745.208 123.808 745.973 123.808ZM764.567 127.28C763.055 127.28 761.702 126.953 760.507 126.3C759.331 125.628 758.398 124.713 757.707 123.556C757.035 122.399 756.699 121.073 756.699 119.58C756.699 118.087 757.035 116.771 757.707 115.632C758.398 114.475 759.331 113.56 760.507 112.888C761.702 112.216 763.055 111.88 764.567 111.88C766.061 111.88 767.395 112.216 768.571 112.888C769.766 113.56 770.699 114.475 771.371 115.632C772.043 116.771 772.379 118.087 772.379 119.58C772.379 121.073 772.043 122.399 771.371 123.556C770.699 124.713 769.766 125.628 768.571 126.3C767.395 126.953 766.061 127.28 764.567 127.28ZM764.567 123.808C765.295 123.808 765.949 123.631 766.527 123.276C767.106 122.903 767.554 122.399 767.871 121.764C768.207 121.111 768.375 120.383 768.375 119.58C768.375 118.759 768.207 118.031 767.871 117.396C767.554 116.743 767.106 116.239 766.527 115.884C765.949 115.511 765.295 115.324 764.567 115.324C763.821 115.324 763.158 115.511 762.579 115.884C762.001 116.257 761.543 116.761 761.207 117.396C760.871 118.031 760.713 118.759 760.731 119.58C760.713 120.383 760.871 121.111 761.207 121.764C761.543 122.399 762.001 122.903 762.579 123.276C763.158 123.631 763.821 123.808 764.567 123.808Z" fill="black"/>
<path d="M162.335 72.9536C161.718 73.0418 161.101 73.2033 160.514 73.4236C156.651 74.9214 136.959 80.2962 105.518 49.5162C72.359 17.0622 72.08 86.5814 84.0483 104.189C85.2378 105.936 85.1644 108.257 83.8427 109.901C75.1932 120.695 49.0097 157.231 74.0478 176.88C103.638 200.112 135.49 197.483 148.222 209.848C160.954 222.213 186.815 209.848 186.815 209.848C186.815 209.848 210.296 200.347 227.654 200.112C247.244 199.833 286.938 154.059 245.026 118.331C243.602 117.112 243.631 114.909 245.1 113.734C250.445 109.461 260.783 97.5511 262.457 68.6215C264.719 29.6767 223.983 37.0045 198.078 69.8698C197.447 70.6628 196.654 71.3089 195.743 71.7495C192.322 73.3795 183.085 76.3753 166.211 72.3662L162.335 72.9536Z" fill="#644E57"/>
<path d="M209.856 79.0481C209.503 78.5929 229.578 108.976 236.45 108.83C243.029 108.697 270.608 52.7912 246.935 52.0716C225.304 51.4255 212.352 84.4376 209.841 79.0481H209.856Z" fill="#81646F"/>
<path d="M121.951 81.045C122.303 80.6632 101.553 106.083 95.767 105.158C90.2308 104.277 73.945 50.0301 94.0195 52.1154C112.376 54.0244 119.175 85.6708 121.951 81.045Z" fill="#81646F"/>
<path d="M267.171 153.516C270.226 154.089 272.766 148.391 273.692 146.261C271.783 147.774 262.193 145.556 265.292 145.131C268.64 144.69 274 137.627 274 137.627L266.349 140.167C267.171 139.022 267.715 138.17 267.715 138.17L265.806 138.934L267.979 136.848L261.826 137.068C261.826 137.068 268.787 124.777 264.895 130.137C263.544 132.002 260.754 133.559 257.641 134.807C259.315 131.15 261.782 125.57 259.227 129.799C255.6 135.791 240.738 139.036 240.239 139.036C239.74 139.036 221.501 137.538 213.644 132.913C205.773 128.287 204.275 132.413 199.165 131.165C194.04 129.917 188.929 125.423 186.433 128.125C183.936 130.842 181.939 117.552 181.939 117.552C174.949 128.287 177.093 149.889 177.093 149.889L177.255 152.326C177.181 160.388 188.812 170.874 195.567 181.52C202.307 192.182 199.752 192.475 193.07 201.742C186.389 211.008 175.448 215.296 175.448 215.296C185.566 213.519 199.458 206.485 211.559 203.577C224.732 200.42 218.064 200.963 227.669 200.068C238.198 199.084 238.139 197.468 244.219 194.531C246.789 193.298 249.564 189.744 251.914 186.043C257.479 181.359 262.927 171.476 263.104 171.167C263.133 171.153 263.148 171.123 263.177 171.109C263.911 170.624 272.326 165.014 270.666 165.866C268.919 166.762 261.018 162.958 265.174 163.634C269.33 164.309 273.09 154.133 271.739 156.923C270.387 159.713 263.03 152.679 267.186 153.457L267.171 153.516Z" fill="#B39EA6"/>
<path d="M66.162 128.184C66.162 128.184 66.4997 128.199 67.0431 128.199C66.5144 128.184 66.162 128.184 66.162 128.184Z" fill="#B39EA6"/>
<path d="M156.196 126.965L148.824 119.094C148.824 119.094 148.692 123.221 148.824 125.467C148.956 127.714 138.706 126.598 124.344 129.212C109.982 131.841 98.2489 127.215 98.2489 127.215L86.633 120.724C75.017 114.233 70.6556 120.724 70.6556 120.724C70.6556 120.724 72.594 121.326 73.7101 122.648C68.6878 122.501 66.6319 125.159 66.6319 125.159C66.6319 125.159 69.7745 125.996 70.3619 127.935C69.1136 128.155 67.8507 128.214 67.043 128.214C67.9535 128.243 69.378 128.36 70.45 128.713C70.45 128.86 70.4206 129.021 70.3766 129.183C69.7892 131.415 65.0165 131.665 63.0046 131.665C64.2969 131.709 66.6759 131.9 67.5423 132.634C64.7962 133.427 61.7858 133.911 61.7858 133.911C61.7858 133.911 64.0913 134.146 66.4556 134.558C63.6655 135.791 57.7621 136.628 57.7621 136.628C57.7621 136.628 65.5305 137.304 67.1018 138.434C63.4011 139.521 58.6725 140.461 58.6725 140.461C58.6725 140.461 60.89 140.387 63.5186 140.461C59.7739 141.445 54.6488 142.341 54.6488 142.341C54.6488 142.341 64.106 142.076 67.0284 143.119C62.5788 143.427 56.6754 143.339 56.6754 143.339C56.6754 143.339 59.3187 143.956 61.0809 144.749C57.0278 144.896 52.6517 144.837 52.6517 144.837C52.6517 144.837 56.9838 145.718 58.232 146.673C55.4418 146.379 52.7104 145.909 54.7223 147.789C51.6384 147.539 48.2608 146.922 51.0216 148.978C55.1481 152.018 59.1425 165.616 62.5935 168.686C64.1207 170.037 66.8375 172.504 70.6262 175.235C70.7143 175.132 70.7877 175.03 70.8759 174.927C75.7513 179.479 83.6372 185.823 94.0489 189.788C108.44 195.266 143.112 206.279 143.112 206.279L132.465 190.273L126.738 171.197L154.317 153.208C154.317 153.208 153.832 146.335 155.212 141.342C156.593 136.349 156.211 126.98 156.211 126.98L156.196 126.965Z" fill="#B39EA6"/>
<path d="M132.876 190.317L117.325 191.257C117.325 191.257 111.524 191.638 105.151 186.014C98.7775 180.39 92.228 161.666 109.277 160.726C109.277 160.726 120.893 144.999 129.69 141.812C138.501 138.625 147.679 133.192 154.61 148.361C161.542 163.531 136.621 177.776 135.505 187.321C135.505 187.321 135.152 190.346 133.449 190.361L132.891 190.317H132.876Z" fill="#3C2F33"/>
<path d="M177.24 152.386C177.181 150.829 177.078 149.287 177.636 147.848C179.413 143.31 183.657 133.354 186.55 133.926C190.295 134.675 223.204 149.728 232.573 169.641C232.573 169.641 238.374 175.441 225.583 184.561C212.778 193.68 211.721 194.869 199.855 189.553C199.855 189.553 195.67 182.505 193.731 179.744C191.793 176.983 184.421 167.262 181.499 164.192C179.413 162.019 177.416 156.395 177.24 152.371V152.386Z" fill="#3C2F33"/>
<path d="M156.211 174.002C156.211 174.002 162.452 179.259 157.209 184.443C151.967 189.627 144.037 208.732 166.696 208.174C166.696 208.174 192.982 209.172 181.498 188.687C181.498 188.687 173.451 181.799 176.696 174.002C179.942 166.204 180.412 159.948 184.333 167.481C184.333 167.481 205.112 189.377 198.489 194.928C198.489 194.928 190.853 215.751 169.515 216.221C148.178 216.691 140.791 205.986 134.859 193.87C134.859 193.87 131.187 187.394 145.109 173.399C145.109 173.399 149.412 171.035 150.851 166.38C152.29 161.725 154.478 161.71 154.904 170.712L156.211 174.016V174.002Z" fill="#F3F0F2"/>
<path d="M149.015 156.982C149.015 156.982 141.893 137.686 131.129 149.683C131.129 149.683 126.635 167.438 148.413 157.834L149.015 156.996V156.982Z" fill="#171511"/>
<path d="M134.609 148.758C134.609 148.758 140.586 143.53 142.789 150.887Z" fill="#E3E2DE"/>
<path d="M183.231 156.776C183.231 156.776 190.207 137.48 200.751 149.478C200.751 149.478 205.156 167.232 183.834 157.628L183.231 156.791V156.776Z" fill="#171511"/>
<path d="M197.329 148.552C197.329 148.552 191.485 143.325 189.311 150.682Z" fill="#E3E2DE"/>
<path d="M152.128 195.266C152.128 195.266 149.426 206.999 161.218 207.777C173.011 208.57 179.825 208.335 182.703 203.196C185.581 198.056 183.628 194.106 183.628 194.106C183.628 194.106 183.496 189.362 179.839 191.345C176.183 193.327 161.233 195.324 157.841 193.122C156.049 191.962 155.021 191.257 154.111 191.962C152.789 192.975 152.128 195.266 152.128 195.266Z" fill="#3C2F33"/>
<path d="M154.654 194.487C154.654 194.487 159.339 202.315 162.364 199.055C165.389 195.794 156.901 195.192 155.535 194.487C154.17 193.783 154.64 194.487 154.64 194.487H154.654Z" fill="#050301"/>
<path d="M181.396 194.37C181.396 194.37 177.534 202.197 175.052 198.937C172.555 195.677 179.545 195.075 180.661 194.37C181.778 193.665 181.396 194.37 181.396 194.37Z" fill="#050301"/>
<g clip-path="url(#clip1_3120_725)">
<path d="M772.191 71.8678C771.557 71.9585 770.923 72.1246 770.32 72.3512C766.352 73.8919 746.119 79.4202 713.816 47.7607C679.748 14.3792 679.461 85.885 691.758 103.996C692.98 105.793 692.905 108.18 691.547 109.871C682.66 120.973 655.759 158.554 681.483 178.764C711.885 202.66 744.61 199.956 757.691 212.674C770.772 225.392 797.342 212.674 797.342 212.674C797.342 212.674 821.467 202.901 839.301 202.66C859.428 202.373 900.21 155.291 857.15 118.541C855.686 117.288 855.716 115.022 857.225 113.814C862.717 109.418 873.339 97.1683 875.059 67.412C877.382 27.3542 835.529 34.8915 808.914 68.6959C808.266 69.5115 807.451 70.1761 806.515 70.6293C803 72.3059 793.51 75.3873 776.174 71.2637L772.191 71.8678Z" fill="black"/>
<path d="M821.015 78.1363C820.652 77.6681 841.277 108.92 848.339 108.769C855.098 108.633 883.433 51.129 859.111 50.3889C836.887 49.7243 823.58 83.6797 821 78.1363H821.015Z" fill="#FCFCFC" stroke="black" stroke-miterlimit="10"/>
<path d="M730.699 80.1906C731.062 79.7979 709.743 105.944 703.798 104.993C698.11 104.086 681.378 48.2894 702.003 50.4343C720.862 52.3979 727.848 84.9486 730.699 80.1906Z" fill="#FCFCFC" stroke="black" stroke-miterlimit="10"/>
<path d="M879.902 154.732C883.04 155.322 885.651 149.461 886.601 147.271C884.64 148.827 874.787 146.546 877.971 146.108C881.411 145.655 886.918 138.389 886.918 138.389L879.057 141.002C879.902 139.824 880.46 138.948 880.46 138.948L878.499 139.733L880.732 137.589L874.41 137.815C874.41 137.815 881.562 125.172 877.564 130.686C876.175 132.604 873.309 134.205 870.11 135.489C871.83 131.728 874.365 125.988 871.74 130.338C868.013 136.501 852.744 139.839 852.231 139.839C851.718 139.839 832.979 138.299 824.907 133.541C816.82 128.783 815.281 133.027 810.031 131.743C804.765 130.459 799.515 125.837 796.95 128.616C794.385 131.411 792.333 117.741 792.333 117.741C785.151 128.783 787.354 151.002 787.354 151.002L787.52 153.509C787.444 161.801 799.394 172.586 806.334 183.537C813.26 194.503 810.634 194.805 803.769 204.336C796.904 213.867 785.664 218.278 785.664 218.278C796.06 216.45 810.333 209.215 822.765 206.224C836.299 202.977 829.449 203.536 839.316 202.614C850.134 201.602 850.074 199.941 856.32 196.92C858.96 195.651 861.812 191.996 864.226 188.189C869.944 183.371 875.542 173.206 875.723 172.888C875.753 172.873 875.768 172.843 875.798 172.828C876.553 172.329 885.198 166.559 883.493 167.436C881.698 168.357 873.58 164.445 877.85 165.14C882.12 165.834 885.982 155.367 884.594 158.237C883.206 161.107 875.647 153.871 879.917 154.672L879.902 154.732Z" fill="#FCFCFC" stroke="black" stroke-miterlimit="10"/>
<path d="M673.366 128.662C673.366 128.662 673.713 128.677 674.271 128.677C673.728 128.662 673.366 128.662 673.366 128.662Z" fill="#FCFCFC" stroke="black" stroke-miterlimit="10"/>
<path d="M765.869 127.423L758.295 119.327C758.295 119.327 758.159 123.571 758.295 125.882C758.431 128.193 747.899 127.046 733.144 129.734C718.388 132.438 706.333 127.68 706.333 127.68L694.398 121.004C682.464 114.327 677.983 121.004 677.983 121.004C677.983 121.004 679.974 121.623 681.121 122.982C675.961 122.831 673.849 125.565 673.849 125.565C673.849 125.565 677.078 126.426 677.681 128.42C676.399 128.647 675.101 128.707 674.271 128.707C675.207 128.737 676.67 128.858 677.772 129.221C677.772 129.372 677.741 129.538 677.696 129.704C677.093 132 672.189 132.257 670.122 132.257C671.45 132.302 673.894 132.498 674.784 133.254C671.963 134.069 668.87 134.568 668.87 134.568C668.87 134.568 671.239 134.809 673.668 135.232C670.801 136.501 664.736 137.362 664.736 137.362C664.736 137.362 672.717 138.057 674.332 139.22C670.53 140.338 665.671 141.304 665.671 141.304C665.671 141.304 667.95 141.229 670.65 141.304C666.803 142.316 661.537 143.238 661.537 143.238C661.537 143.238 671.254 142.966 674.256 144.038C669.685 144.356 663.619 144.265 663.619 144.265C663.619 144.265 666.335 144.899 668.146 145.715C663.981 145.866 659.485 145.806 659.485 145.806C659.485 145.806 663.936 146.712 665.219 147.694C662.352 147.392 659.546 146.908 661.613 148.842C658.444 148.585 654.974 147.95 657.811 150.065C662.05 153.192 666.154 167.179 669.7 170.336C671.269 171.725 674.06 174.263 677.953 177.072C678.043 176.967 678.119 176.861 678.209 176.755C683.218 181.438 691.32 187.963 702.018 192.041C716.804 197.675 752.426 209.004 752.426 209.004L741.487 192.54L735.603 172.919L763.938 154.415C763.938 154.415 763.44 147.346 764.858 142.211C766.276 137.075 765.884 127.438 765.884 127.438L765.869 127.423Z" fill="#FCFCFC" stroke="black" stroke-miterlimit="10"/>
<path d="M741.91 192.585L725.932 193.552C725.932 193.552 719.972 193.944 713.424 188.159C706.876 182.374 700.147 163.116 717.664 162.149C717.664 162.149 729.598 145.972 738.636 142.694C747.688 139.416 757.118 133.827 764.239 149.431C771.361 165.034 745.757 179.685 744.61 189.504C744.61 189.504 744.248 192.615 742.498 192.63L741.925 192.585H741.91Z" fill="black"/>
<path d="M787.505 153.569C787.444 151.968 787.339 150.382 787.912 148.902C789.738 144.235 794.098 133.994 797.07 134.583C800.918 135.353 834.729 150.835 844.355 171.317C844.355 171.317 850.315 177.284 837.174 186.664C824.017 196.044 822.931 197.267 810.74 191.799C810.74 191.799 806.44 184.549 804.448 181.709C802.457 178.87 794.883 168.87 791.88 165.714C789.738 163.478 787.686 157.693 787.505 153.554V153.569Z" fill="black"/>
<path d="M765.884 175.804C765.884 175.804 772.296 181.211 766.91 186.543C761.524 191.875 753.376 211.526 776.657 210.952C776.657 210.952 803.664 211.979 791.865 190.908C791.865 190.908 783.597 183.824 786.931 175.804C790.266 167.783 790.749 161.348 794.777 169.097C794.777 169.097 816.126 191.618 809.322 197.328C809.322 197.328 801.476 218.746 779.554 219.23C757.631 219.713 750.042 208.702 743.946 196.24C743.946 196.24 740.175 189.579 754.478 175.184C754.478 175.184 758.898 172.752 760.377 167.964C761.856 163.176 764.104 163.161 764.541 172.42L765.884 175.819V175.804Z" fill="#FCFCFC" stroke="black" stroke-miterlimit="10"/>
<path d="M758.491 158.297C758.491 158.297 751.173 138.45 740.114 150.79C740.114 150.79 735.497 169.052 757.872 159.173L758.491 158.312V158.297Z" fill="black" stroke="white" stroke-miterlimit="10"/>
<path d="M743.705 149.839C743.705 149.839 749.846 144.461 752.109 152.029Z" fill="#E3E2DE"/>
<path d="M793.646 158.086C793.646 158.086 800.812 138.238 811.645 150.579C811.645 150.579 816.172 168.84 794.264 158.962L793.646 158.101V158.086Z" fill="black" stroke="white" stroke-miterlimit="10"/>
<path d="M808.145 149.627C808.145 149.627 802.14 144.25 799.907 151.817Z" fill="#E3E2DE"/>
<path d="M761.705 197.675C761.705 197.675 758.929 209.744 771.044 210.544C783.159 211.36 790.16 211.118 793.117 205.832C796.075 200.545 794.068 196.482 794.068 196.482C794.068 196.482 793.932 191.603 790.175 193.642C786.418 195.681 771.059 197.736 767.574 195.47C765.733 194.277 764.677 193.552 763.742 194.277C762.384 195.319 761.705 197.675 761.705 197.675Z" fill="black"/>
<path d="M764.3 196.86C764.3 196.86 769.113 204.91 772.221 201.557C775.329 198.204 766.608 197.585 765.205 196.86C763.802 196.135 764.285 196.86 764.285 196.86H764.3Z" fill="white"/>
<path d="M791.759 196.754C791.759 196.754 787.791 204.805 785.242 201.451C782.677 198.098 789.858 197.479 791.005 196.754C792.152 196.029 791.759 196.754 791.759 196.754Z" fill="white"/>
</g>
<defs>
<filter id="filter0_d_3120_725" x="321" y="17" width="292" height="232" filterUnits="userSpaceOnUse" color-interpolation-filters="sRGB">
<feFlood flood-opacity="0" result="BackgroundImageFix"/>
<feColorMatrix in="SourceAlpha" type="matrix" values="0 0 0 0 0 0 0 0 0 0 0 0 0 0 0 0 0 0 127 0" result="hardAlpha"/>
<feOffset dy="4"/>
<feGaussianBlur stdDeviation="2"/>
<feComposite in2="hardAlpha" operator="out"/>
<feColorMatrix type="matrix" values="0 0 0 0 0 0 0 0 0 0 0 0 0 0 0 0 0 0 0.25 0"/>
<feBlend mode="normal" in2="BackgroundImageFix" result="effect1_dropShadow_3120_725"/>
<feBlend mode="normal" in="SourceGraphic" in2="effect1_dropShadow_3120_725" result="shape"/>
</filter>
<filter id="filter1_d_3120_725" x="16" y="17" width="292" height="232" filterUnits="userSpaceOnUse" color-interpolation-filters="sRGB">
<feFlood flood-opacity="0" result="BackgroundImageFix"/>
<feColorMatrix in="SourceAlpha" type="matrix" values="0 0 0 0 0 0 0 0 0 0 0 0 0 0 0 0 0 0 127 0" result="hardAlpha"/>
<feOffset dy="4"/>
<feGaussianBlur stdDeviation="2"/>
<feComposite in2="hardAlpha" operator="out"/>
<feColorMatrix type="matrix" values="0 0 0 0 0 0 0 0 0 0 0 0 0 0 0 0 0 0 0.25 0"/>
<feBlend mode="normal" in2="BackgroundImageFix" result="effect1_dropShadow_3120_725"/>
<feBlend mode="normal" in="SourceGraphic" in2="effect1_dropShadow_3120_725" result="shape"/>
</filter>
<filter id="filter2_d_3120_725" x="625" y="17" width="295" height="232" filterUnits="userSpaceOnUse" color-interpolation-filters="sRGB">
<feFlood flood-opacity="0" result="BackgroundImageFix"/>
<feColorMatrix in="SourceAlpha" type="matrix" values="0 0 0 0 0 0 0 0 0 0 0 0 0 0 0 0 0 0 127 0" result="hardAlpha"/>
<feOffset dy="4"/>
<feGaussianBlur stdDeviation="2"/>
<feComposite in2="hardAlpha" operator="out"/>
<feColorMatrix type="matrix" values="0 0 0 0 0 0 0 0 0 0 0 0 0 0 0 0 0 0 0.25 0"/>
<feBlend mode="normal" in2="BackgroundImageFix" result="effect1_dropShadow_3120_725"/>
<feBlend mode="normal" in="SourceGraphic" in2="effect1_dropShadow_3120_725" result="shape"/>
</filter>
<filter id="filter3_d_3120_725" x="932" y="17" width="288" height="232" filterUnits="userSpaceOnUse" color-interpolation-filters="sRGB">
<feFlood flood-opacity="0" result="BackgroundImageFix"/>
<feColorMatrix in="SourceAlpha" type="matrix" values="0 0 0 0 0 0 0 0 0 0 0 0 0 0 0 0 0 0 127 0" result="hardAlpha"/>
<feOffset dy="4"/>
<feGaussianBlur stdDeviation="2"/>
<feComposite in2="hardAlpha" operator="out"/>
<feColorMatrix type="matrix" values="0 0 0 0 0 0 0 0 0 0 0 0 0 0 0 0 0 0 0.25 0"/>
<feBlend mode="normal" in2="BackgroundImageFix" result="effect1_dropShadow_3120_725"/>
<feBlend mode="normal" in="SourceGraphic" in2="effect1_dropShadow_3120_725" result="shape"/>
</filter>
<clipPath id="clip0_3120_725">
<rect width="226" height="177" fill="white" transform="translate(354 41)"/>
</clipPath>
<clipPath id="clip1_3120_725">
<rect width="233" height="181" fill="white" transform="translate(656 39)"/>
</clipPath>
</defs>
</svg>
