<svg width="1201" height="334" viewBox="0 0 1201 334" fill="none" xmlns="http://www.w3.org/2000/svg">
<g clip-path="url(#clip0_3119_1662)">
<rect x="395" width="327" height="334" fill="white"/>
<path d="M463.542 83.959H501.458" stroke="#33363F" stroke-width="5.40845" stroke-linecap="round"/>
<path d="M463.542 97.501H501.458" stroke="#33363F" stroke-width="5.40845" stroke-linecap="round"/>
<path d="M463.542 111.04H501.458" stroke="#33363F" stroke-width="5.40845" stroke-linecap="round"/>
<path d="M594 119L583.848 108.831M589.474 95.2368C589.474 105.861 580.861 114.474 570.237 114.474C559.613 114.474 551 105.861 551 95.2368C551 84.6126 559.613 76 570.237 76C580.861 76 589.474 84.6126 589.474 95.2368Z" stroke="#3E2E33" stroke-width="5.74648" stroke-linecap="round"/>
<path d="M482.5 197.876L478.573 194.355C474.014 190.247 470.245 186.704 467.266 183.725C464.286 180.745 461.917 178.082 460.156 175.735C458.396 173.343 457.155 171.153 456.432 169.167C455.755 167.181 455.417 165.15 455.417 163.074C455.417 158.831 456.839 155.287 459.682 152.443C462.526 149.6 466.069 148.178 470.313 148.178C472.66 148.178 474.894 148.674 477.016 149.667C479.137 150.66 480.965 152.06 482.5 153.865C484.035 152.06 485.863 150.66 487.984 149.667C490.106 148.674 492.34 148.178 494.688 148.178C498.931 148.178 502.474 149.6 505.318 152.443C508.161 155.287 509.583 158.831 509.583 163.074C509.583 165.15 509.222 167.181 508.5 169.167C507.823 171.153 506.604 173.343 504.844 175.735C503.083 178.082 500.714 180.745 497.734 183.725C494.755 186.704 490.986 190.247 486.427 194.355L482.5 197.876ZM482.5 190.563C486.833 186.681 490.399 183.363 493.198 180.61C495.997 177.811 498.208 175.396 499.833 173.365C501.458 171.289 502.587 169.461 503.219 167.881C503.851 166.256 504.167 164.653 504.167 163.074C504.167 160.365 503.264 158.108 501.458 156.303C499.653 154.497 497.396 153.594 494.688 153.594C492.566 153.594 490.602 154.204 488.797 155.423C486.991 156.596 485.75 158.108 485.073 159.959H479.927C479.25 158.108 478.009 156.596 476.203 155.423C474.398 154.204 472.434 153.594 470.313 153.594C467.604 153.594 465.347 154.497 463.542 156.303C461.736 158.108 460.833 160.365 460.833 163.074C460.833 164.653 461.149 166.256 461.781 167.881C462.413 169.461 463.542 171.289 465.167 173.365C466.792 175.396 469.003 177.811 471.802 180.61C474.601 183.363 478.167 186.681 482.5 190.563Z" fill="#1C0E13"/>
<path d="M555.844 187.312C558.146 185.551 560.719 184.163 563.563 183.148C566.406 182.132 569.385 181.624 572.5 181.624C575.615 181.624 578.594 182.132 581.438 183.148C584.281 184.163 586.854 185.551 589.156 187.312C590.736 185.461 591.966 183.362 592.846 181.015C593.727 178.668 594.167 176.163 594.167 173.499C594.167 167.496 592.056 162.384 587.836 158.163C583.615 153.943 578.503 151.833 572.5 151.833C566.497 151.833 561.385 153.943 557.164 158.163C552.944 162.384 550.833 167.496 550.833 173.499C550.833 176.163 551.273 178.668 552.154 181.015C553.034 183.362 554.264 185.461 555.844 187.312ZM572.5 176.208C569.837 176.208 567.591 175.294 565.763 173.465C563.935 171.637 563.021 169.392 563.021 166.729C563.021 164.065 563.935 161.82 565.763 159.992C567.591 158.163 569.837 157.249 572.5 157.249C575.163 157.249 577.409 158.163 579.237 159.992C581.065 161.82 581.979 164.065 581.979 166.729C581.979 169.392 581.065 171.637 579.237 173.465C577.409 175.294 575.163 176.208 572.5 176.208ZM572.5 200.583C568.753 200.583 565.233 199.872 561.938 198.45C558.642 197.028 555.776 195.098 553.339 192.661C550.901 190.223 548.971 187.357 547.549 184.062C546.128 180.767 545.417 177.246 545.417 173.499C545.417 169.753 546.128 166.232 547.549 162.937C548.971 159.642 550.901 156.775 553.339 154.338C555.776 151.9 558.642 149.971 561.938 148.549C565.233 147.127 568.753 146.416 572.5 146.416C576.247 146.416 579.767 147.127 583.063 148.549C586.358 149.971 589.224 151.9 591.661 154.338C594.099 156.775 596.029 159.642 597.451 162.937C598.872 166.232 599.583 169.753 599.583 173.499C599.583 177.246 598.872 180.767 597.451 184.062C596.029 187.357 594.099 190.223 591.661 192.661C589.224 195.098 586.358 197.028 583.063 198.45C579.767 199.872 576.247 200.583 572.5 200.583Z" fill="#1D1B20"/>
<path d="M491 225L475 241L491 257" stroke="#33363F" stroke-width="5.40845"/>
<ellipse cx="568.921" cy="245.112" rx="2.72619" ry="2.70423" stroke="#33363F" stroke-width="5.40845" stroke-linecap="round"/>
<ellipse cx="552.564" cy="245.112" rx="2.72619" ry="2.70423" stroke="#33363F" stroke-width="5.40845" stroke-linecap="round"/>
<ellipse cx="585.278" cy="245.112" rx="2.72619" ry="2.70423" stroke="#33363F" stroke-width="5.40845" stroke-linecap="round"/>
<path d="M650.133 118.832L646.167 114.865L662.033 98.9984L646.167 83.1317L650.133 79.165L666 95.0317L681.867 79.165L685.833 83.1317L669.967 98.9984L685.833 114.865L681.867 118.832L666 102.965L650.133 118.832Z" fill="#1C0E13"/>
<rect width="347" height="334" fill="#F4F0F2"/>
<circle cx="666" cy="185" r="21" fill="#D4D8E4"/>
<path d="M656.926 196.342L654.657 194.074L663.731 185L654.657 175.926L656.926 173.657L666 182.731L675.074 173.657L677.343 175.926L668.268 185L677.343 194.074L675.074 196.342L666 187.268L656.926 196.342Z" fill="#ECE9EA"/>
<path d="M106.244 30.14C105.675 30.14 105.152 30.07 104.676 29.93C104.2 29.7807 103.771 29.5613 103.388 29.272C103.006 28.9827 102.665 28.6327 102.366 28.222L103.556 26.878C104.014 27.5127 104.462 27.9513 104.9 28.194C105.339 28.4367 105.834 28.558 106.384 28.558C106.702 28.558 106.991 28.5113 107.252 28.418C107.514 28.3153 107.719 28.18 107.868 28.012C108.018 27.8347 108.092 27.634 108.092 27.41C108.092 27.2513 108.06 27.1067 107.994 26.976C107.938 26.836 107.85 26.7147 107.728 26.612C107.607 26.5 107.458 26.3973 107.28 26.304C107.103 26.2107 106.902 26.1313 106.678 26.066C106.454 26.0007 106.207 25.94 105.936 25.884C105.423 25.7813 104.975 25.646 104.592 25.478C104.21 25.3007 103.888 25.086 103.626 24.834C103.365 24.5727 103.174 24.2833 103.052 23.966C102.931 23.6393 102.87 23.2707 102.87 22.86C102.87 22.4493 102.959 22.0713 103.136 21.726C103.323 21.3807 103.575 21.082 103.892 20.83C104.21 20.578 104.578 20.382 104.998 20.242C105.418 20.102 105.871 20.032 106.356 20.032C106.907 20.032 107.397 20.0973 107.826 20.228C108.265 20.3587 108.648 20.5547 108.974 20.816C109.31 21.068 109.586 21.376 109.8 21.74L108.596 22.93C108.41 22.6407 108.2 22.4027 107.966 22.216C107.733 22.02 107.481 21.8753 107.21 21.782C106.94 21.6793 106.655 21.628 106.356 21.628C106.02 21.628 105.726 21.6747 105.474 21.768C105.232 21.8613 105.04 21.9967 104.9 22.174C104.76 22.342 104.69 22.5473 104.69 22.79C104.69 22.9767 104.732 23.1447 104.816 23.294C104.9 23.434 105.017 23.56 105.166 23.672C105.325 23.784 105.526 23.882 105.768 23.966C106.011 24.05 106.286 24.1247 106.594 24.19C107.108 24.2927 107.57 24.4327 107.98 24.61C108.391 24.778 108.741 24.9833 109.03 25.226C109.32 25.4593 109.539 25.73 109.688 26.038C109.838 26.3367 109.912 26.6727 109.912 27.046C109.912 27.69 109.758 28.2453 109.45 28.712C109.152 29.1693 108.727 29.524 108.176 29.776C107.626 30.0187 106.982 30.14 106.244 30.14ZM115.114 30.14C114.339 30.14 113.653 29.9767 113.056 29.65C112.468 29.3233 112.006 28.88 111.67 28.32C111.343 27.7507 111.18 27.102 111.18 26.374C111.18 25.7953 111.273 25.268 111.46 24.792C111.646 24.316 111.903 23.9053 112.23 23.56C112.566 23.2053 112.962 22.9347 113.42 22.748C113.886 22.552 114.395 22.454 114.946 22.454C115.431 22.454 115.884 22.5473 116.304 22.734C116.724 22.9207 117.088 23.1773 117.396 23.504C117.704 23.8213 117.937 24.204 118.096 24.652C118.264 25.0907 118.343 25.5713 118.334 26.094L118.32 26.696H112.342L112.02 25.52H116.878L116.654 25.758V25.45C116.626 25.1607 116.532 24.9087 116.374 24.694C116.215 24.47 116.01 24.2973 115.758 24.176C115.515 24.0453 115.244 23.98 114.946 23.98C114.488 23.98 114.101 24.0687 113.784 24.246C113.476 24.4233 113.242 24.68 113.084 25.016C112.925 25.3427 112.846 25.7533 112.846 26.248C112.846 26.724 112.944 27.1393 113.14 27.494C113.345 27.8487 113.63 28.124 113.994 28.32C114.367 28.5067 114.801 28.6 115.296 28.6C115.641 28.6 115.958 28.544 116.248 28.432C116.537 28.32 116.85 28.1193 117.186 27.83L118.04 29.02C117.788 29.2533 117.498 29.454 117.172 29.622C116.854 29.7807 116.518 29.9067 116.164 30C115.809 30.0933 115.459 30.14 115.114 30.14ZM120.707 30V20.746H122.429V30H120.707ZM119.251 24.218V22.622H124.039V24.218H119.251ZM126.198 30V20.746H127.92V30H126.198ZM124.742 24.218V22.622H129.53V24.218H124.742ZM131.088 30V22.622H132.81V30H131.088ZM131.928 21.054C131.582 21.054 131.312 20.97 131.116 20.802C130.929 20.6247 130.836 20.3773 130.836 20.06C130.836 19.7613 130.934 19.5187 131.13 19.332C131.326 19.1453 131.592 19.052 131.928 19.052C132.282 19.052 132.553 19.1407 132.74 19.318C132.936 19.486 133.034 19.7333 133.034 20.06C133.034 20.3493 132.936 20.5873 132.74 20.774C132.544 20.9607 132.273 21.054 131.928 21.054ZM135.043 30V22.622H136.723L136.751 24.134L136.429 24.302C136.522 23.966 136.704 23.6627 136.975 23.392C137.246 23.112 137.568 22.888 137.941 22.72C138.314 22.552 138.697 22.468 139.089 22.468C139.649 22.468 140.116 22.58 140.489 22.804C140.872 23.028 141.156 23.364 141.343 23.812C141.539 24.26 141.637 24.82 141.637 25.492V30H139.915V25.618C139.915 25.2447 139.864 24.9367 139.761 24.694C139.658 24.442 139.5 24.26 139.285 24.148C139.07 24.0267 138.809 23.9707 138.501 23.98C138.249 23.98 138.016 24.022 137.801 24.106C137.596 24.1807 137.414 24.2927 137.255 24.442C137.106 24.582 136.984 24.7453 136.891 24.932C136.807 25.1187 136.765 25.324 136.765 25.548V30H135.911C135.743 30 135.584 30 135.435 30C135.295 30 135.164 30 135.043 30ZM146.942 33.22C146.392 33.22 145.841 33.136 145.29 32.968C144.749 32.8 144.31 32.5807 143.974 32.31L144.59 31.036C144.786 31.176 145.006 31.2973 145.248 31.4C145.491 31.5027 145.748 31.582 146.018 31.638C146.298 31.694 146.574 31.722 146.844 31.722C147.339 31.722 147.75 31.6427 148.076 31.484C148.412 31.3347 148.664 31.1013 148.832 30.784C149 30.476 149.084 30.0887 149.084 29.622V28.264L149.336 28.362C149.28 28.6513 149.126 28.9267 148.874 29.188C148.622 29.4493 148.305 29.664 147.922 29.832C147.54 29.9907 147.148 30.07 146.746 30.07C146.046 30.07 145.426 29.9067 144.884 29.58C144.352 29.2533 143.928 28.81 143.61 28.25C143.302 27.6807 143.148 27.0273 143.148 26.29C143.148 25.5527 143.302 24.8993 143.61 24.33C143.918 23.7513 144.338 23.2987 144.87 22.972C145.412 22.636 146.018 22.468 146.69 22.468C146.97 22.468 147.241 22.5007 147.502 22.566C147.764 22.6313 148.002 22.7247 148.216 22.846C148.44 22.9673 148.641 23.1027 148.818 23.252C148.996 23.4013 149.14 23.56 149.252 23.728C149.364 23.896 149.434 24.0593 149.462 24.218L149.098 24.33L149.126 22.622H150.82V29.496C150.82 30.0933 150.732 30.6207 150.554 31.078C150.377 31.5353 150.12 31.9227 149.784 32.24C149.448 32.5667 149.042 32.8093 148.566 32.968C148.09 33.136 147.549 33.22 146.942 33.22ZM147.012 28.6C147.432 28.6 147.801 28.502 148.118 28.306C148.445 28.11 148.697 27.8393 148.874 27.494C149.052 27.1487 149.14 26.752 149.14 26.304C149.14 25.8467 149.047 25.4453 148.86 25.1C148.683 24.7453 148.436 24.47 148.118 24.274C147.801 24.078 147.432 23.98 147.012 23.98C146.592 23.98 146.224 24.0827 145.906 24.288C145.589 24.484 145.337 24.7593 145.15 25.114C144.973 25.4593 144.884 25.856 144.884 26.304C144.884 26.7427 144.973 27.1393 145.15 27.494C145.337 27.8393 145.589 28.11 145.906 28.306C146.224 28.502 146.592 28.6 147.012 28.6ZM155.189 30.14C154.536 30.14 153.948 30.0327 153.425 29.818C152.912 29.594 152.492 29.2767 152.165 28.866L153.285 27.9C153.565 28.2173 153.878 28.446 154.223 28.586C154.569 28.726 154.933 28.796 155.315 28.796C155.474 28.796 155.614 28.7773 155.735 28.74C155.866 28.7027 155.978 28.6467 156.071 28.572C156.165 28.4973 156.235 28.4133 156.281 28.32C156.337 28.2173 156.365 28.1053 156.365 27.984C156.365 27.76 156.281 27.5827 156.113 27.452C156.02 27.3867 155.871 27.3167 155.665 27.242C155.469 27.1673 155.213 27.0927 154.895 27.018C154.391 26.8873 153.971 26.738 153.635 26.57C153.299 26.3927 153.038 26.1967 152.851 25.982C152.693 25.8047 152.571 25.604 152.487 25.38C152.413 25.156 152.375 24.9133 152.375 24.652C152.375 24.3253 152.445 24.0313 152.585 23.77C152.735 23.4993 152.935 23.266 153.187 23.07C153.439 22.874 153.733 22.7247 154.069 22.622C154.405 22.5193 154.755 22.468 155.119 22.468C155.493 22.468 155.852 22.5147 156.197 22.608C156.552 22.7013 156.879 22.8367 157.177 23.014C157.485 23.182 157.747 23.3873 157.961 23.63L157.009 24.68C156.832 24.512 156.636 24.3627 156.421 24.232C156.216 24.1013 156.006 23.9987 155.791 23.924C155.577 23.84 155.376 23.798 155.189 23.798C155.012 23.798 154.853 23.8167 154.713 23.854C154.573 23.882 154.457 23.9287 154.363 23.994C154.27 24.0593 154.195 24.1433 154.139 24.246C154.093 24.3393 154.069 24.4513 154.069 24.582C154.079 24.694 154.107 24.8013 154.153 24.904C154.209 24.9973 154.284 25.0767 154.377 25.142C154.48 25.2073 154.634 25.282 154.839 25.366C155.045 25.45 155.311 25.5293 155.637 25.604C156.095 25.7253 156.477 25.8607 156.785 26.01C157.093 26.1593 157.336 26.332 157.513 26.528C157.691 26.696 157.817 26.892 157.891 27.116C157.966 27.34 158.003 27.5873 158.003 27.858C158.003 28.2967 157.877 28.6887 157.625 29.034C157.383 29.3793 157.047 29.65 156.617 29.846C156.197 30.042 155.721 30.14 155.189 30.14ZM164.043 30V20.2H168.117C168.677 20.2 169.181 20.3353 169.629 20.606C170.087 20.8767 170.451 21.2453 170.721 21.712C170.992 22.1787 171.127 22.7013 171.127 23.28C171.127 23.868 170.992 24.4 170.721 24.876C170.451 25.3427 170.087 25.716 169.629 25.996C169.181 26.276 168.677 26.416 168.117 26.416H165.863V30H164.043ZM165.863 24.736H167.991C168.225 24.736 168.435 24.6707 168.621 24.54C168.817 24.4093 168.971 24.2367 169.083 24.022C169.205 23.8073 169.265 23.5647 169.265 23.294C169.265 23.0233 169.205 22.7853 169.083 22.58C168.971 22.3653 168.817 22.1973 168.621 22.076C168.435 21.9453 168.225 21.88 167.991 21.88H165.863V24.736ZM175.444 30.14C174.838 30.14 174.287 29.972 173.792 29.636C173.298 29.3 172.901 28.8427 172.602 28.264C172.304 27.6853 172.154 27.0273 172.154 26.29C172.154 25.5527 172.304 24.8947 172.602 24.316C172.901 23.7373 173.307 23.2847 173.82 22.958C174.334 22.6313 174.912 22.468 175.556 22.468C175.93 22.468 176.27 22.524 176.578 22.636C176.886 22.7387 177.157 22.888 177.39 23.084C177.624 23.28 177.815 23.504 177.964 23.756C178.123 24.008 178.23 24.2787 178.286 24.568L177.908 24.47V22.622H179.644V30H177.894V28.236L178.3 28.166C178.235 28.418 178.114 28.6653 177.936 28.908C177.768 29.1413 177.554 29.3513 177.292 29.538C177.04 29.7153 176.756 29.86 176.438 29.972C176.13 30.084 175.799 30.14 175.444 30.14ZM175.92 28.614C176.322 28.614 176.676 28.516 176.984 28.32C177.292 28.124 177.53 27.8533 177.698 27.508C177.876 27.1533 177.964 26.7473 177.964 26.29C177.964 25.842 177.876 25.4453 177.698 25.1C177.53 24.7547 177.292 24.484 176.984 24.288C176.676 24.092 176.322 23.994 175.92 23.994C175.519 23.994 175.164 24.092 174.856 24.288C174.558 24.484 174.324 24.7547 174.156 25.1C173.988 25.4453 173.904 25.842 173.904 26.29C173.904 26.7473 173.988 27.1533 174.156 27.508C174.324 27.8533 174.558 28.124 174.856 28.32C175.164 28.516 175.519 28.614 175.92 28.614ZM185.009 33.22C184.458 33.22 183.907 33.136 183.357 32.968C182.815 32.8 182.377 32.5807 182.041 32.31L182.657 31.036C182.853 31.176 183.072 31.2973 183.315 31.4C183.557 31.5027 183.814 31.582 184.085 31.638C184.365 31.694 184.64 31.722 184.911 31.722C185.405 31.722 185.816 31.6427 186.143 31.484C186.479 31.3347 186.731 31.1013 186.899 30.784C187.067 30.476 187.151 30.0887 187.151 29.622V28.264L187.403 28.362C187.347 28.6513 187.193 28.9267 186.941 29.188C186.689 29.4493 186.371 29.664 185.989 29.832C185.606 29.9907 185.214 30.07 184.813 30.07C184.113 30.07 183.492 29.9067 182.951 29.58C182.419 29.2533 181.994 28.81 181.677 28.25C181.369 27.6807 181.215 27.0273 181.215 26.29C181.215 25.5527 181.369 24.8993 181.677 24.33C181.985 23.7513 182.405 23.2987 182.937 22.972C183.478 22.636 184.085 22.468 184.757 22.468C185.037 22.468 185.307 22.5007 185.569 22.566C185.83 22.6313 186.068 22.7247 186.283 22.846C186.507 22.9673 186.707 23.1027 186.885 23.252C187.062 23.4013 187.207 23.56 187.319 23.728C187.431 23.896 187.501 24.0593 187.529 24.218L187.165 24.33L187.193 22.622H188.887V29.496C188.887 30.0933 188.798 30.6207 188.621 31.078C188.443 31.5353 188.187 31.9227 187.851 32.24C187.515 32.5667 187.109 32.8093 186.633 32.968C186.157 33.136 185.615 33.22 185.009 33.22ZM185.079 28.6C185.499 28.6 185.867 28.502 186.185 28.306C186.511 28.11 186.763 27.8393 186.941 27.494C187.118 27.1487 187.207 26.752 187.207 26.304C187.207 25.8467 187.113 25.4453 186.927 25.1C186.749 24.7453 186.502 24.47 186.185 24.274C185.867 24.078 185.499 23.98 185.079 23.98C184.659 23.98 184.29 24.0827 183.973 24.288C183.655 24.484 183.403 24.7593 183.217 25.114C183.039 25.4593 182.951 25.856 182.951 26.304C182.951 26.7427 183.039 27.1393 183.217 27.494C183.403 27.8393 183.655 28.11 183.973 28.306C184.29 28.502 184.659 28.6 185.079 28.6ZM194.386 30.14C193.612 30.14 192.926 29.9767 192.328 29.65C191.74 29.3233 191.278 28.88 190.942 28.32C190.616 27.7507 190.452 27.102 190.452 26.374C190.452 25.7953 190.546 25.268 190.732 24.792C190.919 24.316 191.176 23.9053 191.502 23.56C191.838 23.2053 192.235 22.9347 192.692 22.748C193.159 22.552 193.668 22.454 194.218 22.454C194.704 22.454 195.156 22.5473 195.576 22.734C195.996 22.9207 196.36 23.1773 196.668 23.504C196.976 23.8213 197.21 24.204 197.368 24.652C197.536 25.0907 197.616 25.5713 197.606 26.094L197.592 26.696H191.614L191.292 25.52H196.15L195.926 25.758V25.45C195.898 25.1607 195.805 24.9087 195.646 24.694C195.488 24.47 195.282 24.2973 195.03 24.176C194.788 24.0453 194.517 23.98 194.218 23.98C193.761 23.98 193.374 24.0687 193.056 24.246C192.748 24.4233 192.515 24.68 192.356 25.016C192.198 25.3427 192.118 25.7533 192.118 26.248C192.118 26.724 192.216 27.1393 192.412 27.494C192.618 27.8487 192.902 28.124 193.266 28.32C193.64 28.5067 194.074 28.6 194.568 28.6C194.914 28.6 195.231 28.544 195.52 28.432C195.81 28.32 196.122 28.1193 196.458 27.83L197.312 29.02C197.06 29.2533 196.771 29.454 196.444 29.622C196.127 29.7807 195.791 29.9067 195.436 30C195.082 30.0933 194.732 30.14 194.386 30.14ZM203.361 30V28.39H204.971V21.81H203.361V20.2H208.401V21.81H206.791V28.39H208.401V30H203.361ZM213.629 30.14C212.938 30.14 212.318 29.972 211.767 29.636C211.216 29.3 210.782 28.8427 210.465 28.264C210.148 27.6853 209.989 27.032 209.989 26.304C209.989 25.576 210.148 24.9227 210.465 24.344C210.782 23.7653 211.216 23.308 211.767 22.972C212.318 22.636 212.938 22.468 213.629 22.468C214.292 22.468 214.894 22.594 215.435 22.846C215.976 23.098 216.396 23.448 216.695 23.896L215.743 25.044C215.603 24.848 215.426 24.6707 215.211 24.512C214.996 24.3533 214.768 24.2273 214.525 24.134C214.282 24.0407 214.04 23.994 213.797 23.994C213.386 23.994 213.018 24.0967 212.691 24.302C212.374 24.498 212.122 24.7733 211.935 25.128C211.748 25.4733 211.655 25.8653 211.655 26.304C211.655 26.7427 211.748 27.1347 211.935 27.48C212.131 27.8253 212.392 28.1007 212.719 28.306C213.046 28.5113 213.41 28.614 213.811 28.614C214.054 28.614 214.287 28.5767 214.511 28.502C214.744 28.418 214.964 28.3013 215.169 28.152C215.374 28.0027 215.566 27.816 215.743 27.592L216.695 28.754C216.378 29.1647 215.939 29.5007 215.379 29.762C214.828 30.014 214.245 30.14 213.629 30.14ZM221.436 30.14C220.699 30.14 220.041 29.9767 219.462 29.65C218.883 29.314 218.426 28.8567 218.09 28.278C217.754 27.6993 217.586 27.0413 217.586 26.304C217.586 25.5667 217.754 24.9087 218.09 24.33C218.426 23.7513 218.883 23.2987 219.462 22.972C220.041 22.636 220.699 22.468 221.436 22.468C222.164 22.468 222.817 22.636 223.396 22.972C223.975 23.2987 224.427 23.7513 224.754 24.33C225.09 24.9087 225.258 25.5667 225.258 26.304C225.258 27.0413 225.09 27.6993 224.754 28.278C224.427 28.8567 223.975 29.314 223.396 29.65C222.817 29.9767 222.164 30.14 221.436 30.14ZM221.436 28.614C221.837 28.614 222.192 28.5113 222.5 28.306C222.817 28.1007 223.065 27.8253 223.242 27.48C223.429 27.1347 223.517 26.7427 223.508 26.304C223.517 25.856 223.429 25.4593 223.242 25.114C223.065 24.7687 222.817 24.498 222.5 24.302C222.192 24.0967 221.837 23.994 221.436 23.994C221.035 23.994 220.671 24.0967 220.344 24.302C220.027 24.498 219.779 24.7733 219.602 25.128C219.425 25.4733 219.336 25.8653 219.336 26.304C219.336 26.7427 219.425 27.1347 219.602 27.48C219.779 27.8253 220.027 28.1007 220.344 28.306C220.671 28.5113 221.035 28.614 221.436 28.614ZM226.848 30V22.622H228.528L228.556 24.134L228.234 24.302C228.328 23.966 228.51 23.6627 228.78 23.392C229.051 23.112 229.373 22.888 229.746 22.72C230.12 22.552 230.502 22.468 230.894 22.468C231.454 22.468 231.921 22.58 232.294 22.804C232.677 23.028 232.962 23.364 233.148 23.812C233.344 24.26 233.442 24.82 233.442 25.492V30H231.72V25.618C231.72 25.2447 231.669 24.9367 231.566 24.694C231.464 24.442 231.305 24.26 231.09 24.148C230.876 24.0267 230.614 23.9707 230.306 23.98C230.054 23.98 229.821 24.022 229.606 24.106C229.401 24.1807 229.219 24.2927 229.06 24.442C228.911 24.582 228.79 24.7453 228.696 24.932C228.612 25.1187 228.57 25.324 228.57 25.548V30H227.716C227.548 30 227.39 30 227.24 30C227.1 30 226.97 30 226.848 30ZM237.893 30.14C237.24 30.14 236.652 30.0327 236.129 29.818C235.616 29.594 235.196 29.2767 234.869 28.866L235.989 27.9C236.269 28.2173 236.582 28.446 236.927 28.586C237.273 28.726 237.637 28.796 238.019 28.796C238.178 28.796 238.318 28.7773 238.439 28.74C238.57 28.7027 238.682 28.6467 238.775 28.572C238.869 28.4973 238.939 28.4133 238.985 28.32C239.041 28.2173 239.069 28.1053 239.069 27.984C239.069 27.76 238.985 27.5827 238.817 27.452C238.724 27.3867 238.575 27.3167 238.369 27.242C238.173 27.1673 237.917 27.0927 237.599 27.018C237.095 26.8873 236.675 26.738 236.339 26.57C236.003 26.3927 235.742 26.1967 235.555 25.982C235.397 25.8047 235.275 25.604 235.191 25.38C235.117 25.156 235.079 24.9133 235.079 24.652C235.079 24.3253 235.149 24.0313 235.289 23.77C235.439 23.4993 235.639 23.266 235.891 23.07C236.143 22.874 236.437 22.7247 236.773 22.622C237.109 22.5193 237.459 22.468 237.823 22.468C238.197 22.468 238.556 22.5147 238.901 22.608C239.256 22.7013 239.583 22.8367 239.881 23.014C240.189 23.182 240.451 23.3873 240.665 23.63L239.713 24.68C239.536 24.512 239.34 24.3627 239.125 24.232C238.92 24.1013 238.71 23.9987 238.495 23.924C238.281 23.84 238.08 23.798 237.893 23.798C237.716 23.798 237.557 23.8167 237.417 23.854C237.277 23.882 237.161 23.9287 237.067 23.994C236.974 24.0593 236.899 24.1433 236.843 24.246C236.797 24.3393 236.773 24.4513 236.773 24.582C236.783 24.694 236.811 24.8013 236.857 24.904C236.913 24.9973 236.988 25.0767 237.081 25.142C237.184 25.2073 237.338 25.282 237.543 25.366C237.749 25.45 238.015 25.5293 238.341 25.604C238.799 25.7253 239.181 25.8607 239.489 26.01C239.797 26.1593 240.04 26.332 240.217 26.528C240.395 26.696 240.521 26.892 240.595 27.116C240.67 27.34 240.707 27.5873 240.707 27.858C240.707 28.2967 240.581 28.6887 240.329 29.034C240.087 29.3793 239.751 29.65 239.321 29.846C238.901 30.042 238.425 30.14 237.893 30.14Z" fill="black"/>
<path d="M532.595 30V20.2H536.669C537.229 20.2 537.733 20.3353 538.181 20.606C538.639 20.8767 539.003 21.2453 539.273 21.712C539.544 22.1787 539.679 22.7013 539.679 23.28C539.679 23.868 539.544 24.4 539.273 24.876C539.003 25.3427 538.639 25.716 538.181 25.996C537.733 26.276 537.229 26.416 536.669 26.416H534.415V30H532.595ZM534.415 24.736H536.543C536.777 24.736 536.987 24.6707 537.173 24.54C537.369 24.4093 537.523 24.2367 537.635 24.022C537.757 23.8073 537.817 23.5647 537.817 23.294C537.817 23.0233 537.757 22.7853 537.635 22.58C537.523 22.3653 537.369 22.1973 537.173 22.076C536.987 21.9453 536.777 21.88 536.543 21.88H534.415V24.736ZM543.996 30.14C543.39 30.14 542.839 29.972 542.344 29.636C541.85 29.3 541.453 28.8427 541.154 28.264C540.856 27.6853 540.706 27.0273 540.706 26.29C540.706 25.5527 540.856 24.8947 541.154 24.316C541.453 23.7373 541.859 23.2847 542.372 22.958C542.886 22.6313 543.464 22.468 544.108 22.468C544.482 22.468 544.822 22.524 545.13 22.636C545.438 22.7387 545.709 22.888 545.942 23.084C546.176 23.28 546.367 23.504 546.516 23.756C546.675 24.008 546.782 24.2787 546.838 24.568L546.46 24.47V22.622H548.196V30H546.446V28.236L546.852 28.166C546.787 28.418 546.666 28.6653 546.488 28.908C546.32 29.1413 546.106 29.3513 545.844 29.538C545.592 29.7153 545.308 29.86 544.99 29.972C544.682 30.084 544.351 30.14 543.996 30.14ZM544.472 28.614C544.874 28.614 545.228 28.516 545.536 28.32C545.844 28.124 546.082 27.8533 546.25 27.508C546.428 27.1533 546.516 26.7473 546.516 26.29C546.516 25.842 546.428 25.4453 546.25 25.1C546.082 24.7547 545.844 24.484 545.536 24.288C545.228 24.092 544.874 23.994 544.472 23.994C544.071 23.994 543.716 24.092 543.408 24.288C543.11 24.484 542.876 24.7547 542.708 25.1C542.54 25.4453 542.456 25.842 542.456 26.29C542.456 26.7473 542.54 27.1533 542.708 27.508C542.876 27.8533 543.11 28.124 543.408 28.32C543.716 28.516 544.071 28.614 544.472 28.614ZM553.561 33.22C553.01 33.22 552.459 33.136 551.909 32.968C551.367 32.8 550.929 32.5807 550.593 32.31L551.209 31.036C551.405 31.176 551.624 31.2973 551.867 31.4C552.109 31.5027 552.366 31.582 552.637 31.638C552.917 31.694 553.192 31.722 553.463 31.722C553.957 31.722 554.368 31.6427 554.695 31.484C555.031 31.3347 555.283 31.1013 555.451 30.784C555.619 30.476 555.703 30.0887 555.703 29.622V28.264L555.955 28.362C555.899 28.6513 555.745 28.9267 555.493 29.188C555.241 29.4493 554.923 29.664 554.541 29.832C554.158 29.9907 553.766 30.07 553.365 30.07C552.665 30.07 552.044 29.9067 551.503 29.58C550.971 29.2533 550.546 28.81 550.229 28.25C549.921 27.6807 549.767 27.0273 549.767 26.29C549.767 25.5527 549.921 24.8993 550.229 24.33C550.537 23.7513 550.957 23.2987 551.489 22.972C552.03 22.636 552.637 22.468 553.309 22.468C553.589 22.468 553.859 22.5007 554.121 22.566C554.382 22.6313 554.62 22.7247 554.835 22.846C555.059 22.9673 555.259 23.1027 555.437 23.252C555.614 23.4013 555.759 23.56 555.871 23.728C555.983 23.896 556.053 24.0593 556.081 24.218L555.717 24.33L555.745 22.622H557.439V29.496C557.439 30.0933 557.35 30.6207 557.173 31.078C556.995 31.5353 556.739 31.9227 556.403 32.24C556.067 32.5667 555.661 32.8093 555.185 32.968C554.709 33.136 554.167 33.22 553.561 33.22ZM553.631 28.6C554.051 28.6 554.419 28.502 554.737 28.306C555.063 28.11 555.315 27.8393 555.493 27.494C555.67 27.1487 555.759 26.752 555.759 26.304C555.759 25.8467 555.665 25.4453 555.479 25.1C555.301 24.7453 555.054 24.47 554.737 24.274C554.419 24.078 554.051 23.98 553.631 23.98C553.211 23.98 552.842 24.0827 552.525 24.288C552.207 24.484 551.955 24.7593 551.769 25.114C551.591 25.4593 551.503 25.856 551.503 26.304C551.503 26.7427 551.591 27.1393 551.769 27.494C551.955 27.8393 552.207 28.11 552.525 28.306C552.842 28.502 553.211 28.6 553.631 28.6ZM562.938 30.14C562.164 30.14 561.478 29.9767 560.88 29.65C560.292 29.3233 559.83 28.88 559.494 28.32C559.168 27.7507 559.004 27.102 559.004 26.374C559.004 25.7953 559.098 25.268 559.284 24.792C559.471 24.316 559.728 23.9053 560.054 23.56C560.39 23.2053 560.787 22.9347 561.244 22.748C561.711 22.552 562.22 22.454 562.77 22.454C563.256 22.454 563.708 22.5473 564.128 22.734C564.548 22.9207 564.912 23.1773 565.22 23.504C565.528 23.8213 565.762 24.204 565.92 24.652C566.088 25.0907 566.168 25.5713 566.158 26.094L566.144 26.696H560.166L559.844 25.52H564.702L564.478 25.758V25.45C564.45 25.1607 564.357 24.9087 564.198 24.694C564.04 24.47 563.834 24.2973 563.582 24.176C563.34 24.0453 563.069 23.98 562.77 23.98C562.313 23.98 561.926 24.0687 561.608 24.246C561.3 24.4233 561.067 24.68 560.908 25.016C560.75 25.3427 560.67 25.7533 560.67 26.248C560.67 26.724 560.768 27.1393 560.964 27.494C561.17 27.8487 561.454 28.124 561.818 28.32C562.192 28.5067 562.626 28.6 563.12 28.6C563.466 28.6 563.783 28.544 564.072 28.432C564.362 28.32 564.674 28.1193 565.01 27.83L565.864 29.02C565.612 29.2533 565.323 29.454 564.996 29.622C564.679 29.7807 564.343 29.9067 563.988 30C563.634 30.0933 563.284 30.14 562.938 30.14ZM571.913 30V28.39H573.523V21.81H571.913V20.2H576.953V21.81H575.343V28.39H576.953V30H571.913ZM582.181 30.14C581.49 30.14 580.87 29.972 580.319 29.636C579.768 29.3 579.334 28.8427 579.017 28.264C578.7 27.6853 578.541 27.032 578.541 26.304C578.541 25.576 578.7 24.9227 579.017 24.344C579.334 23.7653 579.768 23.308 580.319 22.972C580.87 22.636 581.49 22.468 582.181 22.468C582.844 22.468 583.446 22.594 583.987 22.846C584.528 23.098 584.948 23.448 585.247 23.896L584.295 25.044C584.155 24.848 583.978 24.6707 583.763 24.512C583.548 24.3533 583.32 24.2273 583.077 24.134C582.834 24.0407 582.592 23.994 582.349 23.994C581.938 23.994 581.57 24.0967 581.243 24.302C580.926 24.498 580.674 24.7733 580.487 25.128C580.3 25.4733 580.207 25.8653 580.207 26.304C580.207 26.7427 580.3 27.1347 580.487 27.48C580.683 27.8253 580.944 28.1007 581.271 28.306C581.598 28.5113 581.962 28.614 582.363 28.614C582.606 28.614 582.839 28.5767 583.063 28.502C583.296 28.418 583.516 28.3013 583.721 28.152C583.926 28.0027 584.118 27.816 584.295 27.592L585.247 28.754C584.93 29.1647 584.491 29.5007 583.931 29.762C583.38 30.014 582.797 30.14 582.181 30.14ZM589.988 30.14C589.251 30.14 588.593 29.9767 588.014 29.65C587.435 29.314 586.978 28.8567 586.642 28.278C586.306 27.6993 586.138 27.0413 586.138 26.304C586.138 25.5667 586.306 24.9087 586.642 24.33C586.978 23.7513 587.435 23.2987 588.014 22.972C588.593 22.636 589.251 22.468 589.988 22.468C590.716 22.468 591.369 22.636 591.948 22.972C592.527 23.2987 592.979 23.7513 593.306 24.33C593.642 24.9087 593.81 25.5667 593.81 26.304C593.81 27.0413 593.642 27.6993 593.306 28.278C592.979 28.8567 592.527 29.314 591.948 29.65C591.369 29.9767 590.716 30.14 589.988 30.14ZM589.988 28.614C590.389 28.614 590.744 28.5113 591.052 28.306C591.369 28.1007 591.617 27.8253 591.794 27.48C591.981 27.1347 592.069 26.7427 592.06 26.304C592.069 25.856 591.981 25.4593 591.794 25.114C591.617 24.7687 591.369 24.498 591.052 24.302C590.744 24.0967 590.389 23.994 589.988 23.994C589.587 23.994 589.223 24.0967 588.896 24.302C588.579 24.498 588.331 24.7733 588.154 25.128C587.977 25.4733 587.888 25.8653 587.888 26.304C587.888 26.7427 587.977 27.1347 588.154 27.48C588.331 27.8253 588.579 28.1007 588.896 28.306C589.223 28.5113 589.587 28.614 589.988 28.614ZM595.4 30V22.622H597.08L597.108 24.134L596.786 24.302C596.88 23.966 597.062 23.6627 597.332 23.392C597.603 23.112 597.925 22.888 598.298 22.72C598.672 22.552 599.054 22.468 599.446 22.468C600.006 22.468 600.473 22.58 600.846 22.804C601.229 23.028 601.514 23.364 601.7 23.812C601.896 24.26 601.994 24.82 601.994 25.492V30H600.272V25.618C600.272 25.2447 600.221 24.9367 600.118 24.694C600.016 24.442 599.857 24.26 599.642 24.148C599.428 24.0267 599.166 23.9707 598.858 23.98C598.606 23.98 598.373 24.022 598.158 24.106C597.953 24.1807 597.771 24.2927 597.612 24.442C597.463 24.582 597.342 24.7453 597.248 24.932C597.164 25.1187 597.122 25.324 597.122 25.548V30H596.268C596.1 30 595.942 30 595.792 30C595.652 30 595.522 30 595.4 30ZM606.445 30.14C605.792 30.14 605.204 30.0327 604.681 29.818C604.168 29.594 603.748 29.2767 603.421 28.866L604.541 27.9C604.821 28.2173 605.134 28.446 605.479 28.586C605.825 28.726 606.189 28.796 606.571 28.796C606.73 28.796 606.87 28.7773 606.991 28.74C607.122 28.7027 607.234 28.6467 607.327 28.572C607.421 28.4973 607.491 28.4133 607.537 28.32C607.593 28.2173 607.621 28.1053 607.621 27.984C607.621 27.76 607.537 27.5827 607.369 27.452C607.276 27.3867 607.127 27.3167 606.921 27.242C606.725 27.1673 606.469 27.0927 606.151 27.018C605.647 26.8873 605.227 26.738 604.891 26.57C604.555 26.3927 604.294 26.1967 604.107 25.982C603.949 25.8047 603.827 25.604 603.743 25.38C603.669 25.156 603.631 24.9133 603.631 24.652C603.631 24.3253 603.701 24.0313 603.841 23.77C603.991 23.4993 604.191 23.266 604.443 23.07C604.695 22.874 604.989 22.7247 605.325 22.622C605.661 22.5193 606.011 22.468 606.375 22.468C606.749 22.468 607.108 22.5147 607.453 22.608C607.808 22.7013 608.135 22.8367 608.433 23.014C608.741 23.182 609.003 23.3873 609.217 23.63L608.265 24.68C608.088 24.512 607.892 24.3627 607.677 24.232C607.472 24.1013 607.262 23.9987 607.047 23.924C606.833 23.84 606.632 23.798 606.445 23.798C606.268 23.798 606.109 23.8167 605.969 23.854C605.829 23.882 605.713 23.9287 605.619 23.994C605.526 24.0593 605.451 24.1433 605.395 24.246C605.349 24.3393 605.325 24.4513 605.325 24.582C605.335 24.694 605.363 24.8013 605.409 24.904C605.465 24.9973 605.54 25.0767 605.633 25.142C605.736 25.2073 605.89 25.282 606.095 25.366C606.301 25.45 606.567 25.5293 606.893 25.604C607.351 25.7253 607.733 25.8607 608.041 26.01C608.349 26.1593 608.592 26.332 608.769 26.528C608.947 26.696 609.073 26.892 609.147 27.116C609.222 27.34 609.259 27.5873 609.259 27.858C609.259 28.2967 609.133 28.6887 608.881 29.034C608.639 29.3793 608.303 29.65 607.873 29.846C607.453 30.042 606.977 30.14 606.445 30.14Z" fill="black"/>
<path d="M98.1072 107.333V103.301C98.1072 101.163 97.2508 99.1119 95.7263 97.5997C94.2019 96.0875 92.1343 95.238 89.9784 95.238H73.7207C71.5647 95.238 69.4971 96.0875 67.9727 97.5997C66.4482 99.1119 65.5918 101.163 65.5918 103.301V107.333M89.9784 79.1112C89.9784 83.5645 86.339 87.1746 81.8495 87.1746C77.3601 87.1746 73.7207 83.5645 73.7207 79.1112C73.7207 74.6579 77.3601 71.0479 81.8495 71.0479C86.339 71.0479 89.9784 74.6579 89.9784 79.1112Z" stroke="#949DB5" stroke-width="4.83803" stroke-linecap="round" stroke-linejoin="round"/>
<path d="M196.466 177.887C196.466 189.02 187.368 198.045 176.144 198.045M196.466 177.887C196.466 166.754 187.368 157.729 176.144 157.729M196.466 177.887H155.822M176.144 198.045C164.921 198.045 155.822 189.02 155.822 177.887M176.144 198.045C181.227 192.525 184.116 185.362 184.273 177.887C184.116 170.412 181.227 163.249 176.144 157.729M176.144 198.045C171.061 192.525 168.172 185.362 168.015 177.887C168.172 170.412 171.061 163.249 176.144 157.729M155.822 177.887C155.822 166.754 164.921 157.729 176.144 157.729" stroke="#949DB5" stroke-width="4.83803" stroke-linecap="round" stroke-linejoin="round"/>
<path d="M89.9784 161.76H94.0428C95.1208 161.76 96.1546 162.185 96.9168 162.941C97.679 163.697 98.1072 164.723 98.1072 165.792V194.014C98.1072 195.083 97.679 196.108 96.9168 196.865C96.1546 197.621 95.1208 198.045 94.0428 198.045H69.6562C68.5783 198.045 67.5445 197.621 66.7822 196.865C66.02 196.108 65.5918 195.083 65.5918 194.014V165.792C65.5918 164.723 66.02 163.697 66.7822 162.941C67.5445 162.185 68.5783 161.76 69.6562 161.76H73.7207M75.7529 157.729H87.9462C89.0685 157.729 89.9784 158.631 89.9784 159.744V163.776C89.9784 164.889 89.0685 165.792 87.9462 165.792H75.7529C74.6305 165.792 73.7207 164.889 73.7207 163.776V159.744C73.7207 158.631 74.6305 157.729 75.7529 157.729Z" stroke="#949DB5" stroke-width="4.83803" stroke-linecap="round" stroke-linejoin="round"/>
<g clip-path="url(#clip1_3119_1662)">
<path d="M159.887 107.333V93.2221M159.887 85.1588V71.0479M176.144 107.333V89.1905M176.144 81.1271V71.0479M192.402 107.333V97.2538M192.402 89.1905V71.0479M153.79 93.2221H165.983M170.048 81.1271H182.241M186.305 97.2538H198.499" stroke="#949DB5" stroke-width="4.83803" stroke-linecap="round" stroke-linejoin="round"/>
</g>
<path d="M251.8 285.542L266.432 271.028L251.8 256.514" stroke="#949DB5" stroke-width="4.83803" stroke-linecap="round" stroke-linejoin="round"/>
<path d="M248.062 189.641H250.378L266.27 173.877L263.954 171.579L248.062 187.343V189.641ZM244.81 192.866V186.012L266.27 164.765C266.596 164.47 266.955 164.241 267.347 164.08C267.74 163.919 268.154 163.838 268.587 163.838C269.021 163.838 269.441 163.919 269.847 164.08C270.254 164.241 270.606 164.483 270.904 164.805L273.139 167.063C273.464 167.359 273.702 167.708 273.851 168.111C274 168.515 274.074 168.918 274.074 169.321C274.074 169.751 274 170.161 273.851 170.551C273.702 170.94 273.464 171.297 273.139 171.619L251.72 192.866H244.81ZM265.092 172.748L263.954 171.579L266.27 173.877L265.092 172.748Z" fill="#949DB5"/>
<path d="M195.735 256.039C194.697 255.009 193.464 254.192 192.108 253.634C190.752 253.077 189.298 252.79 187.829 252.79C186.361 252.79 184.907 253.077 183.551 253.634C182.195 254.192 180.962 255.009 179.924 256.039L177.77 258.176L175.616 256.039C173.519 253.959 170.676 252.791 167.711 252.791C164.745 252.791 161.902 253.959 159.805 256.039C157.709 258.119 156.531 260.94 156.531 263.881C156.531 266.822 157.709 269.643 159.805 271.723L177.77 289.543L195.735 271.723C196.773 270.693 197.597 269.47 198.159 268.125C198.721 266.779 199.01 265.337 199.01 263.881C199.01 262.424 198.721 260.982 198.159 259.637C197.597 258.291 196.773 257.069 195.735 256.039Z" stroke="#949DB5" stroke-width="4.83803" stroke-linecap="round" stroke-linejoin="round"/>
<path d="M81.8495 278.999V270.936M81.8495 262.872H81.8698M102.172 270.936C102.172 282.069 93.0731 291.094 81.8495 291.094C70.6259 291.094 61.5273 282.069 61.5273 270.936C61.5273 259.803 70.6259 250.777 81.8495 250.777C93.0731 250.777 102.172 259.803 102.172 270.936Z" stroke="#949DB5" stroke-width="4.83803" stroke-linecap="round" stroke-linejoin="round"/>
<path d="M259.059 109.348C259.059 109.348 275.316 101.285 275.316 89.1897V75.0788L259.059 69.0312L242.801 75.0788V89.1897C242.801 101.285 259.059 109.348 259.059 109.348Z" stroke="#949DB5" stroke-width="4.83803" stroke-linecap="round" stroke-linejoin="round"/>
<rect x="1060" width="141" height="334" fill="#444752"/>
<path d="M1107.88 92.625H1141.12" stroke="#ECE9EA" stroke-width="4.75" stroke-linecap="round"/>
<path d="M1107.88 104.5H1141.12" stroke="#ECE9EA" stroke-width="4.75" stroke-linecap="round"/>
<path d="M1107.88 116.375H1141.12" stroke="#ECE9EA" stroke-width="4.75" stroke-linecap="round"/>
<g filter="url(#filter0_d_3119_1662)">
<path d="M1115 228L1137 206.5L1115 185" stroke="#ECE9EA" stroke-width="7.125" stroke-linecap="round" stroke-linejoin="round" shape-rendering="crispEdges"/>
</g>
<path d="M1092.32 33V23.2H1096.25C1096.96 23.2 1097.6 23.3167 1098.17 23.55C1098.75 23.7833 1099.24 24.1193 1099.65 24.558C1100.07 24.9967 1100.39 25.5147 1100.6 26.112C1100.83 26.7093 1100.94 27.372 1100.94 28.1C1100.94 28.828 1100.83 29.4953 1100.6 30.102C1100.39 30.6993 1100.08 31.2173 1099.67 31.656C1099.26 32.0853 1098.76 32.4167 1098.18 32.65C1097.6 32.8833 1096.96 33 1096.25 33H1092.32ZM1094.14 31.586L1094 31.32H1096.18C1096.64 31.32 1097.04 31.2453 1097.4 31.096C1097.76 30.9467 1098.07 30.732 1098.32 30.452C1098.57 30.172 1098.77 29.836 1098.9 29.444C1099.03 29.0427 1099.09 28.5947 1099.09 28.1C1099.09 27.6053 1099.03 27.162 1098.9 26.77C1098.77 26.3687 1098.57 26.028 1098.31 25.748C1098.06 25.468 1097.75 25.2533 1097.4 25.104C1097.04 24.9547 1096.64 24.88 1096.18 24.88H1093.95L1094.14 24.642V31.586ZM1105.44 33.14C1104.83 33.14 1104.28 32.972 1103.79 32.636C1103.29 32.3 1102.9 31.8427 1102.6 31.264C1102.3 30.6853 1102.15 30.0273 1102.15 29.29C1102.15 28.5527 1102.3 27.8947 1102.6 27.316C1102.9 26.7373 1103.3 26.2847 1103.82 25.958C1104.33 25.6313 1104.91 25.468 1105.55 25.468C1105.93 25.468 1106.27 25.524 1106.57 25.636C1106.88 25.7387 1107.15 25.888 1107.39 26.084C1107.62 26.28 1107.81 26.504 1107.96 26.756C1108.12 27.008 1108.23 27.2787 1108.28 27.568L1107.9 27.47V25.622H1109.64V33H1107.89V31.236L1108.3 31.166C1108.23 31.418 1108.11 31.6653 1107.93 31.908C1107.76 32.1413 1107.55 32.3513 1107.29 32.538C1107.04 32.7153 1106.75 32.86 1106.43 32.972C1106.13 33.084 1105.79 33.14 1105.44 33.14ZM1105.92 31.614C1106.32 31.614 1106.67 31.516 1106.98 31.32C1107.29 31.124 1107.53 30.8533 1107.69 30.508C1107.87 30.1533 1107.96 29.7473 1107.96 29.29C1107.96 28.842 1107.87 28.4453 1107.69 28.1C1107.53 27.7547 1107.29 27.484 1106.98 27.288C1106.67 27.092 1106.32 26.994 1105.92 26.994C1105.51 26.994 1105.16 27.092 1104.85 27.288C1104.55 27.484 1104.32 27.7547 1104.15 28.1C1103.98 28.4453 1103.9 28.842 1103.9 29.29C1103.9 29.7473 1103.98 30.1533 1104.15 30.508C1104.32 30.8533 1104.55 31.124 1104.85 31.32C1105.16 31.516 1105.51 31.614 1105.92 31.614ZM1111.69 33V25.622H1113.38L1113.41 27.974L1113.17 27.442C1113.27 27.0687 1113.45 26.7327 1113.7 26.434C1113.95 26.1353 1114.24 25.902 1114.57 25.734C1114.91 25.5567 1115.26 25.468 1115.62 25.468C1115.78 25.468 1115.93 25.482 1116.07 25.51C1116.22 25.538 1116.34 25.5707 1116.43 25.608L1115.97 27.498C1115.87 27.442 1115.74 27.3953 1115.59 27.358C1115.44 27.3207 1115.29 27.302 1115.14 27.302C1114.91 27.302 1114.69 27.3487 1114.47 27.442C1114.27 27.526 1114.08 27.6473 1113.93 27.806C1113.77 27.9647 1113.64 28.1513 1113.55 28.366C1113.46 28.5713 1113.42 28.8047 1113.42 29.066V33H1111.69ZM1119.24 30.746L1118.9 29.136L1122.4 25.622H1124.7L1119.24 30.746ZM1117.63 33V22.64H1119.35V33H1117.63ZM1122.61 33L1119.9 29.71L1121.11 28.674L1124.74 33H1122.61ZM1130.4 33V23.2H1132.12L1135.69 29.01L1134.68 28.996L1138.29 23.2H1139.93V33H1138.12V29.318C1138.12 28.478 1138.14 27.722 1138.18 27.05C1138.23 26.378 1138.3 25.7107 1138.4 25.048L1138.63 25.65L1135.59 30.34H1134.67L1131.73 25.692L1131.92 25.048C1132.02 25.6733 1132.09 26.3173 1132.13 26.98C1132.18 27.6333 1132.2 28.4127 1132.2 29.318V33H1130.4ZM1145.68 33.14C1144.94 33.14 1144.28 32.9767 1143.71 32.65C1143.13 32.314 1142.67 31.8567 1142.33 31.278C1142 30.6993 1141.83 30.0413 1141.83 29.304C1141.83 28.5667 1142 27.9087 1142.33 27.33C1142.67 26.7513 1143.13 26.2987 1143.71 25.972C1144.28 25.636 1144.94 25.468 1145.68 25.468C1146.41 25.468 1147.06 25.636 1147.64 25.972C1148.22 26.2987 1148.67 26.7513 1149 27.33C1149.33 27.9087 1149.5 28.5667 1149.5 29.304C1149.5 30.0413 1149.33 30.6993 1149 31.278C1148.67 31.8567 1148.22 32.314 1147.64 32.65C1147.06 32.9767 1146.41 33.14 1145.68 33.14ZM1145.68 31.614C1146.08 31.614 1146.44 31.5113 1146.74 31.306C1147.06 31.1007 1147.31 30.8253 1147.49 30.48C1147.67 30.1347 1147.76 29.7427 1147.75 29.304C1147.76 28.856 1147.67 28.4593 1147.49 28.114C1147.31 27.7687 1147.06 27.498 1146.74 27.302C1146.44 27.0967 1146.08 26.994 1145.68 26.994C1145.28 26.994 1144.91 27.0967 1144.59 27.302C1144.27 27.498 1144.02 27.7733 1143.85 28.128C1143.67 28.4733 1143.58 28.8653 1143.58 29.304C1143.58 29.7427 1143.67 30.1347 1143.85 30.48C1144.02 30.8253 1144.27 31.1007 1144.59 31.306C1144.91 31.5113 1145.28 31.614 1145.68 31.614ZM1154.06 33.14C1153.41 33.14 1152.82 32.9767 1152.3 32.65C1151.78 32.314 1151.37 31.8613 1151.06 31.292C1150.77 30.7133 1150.62 30.0507 1150.62 29.304C1150.62 28.5667 1150.77 27.9087 1151.06 27.33C1151.36 26.7513 1151.77 26.2987 1152.28 25.972C1152.81 25.636 1153.39 25.468 1154.05 25.468C1154.4 25.468 1154.74 25.524 1155.07 25.636C1155.4 25.748 1155.7 25.902 1155.96 26.098C1156.23 26.2847 1156.43 26.4947 1156.58 26.728C1156.74 26.9613 1156.83 27.204 1156.85 27.456L1156.38 27.512V22.64H1158.11V33H1156.44L1156.4 31.264L1156.73 31.292C1156.73 31.5253 1156.64 31.7493 1156.48 31.964C1156.33 32.1787 1156.14 32.3747 1155.89 32.552C1155.65 32.7293 1155.37 32.874 1155.04 32.986C1154.72 33.0887 1154.4 33.14 1154.06 33.14ZM1154.4 31.684C1154.8 31.684 1155.15 31.5813 1155.46 31.376C1155.77 31.1707 1156.01 30.8907 1156.17 30.536C1156.35 30.1813 1156.44 29.7707 1156.44 29.304C1156.44 28.8467 1156.35 28.4407 1156.17 28.086C1156.01 27.722 1155.77 27.442 1155.46 27.246C1155.15 27.0407 1154.8 26.938 1154.4 26.938C1154 26.938 1153.64 27.0407 1153.33 27.246C1153.02 27.442 1152.78 27.722 1152.6 28.086C1152.44 28.4407 1152.35 28.8467 1152.35 29.304C1152.35 29.7707 1152.44 30.1813 1152.6 30.536C1152.78 30.8907 1153.02 31.1707 1153.33 31.376C1153.64 31.5813 1154 31.684 1154.4 31.684ZM1163.57 33.14C1162.79 33.14 1162.11 32.9767 1161.51 32.65C1160.92 32.3233 1160.46 31.88 1160.13 31.32C1159.8 30.7507 1159.64 30.102 1159.64 29.374C1159.64 28.7953 1159.73 28.268 1159.92 27.792C1160.1 27.316 1160.36 26.9053 1160.69 26.56C1161.02 26.2053 1161.42 25.9347 1161.88 25.748C1162.34 25.552 1162.85 25.454 1163.4 25.454C1163.89 25.454 1164.34 25.5473 1164.76 25.734C1165.18 25.9207 1165.54 26.1773 1165.85 26.504C1166.16 26.8213 1166.39 27.204 1166.55 27.652C1166.72 28.0907 1166.8 28.5713 1166.79 29.094L1166.78 29.696H1160.8L1160.48 28.52H1165.33L1165.11 28.758V28.45C1165.08 28.1607 1164.99 27.9087 1164.83 27.694C1164.67 27.47 1164.47 27.2973 1164.21 27.176C1163.97 27.0453 1163.7 26.98 1163.4 26.98C1162.94 26.98 1162.56 27.0687 1162.24 27.246C1161.93 27.4233 1161.7 27.68 1161.54 28.016C1161.38 28.3427 1161.3 28.7533 1161.3 29.248C1161.3 29.724 1161.4 30.1393 1161.6 30.494C1161.8 30.8487 1162.09 31.124 1162.45 31.32C1162.82 31.5067 1163.26 31.6 1163.75 31.6C1164.1 31.6 1164.41 31.544 1164.7 31.432C1164.99 31.32 1165.31 31.1193 1165.64 30.83L1166.5 32.02C1166.24 32.2533 1165.95 32.454 1165.63 32.622C1165.31 32.7807 1164.97 32.9067 1164.62 33C1164.26 33.0933 1163.91 33.14 1163.57 33.14Z" fill="white"/>
<rect x="770" width="250" height="334" fill="white"/>
<path d="M854.868 24V22.39H856.478V15.81H854.868V14.2H859.908V15.81H858.298V22.39H859.908V24H854.868ZM861.972 24V16.622H863.652L863.68 18.134L863.358 18.302C863.451 17.966 863.633 17.6627 863.904 17.392C864.175 17.112 864.497 16.888 864.87 16.72C865.243 16.552 865.626 16.468 866.018 16.468C866.578 16.468 867.045 16.58 867.418 16.804C867.801 17.028 868.085 17.364 868.272 17.812C868.468 18.26 868.566 18.82 868.566 19.492V24H866.844V19.618C866.844 19.2447 866.793 18.9367 866.69 18.694C866.587 18.442 866.429 18.26 866.214 18.148C865.999 18.0267 865.738 17.9707 865.43 17.98C865.178 17.98 864.945 18.022 864.73 18.106C864.525 18.1807 864.343 18.2927 864.184 18.442C864.035 18.582 863.913 18.7453 863.82 18.932C863.736 19.1187 863.694 19.324 863.694 19.548V24H862.84C862.672 24 862.513 24 862.364 24C862.224 24 862.093 24 861.972 24ZM873.521 24.14C872.868 24.14 872.28 23.9767 871.757 23.65C871.244 23.314 870.833 22.8613 870.525 22.292C870.227 21.7133 870.077 21.0507 870.077 20.304C870.077 19.5667 870.227 18.9087 870.525 18.33C870.824 17.7513 871.23 17.2987 871.743 16.972C872.266 16.636 872.854 16.468 873.507 16.468C873.862 16.468 874.203 16.524 874.529 16.636C874.865 16.748 875.164 16.902 875.425 17.098C875.687 17.2847 875.892 17.4947 876.041 17.728C876.2 17.9613 876.289 18.204 876.307 18.456L875.845 18.512V13.64H877.567V24H875.901L875.859 22.264L876.195 22.292C876.186 22.5253 876.102 22.7493 875.943 22.964C875.794 23.1787 875.598 23.3747 875.355 23.552C875.113 23.7293 874.828 23.874 874.501 23.986C874.184 24.0887 873.857 24.14 873.521 24.14ZM873.857 22.684C874.259 22.684 874.613 22.5813 874.921 22.376C875.229 22.1707 875.467 21.8907 875.635 21.536C875.813 21.1813 875.901 20.7707 875.901 20.304C875.901 19.8467 875.813 19.4407 875.635 19.086C875.467 18.722 875.229 18.442 874.921 18.246C874.613 18.0407 874.259 17.938 873.857 17.938C873.456 17.938 873.101 18.0407 872.793 18.246C872.485 18.442 872.243 18.722 872.065 19.086C871.897 19.4407 871.813 19.8467 871.813 20.304C871.813 20.7707 871.897 21.1813 872.065 21.536C872.243 21.8907 872.485 22.1707 872.793 22.376C873.101 22.5813 873.456 22.684 873.857 22.684ZM879.768 24V16.622H881.49V24H879.768ZM880.608 15.054C880.263 15.054 879.992 14.97 879.796 14.802C879.609 14.6247 879.516 14.3773 879.516 14.06C879.516 13.7613 879.614 13.5187 879.81 13.332C880.006 13.1453 880.272 13.052 880.608 13.052C880.963 13.052 881.233 13.1407 881.42 13.318C881.616 13.486 881.714 13.7333 881.714 14.06C881.714 14.3493 881.616 14.5873 881.42 14.774C881.224 14.9607 880.953 15.054 880.608 15.054ZM886.888 24.14C886.197 24.14 885.576 23.972 885.026 23.636C884.475 23.3 884.041 22.8427 883.724 22.264C883.406 21.6853 883.248 21.032 883.248 20.304C883.248 19.576 883.406 18.9227 883.724 18.344C884.041 17.7653 884.475 17.308 885.026 16.972C885.576 16.636 886.197 16.468 886.888 16.468C887.55 16.468 888.152 16.594 888.694 16.846C889.235 17.098 889.655 17.448 889.954 17.896L889.002 19.044C888.862 18.848 888.684 18.6707 888.47 18.512C888.255 18.3533 888.026 18.2273 887.784 18.134C887.541 18.0407 887.298 17.994 887.056 17.994C886.645 17.994 886.276 18.0967 885.95 18.302C885.632 18.498 885.38 18.7733 885.194 19.128C885.007 19.4733 884.914 19.8653 884.914 20.304C884.914 20.7427 885.007 21.1347 885.194 21.48C885.39 21.8253 885.651 22.1007 885.978 22.306C886.304 22.5113 886.668 22.614 887.07 22.614C887.312 22.614 887.546 22.5767 887.77 22.502C888.003 22.418 888.222 22.3013 888.428 22.152C888.633 22.0027 888.824 21.816 889.002 21.592L889.954 22.754C889.636 23.1647 889.198 23.5007 888.638 23.762C888.087 24.014 887.504 24.14 886.888 24.14ZM894.107 24.14C893.5 24.14 892.949 23.972 892.455 23.636C891.96 23.3 891.563 22.8427 891.265 22.264C890.966 21.6853 890.817 21.0273 890.817 20.29C890.817 19.5527 890.966 18.8947 891.265 18.316C891.563 17.7373 891.969 17.2847 892.483 16.958C892.996 16.6313 893.575 16.468 894.219 16.468C894.592 16.468 894.933 16.524 895.241 16.636C895.549 16.7387 895.819 16.888 896.053 17.084C896.286 17.28 896.477 17.504 896.627 17.756C896.785 18.008 896.893 18.2787 896.949 18.568L896.571 18.47V16.622H898.307V24H896.557V22.236L896.963 22.166C896.897 22.418 896.776 22.6653 896.599 22.908C896.431 23.1413 896.216 23.3513 895.955 23.538C895.703 23.7153 895.418 23.86 895.101 23.972C894.793 24.084 894.461 24.14 894.107 24.14ZM894.583 22.614C894.984 22.614 895.339 22.516 895.647 22.32C895.955 22.124 896.193 21.8533 896.361 21.508C896.538 21.1533 896.627 20.7473 896.627 20.29C896.627 19.842 896.538 19.4453 896.361 19.1C896.193 18.7547 895.955 18.484 895.647 18.288C895.339 18.092 894.984 17.994 894.583 17.994C894.181 17.994 893.827 18.092 893.519 18.288C893.22 18.484 892.987 18.7547 892.819 19.1C892.651 19.4453 892.567 19.842 892.567 20.29C892.567 20.7473 892.651 21.1533 892.819 21.508C892.987 21.8533 893.22 22.124 893.519 22.32C893.827 22.516 894.181 22.614 894.583 22.614ZM901.151 24V14.746H902.873V24H901.151ZM899.695 18.218V16.622H904.483V18.218H899.695ZM909.15 24.14C908.413 24.14 907.755 23.9767 907.176 23.65C906.597 23.314 906.14 22.8567 905.804 22.278C905.468 21.6993 905.3 21.0413 905.3 20.304C905.3 19.5667 905.468 18.9087 905.804 18.33C906.14 17.7513 906.597 17.2987 907.176 16.972C907.755 16.636 908.413 16.468 909.15 16.468C909.878 16.468 910.531 16.636 911.11 16.972C911.689 17.2987 912.141 17.7513 912.468 18.33C912.804 18.9087 912.972 19.5667 912.972 20.304C912.972 21.0413 912.804 21.6993 912.468 22.278C912.141 22.8567 911.689 23.314 911.11 23.65C910.531 23.9767 909.878 24.14 909.15 24.14ZM909.15 22.614C909.551 22.614 909.906 22.5113 910.214 22.306C910.531 22.1007 910.779 21.8253 910.956 21.48C911.143 21.1347 911.231 20.7427 911.222 20.304C911.231 19.856 911.143 19.4593 910.956 19.114C910.779 18.7687 910.531 18.498 910.214 18.302C909.906 18.0967 909.551 17.994 909.15 17.994C908.749 17.994 908.385 18.0967 908.058 18.302C907.741 18.498 907.493 18.7733 907.316 19.128C907.139 19.4733 907.05 19.8653 907.05 20.304C907.05 20.7427 907.139 21.1347 907.316 21.48C907.493 21.8253 907.741 22.1007 908.058 22.306C908.385 22.5113 908.749 22.614 909.15 22.614ZM914.562 24V16.622H916.256L916.284 18.974L916.046 18.442C916.149 18.0687 916.326 17.7327 916.578 17.434C916.83 17.1353 917.12 16.902 917.446 16.734C917.782 16.5567 918.132 16.468 918.496 16.468C918.655 16.468 918.804 16.482 918.944 16.51C919.094 16.538 919.215 16.5707 919.308 16.608L918.846 18.498C918.744 18.442 918.618 18.3953 918.468 18.358C918.319 18.3207 918.17 18.302 918.02 18.302C917.787 18.302 917.563 18.3487 917.348 18.442C917.143 18.526 916.961 18.6473 916.802 18.806C916.644 18.9647 916.518 19.1513 916.424 19.366C916.34 19.5713 916.298 19.8047 916.298 20.066V24H914.562ZM922.969 24.14C922.316 24.14 921.728 24.0327 921.205 23.818C920.692 23.594 920.272 23.2767 919.945 22.866L921.065 21.9C921.345 22.2173 921.658 22.446 922.003 22.586C922.348 22.726 922.712 22.796 923.095 22.796C923.254 22.796 923.394 22.7773 923.515 22.74C923.646 22.7027 923.758 22.6467 923.851 22.572C923.944 22.4973 924.014 22.4133 924.061 22.32C924.117 22.2173 924.145 22.1053 924.145 21.984C924.145 21.76 924.061 21.5827 923.893 21.452C923.8 21.3867 923.65 21.3167 923.445 21.242C923.249 21.1673 922.992 21.0927 922.675 21.018C922.171 20.8873 921.751 20.738 921.415 20.57C921.079 20.3927 920.818 20.1967 920.631 19.982C920.472 19.8047 920.351 19.604 920.267 19.38C920.192 19.156 920.155 18.9133 920.155 18.652C920.155 18.3253 920.225 18.0313 920.365 17.77C920.514 17.4993 920.715 17.266 920.967 17.07C921.219 16.874 921.513 16.7247 921.849 16.622C922.185 16.5193 922.535 16.468 922.899 16.468C923.272 16.468 923.632 16.5147 923.977 16.608C924.332 16.7013 924.658 16.8367 924.957 17.014C925.265 17.182 925.526 17.3873 925.741 17.63L924.789 18.68C924.612 18.512 924.416 18.3627 924.201 18.232C923.996 18.1013 923.786 17.9987 923.571 17.924C923.356 17.84 923.156 17.798 922.969 17.798C922.792 17.798 922.633 17.8167 922.493 17.854C922.353 17.882 922.236 17.9287 922.143 17.994C922.05 18.0593 921.975 18.1433 921.919 18.246C921.872 18.3393 921.849 18.4513 921.849 18.582C921.858 18.694 921.886 18.8013 921.933 18.904C921.989 18.9973 922.064 19.0767 922.157 19.142C922.26 19.2073 922.414 19.282 922.619 19.366C922.824 19.45 923.09 19.5293 923.417 19.604C923.874 19.7253 924.257 19.8607 924.565 20.01C924.873 20.1593 925.116 20.332 925.293 20.528C925.47 20.696 925.596 20.892 925.671 21.116C925.746 21.34 925.783 21.5873 925.783 21.858C925.783 22.2967 925.657 22.6887 925.405 23.034C925.162 23.3793 924.826 23.65 924.397 23.846C923.977 24.042 923.501 24.14 922.969 24.14Z" fill="black"/>
<circle cx="822.099" cy="157.949" r="7.94872" fill="#939BB2"/>
<circle cx="849.919" cy="157.949" r="7.94872" fill="#E2E5ED"/>
<circle cx="877.74" cy="157.949" r="7.94872" fill="#E2E5ED"/>
<circle cx="905.56" cy="157.949" r="7.94872" fill="#E2E5ED"/>
<circle cx="933.381" cy="157.949" r="7.94872" fill="#E2E5ED"/>
<circle cx="961.201" cy="157.949" r="7.94872" fill="#E2E5ED"/>
<circle cx="822.099" cy="183.846" r="7.94872" fill="#E2E5ED"/>
<circle cx="849.919" cy="183.846" r="7.94872" fill="#939BB2"/>
<circle cx="877.74" cy="183.846" r="7.94872" fill="#E2E5ED"/>
<circle cx="905.56" cy="183.846" r="7.94872" fill="#E2E5ED"/>
<circle cx="933.381" cy="183.846" r="7.94872" fill="#E2E5ED"/>
<circle cx="961.201" cy="183.846" r="7.94872" fill="#E2E5ED"/>
<circle cx="822.099" cy="209.744" r="7.94872" fill="#E2E5ED"/>
<circle cx="849.919" cy="209.744" r="7.94872" fill="#E2E5ED"/>
<circle cx="877.74" cy="209.744" r="7.94872" fill="#939BB2"/>
<circle cx="905.56" cy="209.744" r="7.94872" fill="#E2E5ED"/>
<circle cx="933.381" cy="209.744" r="7.94872" fill="#E2E5ED"/>
<circle cx="961.201" cy="209.744" r="7.94872" fill="#E2E5ED"/>
<circle cx="822.099" cy="235.641" r="7.94872" fill="#E2E5ED"/>
<circle cx="849.919" cy="235.641" r="7.94872" fill="#E2E5ED"/>
<circle cx="877.74" cy="235.641" r="7.94872" fill="#E2E5ED"/>
<circle cx="905.56" cy="235.641" r="7.94872" fill="#939BB2"/>
<circle cx="933.381" cy="235.641" r="7.94872" fill="#E2E5ED"/>
<circle cx="961.201" cy="235.641" r="7.94872" fill="#E2E5ED"/>
<circle cx="822.099" cy="261.539" r="7.94872" fill="#E2E5ED"/>
<circle cx="849.919" cy="261.539" r="7.94872" fill="#E2E5ED"/>
<circle cx="877.74" cy="261.539" r="7.94872" fill="#E2E5ED"/>
<circle cx="905.56" cy="261.539" r="7.94872" fill="#E2E5ED"/>
<circle cx="933.381" cy="261.539" r="7.94872" fill="#939BB2"/>
<circle cx="961.201" cy="261.539" r="7.94872" fill="#E2E5ED"/>
<circle cx="822.099" cy="287.436" r="7.94872" fill="#E2E5ED"/>
<circle cx="849.919" cy="287.436" r="7.94872" fill="#E2E5ED"/>
<circle cx="877.74" cy="287.436" r="7.94872" fill="#E2E5ED"/>
<circle cx="905.56" cy="287.436" r="7.94872" fill="#E2E5ED"/>
<circle cx="933.381" cy="287.436" r="7.94872" fill="#E2E5ED"/>
<circle cx="961.201" cy="287.436" r="7.94872" fill="#939BB2"/>
<path d="M861.965 57.2947C861.965 60.2294 859.484 62.6673 856.35 62.6673C853.216 62.6673 850.735 60.2294 850.735 57.2947C850.735 54.3601 853.216 51.9222 856.35 51.9222C859.484 51.9222 861.965 54.3601 861.965 57.2947Z" fill="black" stroke="black" stroke-width="1.84444"/>
<path d="M885.498 57.2947C885.498 60.2294 883.017 62.6673 879.883 62.6673C876.749 62.6673 874.268 60.2294 874.268 57.2947C874.268 54.3601 876.749 51.9222 879.883 51.9222C883.017 51.9222 885.498 54.3601 885.498 57.2947Z" stroke="black" stroke-width="1.84444"/>
<path d="M909.033 57.2947C909.033 60.2294 906.552 62.6673 903.418 62.6673C900.284 62.6673 897.803 60.2294 897.803 57.2947C897.803 54.3601 900.284 51.9222 903.418 51.9222C906.552 51.9222 909.033 54.3601 909.033 57.2947Z" stroke="black" stroke-width="1.84444"/>
<path d="M932.565 57.2947C932.565 60.2294 930.084 62.6673 926.95 62.6673C923.816 62.6673 921.335 60.2294 921.335 57.2947C921.335 54.3601 923.816 51.9222 926.95 51.9222C930.084 51.9222 932.565 54.3601 932.565 57.2947Z" stroke="black" stroke-width="1.84444"/>
<path d="M861.965 79.5711C861.965 82.5058 859.484 84.9436 856.35 84.9436C853.216 84.9436 850.735 82.5058 850.735 79.5711C850.735 76.6365 853.216 74.1986 856.35 74.1986C859.484 74.1986 861.965 76.6365 861.965 79.5711Z" stroke="black" stroke-width="1.84444"/>
<path d="M885.498 79.5711C885.498 82.5058 883.017 84.9436 879.883 84.9436C876.749 84.9436 874.268 82.5058 874.268 79.5711C874.268 76.6365 876.749 74.1986 879.883 74.1986C883.017 74.1986 885.498 76.6365 885.498 79.5711Z" fill="black" stroke="black" stroke-width="1.84444"/>
<path d="M909.033 79.5711C909.033 82.5058 906.552 84.9436 903.418 84.9436C900.284 84.9436 897.803 82.5058 897.803 79.5711C897.803 76.6365 900.284 74.1986 903.418 74.1986C906.552 74.1986 909.033 76.6365 909.033 79.5711Z" stroke="black" stroke-width="1.84444"/>
<path d="M932.565 79.5711C932.565 82.5058 930.084 84.9436 926.95 84.9436C923.816 84.9436 921.335 82.5058 921.335 79.5711C921.335 76.6365 923.816 74.1986 926.95 74.1986C930.084 74.1986 932.565 76.6365 932.565 79.5711Z" stroke="black" stroke-width="1.84444"/>
<path d="M861.965 101.847C861.965 104.782 859.484 107.22 856.35 107.22C853.216 107.22 850.735 104.782 850.735 101.847C850.735 98.9128 853.216 96.475 856.35 96.475C859.484 96.475 861.965 98.9128 861.965 101.847Z" stroke="black" stroke-width="1.84444"/>
<path d="M885.498 101.847C885.498 104.782 883.017 107.22 879.883 107.22C876.749 107.22 874.268 104.782 874.268 101.847C874.268 98.9128 876.749 96.475 879.883 96.475C883.017 96.475 885.498 98.9128 885.498 101.847Z" stroke="black" stroke-width="1.84444"/>
<path d="M909.033 101.847C909.033 104.782 906.552 107.22 903.418 107.22C900.284 107.22 897.803 104.782 897.803 101.847C897.803 98.9128 900.284 96.475 903.418 96.475C906.552 96.475 909.033 98.9128 909.033 101.847Z" fill="black" stroke="black" stroke-width="1.84444"/>
<path d="M932.565 101.847C932.565 104.782 930.084 107.22 926.95 107.22C923.816 107.22 921.335 104.782 921.335 101.847C921.335 98.9128 923.816 96.475 926.95 96.475C930.084 96.475 932.565 98.9128 932.565 101.847Z" stroke="black" stroke-width="1.84444"/>
<path d="M861.965 124.123C861.965 127.058 859.484 129.495 856.35 129.495C853.216 129.495 850.735 127.058 850.735 124.123C850.735 121.188 853.216 118.75 856.35 118.75C859.484 118.75 861.965 121.188 861.965 124.123Z" stroke="black" stroke-width="1.84444"/>
<path d="M885.498 124.123C885.498 127.058 883.017 129.495 879.883 129.495C876.749 129.495 874.268 127.058 874.268 124.123C874.268 121.188 876.749 118.75 879.883 118.75C883.017 118.75 885.498 121.188 885.498 124.123Z" stroke="black" stroke-width="1.84444"/>
<path d="M909.033 124.123C909.033 127.058 906.552 129.495 903.418 129.495C900.284 129.495 897.803 127.058 897.803 124.123C897.803 121.188 900.284 118.75 903.418 118.75C906.552 118.75 909.033 121.188 909.033 124.123Z" stroke="black" stroke-width="1.84444"/>
<path d="M932.565 124.123C932.565 127.058 930.084 129.495 926.95 129.495C923.816 129.495 921.335 127.058 921.335 124.123C921.335 121.188 923.816 118.75 926.95 118.75C930.084 118.75 932.565 121.188 932.565 124.123Z" fill="black" stroke="black" stroke-width="1.84444"/>
</g>
<defs>
<filter id="filter0_d_3119_1662" x="1101.94" y="181.438" width="48.125" height="69.125" filterUnits="userSpaceOnUse" color-interpolation-filters="sRGB">
<feFlood flood-opacity="0" result="BackgroundImageFix"/>
<feColorMatrix in="SourceAlpha" type="matrix" values="0 0 0 0 0 0 0 0 0 0 0 0 0 0 0 0 0 0 127 0" result="hardAlpha"/>
<feOffset dy="9.5"/>
<feGaussianBlur stdDeviation="4.75"/>
<feComposite in2="hardAlpha" operator="out"/>
<feColorMatrix type="matrix" values="0 0 0 0 0 0 0 0 0 0 0 0 0 0 0 0 0 0 0.25 0"/>
<feBlend mode="normal" in2="BackgroundImageFix" result="effect1_dropShadow_3119_1662"/>
<feBlend mode="normal" in="SourceGraphic" in2="effect1_dropShadow_3119_1662" result="shape"/>
</filter>
<clipPath id="clip0_3119_1662">
<rect width="1201" height="334" fill="white"/>
</clipPath>
<clipPath id="clip1_3119_1662">
<rect width="48.7732" height="48.3803" fill="white" transform="translate(151.758 65)"/>
</clipPath>
</defs>
</svg>
