<svg width="636" height="98" viewBox="0 0 636 98" fill="none" xmlns="http://www.w3.org/2000/svg">
<path d="M135 71.9029V33.1896H154.524C157.915 33.1896 160.959 33.6869 163.651 34.6816C166.344 35.6762 168.646 37.0695 170.562 38.8573C172.479 40.645 173.953 42.7115 174.987 45.0523C176.02 47.3931 176.534 49.8925 176.534 52.5463C176.534 55.2 176.015 57.7552 174.987 60.096C173.953 62.4368 172.479 64.4946 170.562 66.261C168.646 68.0316 166.331 69.412 163.621 70.4067C160.912 71.4013 157.876 71.8986 154.524 71.8986H135V71.9029ZM146.944 64.5461L144.899 61.7251H154.245C155.866 61.7251 157.315 61.4679 158.588 60.9491C159.861 60.4347 160.92 59.7402 161.769 58.8741C162.618 58.0081 163.253 57.0307 163.677 55.9417C164.101 54.8528 164.311 53.7209 164.311 52.542C164.311 51.363 164.097 50.2269 163.677 49.1422C163.253 48.0533 162.605 47.0758 161.739 46.2098C160.873 45.3438 159.814 44.6536 158.558 44.1348C157.306 43.6203 155.866 43.3588 154.245 43.3588H144.732L146.944 40.6493V64.5418V64.5461Z" fill="black"/>
<path d="M204.405 72.4559C200.495 72.4559 197.113 71.7914 194.257 70.4667C191.398 69.1376 189.207 67.3156 187.677 64.9919C186.146 62.6683 185.383 60.0317 185.383 57.0821C185.383 54.797 185.833 52.7049 186.738 50.8057C187.642 48.9064 188.894 47.2859 190.498 45.9397C192.101 44.5935 193.962 43.5517 196.084 42.8143C198.202 42.077 200.461 41.7083 202.857 41.7083C205.254 41.7083 207.603 42.0855 209.687 42.8401C211.771 43.5946 213.575 44.6578 215.106 46.0212C216.636 47.3845 217.807 49.0093 218.617 50.8871C219.427 52.7692 219.796 54.8313 219.723 57.0821L219.668 59.5172H192.182L190.909 53.7124H210.763L209.713 55.26V54.2654C209.674 53.4894 209.361 52.8206 208.774 52.2461C208.182 51.6759 207.398 51.2215 206.424 50.8914C205.447 50.5613 204.332 50.3941 203.08 50.3941C201.679 50.3941 200.405 50.617 199.265 51.0586C198.12 51.5002 197.228 52.1561 196.581 53.0221C195.934 53.8881 195.612 54.9514 195.612 56.2032C195.612 57.5322 196.007 58.7198 196.8 59.7701C197.593 60.8205 198.772 61.6608 200.341 62.2867C201.906 62.9127 203.779 63.2256 205.953 63.2256C207.942 63.2256 209.545 63.0327 210.763 62.6468C211.981 62.261 212.937 61.8451 213.64 61.4036L218.561 68.3702C217.087 69.3649 215.582 70.158 214.056 70.7496C212.525 71.3412 210.96 71.7743 209.357 72.0486C207.753 72.323 206.103 72.4645 204.405 72.4645V72.4559Z" fill="black"/>
<path d="M232.225 71.9029V42.3127H242.621L243.286 52.9878L240.19 52.4905C240.705 50.4627 241.601 48.6363 242.874 47.0158C244.147 45.3952 245.656 44.1048 247.41 43.1445C249.159 42.1841 251.033 41.7083 253.022 41.7083C254.089 41.7083 255.123 41.8111 256.117 42.0126C257.112 42.2141 257.999 42.4842 258.771 42.8143L255.676 55.0928C255.084 54.6513 254.209 54.2826 253.048 53.9867C251.886 53.6909 250.698 53.5452 249.481 53.5452C248.447 53.5452 247.556 53.6909 246.797 53.9867C246.042 54.2826 245.412 54.6984 244.915 55.23C244.417 55.7659 244.049 56.3533 243.809 57.0006C243.569 57.648 243.449 58.3554 243.449 59.1314V71.9072H232.22L232.225 71.9029Z" fill="black"/>
<path d="M270.659 71.9029V42.3127H281.056L281.497 48.1733L279.615 47.1229C280.314 46.2741 281.099 45.5195 281.965 44.855C282.831 44.1905 283.761 43.6203 284.756 43.1402C285.75 42.66 286.831 42.2999 287.992 42.0598C289.154 41.8197 290.397 41.6997 291.726 41.6997C293.236 41.6997 294.667 41.8926 296.014 42.2784C297.36 42.6643 298.547 43.3845 299.581 44.4349C300.614 45.4852 301.463 46.9515 302.123 48.8335L299.799 48.6663L300.297 47.8904C300.995 46.93 301.81 46.0854 302.732 45.3481C303.653 44.6107 304.657 43.9633 305.746 43.4102C306.834 42.8572 308.013 42.4328 309.287 42.137C310.56 41.8411 311.893 41.6954 313.295 41.6954C316.206 41.6954 318.594 42.2313 320.459 43.2988C322.32 44.3706 323.675 45.8239 324.523 47.6674C325.372 49.5109 325.797 51.6116 325.797 53.9739V71.8943H314.569V55.1914C314.569 54.3811 314.401 53.6523 314.071 53.005C313.741 52.3619 313.252 51.8346 312.605 51.4273C311.958 51.02 311.156 50.8185 310.2 50.8185C309.244 50.8185 308.429 50.9557 307.658 51.2344C306.882 51.5087 306.209 51.8903 305.638 52.3662C305.068 52.8463 304.622 53.408 304.309 54.051C303.996 54.6984 303.838 55.4058 303.838 56.1818V71.89H292.61V55.1871C292.61 54.3769 292.425 53.6309 292.057 52.9492C291.688 52.2676 291.126 51.7402 290.372 51.3715C289.617 51.0028 288.631 50.8185 287.414 50.8185C286.603 50.8185 285.844 50.9771 285.146 51.2901C284.447 51.603 283.855 52.0018 283.375 52.4776C282.895 52.9578 282.526 53.4723 282.269 54.0253C282.012 54.5784 281.883 55.0757 281.883 55.5172V71.8857H270.655L270.659 71.9029Z" fill="black"/>
<path d="M352.566 72.4002C349.543 72.4002 346.898 71.7442 344.63 70.4366C342.362 69.129 340.6 67.3327 339.349 65.0434C338.097 62.7583 337.466 60.1217 337.466 57.1335C337.466 54.1453 338.092 51.4358 339.349 49.1122C340.6 46.7885 342.354 44.9751 344.6 43.6632C346.847 42.3556 349.522 41.6996 352.622 41.6996C354.315 41.6996 355.867 41.9011 357.269 42.3084C358.671 42.7157 359.914 43.2473 361.003 43.9118C362.092 44.5763 363.014 45.3223 363.768 46.1497C364.523 46.9815 365.05 47.7832 365.346 48.5549L362.859 48.8335V42.3084H373.865V71.8986H362.581V64.0444L364.96 64.709C364.737 65.7036 364.27 66.6639 363.55 67.5856C362.829 68.5074 361.938 69.3262 360.866 70.0465C359.794 70.7667 358.559 71.3369 357.162 71.7614C355.76 72.1858 354.229 72.3959 352.57 72.3959L352.566 72.4002ZM355.661 63.277C357.209 63.277 358.517 63.0284 359.588 62.5311C360.656 62.0337 361.47 61.3221 362.023 60.4003C362.576 59.4786 362.855 58.3896 362.855 57.1378C362.855 55.8088 362.576 54.6855 362.023 53.7638C361.47 52.842 360.66 52.1304 359.588 51.633C358.517 51.1357 357.209 50.8871 355.661 50.8871C354.114 50.8871 352.857 51.1357 351.79 51.633C350.718 52.1304 349.899 52.842 349.329 53.7638C348.759 54.6855 348.472 55.8088 348.472 57.1378C348.472 58.3896 348.759 59.4786 349.329 60.4003C349.899 61.3221 350.722 62.0337 351.79 62.5311C352.857 63.0284 354.148 63.277 355.661 63.277Z" fill="black"/>
<path d="M388.733 71.9029V33.1896H400.677V71.9029H388.733ZM396.642 62.0595L392.771 53.155L415.832 33.1896H429.937L396.642 62.0595ZM417.049 71.9029L401.838 52.9321L409.14 45.7425L430.876 71.9029H417.049Z" fill="black"/>
<path d="M440.83 71.9029V42.3127H451.227L451.78 49.5023L449.126 50.2783C449.533 48.6921 450.314 47.2559 451.475 45.9654C452.637 44.675 454.121 43.6418 455.926 42.8701C457.73 42.0941 459.741 41.7083 461.953 41.7083C464.534 41.7083 466.729 42.2356 468.534 43.2859C470.339 44.3363 471.724 45.7939 472.68 47.6546C473.64 49.5152 474.116 51.6631 474.116 54.0982V71.9072H462.888V56.0917C462.888 55.0242 462.674 54.0939 462.253 53.3008C461.829 52.5077 461.22 51.8903 460.427 51.4487C459.634 51.0071 458.704 50.7842 457.636 50.7842C456.714 50.7842 455.904 50.9428 455.201 51.2558C454.502 51.5688 453.911 51.9846 453.43 52.4991C452.95 53.0178 452.599 53.5709 452.38 54.1582C452.157 54.7499 452.05 55.3372 452.05 55.9288V71.9114H440.822L440.83 71.9029Z" fill="black"/>
<path d="M495.526 36.6193C493.537 36.6193 491.976 36.1563 490.853 35.2346C489.73 34.3128 489.168 33.0053 489.168 31.3075C489.168 29.7599 489.73 28.4866 490.853 27.4919C491.976 26.4973 493.537 26 495.526 26C497.515 26 499.076 26.463 500.199 27.3805C501.322 28.3022 501.884 29.6141 501.884 31.3075C501.884 32.8552 501.314 34.1285 500.169 35.1231C499.025 36.1177 497.477 36.6151 495.522 36.6151L495.526 36.6193ZM489.884 71.9029V42.3127H501.112V71.9029H489.884Z" fill="black"/>
<path d="M533.463 84.6229C530.072 84.6229 526.981 84.2371 524.199 83.4611C521.416 82.6851 519.14 81.7462 517.369 80.6401L521.129 72.9532C521.978 73.3605 522.9 73.7635 523.894 74.1708C524.889 74.578 526.004 74.9082 527.238 75.1654C528.473 75.4226 529.884 75.5512 531.47 75.5512C533.241 75.5512 534.741 75.2554 535.976 74.6681C537.21 74.0764 538.141 73.2104 538.767 72.07C539.393 70.9254 539.706 69.4506 539.706 67.6457V64.4389L542.192 64.6618C541.862 65.8794 541.077 66.9769 539.843 67.9543C538.608 68.9318 537.06 69.6949 535.195 70.248C533.335 70.801 531.298 71.0754 529.086 71.0754C526.175 71.0754 523.59 70.4966 521.344 69.3348C519.093 68.173 517.352 66.5224 516.118 64.3874C514.883 62.2481 514.265 59.7401 514.265 56.8677C514.265 53.8452 514.909 51.2 516.199 48.9321C517.489 46.6642 519.269 44.8936 521.537 43.6246C523.804 42.3513 526.433 41.7168 529.416 41.7168C530.377 41.7168 531.414 41.7983 532.542 41.9655C533.665 42.1327 534.78 42.3985 535.886 42.7672C536.992 43.1359 538.004 43.5903 538.925 44.1219C539.847 44.6578 540.61 45.2837 541.219 46.004C541.828 46.7242 542.166 47.5045 542.244 48.3534L539.976 48.8507L540.584 42.3256H550.981V67.8214C550.981 70.5867 550.539 73.0218 549.652 75.1225C548.769 77.2232 547.521 78.9853 545.918 80.4043C544.314 81.8234 542.441 82.8823 540.306 83.5854C538.167 84.2842 535.881 84.6358 533.446 84.6358L533.463 84.6229ZM532.855 63.0541C534.329 63.0541 535.603 62.814 536.67 62.3339C537.738 61.8537 538.561 61.1549 539.131 60.2331C539.701 59.3114 539.989 58.2224 539.989 56.9706C539.989 55.7187 539.71 54.5826 539.157 53.678C538.604 52.7734 537.793 52.0746 536.722 51.5773C535.65 51.08 534.364 50.8313 532.85 50.8313C531.264 50.8313 529.909 51.08 528.786 51.5773C527.663 52.0746 526.797 52.7777 526.188 53.678C525.579 54.5826 525.275 55.6801 525.275 56.9706C525.275 58.261 525.579 59.3114 526.188 60.2331C526.797 61.1549 527.663 61.858 528.786 62.3339C529.909 62.814 531.264 63.0541 532.85 63.0541H532.855Z" fill="black"/>
<path d="M566.483 71.9029V30.9774H577.433V49.5023L574.668 50.5527C575.036 48.855 575.829 47.3545 577.047 46.0469C578.265 44.7393 579.787 43.6889 581.609 42.8958C583.435 42.1027 585.416 41.7082 587.555 41.7082C590.209 41.7082 592.438 42.2441 594.247 43.3116C596.052 44.3834 597.428 45.8368 598.367 47.6803C599.306 49.5238 599.778 51.6245 599.778 53.9867V71.9071H588.55V56.2546C588.55 55.11 588.335 54.1368 587.915 53.3222C587.491 52.5119 586.89 51.8946 586.119 51.4701C585.343 51.0457 584.404 50.8142 583.298 50.7799C582.487 50.7799 581.729 50.9171 581.03 51.1958C580.331 51.4701 579.731 51.8603 579.233 52.3576C578.736 52.8549 578.359 53.4294 578.102 54.0725C577.844 54.7198 577.716 55.4658 577.716 56.3104V71.9071H566.488L566.483 71.9029Z" fill="black"/>
<path d="M610.946 51.7188V42.317H636V51.7188H610.946ZM617.415 71.9029V33.9099H628.643V71.9029H617.415Z" fill="black"/>
<path d="M62.4107 17.7513C62.0707 17.8013 61.7307 17.8913 61.4007 18.0113C59.2607 18.8413 48.3107 21.8213 30.8507 4.73134C12.4207 -13.2987 12.2707 25.3213 18.9207 35.1113C19.5807 36.0813 19.5407 37.3713 18.8007 38.2913C13.9907 44.2813 -0.54927 64.5913 13.3607 75.5013C29.8007 88.4013 47.4907 86.9513 54.5707 93.8213C61.6507 100.691 76.0107 93.8213 76.0107 93.8213C76.0107 93.8213 89.0607 88.5413 98.7007 88.4113C109.581 88.2613 131.641 62.8313 108.351 42.9813C107.561 42.3013 107.571 41.0813 108.391 40.4213C111.361 38.0413 117.101 31.4313 118.041 15.3613C119.301 -6.27866 96.6607 -2.20866 82.2807 16.0613C81.9307 16.5013 81.4907 16.8613 80.9907 17.1013C79.0907 18.0113 73.9607 19.6713 64.5807 17.4413L62.4207 17.7613L62.4107 17.7513Z" fill="#644E57"/>
<path d="M88.8107 21.1414C88.6107 20.8814 99.7707 37.7614 103.591 37.6914C107.241 37.6214 122.571 6.55136 109.421 6.16136C97.4007 5.80136 90.2007 24.1414 88.8107 21.1514V21.1414Z" fill="#81646F"/>
<path d="M39.9707 22.2513C40.1707 22.0413 28.6407 36.1613 25.4207 35.6513C22.3407 35.1613 13.3007 5.02132 24.4507 6.18132C34.6407 7.24132 38.4207 24.8213 39.9707 22.2513Z" fill="#81646F"/>
<path d="M120.651 62.5113C122.351 62.8313 123.761 59.6613 124.271 58.4813C123.211 59.3213 117.891 58.0813 119.601 57.8613C121.461 57.6113 124.441 53.6913 124.441 53.6913L120.191 55.1013C120.651 54.4613 120.951 53.9913 120.951 53.9913L119.891 54.4113L121.091 53.2513L117.671 53.3713C117.671 53.3713 121.541 46.5413 119.381 49.5213C118.631 50.5513 117.081 51.4213 115.351 52.1213C116.281 50.0913 117.651 46.9913 116.231 49.3413C114.221 52.6713 105.961 54.4713 105.681 54.4713C105.401 54.4713 95.2707 53.6413 90.9007 51.0713C86.5307 48.5013 85.7007 50.7913 82.8507 50.1013C80.0107 49.4113 77.1607 46.9113 75.7707 48.4213C74.3807 49.9313 73.2707 42.5413 73.2707 42.5413C69.3807 48.5113 70.5807 60.5113 70.5807 60.5113L70.6707 61.8613C70.6307 66.3413 77.0907 72.1613 80.8407 78.0813C84.5907 84.0013 83.1707 84.1613 79.4607 89.3213C75.7507 94.4713 69.6707 96.8513 69.6707 96.8513C75.2907 95.8713 83.0107 91.9513 89.7307 90.3413C97.0507 88.5813 93.3407 88.8813 98.6807 88.3913C104.531 87.8513 104.501 86.9513 107.881 85.3113C109.301 84.6213 110.851 82.6513 112.161 80.5913C115.251 77.9913 118.281 72.5013 118.381 72.3213C118.391 72.3113 118.401 72.3013 118.421 72.2913C118.831 72.0213 123.511 68.9113 122.581 69.3813C121.611 69.8813 117.221 67.7713 119.531 68.1413C121.841 68.5113 123.921 62.8613 123.181 64.4213C122.441 65.9813 118.341 62.0613 120.651 62.5013V62.5113Z" fill="#B39EA6"/>
<path d="M8.97073 48.4313C8.97073 48.4313 9.16073 48.4413 9.46073 48.4313C9.17073 48.4213 8.97073 48.4313 8.97073 48.4313Z" fill="#B39EA6"/>
<path d="M59.0007 47.7613L54.9107 43.3913C54.9107 43.3913 54.8407 45.6813 54.9107 46.9313C54.9807 48.1813 49.2907 47.5513 41.3107 49.0113C33.3307 50.4713 26.8107 47.9013 26.8107 47.9013L20.3607 44.2913C13.9107 40.6813 11.4807 44.2913 11.4807 44.2913C11.4807 44.2913 12.5507 44.6213 13.1807 45.3613C10.3907 45.2813 9.25073 46.7513 9.25073 46.7513C9.25073 46.7513 10.9907 47.2213 11.3207 48.2913C10.6207 48.4113 9.93073 48.4413 9.48073 48.4413C9.98073 48.4613 10.7707 48.5213 11.3707 48.7213C11.3707 48.8113 11.3507 48.8913 11.3307 48.9813C11.0007 50.2213 8.35073 50.3613 7.24073 50.3613C7.96073 50.3913 9.28073 50.4913 9.76073 50.9013C8.24073 51.3413 6.56073 51.6113 6.56073 51.6113C6.56073 51.6113 7.84073 51.7413 9.15073 51.9713C7.60073 52.6613 4.32073 53.1213 4.32073 53.1213C4.32073 53.1213 8.63073 53.5013 9.51073 54.1213C7.46073 54.7213 4.82073 55.2513 4.82073 55.2513C4.82073 55.2513 6.05073 55.2113 7.51073 55.2513C5.43073 55.8013 2.58073 56.2913 2.58073 56.2913C2.58073 56.2913 7.83073 56.1413 9.46073 56.7313C6.99073 56.9013 3.71073 56.8513 3.71073 56.8513C3.71073 56.8513 5.18073 57.1913 6.15073 57.6313C3.90073 57.7113 1.47073 57.6813 1.47073 57.6813C1.47073 57.6813 3.88073 58.1713 4.57073 58.7013C3.02073 58.5413 1.50073 58.2813 2.62073 59.3213C0.910728 59.1813 -0.969273 58.8413 0.570727 59.9813C2.86073 61.6713 5.08073 69.2213 7.00073 70.9213C7.85073 71.6713 9.36073 73.0413 11.4607 74.5613C11.5107 74.5013 11.5507 74.4513 11.6007 74.3913C14.3107 76.9213 18.6907 80.4513 24.4707 82.6513C32.4707 85.6913 51.7207 91.8113 51.7207 91.8113L45.8107 82.9213L42.6307 72.3213L57.9507 62.3313C57.9507 62.3313 57.6807 58.5113 58.4507 55.7413C59.2107 52.9613 59.0107 47.7613 59.0107 47.7613H59.0007Z" fill="#B39EA6"/>
<path d="M46.0407 82.9613L37.4007 83.4813C37.4007 83.4813 34.1707 83.6913 30.6407 80.5713C27.1007 77.4513 23.4607 67.0413 32.9307 66.5213C32.9307 66.5213 39.3807 57.7813 44.2707 56.0113C49.1607 54.2413 54.2607 51.2213 58.1107 59.6513C61.9607 68.0813 48.1207 75.9913 47.5007 81.3013C47.5007 81.3013 47.3107 82.9813 46.3607 82.9913L46.0507 82.9613H46.0407Z" fill="#3C2F33"/>
<path d="M70.6907 61.8814C70.6507 61.0214 70.6007 60.1614 70.9107 59.3614C71.8907 56.8414 74.2507 51.3114 75.8607 51.6314C77.9407 52.0514 96.2207 60.4114 101.431 71.4714C101.431 71.4714 104.661 74.7014 97.5407 79.7614C90.4307 84.8214 89.8407 85.4814 83.2507 82.5414C83.2507 82.5414 80.9307 78.6214 79.8507 77.0914C78.7707 75.5614 74.6807 70.1514 73.0507 68.4514C71.8907 67.2414 70.7807 64.1214 70.6907 61.8814Z" fill="#3C2F33"/>
<path d="M59.0007 73.8913C59.0007 73.8913 62.4707 76.8113 59.5607 79.6913C56.6507 82.5713 52.2407 93.1813 64.8307 92.8713C64.8307 92.8713 79.4307 93.4313 73.0507 82.0513C73.0507 82.0513 68.5807 78.2313 70.3807 73.8913C72.1807 69.5513 72.4407 66.0813 74.6207 70.2613C74.6207 70.2613 86.1607 82.4213 82.4907 85.5113C82.4907 85.5113 78.2507 97.0813 66.3907 97.3413C54.4207 97.6013 50.4307 91.6513 47.1407 84.9213C47.1407 84.9213 45.1007 81.3213 52.8307 73.5513C52.8307 73.5513 55.2207 72.2413 56.0207 69.6513C56.8207 67.0613 58.0307 67.0613 58.2807 72.0513L59.0107 73.8813L59.0007 73.8913Z" fill="#F3F0F2"/>
<path d="M55.0107 64.4313C55.0107 64.4313 51.0607 53.7114 45.0707 60.3714C45.0707 60.3714 42.5707 70.2313 54.6707 64.9014L55.0107 64.4313Z" fill="#171511"/>
<path d="M47.0007 59.8713C47.0007 59.8713 50.3207 56.9714 51.5507 61.0514L47.0007 59.8713Z" fill="#E3E2DE"/>
<path d="M74.0207 64.3214C74.0207 64.3214 77.8907 53.6014 83.7507 60.2614C83.7507 60.2614 86.2007 70.1214 74.3507 64.7914L74.0207 64.3214Z" fill="#171511"/>
<path d="M81.8507 59.7614C81.8507 59.7614 78.6007 56.8614 77.4007 60.9414L81.8507 59.7614Z" fill="#E3E2DE"/>
<path d="M56.7407 85.7113C56.7407 85.7113 55.2407 92.2213 61.7907 92.6613C68.3407 93.1013 72.1307 92.9713 73.7307 90.1113C75.3307 87.2513 74.2507 85.0613 74.2507 85.0613C74.2507 85.0613 74.1807 82.4213 72.1407 83.5213C70.1007 84.6213 61.8107 85.7313 59.9207 84.5113C58.9307 83.8713 58.3607 83.4713 57.8507 83.8713C57.1107 84.4313 56.7507 85.7013 56.7507 85.7013L56.7407 85.7113Z" fill="#3C2F33"/>
<path d="M58.1407 85.2713C58.1407 85.2713 60.7407 89.6213 62.4307 87.8113C64.1207 86.0013 59.4007 85.6713 58.6407 85.2713C57.8807 84.8713 58.1507 85.2713 58.1507 85.2713H58.1407Z" fill="#050301"/>
<path d="M72.9907 85.2013C72.9907 85.2013 70.8507 89.5513 69.4607 87.7413C68.0707 85.9313 71.9607 85.6013 72.5807 85.2013C73.2007 84.8013 72.9907 85.2013 72.9907 85.2013Z" fill="#050301"/>
</svg>
