<svg width="1440" height="645" viewBox="0 0 1440 645" fill="none" xmlns="http://www.w3.org/2000/svg">
<path d="M979.873 471V451.4H982.841L989.981 463.02L988.553 462.992L995.777 451.4H998.577V471H995.553V462.964C995.553 461.284 995.59 459.772 995.665 458.428C995.758 457.084 995.908 455.749 996.113 454.424L996.505 455.46L990.093 465.372H988.245L982.029 455.572L982.337 454.424C982.542 455.675 982.682 456.963 982.757 458.288C982.85 459.595 982.897 461.153 982.897 462.964V471H979.873ZM1009 471.28C1007.79 471.28 1006.68 470.944 1005.67 470.272C1004.68 469.6 1003.89 468.685 1003.29 467.528C1002.69 466.371 1002.39 465.064 1002.39 463.608C1002.39 462.133 1002.69 460.827 1003.29 459.688C1003.9 458.531 1004.73 457.625 1005.75 456.972C1006.8 456.319 1007.96 455.992 1009.25 455.992C1010.02 455.992 1010.72 456.104 1011.35 456.328C1011.99 456.552 1012.54 456.869 1013 457.28C1013.49 457.672 1013.88 458.129 1014.18 458.652C1014.5 459.175 1014.69 459.735 1014.77 460.332L1014.12 460.108V456.3H1017.04V471H1014.12V467.5L1014.8 467.304C1014.68 467.808 1014.45 468.303 1014.1 468.788C1013.76 469.255 1013.32 469.675 1012.78 470.048C1012.26 470.421 1011.67 470.72 1011.02 470.944C1010.38 471.168 1009.71 471.28 1009 471.28ZM1009.76 468.62C1010.63 468.62 1011.41 468.405 1012.08 467.976C1012.75 467.547 1013.27 466.959 1013.65 466.212C1014.04 465.447 1014.24 464.579 1014.24 463.608C1014.24 462.656 1014.04 461.807 1013.65 461.06C1013.27 460.313 1012.75 459.725 1012.08 459.296C1011.41 458.867 1010.63 458.652 1009.76 458.652C1008.9 458.652 1008.13 458.867 1007.46 459.296C1006.81 459.725 1006.28 460.313 1005.89 461.06C1005.52 461.807 1005.33 462.656 1005.33 463.608C1005.33 464.579 1005.52 465.447 1005.89 466.212C1006.28 466.959 1006.81 467.547 1007.46 467.976C1008.13 468.405 1008.9 468.62 1009.76 468.62ZM1021.06 471V456.3H1023.97V460.92L1023.69 459.8C1023.9 459.091 1024.25 458.447 1024.73 457.868C1025.23 457.289 1025.8 456.832 1026.44 456.496C1027.09 456.16 1027.76 455.992 1028.45 455.992C1028.77 455.992 1029.07 456.02 1029.35 456.076C1029.65 456.132 1029.88 456.197 1030.05 456.272L1029.29 459.408C1029.07 459.315 1028.82 459.24 1028.54 459.184C1028.28 459.109 1028.02 459.072 1027.75 459.072C1027.25 459.072 1026.77 459.175 1026.3 459.38C1025.85 459.567 1025.45 459.837 1025.09 460.192C1024.76 460.528 1024.49 460.929 1024.28 461.396C1024.08 461.844 1023.97 462.339 1023.97 462.88V471H1021.06ZM1038.53 477.44C1037.48 477.44 1036.44 477.272 1035.39 476.936C1034.36 476.619 1033.53 476.199 1032.9 475.676L1033.96 473.436C1034.34 473.716 1034.77 473.959 1035.28 474.164C1035.78 474.388 1036.31 474.556 1036.87 474.668C1037.43 474.799 1037.98 474.864 1038.53 474.864C1039.55 474.864 1040.41 474.696 1041.1 474.36C1041.79 474.024 1042.32 473.529 1042.67 472.876C1043.02 472.223 1043.2 471.411 1043.2 470.44V467.612L1043.51 467.808C1043.42 468.387 1043.11 468.947 1042.59 469.488C1042.08 470.011 1041.45 470.44 1040.68 470.776C1039.92 471.112 1039.13 471.28 1038.33 471.28C1036.93 471.28 1035.68 470.953 1034.58 470.3C1033.5 469.628 1032.64 468.723 1032 467.584C1031.37 466.427 1031.05 465.111 1031.05 463.636C1031.05 462.161 1031.36 460.855 1031.97 459.716C1032.61 458.559 1033.47 457.653 1034.55 457C1035.65 456.328 1036.88 455.992 1038.25 455.992C1038.81 455.992 1039.35 456.067 1039.87 456.216C1040.39 456.347 1040.88 456.543 1041.33 456.804C1041.77 457.047 1042.18 457.317 1042.53 457.616C1042.88 457.915 1043.17 458.232 1043.4 458.568C1043.62 458.904 1043.76 459.221 1043.82 459.52L1043.2 459.744V456.3H1046.09V470.104C1046.09 471.28 1045.91 472.316 1045.55 473.212C1045.22 474.127 1044.72 474.892 1044.07 475.508C1043.42 476.143 1042.62 476.619 1041.69 476.936C1040.76 477.272 1039.7 477.44 1038.53 477.44ZM1038.64 468.62C1039.55 468.62 1040.36 468.405 1041.07 467.976C1041.78 467.547 1042.33 466.959 1042.73 466.212C1043.12 465.465 1043.31 464.607 1043.31 463.636C1043.31 462.665 1043.11 461.807 1042.7 461.06C1042.31 460.295 1041.76 459.697 1041.05 459.268C1040.36 458.839 1039.55 458.624 1038.64 458.624C1037.74 458.624 1036.94 458.848 1036.23 459.296C1035.54 459.725 1034.99 460.323 1034.58 461.088C1034.19 461.835 1033.99 462.684 1033.99 463.636C1033.99 464.588 1034.19 465.447 1034.58 466.212C1034.99 466.959 1035.54 467.547 1036.23 467.976C1036.94 468.405 1037.74 468.62 1038.64 468.62ZM1050.61 471V456.3H1053.49V471H1050.61ZM1052.01 453.052C1051.39 453.052 1050.91 452.893 1050.58 452.576C1050.24 452.259 1050.07 451.811 1050.07 451.232C1050.07 450.691 1050.24 450.252 1050.58 449.916C1050.93 449.58 1051.41 449.412 1052.01 449.412C1052.62 449.412 1053.1 449.571 1053.43 449.888C1053.77 450.205 1053.94 450.653 1053.94 451.232C1053.94 451.773 1053.76 452.212 1053.41 452.548C1053.07 452.884 1052.6 453.052 1052.01 453.052ZM1057.92 471V456.3H1060.81V459.324L1060.3 459.66C1060.49 459.007 1060.85 458.409 1061.39 457.868C1061.94 457.308 1062.58 456.86 1063.33 456.524C1064.07 456.169 1064.84 455.992 1065.62 455.992C1066.74 455.992 1067.68 456.216 1068.42 456.664C1069.17 457.093 1069.73 457.756 1070.1 458.652C1070.48 459.548 1070.66 460.677 1070.66 462.04V471H1067.78V462.236C1067.78 461.396 1067.67 460.705 1067.44 460.164C1067.22 459.604 1066.87 459.203 1066.41 458.96C1065.94 458.699 1065.36 458.587 1064.67 458.624C1064.11 458.624 1063.6 458.717 1063.13 458.904C1062.66 459.072 1062.25 459.315 1061.9 459.632C1061.56 459.949 1061.29 460.323 1061.09 460.752C1060.9 461.163 1060.81 461.611 1060.81 462.096V471H1059.38C1059.14 471 1058.89 471 1058.65 471C1058.41 471 1058.16 471 1057.92 471ZM1083.15 471V451.4H1091.49C1092.61 451.4 1093.64 451.68 1094.57 452.24C1095.53 452.781 1096.28 453.528 1096.84 454.48C1097.4 455.413 1097.68 456.468 1097.68 457.644C1097.68 458.708 1097.4 459.697 1096.84 460.612C1096.28 461.527 1095.54 462.264 1094.6 462.824C1093.67 463.365 1092.63 463.636 1091.49 463.636H1086.17V471H1083.15ZM1094.8 471L1089.81 462.152L1092.92 461.452L1098.47 471.028L1094.8 471ZM1086.17 460.724H1091.77C1092.32 460.724 1092.8 460.593 1093.23 460.332C1093.66 460.052 1094 459.679 1094.24 459.212C1094.48 458.727 1094.6 458.195 1094.6 457.616C1094.6 456.963 1094.44 456.393 1094.13 455.908C1093.83 455.404 1093.4 455.012 1092.84 454.732C1092.3 454.452 1091.68 454.312 1090.99 454.312H1086.17V460.724ZM1108.2 471.28C1106.69 471.28 1105.35 470.963 1104.17 470.328C1103.01 469.675 1102.1 468.788 1101.43 467.668C1100.77 466.548 1100.45 465.26 1100.45 463.804C1100.45 462.647 1100.63 461.592 1101.01 460.64C1101.38 459.688 1101.89 458.867 1102.55 458.176C1103.22 457.467 1104.01 456.925 1104.93 456.552C1105.86 456.16 1106.87 455.964 1107.95 455.964C1108.9 455.964 1109.79 456.151 1110.61 456.524C1111.43 456.879 1112.14 457.373 1112.74 458.008C1113.36 458.643 1113.82 459.399 1114.14 460.276C1114.48 461.135 1114.63 462.077 1114.62 463.104L1114.59 464.336H1102.58L1101.93 462.04H1112.1L1111.68 462.516V461.844C1111.62 461.228 1111.41 460.677 1111.06 460.192C1110.71 459.707 1110.26 459.324 1109.72 459.044C1109.17 458.764 1108.59 458.624 1107.95 458.624C1106.94 458.624 1106.09 458.82 1105.4 459.212C1104.71 459.585 1104.19 460.145 1103.84 460.892C1103.48 461.62 1103.3 462.525 1103.3 463.608C1103.3 464.635 1103.52 465.531 1103.95 466.296C1104.38 467.043 1104.98 467.621 1105.77 468.032C1106.55 468.443 1107.46 468.648 1108.48 468.648C1109.21 468.648 1109.88 468.527 1110.5 468.284C1111.13 468.041 1111.82 467.603 1112.54 466.968L1114 469.012C1113.55 469.46 1113 469.852 1112.35 470.188C1111.71 470.524 1111.03 470.795 1110.3 471C1109.59 471.187 1108.89 471.28 1108.2 471.28ZM1128.47 477.16V467.5H1129.03C1129.03 467.948 1128.89 468.396 1128.59 468.844C1128.29 469.273 1127.89 469.675 1127.38 470.048C1126.88 470.421 1126.32 470.72 1125.7 470.944C1125.09 471.168 1124.45 471.28 1123.8 471.28C1122.47 471.28 1121.29 470.953 1120.24 470.3C1119.2 469.628 1118.37 468.723 1117.75 467.584C1117.15 466.427 1116.85 465.111 1116.85 463.636C1116.85 462.161 1117.15 460.855 1117.75 459.716C1118.35 458.559 1119.16 457.653 1120.19 457C1121.23 456.328 1122.41 455.992 1123.71 455.992C1124.44 455.992 1125.13 456.113 1125.79 456.356C1126.46 456.599 1127.06 456.916 1127.58 457.308C1128.12 457.7 1128.54 458.139 1128.84 458.624C1129.16 459.091 1129.31 459.567 1129.31 460.052L1128.47 460.108V456.272H1131.36V477.16H1128.47ZM1124.11 468.62C1124.98 468.62 1125.76 468.405 1126.43 467.976C1127.1 467.547 1127.63 466.959 1128 466.212C1128.39 465.465 1128.59 464.607 1128.59 463.636C1128.59 462.665 1128.39 461.807 1128 461.06C1127.63 460.295 1127.1 459.697 1126.43 459.268C1125.76 458.839 1124.98 458.624 1124.11 458.624C1123.23 458.624 1122.45 458.848 1121.78 459.296C1121.11 459.725 1120.58 460.323 1120.19 461.088C1119.81 461.835 1119.63 462.684 1119.63 463.636C1119.63 464.588 1119.81 465.447 1120.19 466.212C1120.58 466.959 1121.11 467.547 1121.78 467.976C1122.45 468.405 1123.23 468.62 1124.11 468.62ZM1140.54 471.28C1139.49 471.28 1138.58 471.037 1137.8 470.552C1137.03 470.067 1136.43 469.385 1136 468.508C1135.59 467.631 1135.39 466.585 1135.39 465.372V456.3H1138.27V464.588C1138.27 465.447 1138.4 466.193 1138.66 466.828C1138.94 467.444 1139.34 467.92 1139.84 468.256C1140.36 468.592 1140.99 468.76 1141.72 468.76C1142.26 468.76 1142.75 468.676 1143.2 468.508C1143.65 468.321 1144.03 468.069 1144.35 467.752C1144.68 467.435 1144.94 467.052 1145.13 466.604C1145.32 466.156 1145.41 465.671 1145.41 465.148V456.3H1148.3V471H1145.41V467.92L1145.92 467.584C1145.69 468.275 1145.31 468.9 1144.77 469.46C1144.24 470.02 1143.62 470.468 1142.89 470.804C1142.16 471.121 1141.38 471.28 1140.54 471.28ZM1152.82 471V456.3H1155.7V471H1152.82ZM1154.22 453.052C1153.6 453.052 1153.12 452.893 1152.79 452.576C1152.45 452.259 1152.28 451.811 1152.28 451.232C1152.28 450.691 1152.45 450.252 1152.79 449.916C1153.14 449.58 1153.62 449.412 1154.22 449.412C1154.83 449.412 1155.31 449.571 1155.64 449.888C1155.98 450.205 1156.15 450.653 1156.15 451.232C1156.15 451.773 1155.97 452.212 1155.62 452.548C1155.28 452.884 1154.81 453.052 1154.22 453.052ZM1160.13 471V456.3H1163.05V460.92L1162.77 459.8C1162.97 459.091 1163.32 458.447 1163.8 457.868C1164.31 457.289 1164.87 456.832 1165.51 456.496C1166.16 456.16 1166.83 455.992 1167.53 455.992C1167.84 455.992 1168.14 456.02 1168.42 456.076C1168.72 456.132 1168.95 456.197 1169.12 456.272L1168.37 459.408C1168.14 459.315 1167.89 459.24 1167.61 459.184C1167.35 459.109 1167.09 459.072 1166.83 459.072C1166.32 459.072 1165.84 459.175 1165.37 459.38C1164.92 459.567 1164.52 459.837 1164.17 460.192C1163.83 460.528 1163.56 460.929 1163.35 461.396C1163.15 461.844 1163.05 462.339 1163.05 462.88V471H1160.13ZM1177.66 471.28C1176.15 471.28 1174.8 470.963 1173.63 470.328C1172.47 469.675 1171.55 468.788 1170.88 467.668C1170.23 466.548 1169.9 465.26 1169.9 463.804C1169.9 462.647 1170.09 461.592 1170.46 460.64C1170.83 459.688 1171.35 458.867 1172 458.176C1172.67 457.467 1173.47 456.925 1174.38 456.552C1175.31 456.16 1176.32 455.964 1177.41 455.964C1178.36 455.964 1179.24 456.151 1180.07 456.524C1180.89 456.879 1181.6 457.373 1182.19 458.008C1182.81 458.643 1183.28 459.399 1183.59 460.276C1183.93 461.135 1184.09 462.077 1184.07 463.104L1184.04 464.336H1172.03L1171.39 462.04H1181.55L1181.13 462.516V461.844C1181.07 461.228 1180.87 460.677 1180.51 460.192C1180.16 459.707 1179.71 459.324 1179.17 459.044C1178.63 458.764 1178.04 458.624 1177.41 458.624C1176.4 458.624 1175.55 458.82 1174.86 459.212C1174.17 459.585 1173.64 460.145 1173.29 460.892C1172.93 461.62 1172.76 462.525 1172.76 463.608C1172.76 464.635 1172.97 465.531 1173.4 466.296C1173.83 467.043 1174.44 467.621 1175.22 468.032C1176.01 468.443 1176.91 468.648 1177.94 468.648C1178.67 468.648 1179.34 468.527 1179.95 468.284C1180.59 468.041 1181.27 467.603 1182 466.968L1183.45 469.012C1183.01 469.46 1182.45 469.852 1181.8 470.188C1181.17 470.524 1180.49 470.795 1179.76 471C1179.05 471.187 1178.35 471.28 1177.66 471.28ZM1193.34 471.28C1191.99 471.28 1190.79 470.953 1189.72 470.3C1188.68 469.628 1187.85 468.723 1187.23 467.584C1186.62 466.427 1186.31 465.111 1186.31 463.636C1186.31 462.161 1186.61 460.855 1187.2 459.716C1187.82 458.559 1188.65 457.653 1189.7 457C1190.74 456.328 1191.93 455.992 1193.25 455.992C1193.98 455.992 1194.68 456.113 1195.35 456.356C1196.04 456.58 1196.66 456.897 1197.2 457.308C1197.74 457.7 1198.16 458.139 1198.46 458.624C1198.78 459.091 1198.94 459.567 1198.94 460.052L1198.1 460.108V450.28H1200.98V471H1198.1V467.5H1198.66C1198.66 467.948 1198.51 468.396 1198.21 468.844C1197.91 469.273 1197.51 469.675 1197 470.048C1196.52 470.421 1195.95 470.72 1195.3 470.944C1194.66 471.168 1194.01 471.28 1193.34 471.28ZM1193.73 468.788C1194.6 468.788 1195.38 468.564 1196.05 468.116C1196.72 467.668 1197.25 467.061 1197.62 466.296C1198.01 465.512 1198.21 464.625 1198.21 463.636C1198.21 462.647 1198.01 461.769 1197.62 461.004C1197.25 460.22 1196.72 459.604 1196.05 459.156C1195.38 458.708 1194.6 458.484 1193.73 458.484C1192.85 458.484 1192.08 458.708 1191.4 459.156C1190.73 459.604 1190.2 460.22 1189.81 461.004C1189.43 461.769 1189.25 462.647 1189.25 463.636C1189.25 464.625 1189.43 465.512 1189.81 466.296C1190.2 467.061 1190.73 467.668 1191.4 468.116C1192.08 468.564 1192.85 468.788 1193.73 468.788ZM1206.13 471.28C1205.51 471.28 1205.03 471.103 1204.7 470.748C1204.36 470.375 1204.19 469.852 1204.19 469.18C1204.19 468.564 1204.37 468.06 1204.73 467.668C1205.08 467.276 1205.55 467.08 1206.13 467.08C1206.74 467.08 1207.22 467.267 1207.55 467.64C1207.89 467.995 1208.06 468.508 1208.06 469.18C1208.06 469.796 1207.88 470.3 1207.53 470.692C1207.17 471.084 1206.7 471.28 1206.13 471.28ZM1206.13 460.22C1205.51 460.22 1205.03 460.043 1204.7 459.688C1204.36 459.315 1204.19 458.792 1204.19 458.12C1204.19 457.504 1204.37 457 1204.73 456.608C1205.08 456.216 1205.55 456.02 1206.13 456.02C1206.74 456.02 1207.22 456.207 1207.55 456.58C1207.89 456.935 1208.06 457.448 1208.06 458.12C1208.06 458.736 1207.88 459.24 1207.53 459.632C1207.17 460.024 1206.7 460.22 1206.13 460.22ZM1223.23 469.628V453.724L1224.26 454.508L1220.4 456.552L1219.59 453.92L1224.82 451.12H1226.28V469.628H1223.23ZM1220.12 471V468.088H1229.47V471H1220.12ZM1239.64 471.28C1238.14 471.28 1236.86 470.869 1235.77 470.048C1234.71 469.227 1233.89 468.069 1233.31 466.576C1232.73 465.064 1232.44 463.272 1232.44 461.2C1232.44 459.128 1232.73 457.345 1233.31 455.852C1233.89 454.34 1234.71 453.173 1235.77 452.352C1236.86 451.531 1238.14 451.12 1239.64 451.12C1241.13 451.12 1242.42 451.531 1243.5 452.352C1244.58 453.173 1245.41 454.34 1245.99 455.852C1246.57 457.345 1246.86 459.128 1246.86 461.2C1246.86 463.272 1246.57 465.064 1245.99 466.576C1245.41 468.069 1244.58 469.227 1243.5 470.048C1242.42 470.869 1241.13 471.28 1239.64 471.28ZM1239.64 468.536C1241 468.536 1242.05 467.901 1242.8 466.632C1243.55 465.344 1243.92 463.533 1243.92 461.2C1243.92 458.867 1243.55 457.065 1242.8 455.796C1242.05 454.508 1241 453.864 1239.64 453.864C1238.27 453.864 1237.22 454.508 1236.47 455.796C1235.73 457.065 1235.35 458.867 1235.35 461.2C1235.35 463.533 1235.73 465.344 1236.47 466.632C1237.22 467.901 1238.27 468.536 1239.64 468.536ZM1250.18 477.16V456.3H1253.09V459.66L1252.64 459.408C1252.75 458.848 1253.07 458.316 1253.59 457.812C1254.11 457.289 1254.75 456.869 1255.5 456.552C1256.26 456.216 1257.05 456.048 1257.85 456.048C1259.17 456.048 1260.35 456.375 1261.38 457.028C1262.4 457.681 1263.21 458.577 1263.81 459.716C1264.41 460.855 1264.71 462.161 1264.71 463.636C1264.71 465.092 1264.41 466.399 1263.81 467.556C1263.23 468.695 1262.43 469.6 1261.4 470.272C1260.38 470.925 1259.22 471.252 1257.93 471.252C1257.07 471.252 1256.24 471.084 1255.44 470.748C1254.64 470.393 1253.96 469.945 1253.4 469.404C1252.84 468.863 1252.49 468.303 1252.36 467.724L1253.09 467.332V477.16H1250.18ZM1257.46 468.592C1258.31 468.592 1259.08 468.377 1259.75 467.948C1260.42 467.519 1260.96 466.931 1261.35 466.184C1261.74 465.437 1261.94 464.588 1261.94 463.636C1261.94 462.684 1261.74 461.844 1261.35 461.116C1260.97 460.369 1260.45 459.781 1259.78 459.352C1259.11 458.923 1258.33 458.708 1257.46 458.708C1256.58 458.708 1255.8 458.923 1255.13 459.352C1254.46 459.763 1253.93 460.341 1253.54 461.088C1253.14 461.835 1252.95 462.684 1252.95 463.636C1252.95 464.588 1253.14 465.437 1253.54 466.184C1253.93 466.931 1254.46 467.519 1255.13 467.948C1255.8 468.377 1256.58 468.592 1257.46 468.592ZM1277.07 471L1272.31 464.812L1271.89 464.28L1265.7 456.3H1269.34L1274.01 462.404L1274.49 463.02L1280.59 471H1277.07ZM1265.73 471L1271.52 463.44L1273.23 465.484L1269.14 471H1265.73ZM1274.66 463.888L1273.06 461.872L1276.67 456.3H1280.09L1274.66 463.888Z" fill="#3E2E33"/>
<g clip-path="url(#clip0_3120_1086)">
<path d="M1126.43 244.212C1125.98 244.298 1125.54 244.439 1125.12 244.648C1122.32 246.041 1108.07 251.001 1085.31 222.525C1061.31 192.496 1061.11 256.821 1069.78 273.118C1070.63 274.739 1070.58 276.881 1069.63 278.41C1063.36 288.391 1044.42 322.208 1062.54 340.384C1083.96 361.874 1107.01 359.45 1116.22 370.886C1125.44 382.328 1144.15 370.886 1144.15 370.886C1144.15 370.886 1161.15 362.102 1173.7 361.874C1187.88 361.617 1216.61 319.267 1186.27 286.206C1185.24 285.076 1185.26 283.032 1186.33 281.945C1190.2 277.986 1197.67 266.968 1198.89 240.204C1200.53 204.165 1171.04 210.948 1152.3 241.364C1151.85 242.101 1151.28 242.696 1150.62 243.101C1148.15 244.611 1141.46 247.38 1129.24 243.672L1126.43 244.212H1126.43Z" fill="#644E57"/>
<path d="M1160.83 249.852C1160.57 249.428 1175.1 277.535 1180.07 277.406C1184.84 277.283 1204.8 225.551 1187.67 224.895C1172 224.293 1162.63 254.842 1160.82 249.852H1160.83Z" fill="#81646F"/>
<path d="M1097.19 251.705C1097.45 251.355 1082.44 274.876 1078.24 274.023C1074.24 273.207 1062.45 223.016 1076.98 224.943C1090.26 226.711 1095.18 255.996 1097.19 251.705Z" fill="#81646F"/>
<path d="M1202.3 318.763C1204.51 319.297 1206.35 314.024 1207.02 312.048C1205.63 313.441 1198.7 311.391 1200.94 311.004C1203.37 310.593 1207.25 304.068 1207.25 304.068L1201.71 306.419C1202.31 305.351 1202.7 304.571 1202.7 304.571L1201.31 305.277L1202.88 303.356L1198.43 303.565C1198.43 303.565 1203.46 292.19 1200.65 297.156C1199.67 298.875 1197.65 300.324 1195.4 301.478C1196.62 298.089 1198.4 292.939 1196.55 296.843C1193.93 302.392 1183.18 305.394 1182.82 305.394C1182.46 305.394 1169.26 304.007 1163.57 299.734C1157.87 295.462 1156.79 299.274 1153.08 298.114C1149.37 296.96 1145.67 292.798 1143.86 295.309C1142.06 297.819 1140.61 285.518 1140.61 285.518C1135.55 295.456 1137.1 315.442 1137.1 315.442L1137.21 317.701C1137.16 325.159 1145.58 334.858 1150.46 344.716C1155.34 354.58 1153.49 354.851 1148.65 363.426C1143.82 372.001 1135.91 375.966 1135.91 375.966C1143.23 374.327 1153.28 367.809 1162.04 365.12C1171.58 362.192 1166.74 362.695 1173.69 361.867C1181.31 360.958 1181.28 359.46 1185.68 356.741C1187.54 355.593 1189.54 352.309 1191.25 348.89C1195.27 344.557 1199.22 335.417 1199.35 335.128C1199.36 335.11 1199.38 335.091 1199.4 335.079C1199.93 334.625 1206.02 329.444 1204.82 330.236C1203.55 331.065 1197.83 327.547 1200.84 328.167C1203.85 328.787 1206.56 319.377 1205.59 321.968C1204.62 324.558 1199.29 318.039 1202.3 318.763H1202.3Z" fill="#B39EA6"/>
<path d="M1056.82 295.314C1056.82 295.314 1057.07 295.334 1057.45 295.327C1057.07 295.308 1056.82 295.314 1056.82 295.314Z" fill="#B39EA6"/>
<path d="M1121.98 294.192L1116.65 286.912C1116.65 286.912 1116.56 290.724 1116.65 292.804C1116.74 294.885 1109.33 293.842 1098.94 296.273C1088.55 298.703 1080.05 294.425 1080.05 294.425L1071.64 288.415C1063.23 282.406 1060.08 288.415 1060.08 288.415C1060.08 288.415 1061.47 288.968 1062.28 290.196C1058.64 290.061 1057.16 292.516 1057.16 292.516C1057.16 292.516 1059.43 293.295 1059.86 295.082C1058.95 295.29 1058.04 295.333 1057.46 295.34C1058.11 295.37 1059.14 295.481 1059.93 295.806C1059.92 295.947 1059.9 296.095 1059.87 296.248C1059.45 298.31 1055.99 298.538 1054.54 298.544C1055.49 298.587 1057.2 298.759 1057.83 299.434C1055.85 300.17 1053.67 300.619 1053.67 300.619C1053.67 300.619 1055.34 300.833 1057.05 301.22C1055.03 302.368 1050.75 303.135 1050.75 303.135C1050.75 303.135 1056.37 303.767 1057.51 304.799C1054.84 305.799 1051.41 306.677 1051.41 306.677C1051.41 306.677 1053.02 306.61 1054.91 306.671C1052.2 307.586 1048.49 308.408 1048.49 308.408C1048.49 308.408 1055.33 308.169 1057.45 309.132C1054.24 309.415 1049.96 309.329 1049.96 309.329C1049.96 309.329 1051.88 309.9 1053.15 310.63C1050.21 310.771 1047.04 310.716 1047.04 310.716C1047.04 310.716 1050.18 311.532 1051.09 312.41C1049.07 312.14 1047.09 311.71 1048.54 313.441C1046.31 313.208 1043.87 312.643 1045.87 314.54C1048.85 317.358 1051.75 329.929 1054.25 332.765C1055.35 334.017 1057.31 336.295 1060.06 338.824C1060.12 338.725 1060.18 338.633 1060.24 338.535C1063.77 342.746 1069.48 348.626 1077.01 352.285C1087.43 357.349 1112.52 367.545 1112.52 367.545L1104.82 352.739L1100.67 335.091L1120.63 318.45C1120.63 318.45 1120.28 312.097 1121.27 307.475C1122.26 302.853 1121.99 294.186 1121.99 294.186L1121.98 294.192Z" fill="#B39EA6"/>
<path d="M1105.1 352.805L1093.85 353.67C1093.85 353.67 1089.65 354.014 1085.04 348.815C1080.43 343.616 1075.69 326.282 1088.02 325.417C1088.02 325.417 1096.43 310.857 1102.8 307.911C1109.17 304.965 1115.82 299.938 1120.83 313.976C1125.84 328.013 1107.81 341.186 1107 350.024C1107 350.024 1106.75 352.817 1105.51 352.842L1105.1 352.799L1105.1 352.805Z" fill="#3C2F33"/>
<path d="M1137.22 317.707C1137.17 316.271 1137.1 314.847 1137.51 313.509C1138.79 309.31 1141.86 300.097 1143.96 300.631C1146.67 301.325 1170.49 315.246 1177.26 333.678C1177.26 333.678 1181.46 339.049 1172.2 347.483C1162.94 355.917 1162.17 357.015 1153.58 352.105C1153.58 352.105 1150.55 345.574 1149.15 343.033C1147.75 340.492 1142.42 331.481 1140.3 328.645C1138.79 326.638 1137.34 321.433 1137.22 317.701V317.707Z" fill="#3C2F33"/>
<path d="M1122 337.713C1122 337.713 1126.51 342.574 1122.72 347.368C1118.92 352.162 1113.19 369.839 1129.59 369.318C1129.59 369.318 1148.61 370.244 1140.3 351.296C1140.3 351.296 1134.47 344.925 1136.82 337.713C1139.17 330.5 1139.51 324.706 1142.34 331.673C1142.34 331.673 1157.38 351.928 1152.59 357.072C1152.59 357.072 1147.06 376.339 1131.62 376.769C1116.03 377.205 1110.84 367.292 1106.54 356.09C1106.54 356.09 1103.88 350.099 1113.95 337.154C1113.95 337.154 1117.07 334.975 1118.11 330.654C1119.15 326.339 1120.73 326.339 1121.05 334.656L1122 337.713Z" fill="#F3F0F2"/>
<path d="M1116.79 321.961C1116.79 321.961 1111.63 304.112 1103.84 315.203C1103.84 315.203 1100.59 331.623 1116.35 322.741L1116.79 321.961H1116.79Z" fill="#171511"/>
<path d="M1106.36 314.356C1106.36 314.356 1110.68 309.526 1112.29 316.321Z" fill="#E3E2DE"/>
<path d="M1141.55 321.777C1141.55 321.777 1146.59 303.928 1154.22 315.019C1154.22 315.019 1157.41 331.439 1141.98 322.557L1141.55 321.777Z" fill="#171511"/>
<path d="M1151.76 314.172C1151.76 314.172 1147.53 309.342 1145.96 316.137Z" fill="#E3E2DE"/>
<path d="M1119.04 357.387C1119.04 357.387 1117.09 368.239 1125.62 368.969C1134.15 369.7 1139.09 369.491 1141.17 364.722C1143.25 359.959 1141.85 356.313 1141.85 356.313C1141.85 356.313 1141.75 351.924 1139.1 353.753C1136.45 355.588 1125.64 357.436 1123.18 355.404C1121.89 354.33 1121.15 353.679 1120.48 354.33C1119.52 355.263 1119.04 357.387 1119.04 357.387Z" fill="#3C2F33"/>
<path d="M1120.87 356.663C1120.87 356.663 1124.26 363.912 1126.45 360.892C1128.64 357.872 1122.5 357.326 1121.51 356.663C1120.52 356 1120.87 356.663 1120.87 356.663Z" fill="#050301"/>
<path d="M1140.22 356.552C1140.22 356.552 1137.42 363.801 1135.62 360.782C1133.82 357.762 1138.87 357.215 1139.69 356.552C1140.51 355.89 1140.22 356.552 1140.22 356.552Z" fill="#050301"/>
</g>
<rect x="1015.97" y="179.5" width="230" height="230" stroke="#585D6B" stroke-width="5"/>
<line x1="1043" y1="182" x2="1043" y2="407" stroke="#949DB5" stroke-width="3" stroke-dasharray="6 6"/>
<line x1="1209" y1="182" x2="1209" y2="407" stroke="#949DB5" stroke-width="3" stroke-dasharray="6 6"/>
<line x1="1241" y1="212" x2="1018" y2="212" stroke="#949DB5" stroke-width="3" stroke-dasharray="6 6"/>
<line x1="1241" y1="378" x2="1018" y2="378" stroke="#949DB5" stroke-width="3" stroke-dasharray="6 6"/>
<g clip-path="url(#clip1_3120_1086)">
<path d="M311.646 246.583C311.203 246.646 310.76 246.762 310.339 246.92C307.567 247.996 293.432 251.855 270.864 229.754C247.064 206.451 246.864 256.368 255.454 269.011C256.308 270.265 256.255 271.931 255.307 273.112C249.098 280.862 230.304 307.097 248.276 321.205C269.515 337.886 292.378 335.999 301.516 344.877C310.655 353.755 329.217 344.877 329.217 344.877C329.217 344.877 346.071 338.055 358.53 337.886C372.591 337.686 401.082 304.819 371 279.165C369.977 278.29 369.998 276.708 371.052 275.864C374.889 272.796 382.31 264.245 383.511 243.472C385.134 215.509 355.895 220.77 337.301 244.369C336.848 244.938 336.279 245.402 335.625 245.718C333.17 246.889 326.54 249.04 314.428 246.161L311.646 246.583Z" fill="#644E57"/>
<path d="M345.755 250.959C345.502 250.632 359.911 272.448 364.844 272.343C369.566 272.248 389.361 232.105 372.37 231.589C356.844 231.125 347.547 254.828 345.744 250.959H345.755Z" fill="#81646F"/>
<path d="M282.659 252.393C282.912 252.119 268.018 270.371 263.865 269.707C259.892 269.074 248.202 230.123 262.611 231.621C275.787 232.991 280.667 255.715 282.659 252.393Z" fill="#81646F"/>
<path d="M386.895 304.429C389.087 304.84 390.911 300.749 391.575 299.22C390.204 300.306 383.321 298.714 385.545 298.408C387.949 298.092 391.796 293.02 391.796 293.02L386.304 294.844C386.895 294.022 387.285 293.41 387.285 293.41L385.914 293.959L387.474 292.461L383.058 292.619C383.058 292.619 388.054 283.794 385.261 287.642C384.291 288.982 382.288 290.099 380.054 290.996C381.255 288.37 383.026 284.363 381.192 287.4C378.589 291.702 367.922 294.032 367.563 294.032C367.205 294.032 354.113 292.957 348.474 289.635C342.825 286.314 341.749 289.277 338.081 288.381C334.403 287.484 330.735 284.258 328.943 286.198C327.151 288.149 325.717 278.606 325.717 278.606C320.7 286.314 322.239 301.825 322.239 301.825L322.355 303.575C322.302 309.364 330.65 316.892 335.499 324.537C340.337 332.192 338.503 332.403 333.707 339.057C328.911 345.71 321.058 348.789 321.058 348.789C328.321 347.513 338.292 342.462 346.978 340.375C356.432 338.108 351.647 338.498 358.541 337.855C366.098 337.148 366.056 335.988 370.42 333.879C372.264 332.994 374.256 330.442 375.943 327.785C379.938 324.421 383.848 317.325 383.975 317.103C383.996 317.093 384.006 317.072 384.028 317.061C384.555 316.713 390.594 312.685 389.403 313.297C388.149 313.94 382.478 311.209 385.461 311.694C388.444 312.179 391.142 304.872 390.173 306.875C389.203 308.879 383.922 303.828 386.905 304.387L386.895 304.429Z" fill="#B39EA6"/>
<path d="M242.605 286.229C242.605 286.229 242.847 286.24 243.237 286.24C242.858 286.229 242.605 286.229 242.605 286.229Z" fill="#B39EA6"/>
<path d="M307.229 285.365L301.938 279.713C301.938 279.713 301.843 282.676 301.938 284.289C302.033 285.902 294.675 285.101 284.367 286.978C274.058 288.865 265.636 285.544 265.636 285.544L257.298 280.883C248.961 276.223 245.83 280.883 245.83 280.883C245.83 280.883 247.222 281.316 248.023 282.265C244.418 282.159 242.942 284.068 242.942 284.068C242.942 284.068 245.198 284.669 245.62 286.061C244.724 286.219 243.817 286.261 243.237 286.261C243.891 286.282 244.913 286.366 245.683 286.62C245.683 286.725 245.662 286.841 245.63 286.957C245.208 288.56 241.783 288.739 240.339 288.739C241.266 288.771 242.974 288.908 243.596 289.435C241.625 290.004 239.464 290.352 239.464 290.352C239.464 290.352 241.119 290.521 242.816 290.816C240.813 291.702 236.576 292.303 236.576 292.303C236.576 292.303 242.152 292.788 243.28 293.6C240.623 294.38 237.229 295.055 237.229 295.055C237.229 295.055 238.821 295.002 240.708 295.055C238.02 295.761 234.341 296.405 234.341 296.405C234.341 296.405 241.129 296.215 243.227 296.963C240.033 297.185 235.796 297.122 235.796 297.122C235.796 297.122 237.693 297.565 238.958 298.134C236.049 298.239 232.908 298.197 232.908 298.197C232.908 298.197 236.017 298.83 236.913 299.515C234.91 299.304 232.95 298.967 234.394 300.317C232.18 300.137 229.756 299.694 231.738 301.171C234.7 303.353 237.567 313.117 240.044 315.321C241.14 316.291 243.09 318.063 245.809 320.024C245.873 319.95 245.925 319.876 245.988 319.803C249.488 323.071 255.148 327.626 262.621 330.473C272.951 334.406 297.837 342.315 297.837 342.315L290.196 330.821L286.085 317.124L305.88 304.207C305.88 304.207 305.532 299.273 306.523 295.688C307.514 292.103 307.24 285.375 307.24 285.375L307.229 285.365Z" fill="#B39EA6"/>
<path d="M290.491 330.853L279.328 331.528C279.328 331.528 275.165 331.802 270.59 327.764C266.016 323.725 261.315 310.281 273.552 309.606C273.552 309.606 281.89 298.313 288.203 296.025C294.528 293.737 301.116 289.836 306.091 300.728C311.066 311.62 293.179 321.848 292.377 328.702C292.377 328.702 292.125 330.874 290.902 330.885L290.501 330.853H290.491Z" fill="#3C2F33"/>
<path d="M322.344 303.617C322.302 302.499 322.228 301.392 322.629 300.359C323.904 297.101 326.95 289.951 329.027 290.363C331.715 290.9 355.336 301.708 362.061 316.007C362.061 316.007 366.225 320.172 357.044 326.72C347.852 333.268 347.093 334.122 338.577 330.305C338.577 330.305 335.573 325.243 334.181 323.261C332.79 321.279 327.499 314.298 325.401 312.095C323.904 310.534 322.471 306.496 322.344 303.606V303.617Z" fill="#3C2F33"/>
<path d="M307.24 319.138C307.24 319.138 311.719 322.913 307.957 326.635C304.194 330.357 298.502 344.076 314.766 343.675C314.766 343.675 333.633 344.392 325.391 329.683C325.391 329.683 319.614 324.737 321.944 319.138C324.273 313.539 324.611 309.047 327.425 314.457C327.425 314.457 342.34 330.178 337.586 334.164C337.586 334.164 332.105 349.116 316.789 349.453C301.474 349.791 296.172 342.104 291.914 333.405C291.914 333.405 289.279 328.755 299.271 318.706C299.271 318.706 302.359 317.008 303.392 313.666C304.425 310.323 305.996 310.313 306.302 316.776L307.24 319.149V319.138Z" fill="#F3F0F2"/>
<path d="M302.075 306.917C302.075 306.917 296.963 293.062 289.236 301.677C289.236 301.677 286.011 314.425 301.643 307.529L302.075 306.928V306.917Z" fill="#171511"/>
<path d="M291.745 301.013C291.745 301.013 296.035 297.259 297.616 302.541Z" fill="#E3E2DE"/>
<path d="M326.634 306.77C326.634 306.77 331.641 292.915 339.209 301.529C339.209 301.529 342.371 314.277 327.066 307.381L326.634 306.78V306.77Z" fill="#171511"/>
<path d="M336.764 300.865C336.764 300.865 332.569 297.111 331.009 302.394Z" fill="#E3E2DE"/>
<path d="M304.32 334.407C304.32 334.407 302.381 342.832 310.845 343.391C319.309 343.96 324.199 343.791 326.265 340.101C328.331 336.41 326.929 333.574 326.929 333.574C326.929 333.574 326.835 330.168 324.21 331.591C321.585 333.015 310.855 334.449 308.42 332.867C307.134 332.034 306.396 331.528 305.743 332.034C304.794 332.762 304.32 334.407 304.32 334.407Z" fill="#3C2F33"/>
<path d="M306.133 333.837C306.133 333.837 309.495 339.457 311.667 337.117C313.838 334.776 307.746 334.343 306.765 333.837C305.785 333.331 306.122 333.837 306.122 333.837H306.133Z" fill="#050301"/>
<path d="M325.317 333.764C325.317 333.764 322.545 339.384 320.763 337.043C318.971 334.702 323.989 334.27 324.79 333.764C325.591 333.257 325.317 333.764 325.317 333.764Z" fill="#050301"/>
<path d="M404.518 268.768V223.744H427.212C431.154 223.744 434.696 224.324 437.826 225.483C440.957 226.643 443.634 228.257 445.858 230.344C448.082 232.422 449.8 234.826 451.002 237.546C452.204 240.267 452.805 243.177 452.805 246.266C452.805 249.356 452.204 252.329 451.002 255.05C449.8 257.77 448.082 260.164 445.858 262.22C443.624 264.276 440.936 265.889 437.784 267.049C434.633 268.209 431.112 268.789 427.212 268.789H404.518V268.768ZM418.411 260.217L416.029 256.937H426.896C428.783 256.937 430.469 256.642 431.945 256.041C433.42 255.44 434.654 254.639 435.645 253.626C436.635 252.625 437.373 251.486 437.858 250.22C438.353 248.955 438.596 247.637 438.596 246.266C438.596 244.896 438.353 243.578 437.858 242.312C437.363 241.047 436.614 239.908 435.613 238.906C434.601 237.894 433.368 237.093 431.913 236.492C430.459 235.891 428.783 235.595 426.896 235.595H415.839L418.411 232.443V260.227V260.217Z" fill="black"/>
<path d="M476.858 269.411C472.315 269.411 468.383 268.642 465.063 267.092C461.743 265.552 459.192 263.422 457.411 260.723C455.629 258.024 454.744 254.955 454.744 251.528C454.744 248.871 455.271 246.435 456.314 244.232C457.368 242.028 458.823 240.14 460.689 238.569C462.554 237.009 464.715 235.796 467.182 234.931C469.648 234.077 472.273 233.645 475.056 233.645C477.838 233.645 480.579 234.088 482.993 234.963C485.417 235.838 487.514 237.072 489.296 238.664C491.077 240.246 492.437 242.133 493.375 244.326C494.313 246.509 494.745 248.913 494.661 251.528L494.598 254.354H462.639L461.163 247.595H484.247L483.024 249.398V248.238C482.982 247.342 482.613 246.551 481.928 245.887C481.243 245.223 480.326 244.695 479.198 244.305C478.06 243.915 476.763 243.725 475.308 243.725C473.675 243.725 472.199 243.978 470.871 244.495C469.543 245.012 468.499 245.771 467.751 246.783C467.003 247.796 466.623 249.029 466.623 250.484C466.623 252.024 467.087 253.416 468.004 254.628C468.921 255.851 470.302 256.821 472.115 257.56C473.938 258.287 476.11 258.656 478.639 258.656C480.958 258.656 482.813 258.435 484.236 257.981C485.649 257.528 486.766 257.053 487.578 256.537L493.301 264.645C491.583 265.805 489.844 266.723 488.063 267.408C486.281 268.093 484.458 268.599 482.592 268.916C480.726 269.232 478.808 269.401 476.837 269.401L476.858 269.411Z" fill="black"/>
<path d="M500.838 268.768V234.362H512.928L513.697 246.773L510.092 246.193C510.693 243.831 511.737 241.711 513.212 239.824C514.688 237.937 516.448 236.439 518.483 235.322C520.517 234.204 522.699 233.645 525.007 233.645C526.251 233.645 527.453 233.761 528.612 234.004C529.772 234.236 530.794 234.552 531.701 234.931L528.096 249.208C527.411 248.692 526.388 248.27 525.039 247.922C523.69 247.585 522.309 247.405 520.897 247.405C519.695 247.405 518.651 247.574 517.777 247.922C516.902 248.27 516.174 248.745 515.595 249.367C515.015 249.989 514.583 250.674 514.309 251.423C514.024 252.171 513.887 252.994 513.887 253.901V268.758H500.838V268.768Z" fill="black"/>
<path d="M537.171 268.768V234.362H549.261L549.778 241.184L547.596 239.961C548.407 238.97 549.324 238.094 550.326 237.325C551.338 236.555 552.413 235.891 553.572 235.332C554.732 234.773 555.986 234.362 557.335 234.077C558.684 233.803 560.128 233.655 561.678 233.655C563.438 233.655 565.093 233.877 566.664 234.33C568.224 234.784 569.615 235.617 570.806 236.84C572.008 238.063 572.988 239.771 573.768 241.954L571.07 241.764L571.649 240.868C572.461 239.75 573.41 238.769 574.474 237.905C575.549 237.051 576.709 236.291 577.974 235.659C579.238 235.015 580.609 234.52 582.084 234.182C583.56 233.835 585.12 233.666 586.743 233.666C590.127 233.666 592.91 234.288 595.07 235.532C597.231 236.776 598.812 238.474 599.793 240.615C600.773 242.755 601.268 245.201 601.268 247.943V268.778H588.219V249.356C588.219 248.417 588.029 247.563 587.639 246.815C587.249 246.066 586.68 245.454 585.932 244.98C585.183 244.505 584.245 244.273 583.138 244.273C582.032 244.273 581.083 244.432 580.177 244.758C579.281 245.085 578.49 245.518 577.826 246.077C577.162 246.635 576.645 247.289 576.287 248.038C575.918 248.786 575.739 249.609 575.739 250.516V268.778H562.69V249.356C562.69 248.417 562.479 247.542 562.047 246.751C561.615 245.961 560.961 245.349 560.086 244.917C559.211 244.484 558.063 244.273 556.65 244.273C555.701 244.273 554.827 244.453 554.015 244.822C553.203 245.191 552.518 245.644 551.96 246.203C551.401 246.762 550.969 247.363 550.674 248.006C550.368 248.649 550.22 249.229 550.22 249.746V268.789H537.171V268.768Z" fill="black"/>
<path d="M624.036 269.348C620.526 269.348 617.448 268.589 614.813 267.06C612.177 265.542 610.133 263.454 608.667 260.786C607.213 258.129 606.486 255.061 606.486 251.591C606.486 248.122 607.213 244.97 608.667 242.27C610.122 239.571 612.156 237.462 614.77 235.933C617.385 234.415 620.494 233.645 624.099 233.645C626.07 233.645 627.872 233.877 629.496 234.351C631.119 234.826 632.573 235.448 633.838 236.218C635.103 236.988 636.178 237.863 637.053 238.822C637.928 239.792 638.539 240.72 638.887 241.617L635.989 241.933V234.341H648.785V268.747H635.672V259.616L638.434 260.385C638.181 261.545 637.633 262.663 636.79 263.728C635.946 264.793 634.913 265.753 633.67 266.586C632.426 267.419 630.992 268.083 629.359 268.578C627.725 269.074 625.954 269.317 624.025 269.317L624.036 269.348ZM627.63 258.73C629.432 258.73 630.95 258.445 632.194 257.865C633.438 257.285 634.376 256.463 635.019 255.387C635.662 254.312 635.978 253.047 635.978 251.591C635.978 250.052 635.662 248.745 635.019 247.669C634.376 246.593 633.427 245.771 632.194 245.191C630.95 244.611 629.432 244.326 627.63 244.326C625.827 244.326 624.373 244.622 623.129 245.191C621.885 245.771 620.937 246.593 620.273 247.669C619.609 248.745 619.271 250.052 619.271 251.591C619.271 253.047 619.598 254.312 620.273 255.387C620.937 256.463 621.885 257.285 623.129 257.865C624.373 258.445 625.87 258.73 627.63 258.73Z" fill="black"/>
<path d="M404.518 332.034V287.01H418.411V332.034H404.518ZM413.72 320.583L409.219 310.228L436.035 287.01H452.425L413.72 320.583ZM437.447 332.034L419.77 309.975L428.256 301.614L453.521 332.034H437.447Z" fill="black"/>
<path d="M456.736 332.034V297.628H468.826L469.469 305.989L466.381 306.886C466.855 305.04 467.761 303.374 469.111 301.866C470.46 300.369 472.189 299.167 474.286 298.26C476.384 297.364 478.724 296.911 481.296 296.911C484.3 296.911 486.85 297.522 488.948 298.745C491.046 299.969 492.658 301.666 493.765 303.828C494.882 305.989 495.441 308.488 495.441 311.325V332.034H482.392V313.634C482.392 312.39 482.149 311.304 481.654 310.386C481.159 309.469 480.452 308.741 479.535 308.235C478.608 307.719 477.533 307.466 476.289 307.466C475.214 307.466 474.276 307.645 473.464 308.014C472.652 308.383 471.967 308.857 471.409 309.458C470.85 310.059 470.439 310.703 470.186 311.388C469.933 312.073 469.796 312.759 469.796 313.444V332.034H456.747H456.736Z" fill="black"/>
<path d="M511.969 290.996C509.65 290.996 507.847 290.458 506.54 289.382C505.233 288.307 504.58 286.788 504.58 284.817C504.58 283.014 505.233 281.537 506.54 280.378C507.847 279.218 509.66 278.638 511.969 278.638C514.277 278.638 516.09 279.175 517.397 280.24C518.704 281.316 519.357 282.834 519.357 284.806C519.357 286.609 518.693 288.085 517.365 289.245C516.037 290.405 514.235 290.985 511.969 290.985V290.996ZM505.402 332.034V297.628H518.451V332.034H505.402Z" fill="black"/>
<path d="M547.711 346.828C543.769 346.828 540.175 346.374 536.939 345.478C533.703 344.582 531.057 343.485 529.002 342.199L533.376 333.257C534.367 333.731 535.432 334.195 536.591 334.67C537.751 335.144 539.047 335.524 540.481 335.83C541.914 336.125 543.558 336.283 545.403 336.283C547.458 336.283 549.208 335.935 550.642 335.25C552.075 334.564 553.161 333.552 553.888 332.224C554.615 330.895 554.984 329.176 554.984 327.078V323.345L557.873 323.598C557.483 325.011 556.576 326.287 555.143 327.426C553.709 328.565 551.907 329.45 549.746 330.094C547.585 330.737 545.213 331.064 542.641 331.064C539.258 331.064 536.254 330.389 533.64 329.039C531.026 327.69 529.002 325.77 527.568 323.282C526.135 320.794 525.418 317.883 525.418 314.53C525.418 311.019 526.167 307.94 527.663 305.304C529.16 302.668 531.237 300.612 533.872 299.125C536.507 297.649 539.564 296.911 543.031 296.911C544.149 296.911 545.361 297.006 546.668 297.195C547.975 297.385 549.271 297.701 550.557 298.123C551.843 298.556 553.024 299.083 554.088 299.705C555.164 300.327 556.049 301.055 556.755 301.888C557.461 302.721 557.862 303.638 557.946 304.619L555.311 305.198L556.017 297.607H568.107V327.257C568.107 330.473 567.591 333.299 566.568 335.745C565.535 338.192 564.091 340.237 562.226 341.893C560.36 343.548 558.189 344.771 555.701 345.594C553.214 346.406 550.557 346.817 547.733 346.817L547.711 346.828ZM547.005 321.743C548.723 321.743 550.199 321.468 551.443 320.91C552.687 320.351 553.635 319.539 554.299 318.463C554.963 317.388 555.301 316.122 555.301 314.667C555.301 313.212 554.984 311.894 554.331 310.84C553.688 309.785 552.75 308.973 551.506 308.393C550.262 307.813 548.765 307.529 547.005 307.529C545.161 307.529 543.59 307.813 542.283 308.393C540.976 308.973 539.964 309.785 539.258 310.84C538.552 311.894 538.193 313.17 538.193 314.667C538.193 316.165 538.552 317.388 539.258 318.463C539.964 319.539 540.976 320.351 542.283 320.91C543.59 321.468 545.161 321.743 547.005 321.743Z" fill="black"/>
<path d="M577.741 332.034V284.437H590.474V305.99L587.26 307.213C587.692 305.241 588.609 303.491 590.021 301.972C591.434 300.454 593.204 299.231 595.323 298.303C597.442 297.385 599.75 296.922 602.238 296.922C605.326 296.922 607.919 297.544 610.017 298.788C612.114 300.032 613.716 301.73 614.802 303.87C615.898 306.011 616.446 308.457 616.446 311.199V332.034H603.397V313.835C603.397 312.506 603.155 311.367 602.659 310.429C602.164 309.49 601.468 308.763 600.572 308.278C599.676 307.782 598.58 307.519 597.294 307.476C596.346 307.476 595.471 307.635 594.659 307.961C593.847 308.278 593.152 308.731 592.572 309.311C591.992 309.891 591.55 310.555 591.254 311.304C590.949 312.053 590.801 312.928 590.801 313.908V332.045H577.752L577.741 332.034Z" fill="black"/>
<path d="M621.074 308.552V297.617H650.197V308.552H621.074ZM628.6 332.034V287.843H641.649V332.034H628.6Z" fill="black"/>
</g>
<rect x="169" y="195.327" width="562" height="186.673" stroke="#585D6B" stroke-width="6"/>
<line x1="227.069" y1="198.327" x2="227.069" y2="378.9" stroke="#949DB5" stroke-width="6" stroke-dasharray="12 12"/>
<line x1="652.295" y1="198.327" x2="652.295" y2="378.9" stroke="#949DB5" stroke-width="6" stroke-dasharray="12 12"/>
<line x1="727.398" y1="356.507" x2="172" y2="356.507" stroke="#949DB5" stroke-width="6" stroke-dasharray="12 12"/>
<line x1="727.398" y1="218.256" x2="172" y2="218.256" stroke="#949DB5" stroke-width="6" stroke-dasharray="12 12"/>
<path d="M333.642 473V453.4H336.61L343.75 465.02L342.322 464.992L349.546 453.4H352.346V473H349.322V464.964C349.322 463.284 349.36 461.772 349.434 460.428C349.528 459.084 349.677 457.749 349.882 456.424L350.274 457.46L343.862 467.372H342.014L335.798 457.572L336.106 456.424C336.312 457.675 336.452 458.963 336.526 460.288C336.62 461.595 336.666 463.153 336.666 464.964V473H333.642ZM362.77 473.28C361.556 473.28 360.446 472.944 359.438 472.272C358.448 471.6 357.655 470.685 357.058 469.528C356.46 468.371 356.162 467.064 356.162 465.608C356.162 464.133 356.46 462.827 357.058 461.688C357.674 460.531 358.495 459.625 359.522 458.972C360.567 458.319 361.734 457.992 363.022 457.992C363.787 457.992 364.487 458.104 365.122 458.328C365.756 458.552 366.307 458.869 366.774 459.28C367.259 459.672 367.651 460.129 367.95 460.652C368.267 461.175 368.463 461.735 368.538 462.332L367.894 462.108V458.3H370.806V473H367.894V469.5L368.566 469.304C368.454 469.808 368.22 470.303 367.866 470.788C367.53 471.255 367.091 471.675 366.55 472.048C366.027 472.421 365.439 472.72 364.786 472.944C364.151 473.168 363.479 473.28 362.77 473.28ZM363.526 470.62C364.403 470.62 365.178 470.405 365.85 469.976C366.522 469.547 367.044 468.959 367.418 468.212C367.81 467.447 368.006 466.579 368.006 465.608C368.006 464.656 367.81 463.807 367.418 463.06C367.044 462.313 366.522 461.725 365.85 461.296C365.178 460.867 364.403 460.652 363.526 460.652C362.667 460.652 361.902 460.867 361.23 461.296C360.576 461.725 360.054 462.313 359.662 463.06C359.288 463.807 359.102 464.656 359.102 465.608C359.102 466.579 359.288 467.447 359.662 468.212C360.054 468.959 360.576 469.547 361.23 469.976C361.902 470.405 362.667 470.62 363.526 470.62ZM374.832 473V458.3H377.744V462.92L377.464 461.8C377.67 461.091 378.015 460.447 378.5 459.868C379.004 459.289 379.574 458.832 380.208 458.496C380.862 458.16 381.534 457.992 382.224 457.992C382.542 457.992 382.84 458.02 383.12 458.076C383.419 458.132 383.652 458.197 383.82 458.272L383.064 461.408C382.84 461.315 382.588 461.24 382.308 461.184C382.047 461.109 381.786 461.072 381.524 461.072C381.02 461.072 380.535 461.175 380.068 461.38C379.62 461.567 379.219 461.837 378.864 462.192C378.528 462.528 378.258 462.929 378.052 463.396C377.847 463.844 377.744 464.339 377.744 464.88V473H374.832ZM392.295 479.44C391.25 479.44 390.205 479.272 389.159 478.936C388.133 478.619 387.302 478.199 386.667 477.676L387.731 475.436C388.105 475.716 388.543 475.959 389.047 476.164C389.551 476.388 390.083 476.556 390.643 476.668C391.203 476.799 391.754 476.864 392.295 476.864C393.322 476.864 394.181 476.696 394.871 476.36C395.562 476.024 396.085 475.529 396.439 474.876C396.794 474.223 396.971 473.411 396.971 472.44V469.612L397.279 469.808C397.186 470.387 396.878 470.947 396.355 471.488C395.851 472.011 395.217 472.44 394.451 472.776C393.686 473.112 392.902 473.28 392.099 473.28C390.699 473.28 389.449 472.953 388.347 472.3C387.265 471.628 386.406 470.723 385.771 469.584C385.137 468.427 384.819 467.111 384.819 465.636C384.819 464.161 385.127 462.855 385.743 461.716C386.378 460.559 387.237 459.653 388.319 459C389.421 458.328 390.653 457.992 392.015 457.992C392.575 457.992 393.117 458.067 393.639 458.216C394.162 458.347 394.647 458.543 395.095 458.804C395.543 459.047 395.945 459.317 396.299 459.616C396.654 459.915 396.943 460.232 397.167 460.568C397.391 460.904 397.531 461.221 397.587 461.52L396.971 461.744V458.3H399.855V472.104C399.855 473.28 399.678 474.316 399.323 475.212C398.987 476.127 398.493 476.892 397.839 477.508C397.186 478.143 396.393 478.619 395.459 478.936C394.526 479.272 393.471 479.44 392.295 479.44ZM392.407 470.62C393.322 470.62 394.134 470.405 394.843 469.976C395.553 469.547 396.103 468.959 396.495 468.212C396.887 467.465 397.083 466.607 397.083 465.636C397.083 464.665 396.878 463.807 396.467 463.06C396.075 462.295 395.525 461.697 394.815 461.268C394.125 460.839 393.322 460.624 392.407 460.624C391.511 460.624 390.709 460.848 389.999 461.296C389.309 461.725 388.758 462.323 388.347 463.088C387.955 463.835 387.759 464.684 387.759 465.636C387.759 466.588 387.955 467.447 388.347 468.212C388.758 468.959 389.309 469.547 389.999 469.976C390.709 470.405 391.511 470.62 392.407 470.62ZM404.375 473V458.3H407.259V473H404.375ZM405.775 455.052C405.159 455.052 404.683 454.893 404.347 454.576C404.011 454.259 403.843 453.811 403.843 453.232C403.843 452.691 404.011 452.252 404.347 451.916C404.701 451.58 405.177 451.412 405.775 451.412C406.391 451.412 406.867 451.571 407.203 451.888C407.539 452.205 407.707 452.653 407.707 453.232C407.707 453.773 407.529 454.212 407.175 454.548C406.839 454.884 406.372 455.052 405.775 455.052ZM411.692 473V458.3H414.576V461.324L414.072 461.66C414.258 461.007 414.622 460.409 415.164 459.868C415.705 459.308 416.349 458.86 417.096 458.524C417.842 458.169 418.608 457.992 419.392 457.992C420.512 457.992 421.445 458.216 422.192 458.664C422.938 459.093 423.498 459.756 423.872 460.652C424.245 461.548 424.432 462.677 424.432 464.04V473H421.548V464.236C421.548 463.396 421.436 462.705 421.212 462.164C420.988 461.604 420.642 461.203 420.176 460.96C419.709 460.699 419.13 460.587 418.44 460.624C417.88 460.624 417.366 460.717 416.9 460.904C416.433 461.072 416.022 461.315 415.668 461.632C415.332 461.949 415.061 462.323 414.856 462.752C414.669 463.163 414.576 463.611 414.576 464.096V473H413.148C412.905 473 412.662 473 412.42 473C412.177 473 411.934 473 411.692 473ZM433.244 473.28C432.012 473.28 430.901 473.065 429.912 472.636C428.923 472.207 428.101 471.572 427.448 470.732L429.408 469.052C429.968 469.705 430.575 470.181 431.228 470.48C431.9 470.76 432.656 470.9 433.496 470.9C433.832 470.9 434.14 470.863 434.42 470.788C434.719 470.695 434.971 470.564 435.176 470.396C435.4 470.228 435.568 470.032 435.68 469.808C435.792 469.565 435.848 469.304 435.848 469.024C435.848 468.539 435.671 468.147 435.316 467.848C435.129 467.717 434.831 467.577 434.42 467.428C434.028 467.26 433.515 467.092 432.88 466.924C431.797 466.644 430.911 466.327 430.22 465.972C429.529 465.617 428.997 465.216 428.624 464.768C428.344 464.413 428.139 464.031 428.008 463.62C427.877 463.191 427.812 462.724 427.812 462.22C427.812 461.604 427.943 461.044 428.204 460.54C428.484 460.017 428.857 459.569 429.324 459.196C429.809 458.804 430.369 458.505 431.004 458.3C431.657 458.095 432.348 457.992 433.076 457.992C433.767 457.992 434.448 458.085 435.12 458.272C435.811 458.459 436.445 458.729 437.024 459.084C437.603 459.439 438.088 459.859 438.48 460.344L436.828 462.164C436.473 461.809 436.081 461.501 435.652 461.24C435.241 460.96 434.821 460.745 434.392 460.596C433.963 460.447 433.571 460.372 433.216 460.372C432.824 460.372 432.469 460.409 432.152 460.484C431.835 460.559 431.564 460.671 431.34 460.82C431.135 460.969 430.976 461.156 430.864 461.38C430.752 461.604 430.696 461.856 430.696 462.136C430.715 462.379 430.771 462.612 430.864 462.836C430.976 463.041 431.125 463.219 431.312 463.368C431.517 463.517 431.825 463.676 432.236 463.844C432.647 464.012 433.169 464.171 433.804 464.32C434.737 464.563 435.503 464.833 436.1 465.132C436.716 465.412 437.201 465.739 437.556 466.112C437.929 466.467 438.191 466.877 438.34 467.344C438.489 467.811 438.564 468.333 438.564 468.912C438.564 469.752 438.321 470.508 437.836 471.18C437.369 471.833 436.735 472.347 435.932 472.72C435.129 473.093 434.233 473.28 433.244 473.28ZM450.318 473V453.4H458.662C459.782 453.4 460.809 453.68 461.742 454.24C462.694 454.781 463.45 455.528 464.01 456.48C464.57 457.413 464.85 458.468 464.85 459.644C464.85 460.708 464.57 461.697 464.01 462.612C463.45 463.527 462.704 464.264 461.77 464.824C460.837 465.365 459.801 465.636 458.662 465.636H453.342V473H450.318ZM461.966 473L456.982 464.152L460.09 463.452L465.634 473.028L461.966 473ZM453.342 462.724H458.942C459.484 462.724 459.969 462.593 460.398 462.332C460.828 462.052 461.164 461.679 461.406 461.212C461.649 460.727 461.77 460.195 461.77 459.616C461.77 458.963 461.612 458.393 461.294 457.908C460.996 457.404 460.566 457.012 460.006 456.732C459.465 456.452 458.849 456.312 458.158 456.312H453.342V462.724ZM475.372 473.28C473.86 473.28 472.516 472.963 471.34 472.328C470.183 471.675 469.268 470.788 468.596 469.668C467.943 468.548 467.616 467.26 467.616 465.804C467.616 464.647 467.803 463.592 468.176 462.64C468.549 461.688 469.063 460.867 469.716 460.176C470.388 459.467 471.181 458.925 472.096 458.552C473.029 458.16 474.037 457.964 475.12 457.964C476.072 457.964 476.959 458.151 477.78 458.524C478.601 458.879 479.311 459.373 479.908 460.008C480.524 460.643 480.991 461.399 481.308 462.276C481.644 463.135 481.803 464.077 481.784 465.104L481.756 466.336H469.744L469.1 464.04H479.264L478.844 464.516V463.844C478.788 463.228 478.583 462.677 478.228 462.192C477.873 461.707 477.425 461.324 476.884 461.044C476.343 460.764 475.755 460.624 475.12 460.624C474.112 460.624 473.263 460.82 472.572 461.212C471.881 461.585 471.359 462.145 471.004 462.892C470.649 463.62 470.472 464.525 470.472 465.608C470.472 466.635 470.687 467.531 471.116 468.296C471.545 469.043 472.152 469.621 472.936 470.032C473.72 470.443 474.625 470.648 475.652 470.648C476.38 470.648 477.052 470.527 477.668 470.284C478.303 470.041 478.984 469.603 479.712 468.968L481.168 471.012C480.72 471.46 480.169 471.852 479.516 472.188C478.881 472.524 478.2 472.795 477.472 473C476.763 473.187 476.063 473.28 475.372 473.28ZM495.642 479.16V469.5H496.202C496.202 469.948 496.053 470.396 495.754 470.844C495.456 471.273 495.054 471.675 494.55 472.048C494.046 472.421 493.486 472.72 492.87 472.944C492.254 473.168 491.62 473.28 490.966 473.28C489.641 473.28 488.456 472.953 487.41 472.3C486.365 471.628 485.534 470.723 484.918 469.584C484.321 468.427 484.022 467.111 484.022 465.636C484.022 464.161 484.321 462.855 484.918 461.716C485.516 460.559 486.328 459.653 487.354 459C488.4 458.328 489.576 457.992 490.882 457.992C491.61 457.992 492.301 458.113 492.954 458.356C493.626 458.599 494.224 458.916 494.746 459.308C495.288 459.7 495.708 460.139 496.006 460.624C496.324 461.091 496.482 461.567 496.482 462.052L495.642 462.108V458.272H498.526V479.16H495.642ZM491.274 470.62C492.152 470.62 492.926 470.405 493.598 469.976C494.27 469.547 494.793 468.959 495.166 468.212C495.558 467.465 495.754 466.607 495.754 465.636C495.754 464.665 495.558 463.807 495.166 463.06C494.793 462.295 494.27 461.697 493.598 461.268C492.926 460.839 492.152 460.624 491.274 460.624C490.397 460.624 489.622 460.848 488.95 461.296C488.278 461.725 487.746 462.323 487.354 463.088C486.981 463.835 486.794 464.684 486.794 465.636C486.794 466.588 486.981 467.447 487.354 468.212C487.746 468.959 488.278 469.547 488.95 469.976C489.622 470.405 490.397 470.62 491.274 470.62ZM507.707 473.28C506.662 473.28 505.747 473.037 504.963 472.552C504.198 472.067 503.6 471.385 503.171 470.508C502.76 469.631 502.555 468.585 502.555 467.372V458.3H505.439V466.588C505.439 467.447 505.57 468.193 505.831 468.828C506.111 469.444 506.503 469.92 507.007 470.256C507.53 470.592 508.155 470.76 508.883 470.76C509.424 470.76 509.919 470.676 510.367 470.508C510.815 470.321 511.198 470.069 511.515 469.752C511.851 469.435 512.112 469.052 512.299 468.604C512.486 468.156 512.579 467.671 512.579 467.148V458.3H515.463V473H512.579V469.92L513.083 469.584C512.859 470.275 512.476 470.9 511.935 471.46C511.412 472.02 510.787 472.468 510.059 472.804C509.331 473.121 508.547 473.28 507.707 473.28ZM519.984 473V458.3H522.868V473H519.984ZM521.384 455.052C520.768 455.052 520.292 454.893 519.956 454.576C519.62 454.259 519.452 453.811 519.452 453.232C519.452 452.691 519.62 452.252 519.956 451.916C520.311 451.58 520.787 451.412 521.384 451.412C522 451.412 522.476 451.571 522.812 451.888C523.148 452.205 523.316 452.653 523.316 453.232C523.316 453.773 523.139 454.212 522.784 454.548C522.448 454.884 521.982 455.052 521.384 455.052ZM527.301 473V458.3H530.213V462.92L529.933 461.8C530.138 461.091 530.484 460.447 530.969 459.868C531.473 459.289 532.042 458.832 532.677 458.496C533.33 458.16 534.002 457.992 534.693 457.992C535.01 457.992 535.309 458.02 535.589 458.076C535.888 458.132 536.121 458.197 536.289 458.272L535.533 461.408C535.309 461.315 535.057 461.24 534.777 461.184C534.516 461.109 534.254 461.072 533.993 461.072C533.489 461.072 533.004 461.175 532.537 461.38C532.089 461.567 531.688 461.837 531.333 462.192C530.997 462.528 530.726 462.929 530.521 463.396C530.316 463.844 530.213 464.339 530.213 464.88V473H527.301ZM544.825 473.28C543.313 473.28 541.969 472.963 540.793 472.328C539.636 471.675 538.721 470.788 538.049 469.668C537.396 468.548 537.069 467.26 537.069 465.804C537.069 464.647 537.256 463.592 537.629 462.64C538.003 461.688 538.516 460.867 539.169 460.176C539.841 459.467 540.635 458.925 541.549 458.552C542.483 458.16 543.491 457.964 544.573 457.964C545.525 457.964 546.412 458.151 547.233 458.524C548.055 458.879 548.764 459.373 549.361 460.008C549.977 460.643 550.444 461.399 550.761 462.276C551.097 463.135 551.256 464.077 551.237 465.104L551.209 466.336H539.197L538.553 464.04H548.717L548.297 464.516V463.844C548.241 463.228 548.036 462.677 547.681 462.192C547.327 461.707 546.879 461.324 546.337 461.044C545.796 460.764 545.208 460.624 544.573 460.624C543.565 460.624 542.716 460.82 542.025 461.212C541.335 461.585 540.812 462.145 540.457 462.892C540.103 463.62 539.925 464.525 539.925 465.608C539.925 466.635 540.14 467.531 540.569 468.296C540.999 469.043 541.605 469.621 542.389 470.032C543.173 470.443 544.079 470.648 545.105 470.648C545.833 470.648 546.505 470.527 547.121 470.284C547.756 470.041 548.437 469.603 549.165 468.968L550.621 471.012C550.173 471.46 549.623 471.852 548.969 472.188C548.335 472.524 547.653 472.795 546.925 473C546.216 473.187 545.516 473.28 544.825 473.28ZM560.503 473.28C559.159 473.28 557.955 472.953 556.891 472.3C555.846 471.628 555.015 470.723 554.399 469.584C553.783 468.427 553.475 467.111 553.475 465.636C553.475 464.161 553.774 462.855 554.371 461.716C554.987 460.559 555.818 459.653 556.863 459C557.909 458.328 559.094 457.992 560.419 457.992C561.147 457.992 561.847 458.113 562.519 458.356C563.21 458.58 563.826 458.897 564.367 459.308C564.909 459.7 565.329 460.139 565.627 460.624C565.945 461.091 566.103 461.567 566.103 462.052L565.263 462.108V452.28H568.147V473H565.263V469.5H565.823C565.823 469.948 565.674 470.396 565.375 470.844C565.077 471.273 564.675 471.675 564.171 472.048C563.686 472.421 563.117 472.72 562.463 472.944C561.829 473.168 561.175 473.28 560.503 473.28ZM560.895 470.788C561.773 470.788 562.547 470.564 563.219 470.116C563.891 469.668 564.414 469.061 564.787 468.296C565.179 467.512 565.375 466.625 565.375 465.636C565.375 464.647 565.179 463.769 564.787 463.004C564.414 462.22 563.891 461.604 563.219 461.156C562.547 460.708 561.773 460.484 560.895 460.484C560.018 460.484 559.243 460.708 558.571 461.156C557.899 461.604 557.367 462.22 556.975 463.004C556.602 463.769 556.415 464.647 556.415 465.636C556.415 466.625 556.602 467.512 556.975 468.296C557.367 469.061 557.899 469.668 558.571 470.116C559.243 470.564 560.018 470.788 560.895 470.788ZM332.672 505V485.4H335.696V502.088H344.88V505H332.672ZM355.019 505.28C353.507 505.28 352.163 504.963 350.987 504.328C349.829 503.675 348.915 502.788 348.243 501.668C347.589 500.548 347.263 499.26 347.263 497.804C347.263 496.647 347.449 495.592 347.823 494.64C348.196 493.688 348.709 492.867 349.363 492.176C350.035 491.467 350.828 490.925 351.743 490.552C352.676 490.16 353.684 489.964 354.767 489.964C355.719 489.964 356.605 490.151 357.427 490.524C358.248 490.879 358.957 491.373 359.555 492.008C360.171 492.643 360.637 493.399 360.955 494.276C361.291 495.135 361.449 496.077 361.431 497.104L361.403 498.336H349.391L348.747 496.04H358.911L358.491 496.516V495.844C358.435 495.228 358.229 494.677 357.875 494.192C357.52 493.707 357.072 493.324 356.531 493.044C355.989 492.764 355.401 492.624 354.767 492.624C353.759 492.624 352.909 492.82 352.219 493.212C351.528 493.585 351.005 494.145 350.651 494.892C350.296 495.62 350.119 496.525 350.119 497.608C350.119 498.635 350.333 499.531 350.763 500.296C351.192 501.043 351.799 501.621 352.583 502.032C353.367 502.443 354.272 502.648 355.299 502.648C356.027 502.648 356.699 502.527 357.315 502.284C357.949 502.041 358.631 501.603 359.359 500.968L360.815 503.012C360.367 503.46 359.816 503.852 359.163 504.188C358.528 504.524 357.847 504.795 357.119 505C356.409 505.187 355.709 505.28 355.019 505.28ZM366.161 505V488.648C366.161 487.808 366.347 487.061 366.721 486.408C367.094 485.755 367.607 485.241 368.261 484.868C368.914 484.495 369.67 484.308 370.529 484.308C371.126 484.308 371.686 484.42 372.209 484.644C372.731 484.868 373.151 485.167 373.469 485.54L372.489 487.752C372.246 487.528 371.975 487.351 371.677 487.22C371.397 487.071 371.126 486.996 370.865 486.996C370.473 486.996 370.137 487.061 369.857 487.192C369.595 487.304 369.399 487.491 369.269 487.752C369.138 487.995 369.073 488.293 369.073 488.648V505H367.617C367.374 505 367.131 505 366.889 505C366.646 505 366.403 505 366.161 505ZM363.809 493.212V490.552H372.545V493.212H363.809ZM377.459 505V486.548H380.343V505H377.459ZM374.407 493.1V490.3H383.759V493.1H374.407ZM408.317 505L405.769 502.284L405.321 501.78L400.477 496.376C400.01 495.853 399.562 495.321 399.133 494.78C398.703 494.22 398.321 493.669 397.985 493.128C397.667 492.587 397.406 492.064 397.201 491.56C397.014 491.037 396.921 490.552 396.921 490.104C396.921 489.152 397.163 488.303 397.649 487.556C398.153 486.791 398.834 486.193 399.693 485.764C400.57 485.335 401.578 485.12 402.717 485.12C403.557 485.12 404.341 485.279 405.069 485.596C405.797 485.895 406.422 486.324 406.945 486.884C407.486 487.425 407.878 488.06 408.121 488.788L405.937 490.188C405.582 489.329 405.143 488.704 404.621 488.312C404.117 487.92 403.482 487.724 402.717 487.724C402.138 487.724 401.653 487.817 401.261 488.004C400.869 488.172 400.57 488.424 400.365 488.76C400.159 489.096 400.057 489.516 400.057 490.02C400.057 490.431 400.169 490.888 400.393 491.392C400.635 491.877 400.934 492.372 401.289 492.876C401.643 493.38 402.007 493.847 402.381 494.276C402.754 494.705 403.081 495.079 403.361 495.396L407.253 499.736L408.065 500.632L412.069 505H408.317ZM400.785 505.28C399.459 505.28 398.255 505 397.173 504.44C396.09 503.861 395.222 503.105 394.569 502.172C393.934 501.22 393.617 500.184 393.617 499.064C393.617 497.589 394.018 496.311 394.821 495.228C395.642 494.145 396.837 493.315 398.405 492.736L400.197 494.892C399.002 495.153 398.115 495.592 397.537 496.208C396.958 496.805 396.669 497.617 396.669 498.644C396.669 499.428 396.855 500.119 397.229 500.716C397.602 501.313 398.134 501.78 398.825 502.116C399.534 502.452 400.374 502.62 401.345 502.62C402.185 502.62 402.95 502.461 403.641 502.144C404.35 501.808 404.985 501.341 405.545 500.744C406.105 500.147 406.562 499.428 406.917 498.588C407.29 497.748 407.561 496.815 407.729 495.788H410.305C410.155 496.927 409.885 497.981 409.493 498.952C409.119 499.923 408.643 500.8 408.065 501.584C407.505 502.368 406.851 503.04 406.105 503.6C405.377 504.141 404.565 504.561 403.669 504.86C402.773 505.14 401.811 505.28 400.785 505.28ZM423.508 505V485.4H431.852C432.972 485.4 433.998 485.68 434.932 486.24C435.884 486.781 436.64 487.528 437.2 488.48C437.76 489.413 438.04 490.468 438.04 491.644C438.04 492.708 437.76 493.697 437.2 494.612C436.64 495.527 435.893 496.264 434.96 496.824C434.026 497.365 432.99 497.636 431.852 497.636H426.532V505H423.508ZM435.156 505L430.172 496.152L433.28 495.452L438.824 505.028L435.156 505ZM426.532 494.724H432.132C432.673 494.724 433.158 494.593 433.588 494.332C434.017 494.052 434.353 493.679 434.596 493.212C434.838 492.727 434.96 492.195 434.96 491.616C434.96 490.963 434.801 490.393 434.484 489.908C434.185 489.404 433.756 489.012 433.196 488.732C432.654 488.452 432.038 488.312 431.348 488.312H426.532V494.724ZM442.724 505V490.3H445.608V505H442.724ZM444.124 487.052C443.508 487.052 443.032 486.893 442.696 486.576C442.36 486.259 442.192 485.811 442.192 485.232C442.192 484.691 442.36 484.252 442.696 483.916C443.051 483.58 443.527 483.412 444.124 483.412C444.74 483.412 445.216 483.571 445.552 483.888C445.888 484.205 446.056 484.653 446.056 485.232C446.056 485.773 445.879 486.212 445.524 486.548C445.188 486.884 444.722 487.052 444.124 487.052ZM456.621 511.44C455.576 511.44 454.531 511.272 453.485 510.936C452.459 510.619 451.628 510.199 450.993 509.676L452.057 507.436C452.431 507.716 452.869 507.959 453.373 508.164C453.877 508.388 454.409 508.556 454.969 508.668C455.529 508.799 456.08 508.864 456.621 508.864C457.648 508.864 458.507 508.696 459.197 508.36C459.888 508.024 460.411 507.529 460.765 506.876C461.12 506.223 461.297 505.411 461.297 504.44V501.612L461.605 501.808C461.512 502.387 461.204 502.947 460.681 503.488C460.177 504.011 459.543 504.44 458.777 504.776C458.012 505.112 457.228 505.28 456.425 505.28C455.025 505.28 453.775 504.953 452.673 504.3C451.591 503.628 450.732 502.723 450.097 501.584C449.463 500.427 449.145 499.111 449.145 497.636C449.145 496.161 449.453 494.855 450.069 493.716C450.704 492.559 451.563 491.653 452.645 491C453.747 490.328 454.979 489.992 456.341 489.992C456.901 489.992 457.443 490.067 457.965 490.216C458.488 490.347 458.973 490.543 459.421 490.804C459.869 491.047 460.271 491.317 460.625 491.616C460.98 491.915 461.269 492.232 461.493 492.568C461.717 492.904 461.857 493.221 461.913 493.52L461.297 493.744V490.3H464.181V504.104C464.181 505.28 464.004 506.316 463.649 507.212C463.313 508.127 462.819 508.892 462.165 509.508C461.512 510.143 460.719 510.619 459.785 510.936C458.852 511.272 457.797 511.44 456.621 511.44ZM456.733 502.62C457.648 502.62 458.46 502.405 459.169 501.976C459.879 501.547 460.429 500.959 460.821 500.212C461.213 499.465 461.409 498.607 461.409 497.636C461.409 496.665 461.204 495.807 460.793 495.06C460.401 494.295 459.851 493.697 459.141 493.268C458.451 492.839 457.648 492.624 456.733 492.624C455.837 492.624 455.035 492.848 454.325 493.296C453.635 493.725 453.084 494.323 452.673 495.088C452.281 495.835 452.085 496.684 452.085 497.636C452.085 498.588 452.281 499.447 452.673 500.212C453.084 500.959 453.635 501.547 454.325 501.976C455.035 502.405 455.837 502.62 456.733 502.62ZM468.225 505V484.28H471.109V493.324L470.605 493.66C470.792 493.007 471.156 492.409 471.697 491.868C472.238 491.308 472.882 490.86 473.629 490.524C474.376 490.169 475.141 489.992 475.925 489.992C477.045 489.992 477.978 490.216 478.725 490.664C479.472 491.093 480.032 491.756 480.405 492.652C480.778 493.548 480.965 494.677 480.965 496.04V505H478.081V496.236C478.081 495.396 477.969 494.705 477.745 494.164C477.521 493.604 477.176 493.203 476.709 492.96C476.242 492.699 475.664 492.587 474.973 492.624C474.413 492.624 473.9 492.717 473.433 492.904C472.966 493.072 472.556 493.315 472.201 493.632C471.865 493.949 471.594 494.323 471.389 494.752C471.202 495.163 471.109 495.611 471.109 496.096V505H469.681C469.438 505 469.196 505 468.953 505C468.71 505 468.468 505 468.225 505ZM486.697 505V486.548H489.581V505H486.697ZM483.645 493.1V490.3H492.997V493.1H483.645ZM496.799 505.28C496.183 505.28 495.707 505.103 495.371 504.748C495.035 504.375 494.867 503.852 494.867 503.18C494.867 502.564 495.045 502.06 495.399 501.668C495.754 501.276 496.221 501.08 496.799 501.08C497.415 501.08 497.891 501.267 498.227 501.64C498.563 501.995 498.731 502.508 498.731 503.18C498.731 503.796 498.554 504.3 498.199 504.692C497.845 505.084 497.378 505.28 496.799 505.28ZM496.799 494.22C496.183 494.22 495.707 494.043 495.371 493.688C495.035 493.315 494.867 492.792 494.867 492.12C494.867 491.504 495.045 491 495.399 490.608C495.754 490.216 496.221 490.02 496.799 490.02C497.415 490.02 497.891 490.207 498.227 490.58C498.563 490.935 498.731 491.448 498.731 492.12C498.731 492.736 498.554 493.24 498.199 493.632C497.845 494.024 497.378 494.22 496.799 494.22ZM514.854 505.28C513.473 505.28 512.269 504.963 511.242 504.328C510.234 503.693 509.282 502.629 508.386 501.136L510.738 499.652C511.205 500.343 511.662 500.912 512.11 501.36C512.577 501.789 513.053 502.107 513.538 502.312C514.024 502.517 514.537 502.62 515.078 502.62C515.732 502.62 516.338 502.461 516.898 502.144C517.458 501.808 517.906 501.351 518.242 500.772C518.578 500.193 518.746 499.54 518.746 498.812C518.746 498.084 518.616 497.468 518.354 496.964C518.093 496.441 517.71 496.049 517.206 495.788C516.702 495.508 516.105 495.368 515.414 495.368C515.097 495.368 514.761 495.405 514.406 495.48C514.07 495.536 513.706 495.629 513.314 495.76C512.922 495.872 512.493 496.021 512.026 496.208L511.186 493.996L517.234 487.332L517.822 488.2H509.478V485.4H520.706L521.266 486.52L514.854 493.632L514.154 492.904C514.304 492.829 514.546 492.764 514.882 492.708C515.237 492.633 515.526 492.596 515.75 492.596C516.572 492.596 517.337 492.755 518.046 493.072C518.774 493.371 519.4 493.8 519.922 494.36C520.464 494.901 520.884 495.545 521.182 496.292C521.5 497.02 521.658 497.804 521.658 498.644C521.658 499.913 521.35 501.052 520.734 502.06C520.137 503.049 519.325 503.833 518.298 504.412C517.272 504.991 516.124 505.28 514.854 505.28ZM530.57 505C529.6 505 528.694 504.832 527.854 504.496C527.033 504.141 526.314 503.656 525.698 503.04C525.101 502.424 524.625 501.696 524.27 500.856C523.934 500.016 523.766 499.092 523.766 498.084C523.766 497.58 523.832 497.02 523.962 496.404C524.112 495.769 524.326 495.079 524.606 494.332C524.905 493.585 525.26 492.801 525.67 491.98C526.081 491.14 526.557 490.272 527.098 489.376L529.646 485.064H532.586L532.698 485.344L529.618 490.524C529.058 491.476 528.554 492.381 528.106 493.24C527.677 494.099 527.313 494.911 527.014 495.676C526.716 496.423 526.492 497.104 526.342 497.72L525.67 494.836C526.025 494.257 526.408 493.753 526.818 493.324C527.229 492.876 527.668 492.503 528.134 492.204C528.62 491.905 529.124 491.681 529.646 491.532C530.169 491.383 530.71 491.308 531.27 491.308C532.353 491.308 533.342 491.607 534.238 492.204C535.153 492.783 535.881 493.557 536.422 494.528C536.982 495.499 537.262 496.563 537.262 497.72C537.262 499.12 536.973 500.371 536.394 501.472C535.834 502.555 535.05 503.413 534.042 504.048C533.034 504.683 531.877 505 530.57 505ZM530.57 502.2C531.298 502.2 531.942 502.032 532.502 501.696C533.081 501.341 533.529 500.856 533.846 500.24C534.182 499.605 534.35 498.887 534.35 498.084C534.35 497.393 534.182 496.749 533.846 496.152C533.51 495.536 533.062 495.041 532.502 494.668C531.942 494.295 531.317 494.108 530.626 494.108C529.861 494.108 529.18 494.285 528.582 494.64C527.985 494.995 527.518 495.471 527.182 496.068C526.846 496.665 526.678 497.328 526.678 498.056C526.678 498.84 526.846 499.549 527.182 500.184C527.518 500.8 527.976 501.295 528.554 501.668C529.133 502.023 529.805 502.2 530.57 502.2ZM540.248 511.16V490.3H543.16V493.66L542.712 493.408C542.824 492.848 543.142 492.316 543.664 491.812C544.187 491.289 544.822 490.869 545.568 490.552C546.334 490.216 547.118 490.048 547.92 490.048C549.246 490.048 550.422 490.375 551.448 491.028C552.475 491.681 553.287 492.577 553.884 493.716C554.482 494.855 554.78 496.161 554.78 497.636C554.78 499.092 554.482 500.399 553.884 501.556C553.306 502.695 552.503 503.6 551.476 504.272C550.45 504.925 549.292 505.252 548.004 505.252C547.146 505.252 546.315 505.084 545.512 504.748C544.71 504.393 544.028 503.945 543.468 503.404C542.908 502.863 542.563 502.303 542.432 501.724L543.16 501.332V511.16H540.248ZM547.528 502.592C548.387 502.592 549.152 502.377 549.824 501.948C550.496 501.519 551.028 500.931 551.42 500.184C551.812 499.437 552.008 498.588 552.008 497.636C552.008 496.684 551.812 495.844 551.42 495.116C551.047 494.369 550.524 493.781 549.852 493.352C549.18 492.923 548.406 492.708 547.528 492.708C546.651 492.708 545.876 492.923 545.204 493.352C544.532 493.763 544 494.341 543.608 495.088C543.216 495.835 543.02 496.684 543.02 497.636C543.02 498.588 543.216 499.437 543.608 500.184C544 500.931 544.532 501.519 545.204 501.948C545.876 502.377 546.651 502.592 547.528 502.592ZM567.138 505L562.378 498.812L561.958 498.28L555.77 490.3H559.41L564.086 496.404L564.562 497.02L570.666 505H567.138ZM555.798 505L561.594 497.44L563.302 499.484L559.214 505H555.798ZM564.73 497.888L563.134 495.872L566.746 490.3H570.162L564.73 497.888ZM324.638 537V520.312H319.15V517.4H333.318V520.312H327.662V537H324.638ZM340.138 537.28C338.7 537.28 337.412 536.953 336.274 536.3C335.154 535.628 334.267 534.723 333.614 533.584C332.96 532.427 332.634 531.111 332.634 529.636C332.634 528.161 332.96 526.855 333.614 525.716C334.267 524.559 335.154 523.653 336.274 523C337.412 522.328 338.7 521.992 340.138 521.992C341.556 521.992 342.826 522.328 343.946 523C345.084 523.653 345.98 524.559 346.634 525.716C347.287 526.855 347.614 528.161 347.614 529.636C347.614 531.111 347.287 532.427 346.634 533.584C345.98 534.723 345.084 535.628 343.946 536.3C342.826 536.953 341.556 537.28 340.138 537.28ZM340.138 534.648C341.015 534.648 341.799 534.433 342.49 534.004C343.18 533.556 343.722 532.959 344.114 532.212C344.506 531.447 344.692 530.588 344.674 529.636C344.692 528.665 344.506 527.807 344.114 527.06C343.722 526.295 343.18 525.697 342.49 525.268C341.799 524.839 341.015 524.624 340.138 524.624C339.26 524.624 338.467 524.848 337.758 525.296C337.067 525.725 336.526 526.323 336.134 527.088C335.742 527.835 335.555 528.684 335.574 529.636C335.555 530.588 335.742 531.447 336.134 532.212C336.526 532.959 337.067 533.556 337.758 534.004C338.467 534.433 339.26 534.648 340.138 534.648ZM350.756 543.16V522.3H353.668V525.66L353.22 525.408C353.332 524.848 353.65 524.316 354.172 523.812C354.695 523.289 355.33 522.869 356.076 522.552C356.842 522.216 357.626 522.048 358.428 522.048C359.754 522.048 360.93 522.375 361.956 523.028C362.983 523.681 363.795 524.577 364.392 525.716C364.99 526.855 365.288 528.161 365.288 529.636C365.288 531.092 364.99 532.399 364.392 533.556C363.814 534.695 363.011 535.6 361.984 536.272C360.958 536.925 359.8 537.252 358.512 537.252C357.654 537.252 356.823 537.084 356.02 536.748C355.218 536.393 354.536 535.945 353.976 535.404C353.416 534.863 353.071 534.303 352.94 533.724L353.668 533.332V543.16H350.756ZM358.036 534.592C358.895 534.592 359.66 534.377 360.332 533.948C361.004 533.519 361.536 532.931 361.928 532.184C362.32 531.437 362.516 530.588 362.516 529.636C362.516 528.684 362.32 527.844 361.928 527.116C361.555 526.369 361.032 525.781 360.36 525.352C359.688 524.923 358.914 524.708 358.036 524.708C357.159 524.708 356.384 524.923 355.712 525.352C355.04 525.763 354.508 526.341 354.116 527.088C353.724 527.835 353.528 528.684 353.528 529.636C353.528 530.588 353.724 531.437 354.116 532.184C354.508 532.931 355.04 533.519 355.712 533.948C356.384 534.377 357.159 534.592 358.036 534.592ZM390.352 537L387.804 534.284L387.356 533.78L382.512 528.376C382.045 527.853 381.597 527.321 381.168 526.78C380.739 526.22 380.356 525.669 380.02 525.128C379.703 524.587 379.441 524.064 379.236 523.56C379.049 523.037 378.956 522.552 378.956 522.104C378.956 521.152 379.199 520.303 379.684 519.556C380.188 518.791 380.869 518.193 381.728 517.764C382.605 517.335 383.613 517.12 384.752 517.12C385.592 517.12 386.376 517.279 387.104 517.596C387.832 517.895 388.457 518.324 388.98 518.884C389.521 519.425 389.913 520.06 390.156 520.788L387.972 522.188C387.617 521.329 387.179 520.704 386.656 520.312C386.152 519.92 385.517 519.724 384.752 519.724C384.173 519.724 383.688 519.817 383.296 520.004C382.904 520.172 382.605 520.424 382.4 520.76C382.195 521.096 382.092 521.516 382.092 522.02C382.092 522.431 382.204 522.888 382.428 523.392C382.671 523.877 382.969 524.372 383.324 524.876C383.679 525.38 384.043 525.847 384.416 526.276C384.789 526.705 385.116 527.079 385.396 527.396L389.288 531.736L390.1 532.632L394.104 537H390.352ZM382.82 537.28C381.495 537.28 380.291 537 379.208 536.44C378.125 535.861 377.257 535.105 376.604 534.172C375.969 533.22 375.652 532.184 375.652 531.064C375.652 529.589 376.053 528.311 376.856 527.228C377.677 526.145 378.872 525.315 380.44 524.736L382.232 526.892C381.037 527.153 380.151 527.592 379.572 528.208C378.993 528.805 378.704 529.617 378.704 530.644C378.704 531.428 378.891 532.119 379.264 532.716C379.637 533.313 380.169 533.78 380.86 534.116C381.569 534.452 382.409 534.62 383.38 534.62C384.22 534.62 384.985 534.461 385.676 534.144C386.385 533.808 387.02 533.341 387.58 532.744C388.14 532.147 388.597 531.428 388.952 530.588C389.325 529.748 389.596 528.815 389.764 527.788H392.34C392.191 528.927 391.92 529.981 391.528 530.952C391.155 531.923 390.679 532.8 390.1 533.584C389.54 534.368 388.887 535.04 388.14 535.6C387.412 536.141 386.6 536.561 385.704 536.86C384.808 537.14 383.847 537.28 382.82 537.28ZM405.543 537V517.4H413.719C414.969 517.4 416.024 517.587 416.883 517.96C417.741 518.333 418.385 518.893 418.815 519.64C419.263 520.368 419.487 521.264 419.487 522.328C419.487 523.392 419.188 524.297 418.591 525.044C418.012 525.791 417.2 526.304 416.155 526.584V526.024C417.032 526.211 417.797 526.547 418.451 527.032C419.104 527.499 419.608 528.087 419.963 528.796C420.336 529.505 420.523 530.317 420.523 531.232C420.523 532.165 420.373 532.996 420.075 533.724C419.795 534.433 419.365 535.031 418.787 535.516C418.227 536.001 417.545 536.375 416.743 536.636C415.94 536.879 415.025 537 413.999 537H405.543ZM408.567 534.088H413.831C414.596 534.088 415.24 533.976 415.763 533.752C416.304 533.528 416.715 533.201 416.995 532.772C417.293 532.324 417.443 531.792 417.443 531.176C417.443 530.597 417.284 530.103 416.967 529.692C416.668 529.281 416.239 528.973 415.679 528.768C415.119 528.544 414.456 528.432 413.691 528.432H408.567V534.088ZM408.567 525.52H413.551C414.111 525.52 414.605 525.408 415.035 525.184C415.483 524.96 415.828 524.652 416.071 524.26C416.332 523.868 416.463 523.42 416.463 522.916C416.463 522.076 416.183 521.432 415.623 520.984C415.063 520.536 414.26 520.312 413.215 520.312H408.567V525.52ZM430.454 537.28C429.017 537.28 427.729 536.953 426.59 536.3C425.47 535.628 424.583 534.723 423.93 533.584C423.277 532.427 422.95 531.111 422.95 529.636C422.95 528.161 423.277 526.855 423.93 525.716C424.583 524.559 425.47 523.653 426.59 523C427.729 522.328 429.017 521.992 430.454 521.992C431.873 521.992 433.142 522.328 434.262 523C435.401 523.653 436.297 524.559 436.95 525.716C437.603 526.855 437.93 528.161 437.93 529.636C437.93 531.111 437.603 532.427 436.95 533.584C436.297 534.723 435.401 535.628 434.262 536.3C433.142 536.953 431.873 537.28 430.454 537.28ZM430.454 534.648C431.331 534.648 432.115 534.433 432.806 534.004C433.497 533.556 434.038 532.959 434.43 532.212C434.822 531.447 435.009 530.588 434.99 529.636C435.009 528.665 434.822 527.807 434.43 527.06C434.038 526.295 433.497 525.697 432.806 525.268C432.115 524.839 431.331 524.624 430.454 524.624C429.577 524.624 428.783 524.848 428.074 525.296C427.383 525.725 426.842 526.323 426.45 527.088C426.058 527.835 425.871 528.684 425.89 529.636C425.871 530.588 426.058 531.447 426.45 532.212C426.842 532.959 427.383 533.556 428.074 534.004C428.783 534.433 429.577 534.648 430.454 534.648ZM442.893 537V518.548H445.777V537H442.893ZM439.841 525.1V522.3H449.193V525.1H439.841ZM453.639 537V518.548H456.523V537H453.639ZM450.587 525.1V522.3H459.939V525.1H450.587ZM469.036 537.28C467.599 537.28 466.311 536.953 465.172 536.3C464.052 535.628 463.165 534.723 462.512 533.584C461.859 532.427 461.532 531.111 461.532 529.636C461.532 528.161 461.859 526.855 462.512 525.716C463.165 524.559 464.052 523.653 465.172 523C466.311 522.328 467.599 521.992 469.036 521.992C470.455 521.992 471.724 522.328 472.844 523C473.983 523.653 474.879 524.559 475.532 525.716C476.185 526.855 476.512 528.161 476.512 529.636C476.512 531.111 476.185 532.427 475.532 533.584C474.879 534.723 473.983 535.628 472.844 536.3C471.724 536.953 470.455 537.28 469.036 537.28ZM469.036 534.648C469.913 534.648 470.697 534.433 471.388 534.004C472.079 533.556 472.62 532.959 473.012 532.212C473.404 531.447 473.591 530.588 473.572 529.636C473.591 528.665 473.404 527.807 473.012 527.06C472.62 526.295 472.079 525.697 471.388 525.268C470.697 524.839 469.913 524.624 469.036 524.624C468.159 524.624 467.365 524.848 466.656 525.296C465.965 525.725 465.424 526.323 465.032 527.088C464.64 527.835 464.453 528.684 464.472 529.636C464.453 530.588 464.64 531.447 465.032 532.212C465.424 532.959 465.965 533.556 466.656 534.004C467.365 534.433 468.159 534.648 469.036 534.648ZM479.599 537V522.3H482.511V525.436L481.979 525.772C482.128 525.287 482.361 524.82 482.679 524.372C483.015 523.924 483.416 523.532 483.883 523.196C484.368 522.841 484.881 522.561 485.423 522.356C485.983 522.151 486.552 522.048 487.131 522.048C487.971 522.048 488.708 522.188 489.343 522.468C489.977 522.748 490.5 523.168 490.911 523.728C491.321 524.288 491.62 524.988 491.807 525.828L491.359 525.716L491.555 525.24C491.76 524.811 492.04 524.409 492.395 524.036C492.768 523.644 493.188 523.299 493.655 523C494.121 522.701 494.616 522.468 495.139 522.3C495.661 522.132 496.175 522.048 496.679 522.048C497.78 522.048 498.685 522.272 499.395 522.72C500.123 523.168 500.664 523.849 501.019 524.764C501.392 525.679 501.579 526.817 501.579 528.18V537H498.667V528.348C498.667 527.508 498.555 526.827 498.331 526.304C498.125 525.763 497.808 525.361 497.379 525.1C496.949 524.839 496.399 524.708 495.727 524.708C495.204 524.708 494.709 524.801 494.243 524.988C493.795 525.156 493.403 525.399 493.067 525.716C492.731 526.033 492.469 526.407 492.283 526.836C492.096 527.247 492.003 527.704 492.003 528.208V537H489.091V528.292C489.091 527.527 488.979 526.883 488.755 526.36C488.531 525.819 488.204 525.408 487.775 525.128C487.345 524.848 486.823 524.708 486.207 524.708C485.684 524.708 485.199 524.801 484.751 524.988C484.303 525.156 483.911 525.399 483.575 525.716C483.239 526.015 482.977 526.379 482.791 526.808C482.604 527.219 482.511 527.667 482.511 528.152V537H479.599ZM506.616 537.28C506 537.28 505.524 537.103 505.188 536.748C504.852 536.375 504.684 535.852 504.684 535.18C504.684 534.564 504.861 534.06 505.216 533.668C505.57 533.276 506.037 533.08 506.616 533.08C507.232 533.08 507.708 533.267 508.044 533.64C508.38 533.995 508.548 534.508 508.548 535.18C508.548 535.796 508.37 536.3 508.016 536.692C507.661 537.084 507.194 537.28 506.616 537.28ZM506.616 526.22C506 526.22 505.524 526.043 505.188 525.688C504.852 525.315 504.684 524.792 504.684 524.12C504.684 523.504 504.861 523 505.216 522.608C505.57 522.216 506.037 522.02 506.616 522.02C507.232 522.02 507.708 522.207 508.044 522.58C508.38 522.935 508.548 523.448 508.548 524.12C508.548 524.736 508.37 525.24 508.016 525.632C507.661 526.024 507.194 526.22 506.616 526.22ZM520.247 537L519.323 534.704L525.315 527.956C525.632 527.62 525.959 527.237 526.295 526.808C526.649 526.36 526.985 525.903 527.303 525.436C527.62 524.969 527.872 524.512 528.059 524.064C528.264 523.597 528.367 523.159 528.367 522.748C528.367 522.151 528.245 521.647 528.003 521.236C527.779 520.807 527.443 520.48 526.995 520.256C526.565 520.032 526.043 519.92 525.427 519.92C524.885 519.92 524.353 520.079 523.831 520.396C523.308 520.713 522.832 521.161 522.403 521.74C521.973 522.319 521.637 522.991 521.395 523.756L519.071 522.3C519.388 521.217 519.864 520.293 520.499 519.528C521.152 518.744 521.927 518.147 522.823 517.736C523.737 517.325 524.727 517.12 525.791 517.12C526.892 517.12 527.872 517.353 528.731 517.82C529.589 518.268 530.261 518.903 530.747 519.724C531.232 520.527 531.475 521.46 531.475 522.524C531.475 522.953 531.428 523.392 531.335 523.84C531.241 524.288 531.092 524.755 530.887 525.24C530.681 525.707 530.42 526.201 530.103 526.724C529.785 527.228 529.403 527.76 528.955 528.32C528.525 528.88 528.031 529.468 527.471 530.084L523.019 534.928L522.459 534.088H532.091V537H520.247ZM541.466 537.28C539.973 537.28 538.685 536.869 537.602 536.048C536.538 535.227 535.717 534.069 535.138 532.576C534.56 531.064 534.27 529.272 534.27 527.2C534.27 525.128 534.56 523.345 535.138 521.852C535.717 520.34 536.538 519.173 537.602 518.352C538.685 517.531 539.973 517.12 541.466 517.12C542.96 517.12 544.248 517.531 545.33 518.352C546.413 519.173 547.244 520.34 547.822 521.852C548.401 523.345 548.69 525.128 548.69 527.2C548.69 529.272 548.401 531.064 547.822 532.576C547.244 534.069 546.413 535.227 545.33 536.048C544.248 536.869 542.96 537.28 541.466 537.28ZM541.466 534.536C542.829 534.536 543.884 533.901 544.63 532.632C545.377 531.344 545.75 529.533 545.75 527.2C545.75 524.867 545.377 523.065 544.63 521.796C543.884 520.508 542.829 519.864 541.466 519.864C540.104 519.864 539.049 520.508 538.302 521.796C537.556 523.065 537.182 524.867 537.182 527.2C537.182 529.533 537.556 531.344 538.302 532.632C539.049 533.901 540.104 534.536 541.466 534.536ZM552.006 543.16V522.3H554.918V525.66L554.47 525.408C554.582 524.848 554.9 524.316 555.422 523.812C555.945 523.289 556.58 522.869 557.326 522.552C558.092 522.216 558.876 522.048 559.678 522.048C561.004 522.048 562.18 522.375 563.206 523.028C564.233 523.681 565.045 524.577 565.642 525.716C566.24 526.855 566.538 528.161 566.538 529.636C566.538 531.092 566.24 532.399 565.642 533.556C565.064 534.695 564.261 535.6 563.234 536.272C562.208 536.925 561.05 537.252 559.762 537.252C558.904 537.252 558.073 537.084 557.27 536.748C556.468 536.393 555.786 535.945 555.226 535.404C554.666 534.863 554.321 534.303 554.19 533.724L554.918 533.332V543.16H552.006ZM559.286 534.592C560.145 534.592 560.91 534.377 561.582 533.948C562.254 533.519 562.786 532.931 563.178 532.184C563.57 531.437 563.766 530.588 563.766 529.636C563.766 528.684 563.57 527.844 563.178 527.116C562.805 526.369 562.282 525.781 561.61 525.352C560.938 524.923 560.164 524.708 559.286 524.708C558.409 524.708 557.634 524.923 556.962 525.352C556.29 525.763 555.758 526.341 555.366 527.088C554.974 527.835 554.778 528.684 554.778 529.636C554.778 530.588 554.974 531.437 555.366 532.184C555.758 532.931 556.29 533.519 556.962 533.948C557.634 534.377 558.409 534.592 559.286 534.592ZM578.895 537L574.135 530.812L573.715 530.28L567.527 522.3H571.167L575.843 528.404L576.319 529.02L582.423 537H578.895ZM567.555 537L573.351 529.44L575.059 531.484L570.971 537H567.555ZM576.487 529.888L574.891 527.872L578.503 522.3H581.919L576.487 529.888Z" fill="#3E2E33"/>
<defs>
<clipPath id="clip0_3120_1086">
<rect width="162.138" height="162.142" fill="white" transform="translate(1045.11 214.649)"/>
</clipPath>
<clipPath id="clip1_3120_1086">
<rect x="231" y="223.638" width="419.197" height="125.826" rx="25" fill="white"/>
</clipPath>
</defs>
</svg>
