<svg width="436" height="44" viewBox="0 0 436 44" fill="none" xmlns="http://www.w3.org/2000/svg">
<path d="M63.3268 34.1452V5.34805H77.8498C80.3723 5.34805 82.6365 5.71798 84.6393 6.45784C86.642 7.1977 88.3545 8.23414 89.78 9.56398C91.2055 10.8938 92.3026 12.4309 93.0711 14.1722C93.8397 15.9134 94.2224 17.7726 94.2224 19.7466C94.2224 21.7207 93.8365 23.6213 93.0711 25.3626C92.3026 27.1038 91.2055 28.6345 89.78 29.9484C88.3545 31.2655 86.6324 32.2924 84.6169 33.0323C82.6014 33.7721 80.3436 34.142 77.8498 34.142H63.3268V34.1452ZM72.2115 28.6728L70.6903 26.5744H77.6425C78.8479 26.5744 79.9258 26.3831 80.873 25.9972C81.8201 25.6145 82.6078 25.0979 83.2393 24.4537C83.8707 23.8095 84.3427 23.0824 84.6584 22.2724C84.9741 21.4624 85.1304 20.6204 85.1304 19.7435C85.1304 18.8665 84.9709 18.0214 84.6584 17.2145C84.3427 16.4045 83.8611 15.6774 83.2169 15.0332C82.5727 14.389 81.785 13.8756 80.8507 13.4897C79.9194 13.107 78.8479 12.9125 77.6425 12.9125H70.5659L72.2115 10.897V28.6696V28.6728Z" fill="black"/>
<path d="M114.954 34.5566C112.046 34.5566 109.53 34.0623 107.406 33.0769C105.279 32.0883 103.649 30.733 102.511 29.0045C101.372 27.276 100.805 25.3147 100.805 23.1207C100.805 21.4209 101.139 19.8646 101.812 18.4519C102.485 17.0391 103.416 15.8337 104.609 14.8323C105.802 13.831 107.186 13.056 108.764 12.5075C110.34 11.959 112.02 11.6847 113.803 11.6847C115.586 11.6847 117.333 11.9654 118.883 12.5266C120.433 13.0879 121.776 13.8788 122.914 14.8929C124.053 15.907 124.923 17.1157 125.526 18.5125C126.129 19.9125 126.403 21.4464 126.349 23.1207L126.307 24.9321H105.862L104.915 20.6141H119.684L118.902 21.7653V21.0255C118.874 20.4482 118.641 19.9508 118.204 19.5234C117.764 19.0993 117.18 18.7612 116.456 18.5157C115.729 18.2701 114.9 18.1457 113.969 18.1457C112.926 18.1457 111.979 18.3116 111.131 18.64C110.279 18.9685 109.616 19.4564 109.134 20.1006C108.653 20.7448 108.414 21.5357 108.414 22.4669C108.414 23.4555 108.707 24.3389 109.297 25.1202C109.887 25.9015 110.764 26.5266 111.931 26.9922C113.095 27.4578 114.489 27.6906 116.106 27.6906C117.585 27.6906 118.778 27.5471 119.684 27.2601C120.589 26.9731 121.301 26.6637 121.824 26.3352L125.485 31.5175C124.388 32.2573 123.268 32.8473 122.133 33.2874C120.995 33.7275 119.83 34.0496 118.638 34.2537C117.445 34.4578 116.217 34.563 114.954 34.563V34.5566Z" fill="black"/>
<path d="M135.648 34.1452V12.1344H143.382L143.876 20.0751L141.573 19.7052C141.956 18.1968 142.623 16.8382 143.57 15.6328C144.517 14.4273 145.64 13.4674 146.944 12.7531C148.245 12.0387 149.639 11.6847 151.118 11.6847C151.912 11.6847 152.681 11.7613 153.421 11.9111C154.161 12.061 154.821 12.2619 155.395 12.5075L153.092 21.641C152.652 21.3125 152.002 21.0382 151.137 20.8182C150.273 20.5981 149.39 20.4897 148.484 20.4897C147.716 20.4897 147.052 20.5981 146.488 20.8182C145.927 21.0382 145.458 21.3476 145.088 21.743C144.718 22.1416 144.444 22.5785 144.265 23.0601C144.086 23.5416 143.997 24.0678 143.997 24.645V34.1484H135.645L135.648 34.1452Z" fill="black"/>
<path d="M164.238 34.1452V12.1343H171.972L172.3 16.4938L170.9 15.7125C171.42 15.081 172.003 14.5198 172.648 14.0255C173.292 13.5312 173.984 13.107 174.724 12.7498C175.464 12.3927 176.267 12.1248 177.132 11.9462C177.996 11.7676 178.921 11.6783 179.909 11.6783C181.032 11.6783 182.097 11.8218 183.098 12.1088C184.1 12.3959 184.983 12.9316 185.752 13.7129C186.52 14.4943 187.152 15.5849 187.643 16.9849L185.914 16.8605L186.284 16.2833C186.804 15.569 187.41 14.9407 188.095 14.3922C188.781 13.8437 189.527 13.3621 190.337 12.9507C191.147 12.5394 192.024 12.2236 192.972 12.0036C193.919 11.7836 194.91 11.6751 195.953 11.6751C198.119 11.6751 199.895 12.0738 201.282 12.8678C202.666 13.6651 203.674 14.7462 204.305 16.1175C204.937 17.4888 205.253 19.0514 205.253 20.8086V34.1388H196.9V21.7143C196.9 21.1115 196.776 20.5694 196.531 20.0879C196.285 19.6095 195.921 19.2172 195.44 18.9143C194.958 18.6113 194.362 18.4614 193.651 18.4614C192.94 18.4614 192.334 18.5635 191.76 18.7708C191.182 18.9749 190.682 19.2587 190.258 19.6127C189.834 19.9699 189.502 20.3876 189.269 20.866C189.036 21.3475 188.918 21.8737 188.918 22.451V34.1357H180.566V21.7111C180.566 21.1084 180.429 20.5535 180.155 20.0464C179.88 19.5393 179.463 19.1471 178.901 18.8728C178.34 18.5986 177.607 18.4614 176.701 18.4614C176.098 18.4614 175.534 18.5794 175.014 18.8122C174.494 19.045 174.054 19.3416 173.697 19.6956C173.34 20.0528 173.065 20.4355 172.874 20.8469C172.683 21.2582 172.587 21.6282 172.587 21.9566V34.1325H164.235L164.238 34.1452Z" fill="black"/>
<path d="M225.165 34.5151C222.917 34.5151 220.949 34.0272 219.262 33.0545C217.575 32.0819 216.264 30.7457 215.333 29.0427C214.402 27.3429 213.933 25.3817 213.933 23.1589C213.933 20.9361 214.399 18.9206 215.333 17.1922C216.264 15.4637 217.569 14.1147 219.24 13.1389C220.911 12.1662 222.901 11.6783 225.206 11.6783C226.466 11.6783 227.621 11.8282 228.663 12.1311C229.706 12.4341 230.631 12.8295 231.441 13.3239C232.251 13.8182 232.937 14.3731 233.498 14.9885C234.059 15.6072 234.452 16.2036 234.672 16.7776L232.822 16.9849V12.1311H241.008V34.142H232.615V28.2997L234.385 28.794C234.219 29.5338 233.871 30.2482 233.335 30.9338C232.8 31.6195 232.136 32.2286 231.339 32.7643C230.542 33.3001 229.623 33.7242 228.584 34.04C227.541 34.3557 226.402 34.5119 225.168 34.5119L225.165 34.5151ZM227.468 27.7288C228.619 27.7288 229.591 27.5439 230.389 27.1739C231.183 26.804 231.789 26.2746 232.2 25.589C232.611 24.9033 232.819 24.0933 232.819 23.1621C232.819 22.1735 232.611 21.338 232.2 20.6523C231.789 19.9667 231.186 19.4373 230.389 19.0673C229.591 18.6974 228.619 18.5124 227.468 18.5124C226.316 18.5124 225.382 18.6974 224.588 19.0673C223.791 19.4373 223.181 19.9667 222.757 20.6523C222.333 21.338 222.119 22.1735 222.119 23.1621C222.119 24.0933 222.333 24.9033 222.757 25.589C223.181 26.2746 223.794 26.804 224.588 27.1739C225.382 27.5439 226.342 27.7288 227.468 27.7288Z" fill="black"/>
<path d="M252.068 34.1452V5.34805H260.953V34.1452H252.068ZM257.952 26.8232L255.072 20.1995L272.226 5.34805H282.718L257.952 26.8232ZM273.132 34.1452L261.817 20.0337L267.248 14.6856L283.416 34.1452H273.132Z" fill="black"/>
<path d="M290.821 34.1452V12.1344H298.555L298.966 17.4824L296.992 18.0596C297.295 16.8797 297.876 15.8114 298.74 14.8514C299.604 13.8915 300.707 13.123 302.05 12.5489C303.393 11.9717 304.888 11.6847 306.534 11.6847C308.454 11.6847 310.086 12.077 311.429 12.8583C312.772 13.6396 313.802 14.7239 314.513 16.1079C315.227 17.492 315.581 19.0897 315.581 20.9011V34.1484H307.229V22.384C307.229 21.5899 307.07 20.8979 306.757 20.3079C306.441 19.718 305.988 19.2587 305.398 18.9303C304.809 18.6018 304.116 18.4359 303.322 18.4359C302.637 18.4359 302.034 18.5539 301.511 18.7867C300.991 19.0195 300.551 19.3289 300.194 19.7116C299.837 20.0974 299.575 20.5088 299.413 20.9457C299.247 21.3858 299.167 21.8227 299.167 22.2628V34.1516H290.815L290.821 34.1452Z" fill="black"/>
<path d="M331.507 7.89929C330.028 7.89929 328.867 7.55488 328.031 6.86923C327.196 6.18358 326.778 5.21092 326.778 3.94805C326.778 2.7968 327.196 1.84965 328.031 1.10979C328.867 0.369931 330.028 0 331.507 0C332.987 0 334.148 0.344418 334.983 1.02688C335.819 1.71252 336.237 2.68838 336.237 3.94805C336.237 5.0993 335.813 6.04645 334.961 6.78631C334.11 7.52618 332.958 7.89611 331.504 7.89611L331.507 7.89929ZM327.311 34.1452V12.1344H335.663V34.1452H327.311Z" fill="black"/>
<path d="M359.727 43.6072C357.205 43.6072 354.905 43.3202 352.836 42.7429C350.766 42.1657 349.073 41.4673 347.755 40.6445L350.552 34.9266C351.184 35.2295 351.869 35.5293 352.609 35.8323C353.349 36.1352 354.178 36.3808 355.097 36.5721C356.015 36.7635 357.064 36.8591 358.244 36.8591C359.561 36.8591 360.678 36.6391 361.596 36.2022C362.514 35.7621 363.206 35.1179 363.672 34.2696C364.138 33.4181 364.37 32.3211 364.37 30.9785V28.5931L366.22 28.7589C365.975 29.6646 365.391 30.481 364.472 31.2081C363.554 31.9352 362.403 32.5029 361.016 32.9143C359.632 33.3257 358.117 33.5298 356.471 33.5298C354.306 33.5298 352.383 33.0992 350.712 32.235C349.037 31.3708 347.743 30.143 346.824 28.5548C345.906 26.9635 345.447 25.0979 345.447 22.9612C345.447 20.7129 345.925 18.7453 346.885 17.0583C347.845 15.3713 349.168 14.0542 350.855 13.1102C352.542 12.1631 354.497 11.6911 356.717 11.6911C357.431 11.6911 358.203 11.7517 359.042 11.8761C359.877 12.0004 360.706 12.1982 361.529 12.4724C362.352 12.7467 363.104 13.0847 363.79 13.4802C364.476 13.8788 365.043 14.3444 365.496 14.8802C365.949 15.4159 366.201 15.9963 366.258 16.6278L364.571 16.9977L365.024 12.1439H372.758V31.1093C372.758 33.1662 372.429 34.9776 371.769 36.5402C371.112 38.1029 370.184 39.4136 368.991 40.4692C367.799 41.5247 366.405 42.3124 364.817 42.8354C363.226 43.3552 361.526 43.6168 359.714 43.6168L359.727 43.6072ZM359.274 27.563C360.371 27.563 361.319 27.3845 362.113 27.0273C362.907 26.6701 363.519 26.1503 363.943 25.4646C364.367 24.779 364.581 23.969 364.581 23.0378C364.581 22.1066 364.374 21.2615 363.962 20.5886C363.551 19.9157 362.948 19.3959 362.151 19.0259C361.354 18.656 360.397 18.471 359.271 18.471C358.091 18.471 357.083 18.656 356.248 19.0259C355.412 19.3959 354.768 19.9189 354.315 20.5886C353.863 21.2615 353.636 22.0779 353.636 23.0378C353.636 23.9977 353.863 24.779 354.315 25.4646C354.768 26.1503 355.412 26.6733 356.248 27.0273C357.083 27.3845 358.091 27.563 359.271 27.563H359.274Z" fill="black"/>
<path d="M384.289 34.1452V3.70248H392.434V17.4824L390.377 18.2637C390.652 17.0009 391.242 15.8847 392.147 14.912C393.053 13.9394 394.185 13.158 395.54 12.5681C396.899 11.9781 398.372 11.6847 399.964 11.6847C401.938 11.6847 403.596 12.0833 404.942 12.8774C406.284 13.6747 407.308 14.7558 408.006 16.1271C408.705 17.4983 409.056 19.061 409.056 20.8182V34.1484H400.703V22.5052C400.703 21.6537 400.544 20.9298 400.231 20.3238C399.916 19.7211 399.469 19.2619 398.895 18.9462C398.318 18.6305 397.62 18.4583 396.797 18.4327C396.194 18.4327 395.63 18.5348 395.11 18.7421C394.59 18.9462 394.144 19.2364 393.774 19.6063C393.404 19.9762 393.123 20.4036 392.932 20.8819C392.74 21.3635 392.645 21.9184 392.645 22.5466V34.1484H384.293L384.289 34.1452Z" fill="black"/>
<path d="M417.363 19.1312V12.1376H436V19.1312H417.363ZM422.175 34.1452V5.88381H430.528V34.1452H422.175Z" fill="black"/>
<path d="M27.1151 7.71228C26.9674 7.73401 26.8197 7.77311 26.6763 7.82524C25.7465 8.18585 20.9892 9.48054 13.4035 2.05559C5.39634 -5.77776 5.33117 11.0012 8.22034 15.2545C8.50709 15.676 8.48971 16.2364 8.16821 16.6361C6.07844 19.2386 -0.238635 28.0625 5.80473 32.8025C12.9473 38.407 20.6329 37.7771 23.7089 40.7618C26.7849 43.7466 33.0238 40.7618 33.0238 40.7618C33.0238 40.7618 38.6935 38.4678 42.8817 38.4114C47.6087 38.3462 57.1929 27.2978 47.0743 18.6738C46.7311 18.3783 46.7354 17.8483 47.0917 17.5615C48.382 16.5275 50.8758 13.6557 51.2842 6.67392C51.8316 -2.72784 41.9954 -0.95958 35.7479 6.97804C35.5958 7.16921 35.4046 7.32561 35.1874 7.42988C34.3619 7.82524 32.1331 8.54645 28.0579 7.5776L27.1194 7.71663L27.1151 7.71228Z" fill="#644E57"/>
<path d="M38.5849 9.18509C38.498 9.07213 43.3466 16.4059 45.0062 16.3754C46.592 16.345 53.2523 2.84629 47.5392 2.67685C42.3169 2.52044 39.1888 10.4885 38.5849 9.18944V9.18509Z" fill="#81646F"/>
<path d="M17.3658 9.66736C17.4527 9.57612 12.4433 15.7107 11.0443 15.4892C9.7062 15.2763 5.77866 2.18158 10.6229 2.68555C15.0501 3.14608 16.6923 10.7839 17.3658 9.66736Z" fill="#81646F"/>
<path d="M52.4182 27.1588C53.1568 27.2978 53.7694 25.9206 53.9909 25.4079C53.5304 25.7728 51.2191 25.2341 51.962 25.1385C52.7701 25.0299 54.0648 23.3268 54.0648 23.3268L52.2183 23.9394C52.4182 23.6614 52.5485 23.4572 52.5485 23.4572L52.088 23.6396L52.6093 23.1357L51.1235 23.1878C51.1235 23.1878 52.8049 20.2204 51.8664 21.5151C51.5406 21.9626 50.8672 22.3406 50.1155 22.6447C50.5196 21.7628 51.1148 20.4159 50.4979 21.4369C49.6246 22.8837 46.0359 23.6657 45.9143 23.6657C45.7926 23.6657 41.3915 23.3051 39.4929 22.1885C37.5943 21.072 37.2337 22.0669 35.9955 21.7671C34.7616 21.4673 33.5234 20.3812 32.9195 21.0372C32.3156 21.6932 31.8334 18.4826 31.8334 18.4826C30.1433 21.0763 30.6647 26.2899 30.6647 26.2899L30.7038 26.8764C30.6864 28.8228 33.493 31.3513 35.1222 33.9234C36.7515 36.4954 36.1345 36.5649 34.5227 38.8067C32.9108 41.0442 30.2693 42.0782 30.2693 42.0782C32.711 41.6524 36.065 39.9493 38.9846 39.2499C42.1649 38.4852 40.553 38.6155 42.873 38.4027C45.4147 38.168 45.4016 37.777 46.8701 37.0645C47.487 36.7647 48.1604 35.9088 48.7296 35.0139C50.0721 33.8843 51.3885 31.4991 51.432 31.4209C51.4363 31.4165 51.4406 31.4122 51.4493 31.4078C51.6275 31.2905 53.6607 29.9393 53.2567 30.1435C52.8353 30.3608 50.928 29.444 51.9316 29.6048C52.9352 29.7656 53.8389 27.3108 53.5174 27.9886C53.1959 28.6664 51.4146 26.9633 52.4182 27.1544V27.1588Z" fill="#B39EA6"/>
<path d="M3.89744 21.0416C3.89744 21.0416 3.98054 21.046 4.11175 21.0416C3.98491 21.0372 3.89744 21.0416 3.89744 21.0416Z" fill="#B39EA6"/>
<path d="M25.6336 20.7505L23.8566 18.8519C23.8566 18.8519 23.8262 19.8468 23.8566 20.3899C23.887 20.933 21.415 20.6593 17.9479 21.2936C14.4809 21.9279 11.6482 20.8113 11.6482 20.8113L8.84596 19.2429C6.04368 17.6745 4.98794 19.2429 4.98794 19.2429C4.98794 19.2429 5.45282 19.3863 5.72653 19.7078C4.51438 19.673 4.01909 20.3117 4.01909 20.3117C4.01909 20.3117 4.77505 20.5159 4.91843 20.9808C4.6143 21.0329 4.31452 21.0459 4.11902 21.0459C4.33625 21.0546 4.67947 21.0807 4.94015 21.1676C4.94015 21.2067 4.93146 21.2414 4.92277 21.2805C4.7794 21.8193 3.62807 21.8801 3.14582 21.8801C3.45863 21.8931 4.03212 21.9366 4.24067 22.1147C3.58028 22.3059 2.85039 22.4232 2.85039 22.4232C2.85039 22.4232 3.4065 22.4796 3.97564 22.5796C3.30223 22.8794 1.87719 23.0792 1.87719 23.0792C1.87719 23.0792 3.74972 23.2443 4.13205 23.5137C3.2414 23.7743 2.09442 24.0046 2.09442 24.0046C2.09442 24.0046 2.62881 23.9872 3.26313 24.0046C2.35945 24.2436 1.12123 24.4565 1.12123 24.4565C1.12123 24.4565 3.40215 24.3913 4.11033 24.6476C3.03721 24.7215 1.61217 24.6998 1.61217 24.6998C1.61217 24.6998 2.25083 24.8475 2.67226 25.0386C1.69472 25.0734 0.638975 25.0604 0.638975 25.0604C0.638975 25.0604 1.68603 25.2732 1.98581 25.5035C1.31239 25.434 0.652009 25.321 1.13861 25.7729C0.395677 25.712 -0.421112 25.5643 0.247959 26.0596C1.24288 26.7939 2.20738 30.074 3.04155 30.8126C3.41084 31.1385 4.06688 31.7337 4.97925 32.3941C5.00097 32.368 5.01835 32.3463 5.04008 32.3202C6.21747 33.4194 8.12041 34.9531 10.6316 35.9089C14.1073 37.2296 22.4707 39.8885 22.4707 39.8885L19.903 36.0262L18.5214 31.4209L25.1774 27.0806C25.1774 27.0806 25.0601 25.421 25.3946 24.2175C25.7248 23.0097 25.6379 20.7505 25.6379 20.7505H25.6336Z" fill="#B39EA6"/>
<path d="M20.0029 36.0435L16.2492 36.2695C16.2492 36.2695 14.8459 36.3607 13.3122 35.0052C11.7742 33.6497 10.1928 29.1269 14.3071 28.901C14.3071 28.901 17.1094 25.1038 19.2339 24.3348C21.3585 23.5658 23.5742 22.2537 25.2469 25.9162C26.9196 29.5788 20.9066 33.0153 20.6372 35.3223C20.6372 35.3223 20.5547 36.0522 20.142 36.0566L20.0073 36.0435H20.0029Z" fill="#3C2F33"/>
<path d="M30.7124 26.8851C30.695 26.5115 30.6733 26.1378 30.808 25.7903C31.2338 24.6954 32.2591 22.2928 32.9586 22.4319C33.8623 22.6143 41.8042 26.2464 44.0678 31.0516C44.0678 31.0516 45.4711 32.4549 42.3777 34.6533C39.2887 36.8517 39.0324 37.1384 36.1693 35.8611C36.1693 35.8611 35.1613 34.158 34.6921 33.4933C34.2229 32.8285 32.4459 30.4781 31.7378 29.7395C31.2338 29.2138 30.7515 27.8583 30.7124 26.8851Z" fill="#3C2F33"/>
<path d="M25.6336 32.103C25.6336 32.103 27.1412 33.3716 25.8769 34.6228C24.6126 35.8741 22.6966 40.4837 28.1665 40.3491C28.1665 40.3491 34.5096 40.5924 31.7378 35.6482C31.7378 35.6482 29.7957 33.9885 30.5778 32.103C31.3598 30.2174 31.4727 28.7098 32.4199 30.5259C32.4199 30.5259 37.4336 35.8089 35.8391 37.1514C35.8391 37.1514 33.997 42.1781 28.8443 42.2911C23.6437 42.4041 21.9102 39.819 20.4809 36.8951C20.4809 36.8951 19.5946 35.331 22.9529 31.9552C22.9529 31.9552 23.9913 31.3861 24.3389 30.2608C24.6864 29.1356 25.2121 29.1356 25.3208 31.3036L25.6379 32.0986L25.6336 32.103Z" fill="#F3F0F2"/>
<path d="M23.9001 27.993C23.9001 27.993 22.184 23.3356 19.5815 26.2291C19.5815 26.2291 18.4954 30.5129 23.7524 28.1972L23.9001 27.993Z" fill="#171511"/>
<path d="M20.42 26.0118C20.42 26.0118 21.8624 24.7519 22.3968 26.5245L20.42 26.0118Z" fill="#E3E2DE"/>
<path d="M32.1592 27.9452C32.1592 27.9452 33.8406 23.2878 36.3865 26.1813C36.3865 26.1813 37.451 30.4651 32.3026 28.1494L32.1592 27.9452Z" fill="#171511"/>
<path d="M35.561 25.9641C35.561 25.9641 34.149 24.7041 33.6277 26.4767L35.561 25.9641Z" fill="#E3E2DE"/>
<path d="M24.6517 37.2383C24.6517 37.2383 24 40.0667 26.8457 40.2578C29.6915 40.449 31.3381 40.3925 32.0332 39.15C32.7283 37.9074 32.2591 36.9559 32.2591 36.9559C32.2591 36.9559 32.2287 35.809 31.3424 36.2869C30.4561 36.7648 26.8544 37.247 26.0333 36.717C25.6032 36.4389 25.3555 36.2651 25.134 36.4389C24.8124 36.6822 24.656 37.234 24.656 37.234L24.6517 37.2383Z" fill="#3C2F33"/>
<path d="M25.2599 37.0472C25.2599 37.0472 26.3895 38.9371 27.1238 38.1507C27.858 37.3643 25.8074 37.2209 25.4772 37.0472C25.147 36.8734 25.2643 37.0472 25.2643 37.0472H25.2599Z" fill="#050301"/>
<path d="M31.7117 37.0167C31.7117 37.0167 30.782 38.9067 30.1781 38.1203C29.5742 37.3339 31.2642 37.1905 31.5336 37.0167C31.803 36.843 31.7117 37.0167 31.7117 37.0167Z" fill="#050301"/>
</svg>
