<svg width="718" height="503" viewBox="0 0 718 503" fill="none" xmlns="http://www.w3.org/2000/svg">
<g clip-path="url(#clip0_3119_1664)">
<g clip-path="url(#clip1_3119_1664)">
<path d="M688.971 329.921C688.322 315.587 684.12 334.377 684.12 334.377C684.12 334.377 686.425 304.759 679.593 332.916C679.593 332.916 676.876 305.911 675.391 332.916C675.391 332.916 673.45 344.673 671.189 334.377C668.924 324.081 665.69 321.107 667.631 337.713C669.572 354.319 611.687 374.704 611.687 374.704L563.514 377.56L510.322 374.41C510.322 374.41 452.437 354.024 454.379 337.419C456.32 320.813 453.086 323.787 450.821 334.083C448.555 344.379 446.619 332.622 446.619 332.622C445.134 305.617 442.416 332.622 442.416 332.622C435.585 304.465 437.89 334.083 437.89 334.083C437.89 334.083 433.688 315.293 433.039 329.627C432.391 343.961 443.178 354.918 443.178 354.918C496.099 403.429 489.062 459.711 489.062 459.711L553.562 458.425L632.958 460.011C632.958 460.011 625.92 403.728 678.841 355.217C678.841 355.217 689.629 344.26 688.98 329.926L688.971 329.921Z" fill="#644E57"/>
<path d="M559.518 292.867C559.061 292.939 558.609 293.058 558.177 293.234C555.316 294.406 540.725 298.578 517.434 274.625C492.87 249.365 492.664 303.473 501.53 317.182C502.41 318.545 502.356 320.347 501.378 321.633C494.964 330.029 475.576 358.475 494.124 373.764C516.048 391.841 539.638 389.802 549.075 399.421C558.511 409.046 577.658 399.421 577.658 399.421C577.658 399.421 595.056 392.032 607.908 391.841C622.421 391.625 651.825 356.001 620.775 328.191C619.713 327.241 619.738 325.521 620.829 324.607C624.79 321.277 632.442 312.008 633.69 289.495C635.366 259.18 605.185 264.886 586.003 290.471C585.541 291.091 584.952 291.592 584.278 291.933C581.747 293.203 574.906 295.532 562.398 292.413L559.523 292.867H559.518Z" fill="#644E57"/>
<path d="M594.722 297.613C594.461 297.256 609.328 320.9 614.425 320.792C619.3 320.688 639.73 277.17 622.195 276.618C606.163 276.112 596.57 301.811 594.717 297.613H594.722Z" fill="#81646F"/>
<path d="M529.598 299.172C529.858 298.877 514.49 318.664 510.2 317.946C506.096 317.259 494.03 275.037 508.902 276.659C522.496 278.146 527.534 302.781 529.598 299.172Z" fill="#81646F"/>
<path d="M637.18 355.578C639.441 356.027 641.328 351.592 642.011 349.929C640.591 351.101 633.499 349.377 635.789 349.051C638.271 348.705 642.242 343.216 642.242 343.216L636.575 345.194C637.19 344.296 637.588 343.64 637.588 343.64L636.167 344.234L637.774 342.617L633.214 342.793C633.214 342.793 638.369 333.225 635.489 337.402C634.491 338.848 632.417 340.067 630.117 341.037C631.361 338.187 633.184 333.855 631.297 337.139C628.614 341.807 617.605 344.332 617.236 344.332C616.867 344.332 603.357 343.165 597.533 339.571C591.704 335.977 590.594 339.184 586.8 338.208C583.005 337.237 579.211 333.736 577.363 335.848C575.515 337.96 574.031 327.612 574.031 327.612C568.851 335.972 570.439 352.784 570.439 352.784L570.557 354.685C570.503 360.958 579.118 369.117 584.116 377.409C589.114 385.707 587.217 385.934 582.268 393.148C577.319 400.361 569.22 403.697 569.22 403.697C576.715 402.318 587.006 396.834 595.965 394.573C605.731 392.11 600.782 392.533 607.898 391.836C615.693 391.072 615.658 389.812 620.165 387.525C622.067 386.559 624.122 383.796 625.866 380.92C629.985 377.275 634.029 369.586 634.157 369.344C634.172 369.328 634.192 369.313 634.206 369.303C634.752 368.92 640.989 364.562 639.755 365.228C638.463 365.926 632.604 362.967 635.686 363.488C638.762 364.01 641.544 356.094 640.551 358.273C639.558 360.452 634.098 354.969 637.175 355.578H637.18Z" fill="#B39EA6"/>
<path d="M488.265 335.853C488.265 335.853 488.516 335.869 488.914 335.864C488.526 335.848 488.265 335.853 488.265 335.853Z" fill="#B39EA6"/>
<path d="M554.967 334.908L549.512 328.784C549.512 328.784 549.419 331.991 549.512 333.741C549.605 335.492 542.017 334.614 531.382 336.659C520.746 338.703 512.047 335.105 512.047 335.105L503.442 330.049C494.836 324.994 491.602 330.049 491.602 330.049C491.602 330.049 493.033 330.514 493.863 331.547C490.138 331.433 488.619 333.499 488.619 333.499C488.619 333.499 490.944 334.154 491.381 335.657C490.452 335.833 489.524 335.869 488.924 335.874C489.592 335.9 490.649 335.993 491.45 336.266C491.44 336.385 491.426 336.509 491.396 336.638C490.959 338.373 487.42 338.564 485.941 338.569C486.904 338.605 488.659 338.75 489.307 339.318C487.278 339.938 485.041 340.314 485.041 340.314C485.041 340.314 486.752 340.495 488.501 340.821C486.437 341.786 482.058 342.432 482.058 342.432C482.058 342.432 487.808 342.963 488.978 343.831C486.241 344.673 482.731 345.411 482.731 345.411C482.731 345.411 484.378 345.354 486.319 345.406C483.542 346.175 479.743 346.867 479.743 346.867C479.743 346.867 486.747 346.666 488.919 347.476C485.626 347.714 481.252 347.642 481.252 347.642C481.252 347.642 483.213 348.122 484.511 348.736C481.508 348.855 478.264 348.808 478.264 348.808C478.264 348.808 481.478 349.495 482.402 350.234C480.338 350.006 478.313 349.645 479.797 351.101C477.512 350.905 475.011 350.43 477.06 352.025C480.112 354.395 483.076 364.97 485.636 367.356C486.766 368.409 488.777 370.325 491.588 372.452C491.652 372.37 491.711 372.292 491.774 372.21C495.387 375.752 501.225 380.698 508.936 383.776C519.601 388.036 545.28 396.612 545.28 396.612L537.397 384.158L533.151 369.313L553.581 355.315C553.581 355.315 553.223 349.97 554.24 346.082C555.257 342.194 554.982 334.903 554.982 334.903L554.967 334.908Z" fill="#B39EA6"/>
<path d="M537.687 384.215L526.167 384.943C526.167 384.943 521.867 385.232 517.149 380.858C512.431 376.485 507.575 361.903 520.201 361.175C520.201 361.175 528.806 348.927 535.328 346.449C541.85 343.97 548.652 339.741 553.783 351.55C558.914 363.359 540.459 374.44 539.629 381.876C539.629 381.876 539.368 384.225 538.1 384.246L537.682 384.21L537.687 384.215Z" fill="#3C2F33"/>
<path d="M570.561 354.69C570.512 353.482 570.439 352.284 570.856 351.158C572.169 347.627 575.314 339.876 577.462 340.325C580.238 340.909 604.615 352.62 611.55 368.126C611.55 368.126 615.85 372.644 606.37 379.738C596.889 386.833 596.103 387.757 587.311 383.627C587.311 383.627 584.21 378.133 582.779 375.995C581.349 373.857 575.889 366.277 573.712 363.892C572.169 362.203 570.684 357.825 570.561 354.685V354.69Z" fill="#3C2F33"/>
<path d="M554.977 371.517C554.977 371.517 559.602 375.607 555.719 379.64C551.837 383.672 545.959 398.543 562.752 398.104C562.752 398.104 582.224 398.884 573.717 382.944C573.717 382.944 567.75 377.585 570.154 371.517C572.557 365.45 572.906 360.576 575.805 366.437C575.805 366.437 591.198 383.476 586.293 387.803C586.293 387.803 580.632 404.011 564.831 404.373C548.873 404.739 543.555 396.4 539.157 386.977C539.157 386.977 536.434 381.937 546.745 371.048C546.745 371.048 549.935 369.214 550.996 365.579C552.058 361.944 553.68 361.949 554.004 368.946L554.977 371.517Z" fill="#F3F0F2"/>
<path d="M549.645 358.268C549.645 358.268 544.371 343.252 536.395 352.583C536.395 352.583 533.063 366.395 549.197 358.924L549.65 358.268H549.645Z" fill="#171511"/>
<path d="M538.975 351.87C538.975 351.87 543.398 347.807 545.04 353.523L538.975 351.87Z" fill="#E3E2DE"/>
<path d="M574.995 358.114C574.995 358.114 580.155 343.098 587.969 352.429C587.969 352.429 591.228 366.241 575.437 358.769L574.995 358.114Z" fill="#171511"/>
<path d="M585.443 351.716C585.443 351.716 581.113 347.652 579.506 353.368L585.443 351.716Z" fill="#E3E2DE"/>
<path d="M551.955 388.067C551.955 388.067 549.954 397.196 558.688 397.81C567.421 398.425 572.478 398.249 574.606 394.237C576.734 390.23 575.294 387.163 575.294 387.163C575.294 387.163 575.201 383.471 572.483 385.01C569.77 386.554 558.702 388.108 556.191 386.399C554.864 385.495 554.107 384.948 553.424 385.495C552.441 386.28 551.955 388.067 551.955 388.067Z" fill="#3C2F33"/>
<path d="M553.827 387.458C553.827 387.458 557.302 393.556 559.543 391.015C561.784 388.475 555.498 388.015 554.486 387.458C553.473 386.9 553.827 387.458 553.827 387.458Z" fill="#050301"/>
<path d="M573.633 387.365C573.633 387.365 570.773 393.463 568.93 390.923C567.087 388.382 572.257 387.923 573.093 387.365C573.928 386.807 573.633 387.365 573.633 387.365Z" fill="#050301"/>
<rect width="221" height="13" rx="6.5" transform="matrix(1 0 0 -1 453 460)" fill="#B39EA6"/>
</g>
<path d="M38 224.221V203.794H48.3013C50.0887 203.794 51.6937 204.057 53.1163 204.582C54.5389 205.107 55.75 205.844 56.764 206.785C57.7781 207.726 58.5514 208.821 59.0986 210.053C59.6458 211.286 59.9157 212.607 59.9157 214.008C59.9157 215.408 59.6458 216.758 59.0986 217.991C58.5514 219.224 57.7781 220.311 56.764 221.245C55.75 222.179 54.5316 222.908 53.1017 223.433C51.6718 223.959 50.0741 224.221 48.3013 224.221H38ZM44.3033 220.34L43.2236 218.852H48.1553C49.0089 218.852 49.7749 218.713 50.4461 218.443C51.1173 218.173 51.6791 217.809 52.1241 217.349C52.5691 216.889 52.9047 216.379 53.1309 215.802C53.357 215.226 53.4665 214.628 53.4665 214.008C53.4665 213.388 53.357 212.789 53.1309 212.213C52.9047 211.637 52.5691 211.126 52.1095 210.666C51.6499 210.207 51.0954 209.842 50.4315 209.572C49.7677 209.302 49.0089 209.163 48.1553 209.163H43.136L44.3033 207.734V220.34Z" fill="black"/>
<path d="M74.6234 224.513C72.5588 224.513 70.7787 224.163 69.2685 223.463C67.7583 222.762 66.6056 221.799 65.7958 220.574C64.986 219.348 64.5848 217.955 64.5848 216.401C64.5848 215.197 64.8255 214.088 65.2997 213.089C65.7739 212.089 66.4378 211.228 67.2841 210.521C68.1304 209.813 69.1153 209.258 70.2315 208.872C71.3477 208.485 72.5442 208.288 73.8063 208.288C75.0684 208.288 76.3087 208.485 77.4103 208.886C78.5119 209.288 79.4603 209.842 80.2701 210.564C81.0799 211.287 81.6927 212.14 82.1232 213.132C82.5536 214.124 82.7433 215.212 82.7068 216.401L82.6776 217.685H68.1742L67.503 214.621H77.9793L77.4249 215.438V214.912C77.403 214.504 77.2425 214.146 76.9288 213.847C76.6151 213.548 76.2065 213.307 75.6885 213.132C75.1706 212.957 74.5869 212.87 73.923 212.87C73.1862 212.87 72.515 212.986 71.9095 213.22C71.3039 213.453 70.837 213.796 70.4941 214.256C70.1513 214.715 69.9835 215.27 69.9835 215.934C69.9835 216.634 70.195 217.262 70.6109 217.816C71.0267 218.37 71.6541 218.815 72.4785 219.144C73.3029 219.472 74.2951 219.64 75.4405 219.64C76.491 219.64 77.3373 219.538 77.9793 219.333C78.6213 219.129 79.1247 218.91 79.4968 218.677L82.094 222.354C81.3134 222.879 80.5255 223.295 79.7157 223.609C78.9059 223.922 78.0815 224.149 77.2352 224.294C76.3889 224.44 75.5207 224.513 74.6234 224.513Z" fill="black"/>
<path d="M89.3019 224.221V208.609H94.7882L95.1383 214.241L93.5042 213.979C93.7741 212.906 94.2483 211.943 94.9195 211.09C95.5907 210.236 96.3859 209.55 97.3124 209.047C98.2389 208.543 99.2238 208.288 100.274 208.288C100.836 208.288 101.383 208.339 101.909 208.449C102.434 208.558 102.901 208.697 103.309 208.872L101.675 215.35C101.361 215.117 100.902 214.92 100.289 214.766C99.6762 214.613 99.0487 214.533 98.4067 214.533C97.8596 214.533 97.3927 214.613 96.9914 214.766C96.5902 214.92 96.2619 215.139 95.9992 215.423C95.7366 215.708 95.5396 216.014 95.4156 216.357C95.2916 216.7 95.2259 217.072 95.2259 217.48V224.221H89.3019Z" fill="black"/>
<path d="M109.583 224.221V208.609H115.07L115.303 211.702L114.311 211.148C114.683 210.703 115.092 210.302 115.551 209.951C116.011 209.601 116.5 209.302 117.025 209.047C117.55 208.791 118.119 208.602 118.732 208.478C119.345 208.354 120.001 208.288 120.702 208.288C121.497 208.288 122.256 208.39 122.963 208.594C123.671 208.799 124.299 209.178 124.846 209.733C125.393 210.287 125.838 211.06 126.188 212.053L124.962 211.965L125.225 211.556C125.597 211.053 126.02 210.601 126.509 210.214C126.998 209.827 127.523 209.485 128.099 209.193C128.676 208.901 129.296 208.675 129.967 208.522C130.638 208.368 131.346 208.288 132.083 208.288C133.622 208.288 134.877 208.573 135.862 209.134C136.847 209.696 137.562 210.469 138.007 211.44C138.452 212.41 138.678 213.519 138.678 214.766V224.221H132.754V215.408C132.754 214.978 132.666 214.599 132.491 214.256C132.316 213.913 132.061 213.636 131.718 213.424C131.375 213.213 130.952 213.103 130.449 213.103C129.945 213.103 129.515 213.176 129.106 213.322C128.698 213.468 128.34 213.665 128.041 213.92C127.742 214.176 127.509 214.467 127.341 214.81C127.173 215.153 127.093 215.525 127.093 215.934V224.221H121.169V215.408C121.169 214.978 121.074 214.584 120.877 214.227C120.68 213.869 120.388 213.592 119.987 213.395C119.586 213.198 119.068 213.103 118.426 213.103C117.995 213.103 117.601 213.183 117.229 213.351C116.857 213.519 116.551 213.723 116.295 213.979C116.04 214.234 115.85 214.504 115.712 214.796C115.573 215.087 115.507 215.35 115.507 215.584V224.221H109.583Z" fill="black"/>
<path d="M152.802 224.484C151.204 224.484 149.811 224.141 148.614 223.448C147.418 222.755 146.491 221.807 145.828 220.603C145.164 219.399 144.835 218.006 144.835 216.43C144.835 214.854 145.164 213.424 145.828 212.198C146.491 210.973 147.411 210.017 148.6 209.324C149.789 208.631 151.197 208.288 152.831 208.288C153.729 208.288 154.546 208.398 155.283 208.609C156.019 208.821 156.676 209.105 157.252 209.455C157.829 209.806 158.31 210.2 158.711 210.637C159.113 211.075 159.39 211.498 159.543 211.907L158.23 212.053V208.609H164.037V224.221H158.084V220.078L159.339 220.428C159.222 220.953 158.974 221.456 158.595 221.945C158.215 222.434 157.741 222.865 157.179 223.244C156.618 223.623 155.961 223.922 155.224 224.149C154.487 224.375 153.678 224.484 152.802 224.484ZM154.436 219.669C155.253 219.669 155.946 219.538 156.508 219.275C157.07 219.012 157.5 218.64 157.792 218.152C158.084 217.663 158.23 217.094 158.23 216.43C158.23 215.73 158.084 215.139 157.792 214.65C157.5 214.161 157.07 213.789 156.508 213.526C155.946 213.264 155.253 213.132 154.436 213.132C153.619 213.132 152.955 213.264 152.394 213.526C151.832 213.789 151.394 214.161 151.095 214.65C150.796 215.139 150.643 215.73 150.643 216.43C150.643 217.094 150.796 217.663 151.095 218.152C151.394 218.64 151.832 219.012 152.394 219.275C152.955 219.538 153.641 219.669 154.436 219.669Z" fill="black"/>
<path d="M171.887 224.221V203.794H178.19V224.221H171.887ZM176.06 219.027L174.017 214.329L186.186 203.794H193.628L176.06 219.027ZM186.828 224.221L178.803 214.212L182.655 210.418L194.124 224.221H186.828Z" fill="black"/>
<path d="M199.377 224.221V208.609H204.863L205.155 212.403L203.754 212.811C203.965 211.972 204.381 211.214 204.994 210.535C205.607 209.857 206.388 209.309 207.343 208.901C208.299 208.492 209.357 208.288 210.524 208.288C211.888 208.288 213.041 208.565 213.997 209.12C214.953 209.674 215.682 210.44 216.185 211.425C216.689 212.41 216.944 213.541 216.944 214.825V224.221H211.02V215.875C211.02 215.314 210.911 214.818 210.685 214.402C210.458 213.986 210.137 213.658 209.722 213.424C209.306 213.191 208.81 213.074 208.248 213.074C207.759 213.074 207.336 213.154 206.964 213.322C206.592 213.49 206.285 213.709 206.03 213.979C205.775 214.249 205.592 214.54 205.476 214.854C205.359 215.168 205.301 215.474 205.301 215.788V224.221H199.377Z" fill="black"/>
<path d="M228.238 205.603C227.187 205.603 226.363 205.362 225.772 204.873C225.181 204.385 224.882 203.699 224.882 202.801C224.882 201.984 225.181 201.313 225.772 200.788C226.363 200.263 227.187 200 228.238 200C229.288 200 230.113 200.241 230.704 200.73C231.294 201.218 231.594 201.904 231.594 202.801C231.594 203.619 231.294 204.29 230.689 204.815C230.083 205.34 229.266 205.603 228.238 205.603ZM225.261 224.221V208.609H231.185V224.221H225.261Z" fill="black"/>
<path d="M248.257 230.933C246.469 230.933 244.835 230.729 243.369 230.321C241.902 229.912 240.698 229.416 239.765 228.832L241.749 224.776C242.194 224.987 242.683 225.206 243.208 225.418C243.733 225.63 244.324 225.805 244.974 225.943C245.623 226.082 246.367 226.147 247.206 226.147C248.14 226.147 248.935 225.994 249.584 225.681C250.234 225.367 250.73 224.915 251.058 224.309C251.386 223.703 251.554 222.93 251.554 221.974V220.282L252.867 220.399C252.692 221.041 252.276 221.617 251.627 222.135C250.978 222.653 250.161 223.054 249.176 223.346C248.191 223.638 247.118 223.784 245.951 223.784C244.412 223.784 243.055 223.477 241.866 222.865C240.676 222.252 239.757 221.384 239.108 220.253C238.459 219.122 238.13 217.801 238.13 216.284C238.13 214.686 238.473 213.293 239.152 212.096C239.83 210.9 240.771 209.966 241.968 209.295C243.164 208.624 244.55 208.288 246.126 208.288C246.63 208.288 247.184 208.332 247.775 208.419C248.366 208.507 248.957 208.646 249.541 208.843C250.124 209.04 250.657 209.273 251.146 209.557C251.634 209.842 252.036 210.17 252.357 210.55C252.678 210.929 252.86 211.345 252.896 211.79L251.7 212.053L252.021 208.609H257.507V222.062C257.507 223.521 257.274 224.805 256.807 225.914C256.34 227.023 255.683 227.949 254.837 228.701C253.991 229.452 253.006 230.007 251.875 230.379C250.744 230.751 249.541 230.933 248.257 230.933ZM247.936 219.552C248.716 219.552 249.387 219.428 249.949 219.173C250.511 218.918 250.949 218.553 251.248 218.064C251.547 217.575 251.7 217.006 251.7 216.342C251.7 215.678 251.554 215.08 251.262 214.606C250.97 214.132 250.54 213.76 249.978 213.497C249.417 213.234 248.731 213.103 247.936 213.103C247.097 213.103 246.382 213.234 245.791 213.497C245.2 213.76 244.74 214.132 244.419 214.606C244.098 215.08 243.938 215.664 243.938 216.342C243.938 217.021 244.098 217.575 244.419 218.064C244.74 218.553 245.2 218.918 245.791 219.173C246.382 219.428 247.097 219.552 247.936 219.552Z" fill="black"/>
<path d="M265.678 224.221V202.626H271.456V212.402L269.997 212.956C270.194 212.059 270.61 211.271 271.252 210.578C271.894 209.885 272.696 209.331 273.659 208.915C274.622 208.499 275.666 208.287 276.797 208.287C278.197 208.287 279.372 208.572 280.328 209.134C281.283 209.695 282.006 210.469 282.502 211.439C282.998 212.409 283.246 213.518 283.246 214.766V224.221H277.322V215.962C277.322 215.357 277.212 214.846 276.986 214.416C276.76 213.985 276.446 213.664 276.038 213.438C275.629 213.212 275.133 213.095 274.55 213.073C274.119 213.073 273.725 213.146 273.353 213.292C272.981 213.438 272.667 213.642 272.405 213.905C272.142 214.167 271.945 214.467 271.806 214.809C271.668 215.152 271.602 215.546 271.602 215.991V224.221H265.678Z" fill="black"/>
<path d="M289.141 213.569V208.609H302.36V213.569H289.141ZM292.555 224.221V204.173H298.479V224.221H292.555Z" fill="black"/>
<path d="M281.47 77.4C280.88 65.04 277.07 81.24 277.07 81.24C277.07 81.24 279.16 55.7 272.97 79.98C272.97 79.98 270.51 56.69 269.16 79.98C269.16 79.98 267.4 90.12 265.35 81.24C263.3 72.36 260.37 69.8 262.13 84.12C263.89 98.44 211.44 116.02 211.44 116.02L167.79 118.48L119.59 115.76C119.59 115.76 67.14 98.18 68.9 83.86C70.66 69.54 67.73 72.1 65.68 80.98C63.63 89.86 61.87 79.72 61.87 79.72C60.53 56.43 58.06 79.72 58.06 79.72C51.87 55.44 53.96 80.98 53.96 80.98C53.96 80.98 50.15 64.77 49.56 77.14C48.97 89.5 58.75 98.9499 58.75 98.9499C106.7 140.79 100.32 189.33 100.32 189.33L158.77 188.22L230.71 189.59C230.71 189.59 224.33 141.05 272.28 99.21C272.28 99.21 282.05 89.76 281.47 77.4Z" fill="#644E57"/>
<path d="M165.74 45.4496C165.32 45.5096 164.91 45.6096 164.52 45.7696C161.93 46.7796 148.71 50.3796 127.6 29.7196C105.34 7.93964 105.16 54.5996 113.19 66.4196C113.99 67.5996 113.94 69.1496 113.05 70.2596C107.24 77.4996 89.67 102.03 106.48 115.22C126.35 130.81 147.72 129.05 156.27 137.35C164.82 145.65 182.17 137.35 182.17 137.35C182.17 137.35 197.93 130.98 209.58 130.81C222.73 130.63 249.38 99.8996 221.24 75.9096C220.28 75.0896 220.3 73.6096 221.29 72.8196C224.88 69.9496 231.82 61.9496 232.94 42.5396C234.46 16.3996 207.11 21.3096 189.73 43.3796C189.31 43.9096 188.78 44.3496 188.17 44.6396C185.88 45.7396 179.68 47.7396 168.34 45.0496L165.74 45.4396V45.4496Z" fill="#644E57"/>
<path d="M197.64 49.5393C197.4 49.2293 210.88 69.6193 215.5 69.5293C219.92 69.4393 238.43 31.9093 222.54 31.4293C208.02 30.9893 199.32 53.1593 197.64 49.5393Z" fill="#81646F"/>
<path d="M138.63 50.8793C138.87 50.6193 124.94 67.6893 121.05 67.0693C117.33 66.4793 106.4 30.0593 119.87 31.4593C132.19 32.7393 136.75 53.9893 138.62 50.8793H138.63Z" fill="#81646F"/>
<path d="M236.11 99.5299C238.16 99.9199 239.87 96.0899 240.49 94.6599C239.2 95.6699 232.78 94.1799 234.85 93.9099C237.1 93.6099 240.7 88.8799 240.7 88.8799L235.57 90.5899C236.13 89.8199 236.49 89.2499 236.49 89.2499L235.2 89.7599L236.65 88.3599L232.52 88.5099C232.52 88.5099 237.19 80.2599 234.58 83.8599C233.68 85.1099 231.8 86.1599 229.71 86.9999C230.84 84.5399 232.49 80.7999 230.78 83.6399C228.35 87.6599 218.37 89.8399 218.04 89.8399C217.71 89.8399 205.47 88.8299 200.19 85.7299C194.91 82.6299 193.9 85.3899 190.47 84.5599C187.03 83.7199 183.6 80.6999 181.92 82.5199C180.24 84.3399 178.9 75.4199 178.9 75.4199C174.21 82.6299 175.65 97.1299 175.65 97.1299L175.76 98.7699C175.71 104.18 183.52 111.22 188.05 118.37C192.58 125.52 190.86 125.72 186.38 131.95C181.9 138.17 174.55 141.05 174.55 141.05C181.34 139.86 190.66 135.13 198.79 133.18C207.64 131.06 203.15 131.42 209.6 130.82C216.66 130.16 216.63 129.08 220.71 127.1C222.43 126.27 224.3 123.88 225.88 121.4C229.61 118.26 233.28 111.63 233.39 111.41C233.41 111.4 233.42 111.39 233.43 111.37C233.92 111.04 239.58 107.28 238.46 107.85C237.29 108.45 231.98 105.9 234.77 106.35C237.56 106.8 240.08 99.9799 239.18 101.85C238.28 103.72 233.33 98.9999 236.12 99.5299H236.11Z" fill="#B39EA6"/>
<path d="M101.18 82.5205C101.18 82.5205 101.41 82.5305 101.77 82.5305C101.42 82.5205 101.18 82.5205 101.18 82.5205Z" fill="#B39EA6"/>
<path d="M161.62 81.7L156.68 76.42C156.68 76.42 156.6 79.19 156.68 80.7C156.76 82.21 149.89 81.45 140.25 83.21C130.61 84.97 122.73 81.87 122.73 81.87L114.93 77.51C107.13 73.15 104.2 77.51 104.2 77.51C104.2 77.51 105.5 77.91 106.25 78.8C102.87 78.7 101.5 80.48 101.5 80.48C101.5 80.48 103.61 81.04 104 82.34C103.16 82.49 102.32 82.52 101.78 82.53C102.39 82.55 103.34 82.63 104.07 82.87C104.07 82.97 104.05 83.08 104.02 83.19C103.62 84.69 100.42 84.85 99.08 84.86C99.95 84.89 101.54 85.02 102.13 85.51C100.29 86.04 98.26 86.37 98.26 86.37C98.26 86.37 99.81 86.53 101.39 86.81C99.52 87.64 95.55 88.2 95.55 88.2C95.55 88.2 100.76 88.66 101.82 89.41C99.34 90.14 96.16 90.77 96.16 90.77C96.16 90.77 97.65 90.72 99.41 90.77C96.89 91.43 93.45 92.03 93.45 92.03C93.45 92.03 99.8 91.85 101.76 92.56C98.77 92.76 94.81 92.7 94.81 92.7C94.81 92.7 96.59 93.11 97.76 93.64C95.04 93.74 92.1 93.7 92.1 93.7C92.1 93.7 95.01 94.29 95.85 94.93C93.98 94.73 92.15 94.42 93.49 95.68C91.42 95.51 89.15 95.1 91.01 96.48C93.78 98.5201 96.46 107.64 98.78 109.7C99.8 110.61 101.63 112.26 104.17 114.1C104.23 114.03 104.28 113.96 104.34 113.89C107.61 116.94 112.91 121.21 119.89 123.86C129.55 127.53 152.82 134.93 152.82 134.93L145.68 124.19L141.83 111.39L160.34 99.32C160.34 99.32 160.02 94.71 160.94 91.36C161.86 88.01 161.61 81.72 161.61 81.72L161.62 81.7Z" fill="#B39EA6"/>
<path d="M145.96 124.23L135.52 124.86C135.52 124.86 131.62 125.11 127.35 121.34C123.08 117.57 118.67 104.99 130.12 104.37C130.12 104.37 137.92 93.8096 143.83 91.6696C149.74 89.5296 155.9 85.8896 160.55 96.0696C165.2 106.25 148.48 115.81 147.72 122.22C147.72 122.22 147.49 124.25 146.34 124.26L145.96 124.23Z" fill="#3C2F33"/>
<path d="M175.75 98.7696C175.71 97.7296 175.64 96.6896 176.02 95.7196C177.21 92.6696 180.06 85.9896 182 86.3796C184.51 86.8796 206.6 96.9796 212.89 110.35C212.89 110.35 216.79 114.25 208.2 120.37C199.61 126.49 198.9 127.29 190.93 123.72C190.93 123.72 188.12 118.98 186.82 117.14C185.52 115.3 180.57 108.76 178.61 106.7C177.21 105.24 175.87 101.47 175.75 98.7596V98.7696Z" fill="#3C2F33"/>
<path d="M161.63 113.279C161.63 113.279 165.82 116.809 162.3 120.279C158.78 123.759 153.46 136.579 168.67 136.209C168.67 136.209 186.32 136.879 178.6 123.129C178.6 123.129 173.19 118.509 175.37 113.279C177.55 108.049 177.86 103.839 180.49 108.899C180.49 108.899 194.44 123.599 189.99 127.329C189.99 127.329 184.86 141.309 170.54 141.619C156.08 141.939 151.26 134.749 147.28 126.619C147.28 126.619 144.81 122.279 154.16 112.879C154.16 112.879 157.05 111.299 158.01 108.169C158.97 105.039 160.44 105.039 160.73 111.069L161.61 113.289L161.63 113.279Z" fill="#F3F0F2"/>
<path d="M156.8 101.849C156.8 101.849 152.02 88.8993 144.79 96.9493C144.79 96.9493 141.77 108.859 156.39 102.419L156.8 101.849Z" fill="#171511"/>
<path d="M147.13 96.33C147.13 96.33 151.14 92.83 152.62 97.76L147.13 96.33Z" fill="#E3E2DE"/>
<path d="M179.76 101.719C179.76 101.719 184.44 88.7695 191.52 96.8195C191.52 96.8195 194.47 108.729 180.16 102.289L179.76 101.719Z" fill="#171511"/>
<path d="M189.23 96.2001C189.23 96.2001 185.31 92.7001 183.85 97.6301L189.23 96.2001Z" fill="#E3E2DE"/>
<path d="M158.89 127.549C158.89 127.549 157.08 135.419 164.99 135.949C172.9 136.479 177.48 136.329 179.41 132.869C181.34 129.409 180.03 126.769 180.03 126.769C180.03 126.769 179.94 123.579 177.48 124.909C175.02 126.239 164.99 127.579 162.72 126.109C161.52 125.329 160.83 124.859 160.21 125.329C159.32 126.009 158.88 127.549 158.88 127.549H158.89Z" fill="#3C2F33"/>
<path d="M160.58 127.03C160.58 127.03 163.73 132.29 165.76 130.1C167.79 127.91 162.1 127.51 161.18 127.03C160.26 126.55 160.58 127.03 160.58 127.03Z" fill="#050301"/>
<path d="M178.53 126.95C178.53 126.95 175.94 132.21 174.27 130.02C172.6 127.83 177.29 127.43 178.04 126.95C178.79 126.47 178.53 126.95 178.53 126.95Z" fill="#050301"/>
<path d="M233.51 185.64H97.51C94.6105 185.64 92.26 187.99 92.26 190.89V190.9C92.26 193.799 94.6105 196.15 97.51 196.15H233.51C236.41 196.15 238.76 193.799 238.76 190.9V190.89C238.76 187.99 236.41 185.64 233.51 185.64Z" fill="#B39EA6"/>
<path d="M430 224.221V203.794H440.301C442.089 203.794 443.694 204.057 445.116 204.582C446.539 205.107 447.75 205.844 448.764 206.785C449.778 207.726 450.551 208.821 451.099 210.053C451.646 211.286 451.916 212.607 451.916 214.008C451.916 215.408 451.646 216.758 451.099 217.991C450.551 219.224 449.778 220.311 448.764 221.245C447.75 222.179 446.532 222.908 445.102 223.433C443.672 223.959 442.074 224.221 440.301 224.221H430ZM436.303 220.34L435.224 218.852H440.155C441.009 218.852 441.775 218.713 442.446 218.443C443.117 218.173 443.679 217.809 444.124 217.349C444.569 216.889 444.905 216.379 445.131 215.802C445.357 215.226 445.466 214.628 445.466 214.008C445.466 213.388 445.357 212.789 445.131 212.213C444.905 211.637 444.569 211.126 444.11 210.666C443.65 210.207 443.095 209.842 442.432 209.572C441.768 209.302 441.009 209.163 440.155 209.163H435.136L436.303 207.734V220.34Z" fill="black"/>
<path d="M466.623 224.513C464.559 224.513 462.779 224.163 461.268 223.463C459.758 222.762 458.606 221.799 457.796 220.574C456.986 219.348 456.585 217.955 456.585 216.401C456.585 215.197 456.826 214.088 457.3 213.089C457.774 212.089 458.438 211.228 459.284 210.521C460.13 209.813 461.115 209.258 462.232 208.872C463.348 208.485 464.544 208.288 465.806 208.288C467.068 208.288 468.309 208.485 469.41 208.886C470.512 209.288 471.46 209.842 472.27 210.564C473.08 211.287 473.693 212.14 474.123 213.132C474.554 214.124 474.743 215.212 474.707 216.401L474.678 217.685H460.174L459.503 214.621H469.979L469.425 215.438V214.912C469.403 214.504 469.242 214.146 468.929 213.847C468.615 213.548 468.207 213.307 467.689 213.132C467.171 212.957 466.587 212.87 465.923 212.87C465.186 212.87 464.515 212.986 463.909 213.22C463.304 213.453 462.837 213.796 462.494 214.256C462.151 214.715 461.983 215.27 461.983 215.934C461.983 216.634 462.195 217.262 462.611 217.816C463.027 218.37 463.654 218.815 464.479 219.144C465.303 219.472 466.295 219.64 467.44 219.64C468.491 219.64 469.337 219.538 469.979 219.333C470.621 219.129 471.125 218.91 471.497 218.677L474.094 222.354C473.313 222.879 472.525 223.295 471.716 223.609C470.906 223.922 470.081 224.149 469.235 224.294C468.389 224.44 467.521 224.513 466.623 224.513Z" fill="black"/>
<path d="M481.302 224.221V208.609H486.788L487.138 214.241L485.504 213.979C485.774 212.906 486.248 211.943 486.92 211.09C487.591 210.236 488.386 209.55 489.312 209.047C490.239 208.543 491.224 208.288 492.274 208.288C492.836 208.288 493.383 208.339 493.909 208.449C494.434 208.558 494.901 208.697 495.309 208.872L493.675 215.35C493.361 215.117 492.902 214.92 492.289 214.766C491.676 214.613 491.049 214.533 490.407 214.533C489.86 214.533 489.393 214.613 488.991 214.766C488.59 214.92 488.262 215.139 487.999 215.423C487.737 215.708 487.54 216.014 487.416 216.357C487.292 216.7 487.226 217.072 487.226 217.48V224.221H481.302Z" fill="black"/>
<path d="M501.583 224.221V208.609H507.07L507.303 211.702L506.311 211.148C506.683 210.703 507.092 210.302 507.551 209.951C508.011 209.601 508.5 209.302 509.025 209.047C509.55 208.791 510.119 208.602 510.732 208.478C511.345 208.354 512.001 208.288 512.702 208.288C513.497 208.288 514.256 208.39 514.963 208.594C515.671 208.799 516.299 209.178 516.846 209.733C517.393 210.287 517.838 211.06 518.188 212.053L516.962 211.965L517.225 211.556C517.597 211.053 518.02 210.601 518.509 210.214C518.998 209.827 519.523 209.485 520.099 209.193C520.676 208.901 521.296 208.675 521.967 208.522C522.638 208.368 523.346 208.288 524.083 208.288C525.622 208.288 526.877 208.573 527.862 209.134C528.847 209.696 529.562 210.469 530.007 211.44C530.452 212.41 530.678 213.519 530.678 214.766V224.221H524.754V215.408C524.754 214.978 524.666 214.599 524.491 214.256C524.316 213.913 524.061 213.636 523.718 213.424C523.375 213.213 522.952 213.103 522.449 213.103C521.945 213.103 521.515 213.176 521.106 213.322C520.698 213.468 520.34 213.665 520.041 213.92C519.742 214.176 519.509 214.467 519.341 214.81C519.173 215.153 519.093 215.525 519.093 215.934V224.221H513.169V215.408C513.169 214.978 513.074 214.584 512.877 214.227C512.68 213.869 512.388 213.592 511.987 213.395C511.586 213.198 511.068 213.103 510.426 213.103C509.995 213.103 509.601 213.183 509.229 213.351C508.857 213.519 508.551 213.723 508.295 213.979C508.04 214.234 507.85 214.504 507.712 214.796C507.573 215.087 507.507 215.35 507.507 215.584V224.221H501.583Z" fill="black"/>
<path d="M544.802 224.484C543.204 224.484 541.811 224.141 540.614 223.448C539.418 222.755 538.491 221.807 537.828 220.603C537.164 219.399 536.835 218.006 536.835 216.43C536.835 214.854 537.164 213.424 537.828 212.198C538.491 210.973 539.411 210.017 540.6 209.324C541.789 208.631 543.197 208.288 544.831 208.288C545.729 208.288 546.546 208.398 547.283 208.609C548.019 208.821 548.676 209.105 549.252 209.455C549.829 209.806 550.31 210.2 550.711 210.637C551.113 211.075 551.39 211.498 551.543 211.907L550.23 212.053V208.609H556.037V224.221H550.084V220.078L551.339 220.428C551.222 220.953 550.974 221.456 550.595 221.945C550.215 222.434 549.741 222.865 549.179 223.244C548.618 223.623 547.961 223.922 547.224 224.149C546.487 224.375 545.678 224.484 544.802 224.484ZM546.436 219.669C547.253 219.669 547.946 219.538 548.508 219.275C549.07 219.012 549.5 218.64 549.792 218.152C550.084 217.663 550.23 217.094 550.23 216.43C550.23 215.73 550.084 215.139 549.792 214.65C549.5 214.161 549.07 213.789 548.508 213.526C547.946 213.264 547.253 213.132 546.436 213.132C545.619 213.132 544.955 213.264 544.394 213.526C543.832 213.789 543.394 214.161 543.095 214.65C542.796 215.139 542.643 215.73 542.643 216.43C542.643 217.094 542.796 217.663 543.095 218.152C543.394 218.64 543.832 219.012 544.394 219.275C544.955 219.538 545.641 219.669 546.436 219.669Z" fill="black"/>
<path d="M563.887 224.221V203.794H570.19V224.221H563.887ZM568.06 219.027L566.017 214.329L578.186 203.794H585.628L568.06 219.027ZM578.828 224.221L570.803 214.212L574.655 210.418L586.124 224.221H578.828Z" fill="black"/>
<path d="M591.377 224.221V208.609H596.863L597.155 212.403L595.754 212.811C595.965 211.972 596.381 211.214 596.994 210.535C597.607 209.857 598.388 209.309 599.343 208.901C600.299 208.492 601.357 208.288 602.524 208.288C603.888 208.288 605.041 208.565 605.997 209.12C606.953 209.674 607.682 210.44 608.185 211.425C608.689 212.41 608.944 213.541 608.944 214.825V224.221H603.02V215.875C603.02 215.314 602.911 214.818 602.685 214.402C602.458 213.986 602.137 213.658 601.722 213.424C601.306 213.191 600.81 213.074 600.248 213.074C599.759 213.074 599.336 213.154 598.964 213.322C598.592 213.49 598.285 213.709 598.03 213.979C597.775 214.249 597.592 214.54 597.476 214.854C597.359 215.168 597.301 215.474 597.301 215.788V224.221H591.377Z" fill="black"/>
<path d="M620.238 205.603C619.187 205.603 618.363 205.362 617.772 204.873C617.181 204.385 616.882 203.699 616.882 202.801C616.882 201.984 617.181 201.313 617.772 200.788C618.363 200.263 619.187 200 620.238 200C621.288 200 622.113 200.241 622.704 200.73C623.294 201.218 623.594 201.904 623.594 202.801C623.594 203.619 623.294 204.29 622.689 204.815C622.083 205.34 621.266 205.603 620.238 205.603ZM617.261 224.221V208.609H623.185V224.221H617.261Z" fill="black"/>
<path d="M640.257 230.933C638.469 230.933 636.835 230.729 635.369 230.321C633.902 229.912 632.698 229.416 631.765 228.832L633.749 224.776C634.194 224.987 634.683 225.206 635.208 225.418C635.733 225.63 636.324 225.805 636.974 225.943C637.623 226.082 638.367 226.147 639.206 226.147C640.14 226.147 640.935 225.994 641.584 225.681C642.234 225.367 642.73 224.915 643.058 224.309C643.386 223.703 643.554 222.93 643.554 221.974V220.282L644.867 220.399C644.692 221.041 644.276 221.617 643.627 222.135C642.978 222.653 642.161 223.054 641.176 223.346C640.191 223.638 639.118 223.784 637.951 223.784C636.412 223.784 635.055 223.477 633.866 222.865C632.677 222.252 631.757 221.384 631.108 220.253C630.459 219.122 630.13 217.801 630.13 216.284C630.13 214.686 630.473 213.293 631.152 212.096C631.83 210.9 632.771 209.966 633.968 209.295C635.164 208.624 636.55 208.288 638.126 208.288C638.63 208.288 639.184 208.332 639.775 208.419C640.366 208.507 640.957 208.646 641.541 208.843C642.124 209.04 642.657 209.273 643.146 209.557C643.634 209.842 644.036 210.17 644.357 210.55C644.678 210.929 644.86 211.345 644.897 211.79L643.7 212.053L644.021 208.609H649.507V222.062C649.507 223.521 649.274 224.805 648.807 225.914C648.34 227.023 647.683 227.949 646.837 228.701C645.991 229.452 645.006 230.007 643.875 230.379C642.744 230.751 641.541 230.933 640.257 230.933ZM639.936 219.552C640.716 219.552 641.387 219.428 641.949 219.173C642.511 218.918 642.949 218.553 643.248 218.064C643.547 217.575 643.7 217.006 643.7 216.342C643.7 215.678 643.554 215.08 643.262 214.606C642.97 214.132 642.54 213.76 641.978 213.497C641.417 213.234 640.731 213.103 639.936 213.103C639.097 213.103 638.382 213.234 637.791 213.497C637.2 213.76 636.74 214.132 636.419 214.606C636.098 215.08 635.938 215.664 635.938 216.342C635.938 217.021 636.098 217.575 636.419 218.064C636.74 218.553 637.2 218.918 637.791 219.173C638.382 219.428 639.097 219.552 639.936 219.552Z" fill="black"/>
<path d="M657.678 224.221V202.626H663.456V212.402L661.997 212.956C662.194 212.059 662.61 211.271 663.252 210.578C663.894 209.885 664.696 209.331 665.659 208.915C666.622 208.499 667.666 208.287 668.797 208.287C670.197 208.287 671.372 208.572 672.328 209.134C673.283 209.695 674.006 210.469 674.502 211.439C674.998 212.409 675.246 213.518 675.246 214.766V224.221H669.322V215.962C669.322 215.357 669.212 214.846 668.986 214.416C668.76 213.985 668.446 213.664 668.038 213.438C667.629 213.212 667.133 213.095 666.55 213.073C666.119 213.073 665.725 213.146 665.353 213.292C664.981 213.438 664.667 213.642 664.405 213.905C664.142 214.167 663.945 214.467 663.806 214.809C663.668 215.152 663.602 215.546 663.602 215.991V224.221H657.678Z" fill="black"/>
<path d="M681.141 213.569V208.609H694.36V213.569H681.141ZM684.555 224.221V204.173H690.479V224.221H684.555Z" fill="black"/>
<path d="M673.47 77.4C672.88 65.04 669.07 81.24 669.07 81.24C669.07 81.24 671.16 55.7 664.97 79.98C664.97 79.98 662.51 56.69 661.16 79.98C661.16 79.98 659.4 90.12 657.35 81.24C655.3 72.36 652.37 69.8 654.13 84.12C655.89 98.44 603.44 116.02 603.44 116.02L559.79 118.48L511.59 115.76C511.59 115.76 459.14 98.18 460.9 83.86C462.66 69.54 459.73 72.1 457.68 80.98C455.63 89.86 453.87 79.72 453.87 79.72C452.53 56.43 450.06 79.72 450.06 79.72C443.87 55.44 445.96 80.98 445.96 80.98C445.96 80.98 442.15 64.77 441.56 77.14C440.97 89.5 450.75 98.9499 450.75 98.9499C498.7 140.79 492.32 189.33 492.32 189.33L550.77 188.22L622.71 189.59C622.71 189.59 616.33 141.05 664.28 99.21C664.28 99.21 674.05 89.76 673.47 77.4Z" fill="#644E57"/>
<path d="M557.74 45.4496C557.32 45.5096 556.91 45.6096 556.52 45.7696C553.93 46.7796 540.71 50.3796 519.6 29.7196C497.34 7.93964 497.16 54.5996 505.19 66.4196C505.99 67.5996 505.94 69.1496 505.05 70.2596C499.24 77.4996 481.67 102.03 498.48 115.22C518.35 130.81 539.72 129.05 548.27 137.35C556.82 145.65 574.17 137.35 574.17 137.35C574.17 137.35 589.93 130.98 601.58 130.81C614.73 130.63 641.38 99.8996 613.24 75.9096C612.28 75.0896 612.3 73.6096 613.29 72.8196C616.88 69.9496 623.82 61.9496 624.94 42.5396C626.46 16.3996 599.11 21.3096 581.73 43.3796C581.31 43.9096 580.78 44.3496 580.17 44.6396C577.88 45.7396 571.68 47.7396 560.34 45.0496L557.74 45.4396V45.4496Z" fill="#644E57"/>
<path d="M589.64 49.5393C589.4 49.2293 602.88 69.6193 607.5 69.5293C611.92 69.4393 630.43 31.9093 614.54 31.4293C600.02 30.9893 591.32 53.1593 589.64 49.5393Z" fill="#81646F"/>
<path d="M530.63 50.8793C530.87 50.6193 516.94 67.6893 513.05 67.0693C509.33 66.4793 498.4 30.0593 511.87 31.4593C524.19 32.7393 528.75 53.9893 530.62 50.8793H530.63Z" fill="#81646F"/>
<path d="M628.11 99.5299C630.16 99.9199 631.87 96.0899 632.49 94.6599C631.2 95.6699 624.78 94.1799 626.85 93.9099C629.1 93.6099 632.7 88.8799 632.7 88.8799L627.57 90.5899C628.13 89.8199 628.49 89.2499 628.49 89.2499L627.2 89.7599L628.65 88.3599L624.52 88.5099C624.52 88.5099 629.19 80.2599 626.58 83.8599C625.68 85.1099 623.8 86.1599 621.71 86.9999C622.84 84.5399 624.49 80.7999 622.78 83.6399C620.35 87.6599 610.37 89.8399 610.04 89.8399C609.71 89.8399 597.47 88.8299 592.19 85.7299C586.91 82.6299 585.9 85.3899 582.47 84.5599C579.03 83.7199 575.6 80.6999 573.92 82.5199C572.24 84.3399 570.9 75.4199 570.9 75.4199C566.21 82.6299 567.65 97.1299 567.65 97.1299L567.76 98.7699C567.71 104.18 575.52 111.22 580.05 118.37C584.58 125.52 582.86 125.72 578.38 131.95C573.9 138.17 566.55 141.05 566.55 141.05C573.34 139.86 582.66 135.13 590.79 133.18C599.64 131.06 595.15 131.42 601.6 130.82C608.66 130.16 608.63 129.08 612.71 127.1C614.43 126.27 616.3 123.88 617.88 121.4C621.61 118.26 625.28 111.63 625.39 111.41C625.41 111.4 625.42 111.39 625.43 111.37C625.92 111.04 631.58 107.28 630.46 107.85C629.29 108.45 623.98 105.9 626.77 106.35C629.56 106.8 632.08 99.9799 631.18 101.85C630.28 103.72 625.33 98.9999 628.12 99.5299H628.11Z" fill="#B39EA6"/>
<path d="M493.18 82.5205C493.18 82.5205 493.41 82.5305 493.77 82.5305C493.42 82.5205 493.18 82.5205 493.18 82.5205Z" fill="#B39EA6"/>
<path d="M553.62 81.7L548.68 76.42C548.68 76.42 548.6 79.19 548.68 80.7C548.76 82.21 541.89 81.45 532.25 83.21C522.61 84.97 514.73 81.87 514.73 81.87L506.93 77.51C499.13 73.15 496.2 77.51 496.2 77.51C496.2 77.51 497.5 77.91 498.25 78.8C494.87 78.7 493.5 80.48 493.5 80.48C493.5 80.48 495.61 81.04 496 82.34C495.16 82.49 494.32 82.52 493.78 82.53C494.39 82.55 495.34 82.63 496.07 82.87C496.07 82.97 496.05 83.08 496.02 83.19C495.62 84.69 492.42 84.85 491.08 84.86C491.95 84.89 493.54 85.02 494.13 85.51C492.29 86.04 490.26 86.37 490.26 86.37C490.26 86.37 491.81 86.53 493.39 86.81C491.52 87.64 487.55 88.2 487.55 88.2C487.55 88.2 492.76 88.66 493.82 89.41C491.34 90.14 488.16 90.77 488.16 90.77C488.16 90.77 489.65 90.72 491.41 90.77C488.89 91.43 485.45 92.03 485.45 92.03C485.45 92.03 491.8 91.85 493.76 92.56C490.77 92.76 486.81 92.7 486.81 92.7C486.81 92.7 488.59 93.11 489.76 93.64C487.04 93.74 484.1 93.7 484.1 93.7C484.1 93.7 487.01 94.29 487.85 94.93C485.98 94.73 484.15 94.42 485.49 95.68C483.42 95.51 481.15 95.1 483.01 96.48C485.78 98.5201 488.46 107.64 490.78 109.7C491.8 110.61 493.63 112.26 496.17 114.1C496.23 114.03 496.28 113.96 496.34 113.89C499.61 116.94 504.91 121.21 511.89 123.86C521.55 127.53 544.82 134.93 544.82 134.93L537.68 124.19L533.83 111.39L552.34 99.32C552.34 99.32 552.02 94.71 552.94 91.36C553.86 88.01 553.61 81.72 553.61 81.72L553.62 81.7Z" fill="#B39EA6"/>
<path d="M537.96 124.23L527.52 124.86C527.52 124.86 523.62 125.11 519.35 121.34C515.08 117.57 510.67 104.99 522.12 104.37C522.12 104.37 529.92 93.8096 535.83 91.6696C541.74 89.5296 547.9 85.8896 552.55 96.0696C557.2 106.25 540.48 115.81 539.72 122.22C539.72 122.22 539.49 124.25 538.34 124.26L537.96 124.23Z" fill="#3C2F33"/>
<path d="M567.75 98.7696C567.71 97.7296 567.64 96.6896 568.02 95.7196C569.21 92.6696 572.06 85.9896 574 86.3796C576.51 86.8796 598.6 96.9796 604.89 110.35C604.89 110.35 608.79 114.25 600.2 120.37C591.61 126.49 590.9 127.29 582.93 123.72C582.93 123.72 580.12 118.98 578.82 117.14C577.52 115.3 572.57 108.76 570.61 106.7C569.21 105.24 567.87 101.47 567.75 98.7596V98.7696Z" fill="#3C2F33"/>
<path d="M553.63 113.279C553.63 113.279 557.82 116.809 554.3 120.279C550.78 123.759 545.46 136.579 560.67 136.209C560.67 136.209 578.32 136.879 570.6 123.129C570.6 123.129 565.19 118.509 567.37 113.279C569.55 108.049 569.86 103.839 572.49 108.899C572.49 108.899 586.44 123.599 581.99 127.329C581.99 127.329 576.86 141.309 562.54 141.619C548.08 141.939 543.26 134.749 539.28 126.619C539.28 126.619 536.81 122.279 546.16 112.879C546.16 112.879 549.05 111.299 550.01 108.169C550.97 105.039 552.44 105.039 552.73 111.069L553.61 113.289L553.63 113.279Z" fill="#F3F0F2"/>
<path d="M548.8 101.849C548.8 101.849 544.02 88.8993 536.79 96.9493C536.79 96.9493 533.77 108.859 548.39 102.419L548.8 101.849Z" fill="#171511"/>
<path d="M539.13 96.33C539.13 96.33 543.14 92.83 544.62 97.76L539.13 96.33Z" fill="#E3E2DE"/>
<path d="M571.76 101.719C571.76 101.719 576.44 88.7695 583.52 96.8195C583.52 96.8195 586.47 108.729 572.16 102.289L571.76 101.719Z" fill="#171511"/>
<path d="M581.23 96.2001C581.23 96.2001 577.31 92.7001 575.85 97.6301L581.23 96.2001Z" fill="#E3E2DE"/>
<path d="M550.89 127.549C550.89 127.549 549.08 135.419 556.99 135.949C564.9 136.479 569.48 136.329 571.41 132.869C573.34 129.409 572.03 126.769 572.03 126.769C572.03 126.769 571.94 123.579 569.48 124.909C567.02 126.239 556.99 127.579 554.72 126.109C553.52 125.329 552.83 124.859 552.21 125.329C551.32 126.009 550.88 127.549 550.88 127.549H550.89Z" fill="#3C2F33"/>
<path d="M552.58 127.03C552.58 127.03 555.73 132.29 557.76 130.1C559.79 127.91 554.1 127.51 553.18 127.03C552.26 126.55 552.58 127.03 552.58 127.03Z" fill="#050301"/>
<path d="M570.53 126.95C570.53 126.95 567.94 132.21 566.27 130.02C564.6 127.83 569.29 127.43 570.04 126.95C570.79 126.47 570.53 126.95 570.53 126.95Z" fill="#050301"/>
<path d="M625.51 185.64H489.51C486.611 185.64 484.26 187.99 484.26 190.89V190.9C484.26 193.799 486.611 196.15 489.51 196.15H625.51C628.41 196.15 630.76 193.799 630.76 190.9V190.89C630.76 187.99 628.41 185.64 625.51 185.64Z" fill="#B39EA6"/>
<rect x="403" y="23" width="297" height="229" fill="white" fill-opacity="0.7"/>
<g clip-path="url(#clip2_3119_1664)">
<path d="M166.798 355.079C166.255 355.16 165.718 355.294 165.205 355.493C161.81 356.816 144.489 361.527 116.842 334.48C87.6836 305.959 87.4386 367.054 97.963 382.533C99.0073 384.072 98.9431 386.107 97.7822 387.559C90.1689 397.039 67.1541 429.158 89.1713 446.421C115.196 466.833 143.199 464.53 154.4 475.391C165.602 486.259 188.331 475.391 188.331 475.391C188.331 475.391 208.983 467.048 224.238 466.833C241.466 466.588 276.37 426.365 239.512 394.963C238.251 393.891 238.281 391.949 239.576 390.917C244.278 387.157 253.361 376.691 254.843 351.271C256.832 317.042 221.006 323.485 198.237 352.373C197.688 353.073 196.988 353.639 196.189 354.023C193.184 355.458 185.064 358.087 170.216 354.566L166.803 355.079H166.798Z" fill="#644E57"/>
<path d="M208.592 360.437C208.283 360.034 225.93 386.731 231.98 386.609C237.767 386.492 262.019 337.355 241.203 336.731C222.173 336.16 210.785 365.177 208.586 360.437H208.592Z" fill="#81646F"/>
<path d="M131.281 362.197C131.59 361.865 113.347 384.206 108.254 383.396C103.383 382.62 89.0605 334.946 106.714 336.777C122.851 338.456 128.83 366.272 131.281 362.197Z" fill="#81646F"/>
<path d="M258.985 425.887C261.669 426.394 263.909 421.386 264.72 419.509C263.034 420.832 254.616 418.885 257.334 418.518C260.28 418.127 264.994 411.93 264.994 411.93L258.268 414.163C258.997 413.148 259.469 412.408 259.469 412.408L257.783 413.078L259.691 411.253L254.277 411.451C254.277 411.451 260.397 400.648 256.978 405.365C255.794 406.997 253.332 408.373 250.602 409.469C252.078 406.251 254.242 401.359 252.002 405.067C248.817 410.338 235.749 413.189 235.311 413.189C234.874 413.189 218.836 411.871 211.923 407.813C205.004 403.756 203.685 407.376 199.182 406.274C194.678 405.178 190.174 401.225 187.981 403.61C185.787 405.994 184.025 394.311 184.025 394.311C177.876 403.75 179.761 422.733 179.761 422.733L179.901 424.879C179.836 431.962 190.063 441.174 195.996 450.537C201.929 459.907 199.678 460.163 193.803 468.308C187.928 476.453 178.314 480.219 178.314 480.219C187.21 478.662 199.427 472.471 210.062 469.917C221.654 467.136 215.779 467.614 224.227 466.827C233.479 465.964 233.438 464.542 238.788 461.959C241.046 460.869 243.485 457.749 245.556 454.502C250.444 450.386 255.246 441.705 255.397 441.431C255.415 441.413 255.438 441.396 255.456 441.384C256.103 440.952 263.507 436.032 262.042 436.784C260.508 437.571 253.554 434.23 257.212 434.819C260.864 435.408 264.166 426.47 262.987 428.931C261.809 431.391 255.327 425.199 258.979 425.887H258.985Z" fill="#B39EA6"/>
<path d="M82.2231 403.615C82.2231 403.615 82.5206 403.633 82.9932 403.627C82.5323 403.609 82.2231 403.615 82.2231 403.615Z" fill="#B39EA6"/>
<path d="M161.395 402.548L154.92 395.634C154.92 395.634 154.809 399.254 154.92 401.231C155.03 403.207 146.023 402.216 133.398 404.525C120.774 406.834 110.448 402.77 110.448 402.77L100.232 397.062C90.0172 391.354 86.1785 397.062 86.1785 397.062C86.1785 397.062 87.8762 397.587 88.8621 398.753C84.44 398.625 82.6373 400.957 82.6373 400.957C82.6373 400.957 85.3967 401.697 85.916 403.394C84.8134 403.592 83.7107 403.633 82.999 403.639C83.7924 403.668 85.0467 403.773 85.9976 404.082C85.986 404.216 85.9685 404.356 85.9335 404.502C85.4142 406.461 81.2138 406.676 79.4578 406.682C80.6013 406.723 82.684 406.886 83.454 407.527C81.0446 408.227 78.3902 408.653 78.3902 408.653C78.3902 408.653 80.4204 408.857 82.4973 409.224C80.047 410.314 74.849 411.043 74.849 411.043C74.849 411.043 81.6747 411.644 83.0632 412.623C79.8137 413.573 75.6483 414.407 75.6483 414.407C75.6483 414.407 77.6026 414.343 79.907 414.401C76.6109 415.27 72.1012 416.051 72.1012 416.051C72.1012 416.051 80.4146 415.824 82.9932 416.739C79.0844 417.007 73.8922 416.926 73.8922 416.926C73.8922 416.926 76.22 417.468 77.7601 418.162C74.1956 418.296 70.3452 418.243 70.3452 418.243C70.3452 418.243 74.1606 419.019 75.2574 419.853C72.8071 419.596 70.4036 419.188 72.1654 420.832C69.4526 420.611 66.4832 420.074 68.9159 421.876C72.5388 424.552 76.0566 436.492 79.0961 439.186C80.4379 440.375 82.824 442.538 86.161 444.94C86.2368 444.847 86.3068 444.759 86.3827 444.666C90.6706 448.666 97.6013 454.251 106.755 457.726C119.414 462.536 149.897 472.22 149.897 472.22L140.539 458.157L135.498 441.395L159.75 425.59C159.75 425.59 159.324 419.555 160.532 415.165C161.739 410.775 161.413 402.543 161.413 402.543L161.395 402.548Z" fill="#B39EA6"/>
<path d="M140.889 458.221L127.214 459.043C127.214 459.043 122.11 459.369 116.509 454.431C110.909 449.493 105.145 433.028 120.132 432.206C120.132 432.206 130.347 418.377 138.089 415.578C145.83 412.78 153.905 408.005 159.995 421.339C166.086 434.673 144.179 447.184 143.193 455.58C143.193 455.58 142.884 458.233 141.379 458.256L140.883 458.215L140.889 458.221Z" fill="#3C2F33"/>
<path d="M179.906 424.883C179.848 423.519 179.761 422.167 180.256 420.896C181.814 416.908 185.548 408.156 188.097 408.664C191.393 409.323 220.33 422.546 228.561 440.054C228.561 440.054 233.666 445.155 222.412 453.166C211.159 461.177 210.225 462.22 199.788 457.556C199.788 457.556 196.107 451.353 194.409 448.939C192.706 446.525 186.23 437.967 183.646 435.273C181.814 433.366 180.052 428.422 179.906 424.878V424.883Z" fill="#3C2F33"/>
<path d="M161.413 443.884C161.413 443.884 166.903 448.502 162.294 453.055C157.679 457.609 150.708 474.4 170.642 473.904C170.642 473.904 193.756 474.785 183.658 456.787C183.658 456.787 176.575 450.735 179.428 443.884C182.281 437.034 182.695 431.53 186.137 438.147C186.137 438.147 204.409 457.387 198.587 462.273C198.587 462.273 191.866 480.574 173.11 480.982C154.167 481.396 147.855 471.98 142.633 461.34C142.633 461.34 139.401 455.65 151.641 443.354C151.641 443.354 155.427 441.284 156.687 437.18C157.953 433.081 159.873 433.081 160.258 440.981L161.413 443.884Z" fill="#F3F0F2"/>
<path d="M155.083 428.924C155.083 428.924 148.823 411.969 139.355 422.505C139.355 422.505 135.399 438.101 154.552 429.664L155.089 428.924H155.083Z" fill="#171511"/>
<path d="M142.418 421.701C142.418 421.701 147.668 417.112 149.617 423.566Z" fill="#E3E2DE"/>
<path d="M185.169 428.749C185.169 428.749 191.294 411.795 200.57 422.33C200.57 422.33 204.438 437.926 185.694 429.489L185.169 428.749Z" fill="#171511"/>
<path d="M197.571 421.526C197.571 421.526 192.432 416.937 190.524 423.392Z" fill="#E3E2DE"/>
<path d="M157.825 462.57C157.825 462.57 155.451 472.878 165.817 473.572C176.184 474.266 182.187 474.068 184.713 469.538C187.24 465.013 185.53 461.55 185.53 461.55C185.53 461.55 185.419 457.382 182.193 459.119C178.973 460.862 165.835 462.617 162.854 460.687C161.279 459.667 160.38 459.049 159.569 459.667C158.402 460.553 157.825 462.57 157.825 462.57Z" fill="#3C2F33"/>
<path d="M160.042 461.882C160.042 461.882 164.166 468.768 166.827 465.899C169.487 463.031 162.025 462.512 160.824 461.882C159.622 461.253 160.042 461.882 160.042 461.882Z" fill="#050301"/>
<path d="M183.553 461.778C183.553 461.778 180.157 468.663 177.969 465.795C175.782 462.926 181.919 462.408 182.911 461.778C183.903 461.148 183.553 461.778 183.553 461.778Z" fill="#050301"/>
</g>
</g>
<defs>
<clipPath id="clip0_3119_1664">
<rect width="718" height="503" fill="white"/>
</clipPath>
<clipPath id="clip1_3119_1664">
<rect width="256" height="192" fill="white" transform="translate(433 268)"/>
</clipPath>
<clipPath id="clip2_3119_1664">
<rect width="197" height="154" fill="white" transform="translate(68 327)"/>
</clipPath>
</defs>
</svg>
